<?xml version="1.0" encoding="utf-8"?>
<!-- Generator: Adobe Illustrator 24.2.3, SVG Export Plug-In . SVG Version: 6.00 Build 0)  -->
<svg version="1.1" id="Layer_1" xmlns="http://www.w3.org/2000/svg" xmlns:xlink="http://www.w3.org/1999/xlink" x="0px" y="0px"
	 viewBox="0 0 183 120" style="enable-background:new 0 0 183 120;" xml:space="preserve">
<style type="text/css">
	.st0{fill:url(#SVGID_1_);fill-opacity:0.6;}
	.st1{fill-rule:evenodd;clip-rule:evenodd;fill:url(#SVGID_2_);}
	.st2{fill:none;stroke:#000000;stroke-width:0.2731;stroke-opacity:0.3;}
	.st3{fill:#3913B8;}
	.st4{fill-rule:evenodd;clip-rule:evenodd;fill:#FFFFFF;}
	.st5{clip-path:url(#SVGID_4_);}
	.st6{clip-path:url(#SVGID_6_);}
	.st7{fill:#FFFFFF;}
	.st8{clip-path:url(#SVGID_8_);}
	.st9{fill:#FFFFFF;fill-opacity:0.3;}
	.st10{clip-path:url(#SVGID_10_);}
	.st11{fill:#FFFFFF;fill-opacity:0.6;}
	.st12{clip-path:url(#SVGID_12_);}
	.st13{clip-path:url(#SVGID_14_);}
</style>
<g>
	
		<radialGradient id="SVGID_1_" cx="-1174.1644" cy="887.3077" r="1" gradientTransform="matrix(-399.869 -84.477 -72.1594 341.5639 -405301.4062 -402142.25)" gradientUnits="userSpaceOnUse">
		<stop  offset="0" style="stop-color:#FD3F33"/>
		<stop  offset="0.4583" style="stop-color:#4C00C8"/>
		<stop  offset="1" style="stop-color:#4C00C8"/>
	</radialGradient>
	<path class="st0" d="M16,0h151c8.8,0,16,7.2,16,16v88c0,8.8-7.2,16-16,16H16c-8.8,0-16-7.2-16-16V16C0,7.2,7.2,0,16,0z"/>
	<g>
		
			<linearGradient id="SVGID_2_" gradientUnits="userSpaceOnUse" x1="160.054" y1="161.0767" x2="160.054" y2="137.0408" gradientTransform="matrix(1 0 0 -1 0 172)">
			<stop  offset="0" style="stop-color:#FF5252"/>
			<stop  offset="1" style="stop-color:#FF72B6"/>
		</linearGradient>
		<path class="st1" d="M160.1,35c6.6,0,12-5.4,12-12c0-6.6-5.4-12-12-12s-12,5.4-12,12C148,29.6,153.4,35,160.1,35z"/>
	</g>
	<path class="st2" d="M160.1,35c6.6,0,12-5.4,12-12c0-6.6-5.4-12-12-12s-12,5.4-12,12C148,29.6,153.4,35,160.1,35z"/>
	<path class="st3" d="M163.8,22.4l-4.3,4.3l1.8,1.8l4.3-4.3L163.8,22.4z"/>
	<path class="st4" d="M154.7,18.1l3.8,3.8c0,0,0,0.1,0,0.1c0,0.3,0.3,0.6,0.6,0.6s0.6-0.3,0.6-0.6c0-0.3-0.3-0.6-0.6-0.6
		c0,0-0.1,0-0.1,0l-3.8-3.8l6.6,1.3h0l1.2,4.3l-2.7,2.7l-4.3-1.2L154.7,18.1z"/>
	<g>
		<defs>
			<rect id="SVGID_3_" x="10.9" y="10.9" width="59" height="81.3"/>
		</defs>
		<clipPath id="SVGID_4_">
			<use xlink:href="#SVGID_3_"  style="overflow:visible;"/>
		</clipPath>
		<g class="st5">
			<g>
				<defs>
					<rect id="SVGID_5_" x="10.9" y="10.9" width="48.6" height="13"/>
				</defs>
				<clipPath id="SVGID_6_">
					<use xlink:href="#SVGID_5_"  style="overflow:visible;"/>
				</clipPath>
				<g class="st6">
					<path class="st7" d="M14.5,21.1c1.7,0,2.7-1,2.7-2.4v-4.3h-1.4v4.2c0,0.8-0.5,1.4-1.4,1.4c-0.9,0-1.4-0.5-1.4-1.4v-4.2h-1.4
						v4.3C11.7,20.1,12.8,21.1,14.5,21.1z M18.8,20.9h1.4v-6.5h-1.4V20.9z M24.1,20.9h2.6c2,0,3.1-1.2,3.1-3.3v0
						c0-2-1.1-3.2-3.1-3.2h-2.6V20.9z M25.5,19.8v-4.3h1c1.2,0,1.9,0.8,1.9,2.1v0c0,1.4-0.7,2.2-1.9,2.2H25.5z M31.1,20.9h4.3v-1.1
						h-3v-1.7h2.8v-1.1h-2.8v-1.6h3v-1.1h-4.3V20.9z M39.2,21.1c1.6,0,2.6-0.8,2.6-2.1v0c0-1-0.6-1.6-2-1.9L39.2,17
						c-0.8-0.2-1.1-0.4-1.1-0.8v0c0-0.5,0.4-0.8,1.1-0.8c0.7,0,1.1,0.3,1.2,0.8l0,0.1h1.3l0-0.1c-0.1-1.1-1-1.9-2.5-1.9
						c-1.5,0-2.5,0.8-2.5,2v0c0,1,0.6,1.6,1.9,1.9l0.7,0.1c0.8,0.2,1.1,0.4,1.1,0.8v0c0,0.5-0.5,0.9-1.2,0.9c-0.8,0-1.3-0.3-1.3-0.8
						l0,0h-1.3l0,0.1C36.6,20.3,37.6,21.1,39.2,21.1z M43.1,20.9h1.4v-6.5h-1.4V20.9z M48.9,21.1c1.8,0,2.9-1.1,2.9-2.8v-0.8h-2.7v1
						h1.4l0,0.1c0,0.8-0.6,1.4-1.5,1.4c-1.1,0-1.8-0.9-1.8-2.3v0c0-1.4,0.7-2.3,1.7-2.3c0.8,0,1.3,0.4,1.5,1l0,0h1.4l0,0
						c-0.2-1.3-1.3-2.2-2.9-2.2c-1.9,0-3.1,1.3-3.1,3.4v0C45.8,19.8,47,21.1,48.9,21.1z M53.2,20.9h1.3v-4.2h0.1l3,4.2h1.1v-6.5
						h-1.3v4.2h-0.1l-3-4.2h-1.1V20.9z"/>
				</g>
			</g>
			<g>
				<defs>
					<rect id="SVGID_7_" x="10.9" y="52.9" width="59" height="39.3"/>
				</defs>
				<clipPath id="SVGID_8_">
					<use xlink:href="#SVGID_7_"  style="overflow:visible;"/>
				</clipPath>
				<g class="st8">
					<path class="st9" d="M12,52.9h56.8c0.6,0,1.1,0.5,1.1,1.1l0,0c0,0.6-0.5,1.1-1.1,1.1H12c-0.6,0-1.1-0.5-1.1-1.1l0,0
						C10.9,53.4,11.4,52.9,12,52.9z"/>
					<path class="st9" d="M12,59.4h29.5c0.6,0,1.1,0.5,1.1,1.1l0,0c0,0.6-0.5,1.1-1.1,1.1H12c-0.6,0-1.1-0.5-1.1-1.1l0,0
						C10.9,59.9,11.4,59.4,12,59.4z"/>
					<path class="st9" d="M12,66h40.4c0.6,0,1.1,0.5,1.1,1.1v0c0,0.6-0.5,1.1-1.1,1.1H12c-0.6,0-1.1-0.5-1.1-1.1v0
						C10.9,66.5,11.4,66,12,66z"/>
					<g>
						<defs>
							<rect id="SVGID_9_" x="10.9" y="72.5" width="45.3" height="19.7"/>
						</defs>
						<clipPath id="SVGID_10_">
							<use xlink:href="#SVGID_9_"  style="overflow:visible;"/>
						</clipPath>
						<g class="st10">
							<path class="st9" d="M12,72.5h29.5c0.6,0,1.1,0.5,1.1,1.1v0c0,0.6-0.5,1.1-1.1,1.1H12c-0.6,0-1.1-0.5-1.1-1.1v0
								C10.9,73,11.4,72.5,12,72.5z"/>
							<path class="st11" d="M13.1,87.8h41c1.2,0,2.2,1,2.2,2.2l0,0c0,1.2-1,2.2-2.2,2.2h-41c-1.2,0-2.2-1-2.2-2.2l0,0
								C10.9,88.8,11.9,87.8,13.1,87.8z"/>
						</g>
					</g>
				</g>
			</g>
		</g>
	</g>
	<g>
		<defs>
			<rect id="SVGID_11_" x="124" y="86.3" width="37.1" height="17.5"/>
		</defs>
		<clipPath id="SVGID_12_">
			<use xlink:href="#SVGID_11_"  style="overflow:visible;"/>
		</clipPath>
		<g class="st12">
			<path class="st9" d="M125.1,86.3h35c0.6,0,1.1,0.5,1.1,1.1v0c0,0.6-0.5,1.1-1.1,1.1h-35c-0.6,0-1.1-0.5-1.1-1.1v0
				C124,86.8,124.5,86.3,125.1,86.3z"/>
			<path class="st9" d="M125.1,92.9h18.6c0.6,0,1.1,0.5,1.1,1.1v0c0,0.6-0.5,1.1-1.1,1.1h-18.6c-0.6,0-1.1-0.5-1.1-1.1v0
				C124,93.4,124.5,92.9,125.1,92.9z"/>
			<g>
				<defs>
					<rect id="SVGID_13_" x="124" y="99.4" width="29" height="4.4"/>
				</defs>
				<clipPath id="SVGID_14_">
					<use xlink:href="#SVGID_13_"  style="overflow:visible;"/>
				</clipPath>
				<g class="st13">
					<path class="st11" d="M126.2,99.4h24.6c1.2,0,2.2,1,2.2,2.2l0,0c0,1.2-1,2.2-2.2,2.2h-24.6c-1.2,0-2.2-1-2.2-2.2l0,0
						C124,100.4,125,99.4,126.2,99.4z"/>
				</g>
			</g>
		</g>
	</g>
</g>
</svg>
