<svg width="183" height="120" viewBox="0 0 183 120" fill="none" xmlns="http://www.w3.org/2000/svg">
<path d="M68.8085 64.4392H12.0164C11.4132 64.4392 10.9242 64.9282 10.9242 65.5314C10.9242 66.1345 11.4132 66.6235 12.0164 66.6235H68.8085C69.4117 66.6235 69.9007 66.1345 69.9007 65.5314C69.9007 64.9282 69.4117 64.4392 68.8085 64.4392Z" fill="white" fill-opacity="0.2"/>
<path d="M41.5046 70.9922H12.0164C11.4132 70.9922 10.9242 71.4812 10.9242 72.0843C10.9242 72.6875 11.4132 73.1765 12.0164 73.1765H41.5046C42.1078 73.1765 42.5968 72.6875 42.5968 72.0843C42.5968 71.4812 42.1078 70.9922 41.5046 70.9922Z" fill="white" fill-opacity="0.2"/>
<path d="M52.4262 77.5452H12.0164C11.4132 77.5452 10.9242 78.0341 10.9242 78.6373C10.9242 79.2405 11.4132 79.7295 12.0164 79.7295H52.4262C53.0294 79.7295 53.5184 79.2405 53.5184 78.6373C53.5184 78.0341 53.0294 77.5452 52.4262 77.5452Z" fill="white" fill-opacity="0.2"/>
<path d="M41.5046 84.0981H12.0164C11.4132 84.0981 10.9242 84.5871 10.9242 85.1903C10.9242 85.7935 11.4132 86.2825 12.0164 86.2825H41.5046C42.1078 86.2825 42.5968 85.7935 42.5968 85.1903C42.5968 84.5871 42.1078 84.0981 41.5046 84.0981Z" fill="white" fill-opacity="0.2"/>
<path d="M54.0645 99.3884H13.1085C11.9021 99.3884 10.9242 100.366 10.9242 101.573C10.9242 102.779 11.9021 103.757 13.1085 103.757H54.0645C55.2708 103.757 56.2488 102.779 56.2488 101.573C56.2488 100.366 55.2708 99.3884 54.0645 99.3884Z" fill="white" fill-opacity="0.4"/>
<path d="M10.3265 28H11.7639L12.2491 26.4129H14.5571L15.0423 28H16.4843L14.208 21.4568H12.5982L10.3265 28ZM13.3646 22.7627H13.4462L14.2443 25.3882H12.562L13.3646 22.7627ZM17.5952 28H18.9646V25.9368H20.2932C21.6717 25.9368 22.5922 25.0481 22.5922 23.7013V23.6923C22.5922 22.3455 21.6717 21.4568 20.2932 21.4568H17.5952V28ZM19.9577 22.5405C20.7421 22.5405 21.2046 22.9531 21.2046 23.6968V23.7059C21.2046 24.4495 20.7421 24.8667 19.9577 24.8667H18.9646V22.5405H19.9577ZM23.8528 28H25.2222V21.4568H23.8528V28ZM29.2034 28H31.779C33.7379 28 34.8488 26.8029 34.8488 24.6898V24.6808C34.8488 22.6312 33.7243 21.4568 31.779 21.4568H29.2034V28ZM30.5728 26.8709V22.5859H31.5613C32.7494 22.5859 33.4522 23.3567 33.4522 24.7034V24.7125C33.4522 26.1091 32.772 26.8709 31.5613 26.8709H30.5728ZM36.1502 28H40.4852V26.8709H37.5196V25.2158H40.3174V24.1638H37.5196V22.5859H40.4852V21.4568H36.1502V28ZM43.6411 28H45.328L47.509 21.4568H45.9673L44.5254 26.4764H44.4437L42.9972 21.4568H41.4601L43.6411 28ZM48.629 28H52.964V26.8709H49.9984V25.2158H52.7962V24.1638H49.9984V22.5859H52.964V21.4568H48.629V28ZM54.4059 28H58.6865V26.8709H55.7753V21.4568H54.4059V28ZM62.6088 28.1678C64.5404 28.1678 65.7557 26.8437 65.7557 24.7307V24.7216C65.7557 22.6085 64.5359 21.289 62.6088 21.289C60.6816 21.289 59.4573 22.604 59.4573 24.7216V24.7307C59.4573 26.8437 60.6635 28.1678 62.6088 28.1678ZM62.6088 27.007C61.5296 27.007 60.8539 26.1137 60.8539 24.7307V24.7216C60.8539 23.334 61.5432 22.4498 62.6088 22.4498C63.6698 22.4498 64.3591 23.334 64.3591 24.7216V24.7307C64.3591 26.1137 63.6744 27.007 62.6088 27.007ZM67.0571 28H68.4265V25.9368H69.7551C71.1335 25.9368 72.054 25.0481 72.054 23.7013V23.6923C72.054 22.3455 71.1335 21.4568 69.7551 21.4568H67.0571V28ZM69.4195 22.5405C70.204 22.5405 70.6665 22.9531 70.6665 23.6968V23.7059C70.6665 24.4495 70.204 24.8667 69.4195 24.8667H68.4265V22.5405H69.4195ZM73.3146 28H74.5344V23.5472H74.6251L76.3028 28H77.1598L78.8376 23.5472H78.9283V28H80.148V21.4568H78.5791L76.7744 26.2452H76.6928L74.8835 21.4568H73.3146V28ZM81.7396 28H86.0746V26.8709H83.109V25.2158H85.9068V24.1638H83.109V22.5859H86.0746V21.4568H81.7396V28ZM87.5165 28H88.827V23.8147H88.8995L91.9286 28H93.0622V21.4568H91.7517V25.6239H91.6792L88.6592 21.4568H87.5165V28ZM96.2408 28H97.6102V22.5859H99.5737V21.4568H94.2774V22.5859H96.2408V28Z" fill="white"/>
<path fill-rule="evenodd" clip-rule="evenodd" d="M162.025 33.55C168.666 33.55 174.05 28.1662 174.05 21.525C174.05 14.8838 168.666 9.5 162.025 9.5C155.384 9.5 150 14.8838 150 21.525C150 28.1662 155.384 33.55 162.025 33.55Z" fill="#F5DE50"/>
<path d="M168.736 22.954C168.594 22.0739 168.017 21.3349 166.306 20.6455C165.711 20.3741 165.049 20.1798 164.851 19.7324C164.781 19.472 164.772 19.3253 164.816 19.1676C164.944 18.656 165.558 18.4965 166.045 18.6432C166.359 18.7477 166.656 18.9879 166.835 19.3711C167.673 18.8321 167.672 18.8357 168.257 18.4654C168.042 18.1353 167.928 17.9831 167.788 17.8419C167.284 17.2827 166.597 16.9948 165.499 17.0168C165.309 17.0406 165.117 17.0663 164.927 17.0901C164.379 17.2277 163.857 17.5137 163.55 17.8969C162.631 18.9329 162.893 20.7464 164.012 21.4927C165.113 22.3141 166.732 22.5011 166.939 23.2694C167.14 24.2101 166.243 24.5144 165.352 24.4063C164.694 24.2706 164.329 23.9387 163.934 23.3354C163.207 23.7535 163.207 23.7535 162.459 24.1807C162.637 24.5658 162.823 24.74 163.12 25.0737C164.527 26.4911 168.046 26.4214 168.677 24.2761C168.703 24.2027 168.873 23.7113 168.736 22.954ZM161.465 17.1305H159.648C159.648 18.689 159.641 20.2366 159.641 21.7952C159.641 22.7872 159.693 23.6966 159.53 23.9754C159.265 24.5236 158.576 24.4558 158.262 24.3494C157.943 24.1935 157.781 23.9717 157.592 23.6581C157.541 23.5683 157.502 23.4986 157.489 23.4931C156.996 23.792 156.505 24.0927 156.012 24.3916C156.258 24.8922 156.62 25.3267 157.083 25.6091C157.775 26.0216 158.705 26.1482 159.678 25.9263C160.311 25.7429 160.857 25.3634 161.143 24.7858C161.557 24.0285 161.468 23.1117 161.465 22.0977C161.474 20.4438 161.465 18.7899 161.465 17.1305Z" fill="#323330"/>
</svg>
