<svg width="1000" height="1000" viewBox="0 0 1000 1000" fill="none" xmlns="http://www.w3.org/2000/svg">
<path d="M0 500C0 776.142 223.858 1000 500 1000C776.142 1000 1000 776.142 1000 500C1000 223.858 776.142 0 500 0C223.858 0 0 223.858 0 500Z" fill="url(#paint0_linear_4644_25315)"/>
<path d="M499.896 158C454.824 157.986 410.472 169.3 370.919 190.9C331.366 212.501 297.882 243.696 273.547 281.614C249.212 319.533 234.807 362.959 231.657 407.898C228.507 452.837 236.713 497.846 255.521 538.786V742.246C255.538 754.724 258.743 766.991 264.832 777.884C270.921 788.777 279.692 797.936 290.314 804.492C300.936 811.048 313.058 814.784 325.529 815.347C338.001 815.909 350.41 813.279 361.58 807.705L368.911 804.041C372.061 802.626 375.476 801.894 378.93 801.894C382.384 801.894 385.799 802.626 388.95 804.041L472.77 837.504C481.454 840.665 490.657 842.157 499.896 841.9C509.256 841.879 518.533 840.14 527.266 836.771L610.842 803.309C613.992 801.893 617.407 801.161 620.861 801.161C624.315 801.161 627.73 801.893 630.881 803.309L638.212 806.972C649.326 812.519 661.669 815.152 674.08 814.624C686.492 814.096 698.566 810.425 709.168 803.954C719.771 797.483 728.555 788.426 734.695 777.632C740.835 766.838 744.13 754.662 744.271 742.246V538.786C763.078 497.846 771.284 452.837 768.134 407.898C764.984 362.959 750.579 319.533 726.244 281.614C701.909 243.696 668.426 212.501 628.873 190.9C589.32 169.3 544.968 157.986 499.896 158V158ZM499.896 206.85C551.837 206.521 602.218 224.576 642.116 257.817C682.014 291.058 708.854 337.341 717.881 388.466C726.908 439.591 717.541 492.26 691.437 537.143C665.334 582.027 624.18 616.228 575.264 633.689C526.348 651.15 472.827 650.744 424.182 632.543C375.537 614.342 334.907 579.52 309.488 534.246C284.069 488.972 275.503 436.167 285.305 385.184C295.108 334.202 322.648 288.332 363.046 255.7C401.739 224.269 450.035 207.029 499.896 206.85V206.85ZM695.396 742.246C695.383 746.41 694.306 750.501 692.266 754.131C690.227 757.762 687.292 760.811 683.742 762.989C680.192 765.167 676.143 766.402 671.981 766.576C667.819 766.75 663.681 765.858 659.961 763.984L652.63 760.321C643.353 755.686 633.197 753.073 622.834 752.652C612.471 752.231 602.137 754.012 592.514 757.878L508.938 791.34C503.132 793.652 496.66 793.652 490.854 791.34L407.278 757.878C398.566 754.409 389.285 752.587 379.908 752.505C368.533 752.536 357.322 755.212 347.161 760.321L339.83 763.984C336.11 765.858 331.972 766.75 327.81 766.576C323.648 766.402 319.6 765.167 316.05 762.989C312.499 760.811 309.565 757.762 307.525 754.131C305.486 750.501 304.408 746.41 304.396 742.246V611.084C329.523 637.696 359.825 658.898 393.443 673.389C427.06 687.879 463.285 695.354 499.896 695.354C536.506 695.354 572.731 687.879 606.349 673.389C639.966 658.898 670.268 637.696 695.396 611.084V742.246Z" fill="white"/>
<path d="M408.238 465.997L394.798 509.474C391.815 519.256 391.979 529.728 395.268 539.412C398.556 549.097 404.802 557.505 413.126 563.453C421.007 569.105 430.514 572.042 440.211 571.821C449.909 571.601 459.272 568.235 466.888 562.232L499.879 537.807L532.87 562.232C540.85 568.392 550.645 571.741 560.728 571.757C570.011 571.713 579.055 568.814 586.632 563.453C594.956 557.505 601.202 549.097 604.49 539.412C607.779 529.728 607.943 519.256 604.96 509.474L591.031 466.241L628.42 436.687C636.227 430.363 641.894 421.787 644.649 412.128C647.404 402.469 647.113 392.196 643.816 382.708C640.713 373.559 634.83 365.605 626.989 359.957C619.148 354.309 609.738 351.248 600.073 351.2H557.063L544.111 309.921C543.461 307.321 542.388 304.846 540.934 302.594C537.245 294.833 531.429 288.278 524.162 283.687C516.896 279.097 508.475 276.661 499.879 276.661C491.283 276.661 482.862 279.097 475.596 283.687C468.329 288.278 462.513 294.833 458.824 302.594C457.37 304.846 456.297 307.321 455.647 309.921L442.695 351.2H399.685C390.02 351.248 380.61 354.309 372.769 359.957C364.928 365.605 359.045 373.559 355.942 382.708C352.645 392.196 352.354 402.469 355.109 412.128C357.864 421.787 363.531 430.363 371.338 436.687L408.238 465.997ZM444.65 400.05C454.613 399.989 464.292 396.726 472.257 390.744C480.222 384.763 486.051 376.379 488.882 366.832L499.879 332.148L510.876 366.832C513.707 376.379 519.536 384.763 527.501 390.744C535.466 396.726 545.145 399.989 555.108 400.05H595.918L560.728 428.138C553.219 434.26 547.7 442.474 544.871 451.737C542.043 461 542.033 470.895 544.844 480.164L557.796 519.732L527.738 496.528C519.701 490.504 509.925 487.247 499.879 487.247C489.833 487.247 480.057 490.504 472.02 496.528L442.94 518.999L454.914 480.164C457.725 470.895 457.715 461 454.887 451.737C452.058 442.474 446.539 434.26 439.03 428.138L403.84 400.05H444.65Z" fill="white"/>
<defs>
<linearGradient id="paint0_linear_4644_25315" x1="-78.5" y1="107.5" x2="1168.5" y2="1049" gradientUnits="userSpaceOnUse">
<stop stop-color="#D83A85"/>
<stop offset="1" stop-color="#EFEA73"/>
</linearGradient>
</defs>
</svg>
