<svg width="1000" height="1000" viewBox="0 0 1000 1000" fill="none" xmlns="http://www.w3.org/2000/svg">
<rect width="1000" height="1000" rx="500" fill="url(#paint0_linear_4644_25306)"/>
<mask id="path-2-outside-1_4644_25306" maskUnits="userSpaceOnUse" x="160" y="151" width="681" height="698" fill="black">
<rect fill="white" x="160" y="151" width="681" height="698"/>
<path d="M385.063 161C356.138 160.945 327.208 171.844 305.083 194.026C260.832 238.39 260.832 310.385 305.083 354.749L484.366 534.309C485.831 535.758 487.809 536.571 489.869 536.571C491.93 536.571 493.907 535.758 495.372 534.309L674.656 354.749C718.888 310.404 719.151 238.634 674.9 194.27C674.526 193.904 674.117 193.576 673.677 193.292C629.344 150.056 558.568 150.284 514.695 194.27L489.991 219.223L465.043 194.27C442.927 172.098 413.988 161.055 385.063 161ZM385.063 176.412C409.926 176.459 434.87 186.308 454.037 205.523L484.366 235.858C485.831 237.307 487.809 238.119 489.869 238.119C491.93 238.119 493.907 237.307 495.372 235.858L525.946 205.523C564.26 167.111 625.579 167.111 663.894 205.523C664.05 205.694 664.213 205.857 664.383 206.013C702.194 244.456 701.814 305.233 663.649 343.496L489.991 517.674L316.089 343.496C277.775 305.083 277.775 243.691 316.089 205.279C335.246 186.072 360.2 176.362 385.063 176.412ZM212.873 324.415C208.93 324.511 204.996 325.405 201.377 327.106C194.14 330.507 188.729 338.058 187.925 347.41L170.559 548.009C168.473 572.264 171.229 604.945 196.241 629.961L305.572 739.311C315.862 749.603 321.583 758 321.715 770.135L322.204 821.752C322.22 822.78 322.438 823.795 322.846 824.739C323.255 825.682 323.845 826.536 324.583 827.252C325.321 827.968 326.193 828.531 327.148 828.909C328.104 829.288 329.125 829.474 330.153 829.458C331.181 829.442 332.195 829.224 333.139 828.816C334.082 828.407 334.936 827.817 335.652 827.079C336.367 826.341 336.93 825.469 337.309 824.513C337.687 823.557 337.874 822.536 337.857 821.508L337.368 769.89C337.181 752.606 328.225 739.705 316.823 728.303L207.247 618.952C186.622 598.324 184.323 571.449 186.213 549.477L203.578 348.878C204.005 343.921 205.377 342.518 207.981 341.294C210.585 340.071 215.237 339.576 220.455 341.05C230.891 343.997 242.367 353.588 245.158 366.491L263.013 448.688C263.128 449.788 263.475 450.851 264.03 451.807C264.586 452.764 265.337 453.591 266.236 454.236C267.134 454.881 268.159 455.328 269.243 455.548C270.326 455.767 271.444 455.755 272.523 455.512C273.601 455.268 274.616 454.799 275.5 454.134C276.384 453.47 277.118 452.626 277.652 451.658C278.186 450.69 278.509 449.619 278.6 448.517C278.691 447.415 278.547 446.306 278.178 445.263L260.568 363.311C256.323 343.689 240.363 330.575 224.613 326.127C220.676 325.015 216.815 324.318 212.873 324.415ZM787.411 324.415C783.469 324.318 779.364 325.015 775.426 326.127C759.677 330.575 743.961 343.689 739.716 363.311L722.106 445.263C721.737 446.306 721.593 447.415 721.684 448.517C721.775 449.619 722.098 450.69 722.632 451.658C723.166 452.626 723.9 453.47 724.784 454.134C725.668 454.799 726.682 455.268 727.761 455.512C728.84 455.755 729.958 455.767 731.041 455.548C732.125 455.328 733.15 454.881 734.048 454.236C734.947 453.591 735.698 452.764 736.254 451.807C736.809 450.851 737.156 449.788 737.27 448.688L755.125 366.491C757.917 353.588 769.393 343.997 779.829 341.05C785.047 339.576 789.699 340.071 792.303 341.294C794.907 342.518 796.279 343.921 796.705 348.878L814.071 549.477C815.961 571.449 813.417 598.324 792.792 618.952L683.461 728.303C672.059 739.705 663.103 752.606 662.916 769.89L662.182 821.508C662.166 822.536 662.352 823.557 662.731 824.513C663.109 825.469 663.672 826.341 664.388 827.079C665.103 827.817 665.957 828.407 666.9 828.816C667.844 829.224 668.858 829.442 669.886 829.458C670.914 829.474 671.935 829.288 672.891 828.909C673.847 828.531 674.718 827.968 675.457 827.252C676.195 826.536 676.785 825.682 677.193 824.739C677.601 823.795 677.819 822.78 677.835 821.752L678.569 770.135C678.701 758 684.177 749.603 694.467 739.311L803.798 629.961C828.811 604.945 831.567 572.264 829.48 548.009L812.359 347.41C811.555 338.058 806.144 330.507 798.907 327.106C795.288 325.405 791.353 324.511 787.411 324.415ZM273.531 492.722C254.817 495.225 242.66 510.718 237.821 526.97C233.051 542.989 234.38 561.489 246.871 572.227C247.052 572.384 247.173 572.56 247.36 572.717L334.922 660.295C335.612 661.151 336.473 661.851 337.451 662.352C338.429 662.852 339.501 663.142 340.598 663.2C341.695 663.259 342.792 663.086 343.818 662.693C344.844 662.3 345.776 661.695 346.552 660.919C347.329 660.142 347.934 659.21 348.327 658.184C348.72 657.158 348.893 656.061 348.834 654.964C348.775 653.866 348.486 652.794 347.985 651.816C347.485 650.838 346.784 649.976 345.929 649.287L257.877 561.219C257.721 561.049 257.558 560.885 257.388 560.73C251.61 555.991 249.399 543.661 252.985 531.618C256.209 520.793 263.461 512.38 272.797 509.601L343.238 580.056C344.621 581.397 346.45 582.18 348.375 582.257C404.006 585.088 442.228 616.532 445.232 658.583L457.461 829.581C457.542 830.609 457.823 831.611 458.291 832.53C458.759 833.449 459.402 834.267 460.186 834.937C460.97 835.607 461.877 836.116 462.858 836.435C463.838 836.755 464.872 836.878 465.9 836.797C466.927 836.717 467.929 836.435 468.848 835.967C469.767 835.5 470.585 834.856 471.255 834.072C471.925 833.288 472.434 832.38 472.753 831.4C473.072 830.419 473.195 829.385 473.115 828.357L460.885 657.359C457.315 607.386 412.016 571.703 352.533 567.335L280.135 494.923C279.278 494.072 278.237 493.43 277.091 493.048C275.945 492.666 274.727 492.554 273.531 492.722ZM724.307 492.722C722.641 492.963 721.097 493.735 719.905 494.923L647.751 567.335C588.268 571.703 542.724 607.386 539.154 657.359L527.169 828.357C526.902 829.458 526.876 830.604 527.095 831.716C527.313 832.828 527.771 833.879 528.435 834.797C529.099 835.714 529.955 836.477 530.943 837.032C531.93 837.587 533.027 837.92 534.156 838.01C535.285 838.1 536.421 837.943 537.483 837.551C538.546 837.159 539.511 836.541 540.312 835.74C541.113 834.938 541.73 833.972 542.121 832.909C542.513 831.846 542.668 830.71 542.578 829.581L554.807 658.583C557.812 616.532 596.278 585.088 651.909 582.257C653.834 582.18 655.662 581.397 657.045 580.056L727.487 509.601C736.823 512.38 744.075 520.793 747.299 531.618C750.885 543.661 748.674 555.991 742.896 560.73C742.642 560.879 742.397 561.042 742.162 561.219L654.355 649.287C653.5 649.976 652.799 650.838 652.298 651.816C651.798 652.794 651.509 653.866 651.45 654.964C651.391 656.061 651.564 657.158 651.957 658.184C652.35 659.21 652.955 660.142 653.731 660.919C654.508 661.695 655.44 662.3 656.466 662.693C657.491 663.086 658.589 663.259 659.685 663.2C660.782 663.142 661.855 662.852 662.833 662.352C663.811 661.851 664.672 661.151 665.361 660.295L752.679 572.717L753.413 572.227L753.169 571.983C765.529 561.226 766.971 542.93 762.218 526.97C757.379 510.718 745.222 495.225 726.509 492.722C725.778 492.618 725.037 492.618 724.307 492.722Z"/>
</mask>
<path d="M385.063 161C356.138 160.945 327.208 171.844 305.083 194.026C260.832 238.39 260.832 310.385 305.083 354.749L484.366 534.309C485.831 535.758 487.809 536.571 489.869 536.571C491.93 536.571 493.907 535.758 495.372 534.309L674.656 354.749C718.888 310.404 719.151 238.634 674.9 194.27C674.526 193.904 674.117 193.576 673.677 193.292C629.344 150.056 558.568 150.284 514.695 194.27L489.991 219.223L465.043 194.27C442.927 172.098 413.988 161.055 385.063 161ZM385.063 176.412C409.926 176.459 434.87 186.308 454.037 205.523L484.366 235.858C485.831 237.307 487.809 238.119 489.869 238.119C491.93 238.119 493.907 237.307 495.372 235.858L525.946 205.523C564.26 167.111 625.579 167.111 663.894 205.523C664.05 205.694 664.213 205.857 664.383 206.013C702.194 244.456 701.814 305.233 663.649 343.496L489.991 517.674L316.089 343.496C277.775 305.083 277.775 243.691 316.089 205.279C335.246 186.072 360.2 176.362 385.063 176.412ZM212.873 324.415C208.93 324.511 204.996 325.405 201.377 327.106C194.14 330.507 188.729 338.058 187.925 347.41L170.559 548.009C168.473 572.264 171.229 604.945 196.241 629.961L305.572 739.311C315.862 749.603 321.583 758 321.715 770.135L322.204 821.752C322.22 822.78 322.438 823.795 322.846 824.739C323.255 825.682 323.845 826.536 324.583 827.252C325.321 827.968 326.193 828.531 327.148 828.909C328.104 829.288 329.125 829.474 330.153 829.458C331.181 829.442 332.195 829.224 333.139 828.816C334.082 828.407 334.936 827.817 335.652 827.079C336.367 826.341 336.93 825.469 337.309 824.513C337.687 823.557 337.874 822.536 337.857 821.508L337.368 769.89C337.181 752.606 328.225 739.705 316.823 728.303L207.247 618.952C186.622 598.324 184.323 571.449 186.213 549.477L203.578 348.878C204.005 343.921 205.377 342.518 207.981 341.294C210.585 340.071 215.237 339.576 220.455 341.05C230.891 343.997 242.367 353.588 245.158 366.491L263.013 448.688C263.128 449.788 263.475 450.851 264.03 451.807C264.586 452.764 265.337 453.591 266.236 454.236C267.134 454.881 268.159 455.328 269.243 455.548C270.326 455.767 271.444 455.755 272.523 455.512C273.601 455.268 274.616 454.799 275.5 454.134C276.384 453.47 277.118 452.626 277.652 451.658C278.186 450.69 278.509 449.619 278.6 448.517C278.691 447.415 278.547 446.306 278.178 445.263L260.568 363.311C256.323 343.689 240.363 330.575 224.613 326.127C220.676 325.015 216.815 324.318 212.873 324.415ZM787.411 324.415C783.469 324.318 779.364 325.015 775.426 326.127C759.677 330.575 743.961 343.689 739.716 363.311L722.106 445.263C721.737 446.306 721.593 447.415 721.684 448.517C721.775 449.619 722.098 450.69 722.632 451.658C723.166 452.626 723.9 453.47 724.784 454.134C725.668 454.799 726.682 455.268 727.761 455.512C728.84 455.755 729.958 455.767 731.041 455.548C732.125 455.328 733.15 454.881 734.048 454.236C734.947 453.591 735.698 452.764 736.254 451.807C736.809 450.851 737.156 449.788 737.27 448.688L755.125 366.491C757.917 353.588 769.393 343.997 779.829 341.05C785.047 339.576 789.699 340.071 792.303 341.294C794.907 342.518 796.279 343.921 796.705 348.878L814.071 549.477C815.961 571.449 813.417 598.324 792.792 618.952L683.461 728.303C672.059 739.705 663.103 752.606 662.916 769.89L662.182 821.508C662.166 822.536 662.352 823.557 662.731 824.513C663.109 825.469 663.672 826.341 664.388 827.079C665.103 827.817 665.957 828.407 666.9 828.816C667.844 829.224 668.858 829.442 669.886 829.458C670.914 829.474 671.935 829.288 672.891 828.909C673.847 828.531 674.718 827.968 675.457 827.252C676.195 826.536 676.785 825.682 677.193 824.739C677.601 823.795 677.819 822.78 677.835 821.752L678.569 770.135C678.701 758 684.177 749.603 694.467 739.311L803.798 629.961C828.811 604.945 831.567 572.264 829.48 548.009L812.359 347.41C811.555 338.058 806.144 330.507 798.907 327.106C795.288 325.405 791.353 324.511 787.411 324.415ZM273.531 492.722C254.817 495.225 242.66 510.718 237.821 526.97C233.051 542.989 234.38 561.489 246.871 572.227C247.052 572.384 247.173 572.56 247.36 572.717L334.922 660.295C335.612 661.151 336.473 661.851 337.451 662.352C338.429 662.852 339.501 663.142 340.598 663.2C341.695 663.259 342.792 663.086 343.818 662.693C344.844 662.3 345.776 661.695 346.552 660.919C347.329 660.142 347.934 659.21 348.327 658.184C348.72 657.158 348.893 656.061 348.834 654.964C348.775 653.866 348.486 652.794 347.985 651.816C347.485 650.838 346.784 649.976 345.929 649.287L257.877 561.219C257.721 561.049 257.558 560.885 257.388 560.73C251.61 555.991 249.399 543.661 252.985 531.618C256.209 520.793 263.461 512.38 272.797 509.601L343.238 580.056C344.621 581.397 346.45 582.18 348.375 582.257C404.006 585.088 442.228 616.532 445.232 658.583L457.461 829.581C457.542 830.609 457.823 831.611 458.291 832.53C458.759 833.449 459.402 834.267 460.186 834.937C460.97 835.607 461.877 836.116 462.858 836.435C463.838 836.755 464.872 836.878 465.9 836.797C466.927 836.717 467.929 836.435 468.848 835.967C469.767 835.5 470.585 834.856 471.255 834.072C471.925 833.288 472.434 832.38 472.753 831.4C473.072 830.419 473.195 829.385 473.115 828.357L460.885 657.359C457.315 607.386 412.016 571.703 352.533 567.335L280.135 494.923C279.278 494.072 278.237 493.43 277.091 493.048C275.945 492.666 274.727 492.554 273.531 492.722ZM724.307 492.722C722.641 492.963 721.097 493.735 719.905 494.923L647.751 567.335C588.268 571.703 542.724 607.386 539.154 657.359L527.169 828.357C526.902 829.458 526.876 830.604 527.095 831.716C527.313 832.828 527.771 833.879 528.435 834.797C529.099 835.714 529.955 836.477 530.943 837.032C531.93 837.587 533.027 837.92 534.156 838.01C535.285 838.1 536.421 837.943 537.483 837.551C538.546 837.159 539.511 836.541 540.312 835.74C541.113 834.938 541.73 833.972 542.121 832.909C542.513 831.846 542.668 830.71 542.578 829.581L554.807 658.583C557.812 616.532 596.278 585.088 651.909 582.257C653.834 582.18 655.662 581.397 657.045 580.056L727.487 509.601C736.823 512.38 744.075 520.793 747.299 531.618C750.885 543.661 748.674 555.991 742.896 560.73C742.642 560.879 742.397 561.042 742.162 561.219L654.355 649.287C653.5 649.976 652.799 650.838 652.298 651.816C651.798 652.794 651.509 653.866 651.45 654.964C651.391 656.061 651.564 657.158 651.957 658.184C652.35 659.21 652.955 660.142 653.731 660.919C654.508 661.695 655.44 662.3 656.466 662.693C657.491 663.086 658.589 663.259 659.685 663.2C660.782 663.142 661.855 662.852 662.833 662.352C663.811 661.851 664.672 661.151 665.361 660.295L752.679 572.717L753.413 572.227L753.169 571.983C765.529 561.226 766.971 542.93 762.218 526.97C757.379 510.718 745.222 495.225 726.509 492.722C725.778 492.618 725.037 492.618 724.307 492.722Z" fill="white"/>
<path d="M385.063 161C356.138 160.945 327.208 171.844 305.083 194.026C260.832 238.39 260.832 310.385 305.083 354.749L484.366 534.309C485.831 535.758 487.809 536.571 489.869 536.571C491.93 536.571 493.907 535.758 495.372 534.309L674.656 354.749C718.888 310.404 719.151 238.634 674.9 194.27C674.526 193.904 674.117 193.576 673.677 193.292C629.344 150.056 558.568 150.284 514.695 194.27L489.991 219.223L465.043 194.27C442.927 172.098 413.988 161.055 385.063 161ZM385.063 176.412C409.926 176.459 434.87 186.308 454.037 205.523L484.366 235.858C485.831 237.307 487.809 238.119 489.869 238.119C491.93 238.119 493.907 237.307 495.372 235.858L525.946 205.523C564.26 167.111 625.579 167.111 663.894 205.523C664.05 205.694 664.213 205.857 664.383 206.013C702.194 244.456 701.814 305.233 663.649 343.496L489.991 517.674L316.089 343.496C277.775 305.083 277.775 243.691 316.089 205.279C335.246 186.072 360.2 176.362 385.063 176.412ZM212.873 324.415C208.93 324.511 204.996 325.405 201.377 327.106C194.14 330.507 188.729 338.058 187.925 347.41L170.559 548.009C168.473 572.264 171.229 604.945 196.241 629.961L305.572 739.311C315.862 749.603 321.583 758 321.715 770.135L322.204 821.752C322.22 822.78 322.438 823.795 322.846 824.739C323.255 825.682 323.845 826.536 324.583 827.252C325.321 827.968 326.193 828.531 327.148 828.909C328.104 829.288 329.125 829.474 330.153 829.458C331.181 829.442 332.195 829.224 333.139 828.816C334.082 828.407 334.936 827.817 335.652 827.079C336.367 826.341 336.93 825.469 337.309 824.513C337.687 823.557 337.874 822.536 337.857 821.508L337.368 769.89C337.181 752.606 328.225 739.705 316.823 728.303L207.247 618.952C186.622 598.324 184.323 571.449 186.213 549.477L203.578 348.878C204.005 343.921 205.377 342.518 207.981 341.294C210.585 340.071 215.237 339.576 220.455 341.05C230.891 343.997 242.367 353.588 245.158 366.491L263.013 448.688C263.128 449.788 263.475 450.851 264.03 451.807C264.586 452.764 265.337 453.591 266.236 454.236C267.134 454.881 268.159 455.328 269.243 455.548C270.326 455.767 271.444 455.755 272.523 455.512C273.601 455.268 274.616 454.799 275.5 454.134C276.384 453.47 277.118 452.626 277.652 451.658C278.186 450.69 278.509 449.619 278.6 448.517C278.691 447.415 278.547 446.306 278.178 445.263L260.568 363.311C256.323 343.689 240.363 330.575 224.613 326.127C220.676 325.015 216.815 324.318 212.873 324.415ZM787.411 324.415C783.469 324.318 779.364 325.015 775.426 326.127C759.677 330.575 743.961 343.689 739.716 363.311L722.106 445.263C721.737 446.306 721.593 447.415 721.684 448.517C721.775 449.619 722.098 450.69 722.632 451.658C723.166 452.626 723.9 453.47 724.784 454.134C725.668 454.799 726.682 455.268 727.761 455.512C728.84 455.755 729.958 455.767 731.041 455.548C732.125 455.328 733.15 454.881 734.048 454.236C734.947 453.591 735.698 452.764 736.254 451.807C736.809 450.851 737.156 449.788 737.27 448.688L755.125 366.491C757.917 353.588 769.393 343.997 779.829 341.05C785.047 339.576 789.699 340.071 792.303 341.294C794.907 342.518 796.279 343.921 796.705 348.878L814.071 549.477C815.961 571.449 813.417 598.324 792.792 618.952L683.461 728.303C672.059 739.705 663.103 752.606 662.916 769.89L662.182 821.508C662.166 822.536 662.352 823.557 662.731 824.513C663.109 825.469 663.672 826.341 664.388 827.079C665.103 827.817 665.957 828.407 666.9 828.816C667.844 829.224 668.858 829.442 669.886 829.458C670.914 829.474 671.935 829.288 672.891 828.909C673.847 828.531 674.718 827.968 675.457 827.252C676.195 826.536 676.785 825.682 677.193 824.739C677.601 823.795 677.819 822.78 677.835 821.752L678.569 770.135C678.701 758 684.177 749.603 694.467 739.311L803.798 629.961C828.811 604.945 831.567 572.264 829.48 548.009L812.359 347.41C811.555 338.058 806.144 330.507 798.907 327.106C795.288 325.405 791.353 324.511 787.411 324.415ZM273.531 492.722C254.817 495.225 242.66 510.718 237.821 526.97C233.051 542.989 234.38 561.489 246.871 572.227C247.052 572.384 247.173 572.56 247.36 572.717L334.922 660.295C335.612 661.151 336.473 661.851 337.451 662.352C338.429 662.852 339.501 663.142 340.598 663.2C341.695 663.259 342.792 663.086 343.818 662.693C344.844 662.3 345.776 661.695 346.552 660.919C347.329 660.142 347.934 659.21 348.327 658.184C348.72 657.158 348.893 656.061 348.834 654.964C348.775 653.866 348.486 652.794 347.985 651.816C347.485 650.838 346.784 649.976 345.929 649.287L257.877 561.219C257.721 561.049 257.558 560.885 257.388 560.73C251.61 555.991 249.399 543.661 252.985 531.618C256.209 520.793 263.461 512.38 272.797 509.601L343.238 580.056C344.621 581.397 346.45 582.18 348.375 582.257C404.006 585.088 442.228 616.532 445.232 658.583L457.461 829.581C457.542 830.609 457.823 831.611 458.291 832.53C458.759 833.449 459.402 834.267 460.186 834.937C460.97 835.607 461.877 836.116 462.858 836.435C463.838 836.755 464.872 836.878 465.9 836.797C466.927 836.717 467.929 836.435 468.848 835.967C469.767 835.5 470.585 834.856 471.255 834.072C471.925 833.288 472.434 832.38 472.753 831.4C473.072 830.419 473.195 829.385 473.115 828.357L460.885 657.359C457.315 607.386 412.016 571.703 352.533 567.335L280.135 494.923C279.278 494.072 278.237 493.43 277.091 493.048C275.945 492.666 274.727 492.554 273.531 492.722ZM724.307 492.722C722.641 492.963 721.097 493.735 719.905 494.923L647.751 567.335C588.268 571.703 542.724 607.386 539.154 657.359L527.169 828.357C526.902 829.458 526.876 830.604 527.095 831.716C527.313 832.828 527.771 833.879 528.435 834.797C529.099 835.714 529.955 836.477 530.943 837.032C531.93 837.587 533.027 837.92 534.156 838.01C535.285 838.1 536.421 837.943 537.483 837.551C538.546 837.159 539.511 836.541 540.312 835.74C541.113 834.938 541.73 833.972 542.121 832.909C542.513 831.846 542.668 830.71 542.578 829.581L554.807 658.583C557.812 616.532 596.278 585.088 651.909 582.257C653.834 582.18 655.662 581.397 657.045 580.056L727.487 509.601C736.823 512.38 744.075 520.793 747.299 531.618C750.885 543.661 748.674 555.991 742.896 560.73C742.642 560.879 742.397 561.042 742.162 561.219L654.355 649.287C653.5 649.976 652.799 650.838 652.298 651.816C651.798 652.794 651.509 653.866 651.45 654.964C651.391 656.061 651.564 657.158 651.957 658.184C652.35 659.21 652.955 660.142 653.731 660.919C654.508 661.695 655.44 662.3 656.466 662.693C657.491 663.086 658.589 663.259 659.685 663.2C660.782 663.142 661.855 662.852 662.833 662.352C663.811 661.851 664.672 661.151 665.361 660.295L752.679 572.717L753.413 572.227L753.169 571.983C765.529 561.226 766.971 542.93 762.218 526.97C757.379 510.718 745.222 495.225 726.509 492.722C725.778 492.618 725.037 492.618 724.307 492.722Z" stroke="white" stroke-width="20" mask="url(#path-2-outside-1_4644_25306)"/>
<defs>
<linearGradient id="paint0_linear_4644_25306" x1="8.55363e-07" y1="173.5" x2="907.5" y2="1000" gradientUnits="userSpaceOnUse">
<stop stop-color="#E07A63"/>
<stop offset="1" stop-color="#E290B3"/>
</linearGradient>
</defs>
</svg>
