<svg width="1440" height="1008" viewBox="0 0 1440 1008" fill="none" xmlns="http://www.w3.org/2000/svg">
<rect width="1440" height="950" fill="url(#paint0_linear_1473:33232)"/>
<g style="mix-blend-mode:overlay">
<path d="M-189 554.941C79.0459 258.941 223 291.891 366 324.891C509 357.89 705 519.391 1015 483.891C1325 448.391 2080.05 813.941 2080.05 813.941L-189 813.941L-189 554.941Z" fill="url(#paint1_linear_1473:33232)"/>
</g>
<g style="mix-blend-mode:overlay">
<path d="M1271.9 545.537C1059.1 463.644 887.86 520.002 710.36 541.1C532.86 562.199 412.248 500.386 246.86 481.84C81.4718 463.293 48.483 486.22 -30.6395 506C-30.6395 593.933 -23.1393 1007.87 -23.1393 1007.87L1498.96 1007.87L1498 481.839C1498 481.839 1485.09 627.58 1271.9 545.537Z" fill="url(#paint2_linear_1473:33232)"/>
</g>
<g style="mix-blend-mode:overlay">
<path d="M1211.5 584.723C998.698 502.83 847.483 444.244 625.5 463.223C403.517 482.203 445.028 451.671 279.64 433.125C114.252 414.579 11.1224 463.437 -68.0001 483.217C-68.0001 571.15 -68.0004 836.223 -68.0004 836.223L1454.1 836.223L1454.1 561.151C1454.1 561.151 1424.69 666.766 1211.5 584.723Z" fill="url(#paint3_linear_1473:33232)"/>
</g>
<rect y="424" width="1440" height="400" fill="url(#paint4_linear_1473:33232)"/>
<path d="M1210.1 636.903C997.298 555.01 987.121 569.923 765.138 588.903C543.156 607.882 474.526 655.449 309.138 636.903C143.75 618.357 56.1221 641.98 -23.0005 661.761C-23.0005 749.694 -23.0007 950.311 -23.0007 950.311L1499.1 950.311L1499.1 636.902C1499.1 636.902 1423.29 718.945 1210.1 636.903Z" fill="url(#paint5_linear_1473:33232)"/>
<rect width="1440" height="400" fill="url(#paint6_linear_1473:33232)"/>
<defs>
<linearGradient id="paint0_linear_1473:33232" x1="720" y1="0" x2="720" y2="738" gradientUnits="userSpaceOnUse">
<stop offset="0.00842105" stop-color="#4C1AC4"/>
<stop offset="1" stop-color="#38AAE4"/>
</linearGradient>
<linearGradient id="paint1_linear_1473:33232" x1="815.22" y1="318" x2="815.22" y2="583.914" gradientUnits="userSpaceOnUse">
<stop stop-color="white" stop-opacity="0.69"/>
<stop offset="1" stop-color="white" stop-opacity="0"/>
</linearGradient>
<linearGradient id="paint2_linear_1473:33232" x1="822" y1="475" x2="822" y2="767.5" gradientUnits="userSpaceOnUse">
<stop stop-opacity="0.69"/>
<stop offset="1" stop-opacity="0"/>
</linearGradient>
<linearGradient id="paint3_linear_1473:33232" x1="1029.5" y1="681.723" x2="1029.5" y2="400" gradientUnits="userSpaceOnUse">
<stop stop-opacity="0"/>
<stop offset="1" stop-opacity="0.7"/>
</linearGradient>
<linearGradient id="paint4_linear_1473:33232" x1="720" y1="424" x2="720" y2="824" gradientUnits="userSpaceOnUse">
<stop stop-opacity="0"/>
<stop offset="1" stop-opacity="0.3"/>
</linearGradient>
<linearGradient id="paint5_linear_1473:33232" x1="738.049" y1="574" x2="738.049" y2="950.311" gradientUnits="userSpaceOnUse">
<stop stop-color="#BCC6F6"/>
<stop offset="1" stop-color="#F2F6FF"/>
</linearGradient>
<linearGradient id="paint6_linear_1473:33232" x1="720" y1="0" x2="720" y2="400" gradientUnits="userSpaceOnUse">
<stop stop-opacity="0.3"/>
<stop offset="1" stop-opacity="0"/>
</linearGradient>
</defs>
</svg>
