<svg width="1440" height="800" viewBox="0 0 1440 800" fill="none" xmlns="http://www.w3.org/2000/svg">
<path d="M1440 0H0V800H1440V0Z" fill="url(#paint0_linear_4813_25266)"/>
<path opacity="0.111111" d="M-60.9805 732.406C44.7614 711.572 161.799 687.989 385.322 662.176C608.845 636.362 686.541 626.184 819.501 596.353C952.461 566.523 993.446 561.672 1283.46 545.643C1574.01 529.584 1982.65 438.923 1982.65 438.923" stroke="url(#paint1_linear_4813_25266)" stroke-width="1.11111"/>
<path opacity="0.222222" d="M-86.3438 700.238C20.146 678.372 137.991 653.403 363.804 633.919C589.617 614.435 668.062 605.894 801.821 573.069C935.58 540.245 976.98 536.499 1270.65 536.838C1564.86 537.177 1975.99 437.789 1975.99 437.789" stroke="url(#paint2_linear_4813_25266)" stroke-width="1.22222"/>
<path opacity="0.333333" d="M-111.449 667.526C-4.14381 644.648 114.593 618.314 342.543 605.232C570.492 592.149 649.653 585.268 784.355 549.469C919.058 513.671 960.848 511.043 1257.68 527.869C1555.06 544.725 1969.12 436.675 1969.12 436.675" stroke="url(#paint3_linear_4813_25266)" stroke-width="1.33333"/>
<path opacity="0.444444" d="M-136.289 634.27C-28.0997 610.403 91.6112 582.73 321.543 576.116C551.474 569.503 631.316 564.304 767.107 525.556C902.897 486.808 945.05 485.311 1244.56 518.731C1544.63 552.212 1962.04 435.576 1962.04 435.576" stroke="url(#paint4_linear_4813_25266)" stroke-width="1.44444"/>
<path opacity="0.555556" d="M-160.852 600.472C-51.7125 575.641 69.0559 546.655 300.811 546.575C532.567 546.495 613.056 543 750.078 501.331C887.101 459.663 929.589 459.309 1231.3 509.418C1533.56 559.619 1954.75 434.486 1954.75 434.486" stroke="url(#paint5_linear_4813_25266)" stroke-width="1.55556"/>
<path opacity="0.666667" d="M-185.113 566.135C-74.9571 540.366 46.9507 510.097 280.373 516.611C513.795 523.126 594.895 521.356 733.292 476.799C871.69 432.242 914.487 433.042 1217.89 499.924C1521.85 566.928 1947.24 433.399 1947.24 433.399" stroke="url(#paint6_linear_4813_25266)" stroke-width="1.66667"/>
<path opacity="0.777778" d="M-209.07 531.26C-97.831 504.583 25.2976 473.062 260.226 486.228C495.154 499.394 576.829 499.37 716.744 451.962C856.659 404.554 899.738 406.518 1204.35 490.243C1509.51 574.122 1939.52 432.311 1939.52 432.311" stroke="url(#paint7_linear_4813_25266)" stroke-width="1.77778"/>
<path opacity="0.888889" d="M-232.703 495.85C-120.316 468.295 4.11371 435.558 240.386 455.429C476.659 475.301 558.873 477.041 700.447 426.823C842.021 376.605 885.353 379.743 1190.67 480.371C1496.55 581.183 1931.59 431.214 1931.59 431.214" stroke="url(#paint8_linear_4813_25266)" stroke-width="1.88889"/>
<path d="M-256 182.908C-142.401 154.508 -36.5077 79.2346 200.946 105.862C438.4 132.489 516.03 228.985 690.488 205.947C864.946 182.908 877.419 157.285 1182.95 274.862C1489.03 392.654 1923.45 153.105 1923.45 153.105" stroke="url(#paint9_linear_4813_25266)"/>
<defs>
<linearGradient id="paint0_linear_4813_25266" x1="937.407" y1="50.5076" x2="937.407" y2="342.419" gradientUnits="userSpaceOnUse">
<stop stop-color="#252569"/>
<stop offset="1" stop-color="#28234D"/>
</linearGradient>
<linearGradient id="paint1_linear_4813_25266" x1="1980.88" y1="426.292" x2="1985.08" y2="456.215" gradientUnits="userSpaceOnUse">
<stop stop-color="#FF7373"/>
<stop offset="1" stop-color="#491EB8"/>
</linearGradient>
<linearGradient id="paint2_linear_4813_25266" x1="1973.7" y1="419.113" x2="1979.13" y2="463.355" gradientUnits="userSpaceOnUse">
<stop stop-color="#FF7373"/>
<stop offset="1" stop-color="#491EB8"/>
</linearGradient>
<linearGradient id="paint3_linear_4813_25266" x1="1966.52" y1="411.934" x2="1972.68" y2="470.543" gradientUnits="userSpaceOnUse">
<stop stop-color="#FF7373"/>
<stop offset="1" stop-color="#491EB8"/>
</linearGradient>
<linearGradient id="paint4_linear_4813_25266" x1="1959.34" y1="404.755" x2="1965.73" y2="477.766" gradientUnits="userSpaceOnUse">
<stop stop-color="#FF7373"/>
<stop offset="1" stop-color="#491EB8"/>
</linearGradient>
<linearGradient id="paint5_linear_4813_25266" x1="1952.16" y1="397.577" x2="1958.28" y2="485.01" gradientUnits="userSpaceOnUse">
<stop stop-color="#FF7373"/>
<stop offset="1" stop-color="#491EB8"/>
</linearGradient>
<linearGradient id="paint6_linear_4813_25266" x1="1944.99" y1="390.398" x2="1950.32" y2="492.262" gradientUnits="userSpaceOnUse">
<stop stop-color="#FF7373"/>
<stop offset="1" stop-color="#491EB8"/>
</linearGradient>
<linearGradient id="paint7_linear_4813_25266" x1="1937.81" y1="383.219" x2="1941.87" y2="499.51" gradientUnits="userSpaceOnUse">
<stop stop-color="#FF7373"/>
<stop offset="1" stop-color="#491EB8"/>
</linearGradient>
<linearGradient id="paint8_linear_4813_25266" x1="1930.63" y1="376.041" x2="1932.91" y2="506.74" gradientUnits="userSpaceOnUse">
<stop stop-color="#FF7373"/>
<stop offset="1" stop-color="#491EB8"/>
</linearGradient>
<linearGradient id="paint9_linear_4813_25266" x1="1923.45" y1="100.253" x2="1923.45" y2="307.437" gradientUnits="userSpaceOnUse">
<stop stop-color="#FF7373"/>
<stop offset="1" stop-color="#491EB8"/>
</linearGradient>
</defs>
</svg>
