<svg id="Layer_1" data-name="Layer 1" xmlns="http://www.w3.org/2000/svg" xmlns:xlink="http://www.w3.org/1999/xlink" viewBox="0 0 1440 1008"><defs><style>.cls-1{fill:url(#linear-gradient);}.cls-2{fill:url(#linear-gradient-2);}.cls-3{fill:url(#linear-gradient-3);}.cls-4{fill:url(#linear-gradient-4);}.cls-5{fill:url(#linear-gradient-5);}.cls-6{fill:url(#linear-gradient-6);}.cls-7{fill:url(#linear-gradient-7);}</style><linearGradient id="linear-gradient" x1="720" y1="1010" x2="720" y2="60" gradientTransform="matrix(1, 0, 0, -1, 0, 1010)" gradientUnits="userSpaceOnUse"><stop offset="0" stop-color="#191a43"/><stop offset="1" stop-color="#442d85"/></linearGradient><linearGradient id="linear-gradient-2" x1="945.53" y1="692" x2="945.53" y2="426.09" gradientTransform="matrix(1, 0, 0, -1, 0, 1010)" gradientUnits="userSpaceOnUse"><stop offset="0" stop-color="#fff" stop-opacity="0.69"/><stop offset="1" stop-color="#fff" stop-opacity="0"/></linearGradient><linearGradient id="linear-gradient-3" x1="734.16" y1="535" x2="734.16" y2="242.5" gradientTransform="matrix(1, 0, 0, -1, 0, 1010)" gradientUnits="userSpaceOnUse"><stop offset="0" stop-opacity="0.69"/><stop offset="1" stop-opacity="0"/></linearGradient><linearGradient id="linear-gradient-4" x1="693.05" y1="328.28" x2="693.05" y2="610" gradientTransform="matrix(1, 0, 0, -1, 0, 1010)" gradientUnits="userSpaceOnUse"><stop offset="0" stop-opacity="0"/><stop offset="1" stop-opacity="0.7"/></linearGradient><linearGradient id="linear-gradient-5" x1="720" y1="586" x2="720" y2="186" gradientTransform="matrix(1, 0, 0, -1, 0, 1010)" gradientUnits="userSpaceOnUse"><stop offset="0" stop-opacity="0"/><stop offset="1" stop-opacity="0.3"/></linearGradient><linearGradient id="linear-gradient-6" x1="738.05" y1="436" x2="738.05" y2="59.69" gradientTransform="matrix(1, 0, 0, -1, 0, 1010)" gradientUnits="userSpaceOnUse"><stop offset="0" stop-color="#16163f"/><stop offset="1" stop-color="#1f1f47"/></linearGradient><linearGradient id="linear-gradient-7" x1="720" y1="1010" x2="720" y2="610" gradientTransform="matrix(1, 0, 0, -1, 0, 1010)" gradientUnits="userSpaceOnUse"><stop offset="0" stop-opacity="0.3"/><stop offset="1" stop-opacity="0"/></linearGradient></defs><rect class="cls-1" width="1440" height="950"/><path class="cls-2" d="M-189,554.94c268.05-296,412-263.05,555-230.05s339,194.5,649,159S2080.05,813.94,2080.05,813.94H-189Z"/><path class="cls-3" d="M1271.9,545.54c-212.8-81.9-384-25.54-561.54-4.44s-298.11-40.71-463.5-59.26S48.48,486.22-30.64,506c0,87.93,7.5,501.87,7.5,501.87H1499l-1-526S1485.09,627.58,1271.9,545.54Z"/><path class="cls-4" d="M1211.5,584.72c-212.8-81.89-364-140.48-586-121.5S445,451.67,279.64,433.12,11.12,463.44-68,483.22v353H1454.1V561.15S1424.69,666.77,1211.5,584.72Z"/><rect class="cls-5" y="424" width="1440" height="400"/><path class="cls-6" d="M1210.1,636.9c-212.8-81.89-223-67-445-48s-290.61,66.55-456,48S56.12,642-23,661.76V950.31H1499.1V636.9S1423.29,719,1210.1,636.9Z"/><rect class="cls-7" width="1440" height="400"/></svg>