<svg width="1440" height="900" viewBox="0 0 1440 900" fill="none" xmlns="http://www.w3.org/2000/svg">
<g clip-path="url(#clip0_4818_25633)">
<path d="M1440 0H0V900H1440V0Z" fill="#1F1F47"/>
<path d="M-9 174C139.138 146.249 171.118 112 351.237 112C531.355 112 750.717 258 955.991 238C1161.27 218 1249.82 297 1335.35 307C1420.88 317 1440 314 1440 314V829H-9V174Z" fill="url(#paint0_linear_4818_25633)"/>
<path opacity="0.111111" d="M-36.9805 764.545C68.7614 743.71 185.8 720.128 409.323 694.314C632.845 668.501 710.54 658.322 843.5 628.492C976.46 598.662 1017.45 593.81 1307.46 577.781C1598.01 561.723 2006.65 471.062 2006.65 471.062" stroke="url(#paint1_linear_4818_25633)" stroke-width="1.11111"/>
<path opacity="0.222222" d="M-62.3438 732.377C44.146 710.51 161.991 685.541 387.804 666.058C613.617 646.574 692.062 638.033 825.821 605.208C959.58 572.383 1000.98 568.638 1294.65 568.976C1588.86 569.316 1999.99 469.928 1999.99 469.928" stroke="url(#paint2_linear_4818_25633)" stroke-width="1.22222"/>
<path opacity="0.333333" d="M-87.4492 699.664C19.8564 676.786 138.592 650.453 366.542 637.37C594.492 624.288 673.652 617.406 808.355 581.608C943.057 545.809 984.848 543.182 1281.68 560.008C1579.06 576.864 1993.12 468.814 1993.12 468.814" stroke="url(#paint3_linear_4818_25633)" stroke-width="1.33333"/>
<path opacity="0.444444" d="M-112.289 666.408C-4.10017 642.541 115.611 614.868 345.542 608.255C575.474 601.641 655.315 596.442 791.106 557.694C926.897 518.946 969.049 517.45 1268.56 550.87C1568.63 584.351 1986.04 467.715 1986.04 467.715" stroke="url(#paint4_linear_4818_25633)" stroke-width="1.44444"/>
<path opacity="0.555556" d="M-136.852 632.611C-27.712 607.78 93.0563 578.794 324.812 578.714C556.568 578.634 637.056 575.139 774.079 533.47C911.102 491.801 953.59 491.447 1255.3 541.556C1557.56 591.757 1978.75 466.625 1978.75 466.625" stroke="url(#paint5_linear_4818_25633)" stroke-width="1.55556"/>
<path opacity="0.666667" d="M-161.113 598.273C-50.9566 572.505 70.9512 542.235 304.374 548.75C537.796 555.264 618.895 553.494 757.293 508.938C895.691 464.381 938.488 465.181 1241.89 532.062C1545.85 599.066 1971.24 465.538 1971.24 465.538" stroke="url(#paint6_linear_4818_25633)" stroke-width="1.66667"/>
<path opacity="0.777778" d="M-185.07 563.398C-73.8306 536.721 49.2981 505.201 284.227 518.367C519.155 531.533 600.829 531.508 740.745 484.1C880.66 436.693 923.738 438.656 1228.35 522.382C1533.52 606.26 1963.52 464.449 1963.52 464.449" stroke="url(#paint7_linear_4818_25633)" stroke-width="1.77778"/>
<path opacity="0.888889" d="M-208.703 527.989C-96.3163 500.434 28.1137 467.696 264.386 487.568C500.659 507.439 582.873 509.179 724.447 458.961C866.021 408.744 909.353 411.882 1214.67 512.509C1520.55 613.321 1955.59 463.353 1955.59 463.353" stroke="url(#paint8_linear_4818_25633)" stroke-width="1.88889"/>
<path d="M-232 215.047C-118.401 186.647 -12.5078 111.373 224.946 138.001C462.4 164.628 540.03 261.124 714.488 238.085C888.946 215.047 901.419 189.424 1206.95 307.001C1513.03 424.793 1947.45 185.243 1947.45 185.243" stroke="url(#paint9_linear_4818_25633)"/>
<g style="mix-blend-mode:hard-light">
<path style="mix-blend-mode:hard-light" d="M388.945 709C494.984 709 580.945 623.039 580.945 517C580.945 410.961 494.984 325 388.945 325C282.907 325 196.945 410.961 196.945 517C196.945 623.039 282.907 709 388.945 709Z" fill="url(#paint10_linear_4818_25633)"/>
</g>
<g style="mix-blend-mode:hard-light">
<path style="mix-blend-mode:hard-light" d="M207.945 702C313.984 702 399.945 616.039 399.945 510C399.945 403.961 313.984 318 207.945 318C101.907 318 15.9453 403.961 15.9453 510C15.9453 616.039 101.907 702 207.945 702Z" fill="url(#paint11_linear_4818_25633)"/>
</g>
<path d="M1179.95 595C967.147 513.107 905.931 576.021 683.948 595C461.966 613.98 393.336 661.546 227.948 643C62.5599 624.454 48.9233 706.608 -30.1992 726.389C-30.1992 814.321 -30.1992 948.371 -30.1992 948.371H1545.99V624.189C1545.99 624.189 1393.14 677.043 1179.95 595Z" fill="url(#paint12_linear_4818_25633)"/>
</g>
<defs>
<linearGradient id="paint0_linear_4818_25633" x1="715.498" y1="112" x2="715.498" y2="829" gradientUnits="userSpaceOnUse">
<stop stop-color="#242452"/>
<stop offset="1" stop-color="#4926AD"/>
</linearGradient>
<linearGradient id="paint1_linear_4818_25633" x1="2004.88" y1="458.43" x2="2009.08" y2="488.353" gradientUnits="userSpaceOnUse">
<stop stop-color="#FF7373"/>
<stop offset="1" stop-color="#491EB8"/>
</linearGradient>
<linearGradient id="paint2_linear_4818_25633" x1="1997.7" y1="451.251" x2="2003.13" y2="495.494" gradientUnits="userSpaceOnUse">
<stop stop-color="#FF7373"/>
<stop offset="1" stop-color="#491EB8"/>
</linearGradient>
<linearGradient id="paint3_linear_4818_25633" x1="1990.52" y1="444.073" x2="1996.68" y2="502.682" gradientUnits="userSpaceOnUse">
<stop stop-color="#FF7373"/>
<stop offset="1" stop-color="#491EB8"/>
</linearGradient>
<linearGradient id="paint4_linear_4818_25633" x1="1983.34" y1="436.894" x2="1989.73" y2="509.905" gradientUnits="userSpaceOnUse">
<stop stop-color="#FF7373"/>
<stop offset="1" stop-color="#491EB8"/>
</linearGradient>
<linearGradient id="paint5_linear_4818_25633" x1="1976.16" y1="429.715" x2="1982.28" y2="517.149" gradientUnits="userSpaceOnUse">
<stop stop-color="#FF7373"/>
<stop offset="1" stop-color="#491EB8"/>
</linearGradient>
<linearGradient id="paint6_linear_4818_25633" x1="1968.99" y1="422.537" x2="1974.32" y2="524.401" gradientUnits="userSpaceOnUse">
<stop stop-color="#FF7373"/>
<stop offset="1" stop-color="#491EB8"/>
</linearGradient>
<linearGradient id="paint7_linear_4818_25633" x1="1961.81" y1="415.358" x2="1965.87" y2="531.649" gradientUnits="userSpaceOnUse">
<stop stop-color="#FF7373"/>
<stop offset="1" stop-color="#491EB8"/>
</linearGradient>
<linearGradient id="paint8_linear_4818_25633" x1="1954.63" y1="408.179" x2="1956.91" y2="538.878" gradientUnits="userSpaceOnUse">
<stop stop-color="#FF7373"/>
<stop offset="1" stop-color="#491EB8"/>
</linearGradient>
<linearGradient id="paint9_linear_4818_25633" x1="1947.45" y1="132.391" x2="1947.45" y2="339.575" gradientUnits="userSpaceOnUse">
<stop stop-color="#FF7373"/>
<stop offset="1" stop-color="#491EB8"/>
</linearGradient>
<linearGradient id="paint10_linear_4818_25633" x1="388.945" y1="447" x2="388.945" y2="709" gradientUnits="userSpaceOnUse">
<stop stop-color="#2FB8FF" stop-opacity="0.42"/>
<stop offset="1" stop-color="#9EECD9"/>
</linearGradient>
<linearGradient id="paint11_linear_4818_25633" x1="207.945" y1="420" x2="207.945" y2="702" gradientUnits="userSpaceOnUse">
<stop stop-color="#BA75FF" stop-opacity="0.49"/>
<stop offset="1" stop-color="#3913B8"/>
</linearGradient>
<linearGradient id="paint12_linear_4818_25633" x1="818.826" y1="519.142" x2="818.826" y2="948" gradientUnits="userSpaceOnUse">
<stop stop-color="#1F1F47"/>
<stop offset="1" stop-color="#1F1F47"/>
</linearGradient>
<clipPath id="clip0_4818_25633">
<rect width="1440" height="900" fill="white"/>
</clipPath>
</defs>
</svg>
