<svg width="1369" height="225" viewBox="0 0 1369 225" fill="none" xmlns="http://www.w3.org/2000/svg">
<path d="M3.44531 21.8618C3.72145 21.8618 3.94531 21.638 3.94531 21.3618C3.94531 21.0857 3.72145 20.8618 3.44531 20.8618C3.16917 20.8618 2.94531 21.0857 2.94531 21.3618C2.94531 21.638 3.16917 21.8618 3.44531 21.8618Z" fill="white" fill-opacity="0.5"/>
<path d="M33.4453 41.8618C33.7215 41.8618 33.9453 41.638 33.9453 41.3618C33.9453 41.0857 33.7215 40.8618 33.4453 40.8618C33.1692 40.8618 32.9453 41.0857 32.9453 41.3618C32.9453 41.638 33.1692 41.8618 33.4453 41.8618Z" fill="white" fill-opacity="0.5"/>
<path d="M73.4453 31.8618C73.7215 31.8618 73.9453 31.638 73.9453 31.3618C73.9453 31.0857 73.7215 30.8618 73.4453 30.8618C73.1692 30.8618 72.9453 31.0857 72.9453 31.3618C72.9453 31.638 73.1692 31.8618 73.4453 31.8618Z" fill="white" fill-opacity="0.5"/>
<path d="M93.4453 1.86182C93.7215 1.86182 93.9453 1.63796 93.9453 1.36182C93.9453 1.08567 93.7215 0.861816 93.4453 0.861816C93.1692 0.861816 92.9453 1.08567 92.9453 1.36182C92.9453 1.63796 93.1692 1.86182 93.4453 1.86182Z" fill="white" fill-opacity="0.5"/>
<path d="M143.445 21.8618C143.721 21.8618 143.945 21.638 143.945 21.3618C143.945 21.0857 143.721 20.8618 143.445 20.8618C143.169 20.8618 142.945 21.0857 142.945 21.3618C142.945 21.638 143.169 21.8618 143.445 21.8618Z" fill="white" fill-opacity="0.5"/>
<path d="M202.445 31.8618C202.721 31.8618 202.945 31.638 202.945 31.3618C202.945 31.0857 202.721 30.8618 202.445 30.8618C202.169 30.8618 201.945 31.0857 201.945 31.3618C201.945 31.638 202.169 31.8618 202.445 31.8618Z" fill="white" fill-opacity="0.5"/>
<path d="M232.445 51.8618C232.721 51.8618 232.945 51.638 232.945 51.3618C232.945 51.0857 232.721 50.8618 232.445 50.8618C232.169 50.8618 231.945 51.0857 231.945 51.3618C231.945 51.638 232.169 51.8618 232.445 51.8618Z" fill="white" fill-opacity="0.5"/>
<path d="M272.445 41.8618C272.721 41.8618 272.945 41.638 272.945 41.3618C272.945 41.0857 272.721 40.8618 272.445 40.8618C272.169 40.8618 271.945 41.0857 271.945 41.3618C271.945 41.638 272.169 41.8618 272.445 41.8618Z" fill="white" fill-opacity="0.5"/>
<path d="M292.445 11.8618C292.721 11.8618 292.945 11.638 292.945 11.3618C292.945 11.0857 292.721 10.8618 292.445 10.8618C292.169 10.8618 291.945 11.0857 291.945 11.3618C291.945 11.638 292.169 11.8618 292.445 11.8618Z" fill="white" fill-opacity="0.5"/>
<path d="M342.445 31.8618C342.721 31.8618 342.945 31.638 342.945 31.3618C342.945 31.0857 342.721 30.8618 342.445 30.8618C342.169 30.8618 341.945 31.0857 341.945 31.3618C341.945 31.638 342.169 31.8618 342.445 31.8618Z" fill="white" fill-opacity="0.5"/>
<path d="M1.44531 92.8621C1.72145 92.8621 1.94531 92.6382 1.94531 92.3621C1.94531 92.0859 1.72145 91.8621 1.44531 91.8621C1.16917 91.8621 0.945312 92.0859 0.945312 92.3621C0.945312 92.6382 1.16917 92.8621 1.44531 92.8621Z" fill="white" fill-opacity="0.5"/>
<path d="M31.4453 112.862C31.7215 112.862 31.9453 112.638 31.9453 112.362C31.9453 112.086 31.7215 111.862 31.4453 111.862C31.1692 111.862 30.9453 112.086 30.9453 112.362C30.9453 112.638 31.1692 112.862 31.4453 112.862Z" fill="white" fill-opacity="0.5"/>
<path d="M71.4453 102.862C71.7215 102.862 71.9453 102.638 71.9453 102.362C71.9453 102.086 71.7215 101.862 71.4453 101.862C71.1692 101.862 70.9453 102.086 70.9453 102.362C70.9453 102.638 71.1692 102.862 71.4453 102.862Z" fill="white" fill-opacity="0.5"/>
<path d="M91.4453 72.8618C91.7215 72.8618 91.9453 72.638 91.9453 72.3618C91.9453 72.0857 91.7215 71.8618 91.4453 71.8618C91.1692 71.8618 90.9453 72.0857 90.9453 72.3618C90.9453 72.638 91.1692 72.8618 91.4453 72.8618Z" fill="white" fill-opacity="0.5"/>
<path d="M141.445 92.8621C141.721 92.8621 141.945 92.6382 141.945 92.3621C141.945 92.0859 141.721 91.8621 141.445 91.8621C141.169 91.8621 140.945 92.0859 140.945 92.3621C140.945 92.6382 141.169 92.8621 141.445 92.8621Z" fill="white" fill-opacity="0.5"/>
<path d="M345.445 21.8618C345.721 21.8618 345.945 21.638 345.945 21.3618C345.945 21.0857 345.721 20.8618 345.445 20.8618C345.169 20.8618 344.945 21.0857 344.945 21.3618C344.945 21.638 345.169 21.8618 345.445 21.8618Z" fill="white" fill-opacity="0.5"/>
<path d="M375.445 41.8618C375.721 41.8618 375.945 41.638 375.945 41.3618C375.945 41.0857 375.721 40.8618 375.445 40.8618C375.169 40.8618 374.945 41.0857 374.945 41.3618C374.945 41.638 375.169 41.8618 375.445 41.8618Z" fill="white" fill-opacity="0.5"/>
<path d="M415.445 31.8618C415.721 31.8618 415.945 31.638 415.945 31.3618C415.945 31.0857 415.721 30.8618 415.445 30.8618C415.169 30.8618 414.945 31.0857 414.945 31.3618C414.945 31.638 415.169 31.8618 415.445 31.8618Z" fill="white" fill-opacity="0.5"/>
<path d="M435.445 1.86182C435.721 1.86182 435.945 1.63796 435.945 1.36182C435.945 1.08567 435.721 0.861816 435.445 0.861816C435.169 0.861816 434.945 1.08567 434.945 1.36182C434.945 1.63796 435.169 1.86182 435.445 1.86182Z" fill="white" fill-opacity="0.5"/>
<path d="M485.445 21.8618C485.721 21.8618 485.945 21.638 485.945 21.3618C485.945 21.0857 485.721 20.8618 485.445 20.8618C485.169 20.8618 484.945 21.0857 484.945 21.3618C484.945 21.638 485.169 21.8618 485.445 21.8618Z" fill="white" fill-opacity="0.5"/>
<path d="M544.445 31.8618C544.721 31.8618 544.945 31.638 544.945 31.3618C544.945 31.0857 544.721 30.8618 544.445 30.8618C544.169 30.8618 543.945 31.0857 543.945 31.3618C543.945 31.638 544.169 31.8618 544.445 31.8618Z" fill="white" fill-opacity="0.5"/>
<path d="M574.445 51.8618C574.721 51.8618 574.945 51.638 574.945 51.3618C574.945 51.0857 574.721 50.8618 574.445 50.8618C574.169 50.8618 573.945 51.0857 573.945 51.3618C573.945 51.638 574.169 51.8618 574.445 51.8618Z" fill="white" fill-opacity="0.5"/>
<path d="M614.445 41.8618C614.721 41.8618 614.945 41.638 614.945 41.3618C614.945 41.0857 614.721 40.8618 614.445 40.8618C614.169 40.8618 613.945 41.0857 613.945 41.3618C613.945 41.638 614.169 41.8618 614.445 41.8618Z" fill="white" fill-opacity="0.5"/>
<path d="M634.445 11.8618C634.721 11.8618 634.945 11.638 634.945 11.3618C634.945 11.0857 634.721 10.8618 634.445 10.8618C634.169 10.8618 633.945 11.0857 633.945 11.3618C633.945 11.638 634.169 11.8618 634.445 11.8618Z" fill="white" fill-opacity="0.5"/>
<path d="M684.445 31.8618C684.721 31.8618 684.945 31.638 684.945 31.3618C684.945 31.0857 684.721 30.8618 684.445 30.8618C684.169 30.8618 683.945 31.0857 683.945 31.3618C683.945 31.638 684.169 31.8618 684.445 31.8618Z" fill="white" fill-opacity="0.5"/>
<path d="M343.445 92.8621C343.721 92.8621 343.945 92.6382 343.945 92.3621C343.945 92.0859 343.721 91.8621 343.445 91.8621C343.169 91.8621 342.945 92.0859 342.945 92.3621C342.945 92.6382 343.169 92.8621 343.445 92.8621Z" fill="white" fill-opacity="0.5"/>
<path d="M373.445 112.862C373.721 112.862 373.945 112.638 373.945 112.362C373.945 112.086 373.721 111.862 373.445 111.862C373.169 111.862 372.945 112.086 372.945 112.362C372.945 112.638 373.169 112.862 373.445 112.862Z" fill="white" fill-opacity="0.5"/>
<path d="M413.445 102.862C413.721 102.862 413.945 102.638 413.945 102.362C413.945 102.086 413.721 101.862 413.445 101.862C413.169 101.862 412.945 102.086 412.945 102.362C412.945 102.638 413.169 102.862 413.445 102.862Z" fill="white" fill-opacity="0.5"/>
<path d="M433.445 72.8618C433.721 72.8618 433.945 72.638 433.945 72.3618C433.945 72.0857 433.721 71.8618 433.445 71.8618C433.169 71.8618 432.945 72.0857 432.945 72.3618C432.945 72.638 433.169 72.8618 433.445 72.8618Z" fill="white" fill-opacity="0.5"/>
<path d="M483.445 92.8621C483.721 92.8621 483.945 92.6382 483.945 92.3621C483.945 92.0859 483.721 91.8621 483.445 91.8621C483.169 91.8621 482.945 92.0859 482.945 92.3621C482.945 92.6382 483.169 92.8621 483.445 92.8621Z" fill="white" fill-opacity="0.5"/>
<path d="M687.445 21.8618C687.721 21.8618 687.945 21.638 687.945 21.3618C687.945 21.0857 687.721 20.8618 687.445 20.8618C687.169 20.8618 686.945 21.0857 686.945 21.3618C686.945 21.638 687.169 21.8618 687.445 21.8618Z" fill="white" fill-opacity="0.5"/>
<path d="M717.445 41.8618C717.721 41.8618 717.945 41.638 717.945 41.3618C717.945 41.0857 717.721 40.8618 717.445 40.8618C717.169 40.8618 716.945 41.0857 716.945 41.3618C716.945 41.638 717.169 41.8618 717.445 41.8618Z" fill="white" fill-opacity="0.5"/>
<path d="M757.445 31.8618C757.721 31.8618 757.945 31.638 757.945 31.3618C757.945 31.0857 757.721 30.8618 757.445 30.8618C757.169 30.8618 756.945 31.0857 756.945 31.3618C756.945 31.638 757.169 31.8618 757.445 31.8618Z" fill="white" fill-opacity="0.5"/>
<path d="M777.445 1.86182C777.721 1.86182 777.945 1.63796 777.945 1.36182C777.945 1.08567 777.721 0.861816 777.445 0.861816C777.169 0.861816 776.945 1.08567 776.945 1.36182C776.945 1.63796 777.169 1.86182 777.445 1.86182Z" fill="white" fill-opacity="0.5"/>
<path d="M827.445 21.8618C827.721 21.8618 827.945 21.638 827.945 21.3618C827.945 21.0857 827.721 20.8618 827.445 20.8618C827.169 20.8618 826.945 21.0857 826.945 21.3618C826.945 21.638 827.169 21.8618 827.445 21.8618Z" fill="white" fill-opacity="0.5"/>
<path d="M886.445 31.8618C886.721 31.8618 886.945 31.638 886.945 31.3618C886.945 31.0857 886.721 30.8618 886.445 30.8618C886.169 30.8618 885.945 31.0857 885.945 31.3618C885.945 31.638 886.169 31.8618 886.445 31.8618Z" fill="white" fill-opacity="0.5"/>
<path d="M916.445 51.8618C916.721 51.8618 916.945 51.638 916.945 51.3618C916.945 51.0857 916.721 50.8618 916.445 50.8618C916.169 50.8618 915.945 51.0857 915.945 51.3618C915.945 51.638 916.169 51.8618 916.445 51.8618Z" fill="white" fill-opacity="0.5"/>
<path d="M956.445 41.8618C956.721 41.8618 956.945 41.638 956.945 41.3618C956.945 41.0857 956.721 40.8618 956.445 40.8618C956.169 40.8618 955.945 41.0857 955.945 41.3618C955.945 41.638 956.169 41.8618 956.445 41.8618Z" fill="white" fill-opacity="0.5"/>
<path d="M976.449 11.8618C976.725 11.8618 976.949 11.638 976.949 11.3618C976.949 11.0857 976.725 10.8618 976.449 10.8618C976.173 10.8618 975.949 11.0857 975.949 11.3618C975.949 11.638 976.173 11.8618 976.449 11.8618Z" fill="white" fill-opacity="0.5"/>
<path d="M1026.45 31.8618C1026.73 31.8618 1026.95 31.638 1026.95 31.3618C1026.95 31.0857 1026.73 30.8618 1026.45 30.8618C1026.17 30.8618 1025.95 31.0857 1025.95 31.3618C1025.95 31.638 1026.17 31.8618 1026.45 31.8618Z" fill="white" fill-opacity="0.5"/>
<path d="M685.445 92.8621C685.721 92.8621 685.945 92.6382 685.945 92.3621C685.945 92.0859 685.721 91.8621 685.445 91.8621C685.169 91.8621 684.945 92.0859 684.945 92.3621C684.945 92.6382 685.169 92.8621 685.445 92.8621Z" fill="white" fill-opacity="0.5"/>
<path d="M715.445 112.862C715.721 112.862 715.945 112.638 715.945 112.362C715.945 112.086 715.721 111.862 715.445 111.862C715.169 111.862 714.945 112.086 714.945 112.362C714.945 112.638 715.169 112.862 715.445 112.862Z" fill="white" fill-opacity="0.5"/>
<path d="M755.445 102.862C755.721 102.862 755.945 102.638 755.945 102.362C755.945 102.086 755.721 101.862 755.445 101.862C755.169 101.862 754.945 102.086 754.945 102.362C754.945 102.638 755.169 102.862 755.445 102.862Z" fill="white" fill-opacity="0.5"/>
<path d="M775.445 72.8618C775.721 72.8618 775.945 72.638 775.945 72.3618C775.945 72.0857 775.721 71.8618 775.445 71.8618C775.169 71.8618 774.945 72.0857 774.945 72.3618C774.945 72.638 775.169 72.8618 775.445 72.8618Z" fill="white" fill-opacity="0.5"/>
<path d="M825.445 92.8621C825.721 92.8621 825.945 92.6382 825.945 92.3621C825.945 92.0859 825.721 91.8621 825.445 91.8621C825.169 91.8621 824.945 92.0859 824.945 92.3621C824.945 92.6382 825.169 92.8621 825.445 92.8621Z" fill="white" fill-opacity="0.5"/>
<path d="M1029.45 21.8618C1029.73 21.8618 1029.95 21.638 1029.95 21.3618C1029.95 21.0857 1029.73 20.8618 1029.45 20.8618C1029.17 20.8618 1028.95 21.0857 1028.95 21.3618C1028.95 21.638 1029.17 21.8618 1029.45 21.8618Z" fill="white" fill-opacity="0.5"/>
<path d="M1059.45 41.8618C1059.73 41.8618 1059.95 41.638 1059.95 41.3618C1059.95 41.0857 1059.73 40.8618 1059.45 40.8618C1059.17 40.8618 1058.95 41.0857 1058.95 41.3618C1058.95 41.638 1059.17 41.8618 1059.45 41.8618Z" fill="white" fill-opacity="0.5"/>
<path d="M1099.45 31.8618C1099.73 31.8618 1099.95 31.638 1099.95 31.3618C1099.95 31.0857 1099.73 30.8618 1099.45 30.8618C1099.17 30.8618 1098.95 31.0857 1098.95 31.3618C1098.95 31.638 1099.17 31.8618 1099.45 31.8618Z" fill="white" fill-opacity="0.5"/>
<path d="M1119.45 1.86182C1119.73 1.86182 1119.95 1.63796 1119.95 1.36182C1119.95 1.08567 1119.73 0.861816 1119.45 0.861816C1119.17 0.861816 1118.95 1.08567 1118.95 1.36182C1118.95 1.63796 1119.17 1.86182 1119.45 1.86182Z" fill="white" fill-opacity="0.5"/>
<path d="M1169.45 21.8618C1169.73 21.8618 1169.95 21.638 1169.95 21.3618C1169.95 21.0857 1169.73 20.8618 1169.45 20.8618C1169.17 20.8618 1168.95 21.0857 1168.95 21.3618C1168.95 21.638 1169.17 21.8618 1169.45 21.8618Z" fill="white" fill-opacity="0.5"/>
<path d="M1228.45 31.8618C1228.73 31.8618 1228.95 31.638 1228.95 31.3618C1228.95 31.0857 1228.73 30.8618 1228.45 30.8618C1228.17 30.8618 1227.95 31.0857 1227.95 31.3618C1227.95 31.638 1228.17 31.8618 1228.45 31.8618Z" fill="white" fill-opacity="0.5"/>
<path d="M1258.45 51.8618C1258.73 51.8618 1258.95 51.638 1258.95 51.3618C1258.95 51.0857 1258.73 50.8618 1258.45 50.8618C1258.17 50.8618 1257.95 51.0857 1257.95 51.3618C1257.95 51.638 1258.17 51.8618 1258.45 51.8618Z" fill="white" fill-opacity="0.5"/>
<path d="M1298.45 41.8618C1298.73 41.8618 1298.95 41.638 1298.95 41.3618C1298.95 41.0857 1298.73 40.8618 1298.45 40.8618C1298.17 40.8618 1297.95 41.0857 1297.95 41.3618C1297.95 41.638 1298.17 41.8618 1298.45 41.8618Z" fill="white" fill-opacity="0.5"/>
<path d="M1318.45 11.8618C1318.73 11.8618 1318.95 11.638 1318.95 11.3618C1318.95 11.0857 1318.73 10.8618 1318.45 10.8618C1318.17 10.8618 1317.95 11.0857 1317.95 11.3618C1317.95 11.638 1318.17 11.8618 1318.45 11.8618Z" fill="white" fill-opacity="0.5"/>
<path d="M1368.45 31.8618C1368.73 31.8618 1368.95 31.638 1368.95 31.3618C1368.95 31.0857 1368.73 30.8618 1368.45 30.8618C1368.17 30.8618 1367.95 31.0857 1367.95 31.3618C1367.95 31.638 1368.17 31.8618 1368.45 31.8618Z" fill="white" fill-opacity="0.5"/>
<path d="M1027.45 92.8621C1027.73 92.8621 1027.95 92.6382 1027.95 92.3621C1027.95 92.0859 1027.73 91.8621 1027.45 91.8621C1027.17 91.8621 1026.95 92.0859 1026.95 92.3621C1026.95 92.6382 1027.17 92.8621 1027.45 92.8621Z" fill="white" fill-opacity="0.5"/>
<path d="M1057.45 112.862C1057.73 112.862 1057.95 112.638 1057.95 112.362C1057.95 112.086 1057.73 111.862 1057.45 111.862C1057.17 111.862 1056.95 112.086 1056.95 112.362C1056.95 112.638 1057.17 112.862 1057.45 112.862Z" fill="white" fill-opacity="0.5"/>
<path d="M1097.45 102.862C1097.73 102.862 1097.95 102.638 1097.95 102.362C1097.95 102.086 1097.73 101.862 1097.45 101.862C1097.17 101.862 1096.95 102.086 1096.95 102.362C1096.95 102.638 1097.17 102.862 1097.45 102.862Z" fill="white" fill-opacity="0.5"/>
<path d="M1117.45 72.8618C1117.73 72.8618 1117.95 72.638 1117.95 72.3618C1117.95 72.0857 1117.73 71.8618 1117.45 71.8618C1117.17 71.8618 1116.95 72.0857 1116.95 72.3618C1116.95 72.638 1117.17 72.8618 1117.45 72.8618Z" fill="white" fill-opacity="0.5"/>
<path d="M1167.45 92.8621C1167.73 92.8621 1167.95 92.6382 1167.95 92.3621C1167.95 92.0859 1167.73 91.8621 1167.45 91.8621C1167.17 91.8621 1166.95 92.0859 1166.95 92.3621C1166.95 92.6382 1167.17 92.8621 1167.45 92.8621Z" fill="white" fill-opacity="0.5"/>
<path d="M3.44531 133.862C3.72145 133.862 3.94531 133.638 3.94531 133.362C3.94531 133.086 3.72145 132.862 3.44531 132.862C3.16917 132.862 2.94531 133.086 2.94531 133.362C2.94531 133.638 3.16917 133.862 3.44531 133.862Z" fill="white" fill-opacity="0.5"/>
<path d="M33.4453 153.862C33.7215 153.862 33.9453 153.638 33.9453 153.362C33.9453 153.086 33.7215 152.862 33.4453 152.862C33.1692 152.862 32.9453 153.086 32.9453 153.362C32.9453 153.638 33.1692 153.862 33.4453 153.862Z" fill="white" fill-opacity="0.5"/>
<path d="M73.4453 143.862C73.7215 143.862 73.9453 143.638 73.9453 143.362C73.9453 143.086 73.7215 142.862 73.4453 142.862C73.1692 142.862 72.9453 143.086 72.9453 143.362C72.9453 143.638 73.1692 143.862 73.4453 143.862Z" fill="white" fill-opacity="0.5"/>
<path d="M93.4453 113.862C93.7215 113.862 93.9453 113.638 93.9453 113.362C93.9453 113.086 93.7215 112.862 93.4453 112.862C93.1692 112.862 92.9453 113.086 92.9453 113.362C92.9453 113.638 93.1692 113.862 93.4453 113.862Z" fill="white" fill-opacity="0.5"/>
<path d="M143.445 133.862C143.721 133.862 143.945 133.638 143.945 133.362C143.945 133.086 143.721 132.862 143.445 132.862C143.169 132.862 142.945 133.086 142.945 133.362C142.945 133.638 143.169 133.862 143.445 133.862Z" fill="white" fill-opacity="0.5"/>
<path d="M202.445 143.862C202.721 143.862 202.945 143.638 202.945 143.362C202.945 143.086 202.721 142.862 202.445 142.862C202.169 142.862 201.945 143.086 201.945 143.362C201.945 143.638 202.169 143.862 202.445 143.862Z" fill="white" fill-opacity="0.5"/>
<path d="M232.445 163.862C232.721 163.862 232.945 163.638 232.945 163.362C232.945 163.086 232.721 162.862 232.445 162.862C232.169 162.862 231.945 163.086 231.945 163.362C231.945 163.638 232.169 163.862 232.445 163.862Z" fill="white" fill-opacity="0.5"/>
<path d="M272.445 153.862C272.721 153.862 272.945 153.638 272.945 153.362C272.945 153.086 272.721 152.862 272.445 152.862C272.169 152.862 271.945 153.086 271.945 153.362C271.945 153.638 272.169 153.862 272.445 153.862Z" fill="white" fill-opacity="0.5"/>
<path d="M292.445 123.862C292.721 123.862 292.945 123.638 292.945 123.362C292.945 123.086 292.721 122.862 292.445 122.862C292.169 122.862 291.945 123.086 291.945 123.362C291.945 123.638 292.169 123.862 292.445 123.862Z" fill="white" fill-opacity="0.5"/>
<path d="M342.445 143.862C342.721 143.862 342.945 143.638 342.945 143.362C342.945 143.086 342.721 142.862 342.445 142.862C342.169 142.862 341.945 143.086 341.945 143.362C341.945 143.638 342.169 143.862 342.445 143.862Z" fill="white" fill-opacity="0.5"/>
<path d="M1.44531 204.862C1.72145 204.862 1.94531 204.638 1.94531 204.362C1.94531 204.086 1.72145 203.862 1.44531 203.862C1.16917 203.862 0.945312 204.086 0.945312 204.362C0.945312 204.638 1.16917 204.862 1.44531 204.862Z" fill="white" fill-opacity="0.5"/>
<path d="M31.4453 224.862C31.7215 224.862 31.9453 224.638 31.9453 224.362C31.9453 224.086 31.7215 223.862 31.4453 223.862C31.1692 223.862 30.9453 224.086 30.9453 224.362C30.9453 224.638 31.1692 224.862 31.4453 224.862Z" fill="white" fill-opacity="0.5"/>
<path d="M71.4453 214.862C71.7215 214.862 71.9453 214.638 71.9453 214.362C71.9453 214.086 71.7215 213.862 71.4453 213.862C71.1692 213.862 70.9453 214.086 70.9453 214.362C70.9453 214.638 71.1692 214.862 71.4453 214.862Z" fill="white" fill-opacity="0.5"/>
<path d="M91.4453 184.862C91.7215 184.862 91.9453 184.638 91.9453 184.362C91.9453 184.086 91.7215 183.862 91.4453 183.862C91.1692 183.862 90.9453 184.086 90.9453 184.362C90.9453 184.638 91.1692 184.862 91.4453 184.862Z" fill="white" fill-opacity="0.5"/>
<path d="M141.445 204.862C141.721 204.862 141.945 204.638 141.945 204.362C141.945 204.086 141.721 203.862 141.445 203.862C141.169 203.862 140.945 204.086 140.945 204.362C140.945 204.638 141.169 204.862 141.445 204.862Z" fill="white" fill-opacity="0.5"/>
<path d="M345.445 133.862C345.721 133.862 345.945 133.638 345.945 133.362C345.945 133.086 345.721 132.862 345.445 132.862C345.169 132.862 344.945 133.086 344.945 133.362C344.945 133.638 345.169 133.862 345.445 133.862Z" fill="white" fill-opacity="0.5"/>
<path d="M375.445 153.862C375.721 153.862 375.945 153.638 375.945 153.362C375.945 153.086 375.721 152.862 375.445 152.862C375.169 152.862 374.945 153.086 374.945 153.362C374.945 153.638 375.169 153.862 375.445 153.862Z" fill="white" fill-opacity="0.5"/>
<path d="M415.445 143.862C415.721 143.862 415.945 143.638 415.945 143.362C415.945 143.086 415.721 142.862 415.445 142.862C415.169 142.862 414.945 143.086 414.945 143.362C414.945 143.638 415.169 143.862 415.445 143.862Z" fill="white" fill-opacity="0.5"/>
<path d="M435.445 113.862C435.721 113.862 435.945 113.638 435.945 113.362C435.945 113.086 435.721 112.862 435.445 112.862C435.169 112.862 434.945 113.086 434.945 113.362C434.945 113.638 435.169 113.862 435.445 113.862Z" fill="white" fill-opacity="0.5"/>
<path d="M485.445 133.862C485.721 133.862 485.945 133.638 485.945 133.362C485.945 133.086 485.721 132.862 485.445 132.862C485.169 132.862 484.945 133.086 484.945 133.362C484.945 133.638 485.169 133.862 485.445 133.862Z" fill="white" fill-opacity="0.5"/>
<path d="M544.445 143.862C544.721 143.862 544.945 143.638 544.945 143.362C544.945 143.086 544.721 142.862 544.445 142.862C544.169 142.862 543.945 143.086 543.945 143.362C543.945 143.638 544.169 143.862 544.445 143.862Z" fill="white" fill-opacity="0.5"/>
<path d="M574.445 163.862C574.721 163.862 574.945 163.638 574.945 163.362C574.945 163.086 574.721 162.862 574.445 162.862C574.169 162.862 573.945 163.086 573.945 163.362C573.945 163.638 574.169 163.862 574.445 163.862Z" fill="white" fill-opacity="0.5"/>
<path d="M614.445 153.862C614.721 153.862 614.945 153.638 614.945 153.362C614.945 153.086 614.721 152.862 614.445 152.862C614.169 152.862 613.945 153.086 613.945 153.362C613.945 153.638 614.169 153.862 614.445 153.862Z" fill="white" fill-opacity="0.5"/>
<path d="M634.445 123.862C634.721 123.862 634.945 123.638 634.945 123.362C634.945 123.086 634.721 122.862 634.445 122.862C634.169 122.862 633.945 123.086 633.945 123.362C633.945 123.638 634.169 123.862 634.445 123.862Z" fill="white" fill-opacity="0.5"/>
<path d="M684.445 143.862C684.721 143.862 684.945 143.638 684.945 143.362C684.945 143.086 684.721 142.862 684.445 142.862C684.169 142.862 683.945 143.086 683.945 143.362C683.945 143.638 684.169 143.862 684.445 143.862Z" fill="white" fill-opacity="0.5"/>
<path d="M343.445 204.862C343.721 204.862 343.945 204.638 343.945 204.362C343.945 204.086 343.721 203.862 343.445 203.862C343.169 203.862 342.945 204.086 342.945 204.362C342.945 204.638 343.169 204.862 343.445 204.862Z" fill="white" fill-opacity="0.5"/>
<path d="M373.445 224.862C373.721 224.862 373.945 224.638 373.945 224.362C373.945 224.086 373.721 223.862 373.445 223.862C373.169 223.862 372.945 224.086 372.945 224.362C372.945 224.638 373.169 224.862 373.445 224.862Z" fill="white" fill-opacity="0.5"/>
<path d="M413.445 214.862C413.721 214.862 413.945 214.638 413.945 214.362C413.945 214.086 413.721 213.862 413.445 213.862C413.169 213.862 412.945 214.086 412.945 214.362C412.945 214.638 413.169 214.862 413.445 214.862Z" fill="white" fill-opacity="0.5"/>
<path d="M433.445 184.862C433.721 184.862 433.945 184.638 433.945 184.362C433.945 184.086 433.721 183.862 433.445 183.862C433.169 183.862 432.945 184.086 432.945 184.362C432.945 184.638 433.169 184.862 433.445 184.862Z" fill="white" fill-opacity="0.5"/>
<path d="M483.445 204.862C483.721 204.862 483.945 204.638 483.945 204.362C483.945 204.086 483.721 203.862 483.445 203.862C483.169 203.862 482.945 204.086 482.945 204.362C482.945 204.638 483.169 204.862 483.445 204.862Z" fill="white" fill-opacity="0.5"/>
<path d="M687.445 133.862C687.721 133.862 687.945 133.638 687.945 133.362C687.945 133.086 687.721 132.862 687.445 132.862C687.169 132.862 686.945 133.086 686.945 133.362C686.945 133.638 687.169 133.862 687.445 133.862Z" fill="white" fill-opacity="0.5"/>
<path d="M717.445 153.862C717.721 153.862 717.945 153.638 717.945 153.362C717.945 153.086 717.721 152.862 717.445 152.862C717.169 152.862 716.945 153.086 716.945 153.362C716.945 153.638 717.169 153.862 717.445 153.862Z" fill="white" fill-opacity="0.5"/>
<path d="M757.445 143.862C757.721 143.862 757.945 143.638 757.945 143.362C757.945 143.086 757.721 142.862 757.445 142.862C757.169 142.862 756.945 143.086 756.945 143.362C756.945 143.638 757.169 143.862 757.445 143.862Z" fill="white" fill-opacity="0.5"/>
<path d="M777.445 113.862C777.721 113.862 777.945 113.638 777.945 113.362C777.945 113.086 777.721 112.862 777.445 112.862C777.169 112.862 776.945 113.086 776.945 113.362C776.945 113.638 777.169 113.862 777.445 113.862Z" fill="white" fill-opacity="0.5"/>
<path d="M827.445 133.862C827.721 133.862 827.945 133.638 827.945 133.362C827.945 133.086 827.721 132.862 827.445 132.862C827.169 132.862 826.945 133.086 826.945 133.362C826.945 133.638 827.169 133.862 827.445 133.862Z" fill="white" fill-opacity="0.5"/>
<path d="M886.445 143.862C886.721 143.862 886.945 143.638 886.945 143.362C886.945 143.086 886.721 142.862 886.445 142.862C886.169 142.862 885.945 143.086 885.945 143.362C885.945 143.638 886.169 143.862 886.445 143.862Z" fill="white" fill-opacity="0.5"/>
<path d="M916.445 163.862C916.721 163.862 916.945 163.638 916.945 163.362C916.945 163.086 916.721 162.862 916.445 162.862C916.169 162.862 915.945 163.086 915.945 163.362C915.945 163.638 916.169 163.862 916.445 163.862Z" fill="white" fill-opacity="0.5"/>
<path d="M956.445 153.862C956.721 153.862 956.945 153.638 956.945 153.362C956.945 153.086 956.721 152.862 956.445 152.862C956.169 152.862 955.945 153.086 955.945 153.362C955.945 153.638 956.169 153.862 956.445 153.862Z" fill="white" fill-opacity="0.5"/>
<path d="M976.449 123.862C976.725 123.862 976.949 123.638 976.949 123.362C976.949 123.086 976.725 122.862 976.449 122.862C976.173 122.862 975.949 123.086 975.949 123.362C975.949 123.638 976.173 123.862 976.449 123.862Z" fill="white" fill-opacity="0.5"/>
<path d="M1026.45 143.862C1026.73 143.862 1026.95 143.638 1026.95 143.362C1026.95 143.086 1026.73 142.862 1026.45 142.862C1026.17 142.862 1025.95 143.086 1025.95 143.362C1025.95 143.638 1026.17 143.862 1026.45 143.862Z" fill="white" fill-opacity="0.5"/>
<path d="M685.445 204.862C685.721 204.862 685.945 204.638 685.945 204.362C685.945 204.086 685.721 203.862 685.445 203.862C685.169 203.862 684.945 204.086 684.945 204.362C684.945 204.638 685.169 204.862 685.445 204.862Z" fill="white" fill-opacity="0.5"/>
<path d="M715.445 224.862C715.721 224.862 715.945 224.638 715.945 224.362C715.945 224.086 715.721 223.862 715.445 223.862C715.169 223.862 714.945 224.086 714.945 224.362C714.945 224.638 715.169 224.862 715.445 224.862Z" fill="white" fill-opacity="0.5"/>
<path d="M755.445 214.862C755.721 214.862 755.945 214.638 755.945 214.362C755.945 214.086 755.721 213.862 755.445 213.862C755.169 213.862 754.945 214.086 754.945 214.362C754.945 214.638 755.169 214.862 755.445 214.862Z" fill="white" fill-opacity="0.5"/>
<path d="M775.445 184.862C775.721 184.862 775.945 184.638 775.945 184.362C775.945 184.086 775.721 183.862 775.445 183.862C775.169 183.862 774.945 184.086 774.945 184.362C774.945 184.638 775.169 184.862 775.445 184.862Z" fill="white" fill-opacity="0.5"/>
<path d="M825.445 204.862C825.721 204.862 825.945 204.638 825.945 204.362C825.945 204.086 825.721 203.862 825.445 203.862C825.169 203.862 824.945 204.086 824.945 204.362C824.945 204.638 825.169 204.862 825.445 204.862Z" fill="white" fill-opacity="0.5"/>
<path d="M1029.45 133.862C1029.73 133.862 1029.95 133.638 1029.95 133.362C1029.95 133.086 1029.73 132.862 1029.45 132.862C1029.17 132.862 1028.95 133.086 1028.95 133.362C1028.95 133.638 1029.17 133.862 1029.45 133.862Z" fill="white" fill-opacity="0.5"/>
<path d="M1059.45 153.862C1059.73 153.862 1059.95 153.638 1059.95 153.362C1059.95 153.086 1059.73 152.862 1059.45 152.862C1059.17 152.862 1058.95 153.086 1058.95 153.362C1058.95 153.638 1059.17 153.862 1059.45 153.862Z" fill="white" fill-opacity="0.5"/>
<path d="M1099.45 143.862C1099.73 143.862 1099.95 143.638 1099.95 143.362C1099.95 143.086 1099.73 142.862 1099.45 142.862C1099.17 142.862 1098.95 143.086 1098.95 143.362C1098.95 143.638 1099.17 143.862 1099.45 143.862Z" fill="white" fill-opacity="0.5"/>
<path d="M1119.45 113.862C1119.73 113.862 1119.95 113.638 1119.95 113.362C1119.95 113.086 1119.73 112.862 1119.45 112.862C1119.17 112.862 1118.95 113.086 1118.95 113.362C1118.95 113.638 1119.17 113.862 1119.45 113.862Z" fill="white" fill-opacity="0.5"/>
<path d="M1169.45 133.862C1169.73 133.862 1169.95 133.638 1169.95 133.362C1169.95 133.086 1169.73 132.862 1169.45 132.862C1169.17 132.862 1168.95 133.086 1168.95 133.362C1168.95 133.638 1169.17 133.862 1169.45 133.862Z" fill="white" fill-opacity="0.5"/>
<path d="M1228.45 143.862C1228.73 143.862 1228.95 143.638 1228.95 143.362C1228.95 143.086 1228.73 142.862 1228.45 142.862C1228.17 142.862 1227.95 143.086 1227.95 143.362C1227.95 143.638 1228.17 143.862 1228.45 143.862Z" fill="white" fill-opacity="0.5"/>
<path d="M1258.45 163.862C1258.73 163.862 1258.95 163.638 1258.95 163.362C1258.95 163.086 1258.73 162.862 1258.45 162.862C1258.17 162.862 1257.95 163.086 1257.95 163.362C1257.95 163.638 1258.17 163.862 1258.45 163.862Z" fill="white" fill-opacity="0.5"/>
<path d="M1298.45 153.862C1298.73 153.862 1298.95 153.638 1298.95 153.362C1298.95 153.086 1298.73 152.862 1298.45 152.862C1298.17 152.862 1297.95 153.086 1297.95 153.362C1297.95 153.638 1298.17 153.862 1298.45 153.862Z" fill="white" fill-opacity="0.5"/>
<path d="M1318.45 123.862C1318.73 123.862 1318.95 123.638 1318.95 123.362C1318.95 123.086 1318.73 122.862 1318.45 122.862C1318.17 122.862 1317.95 123.086 1317.95 123.362C1317.95 123.638 1318.17 123.862 1318.45 123.862Z" fill="white" fill-opacity="0.5"/>
<path d="M1368.45 143.862C1368.73 143.862 1368.95 143.638 1368.95 143.362C1368.95 143.086 1368.73 142.862 1368.45 142.862C1368.17 142.862 1367.95 143.086 1367.95 143.362C1367.95 143.638 1368.17 143.862 1368.45 143.862Z" fill="white" fill-opacity="0.5"/>
<path d="M1027.45 204.862C1027.73 204.862 1027.95 204.638 1027.95 204.362C1027.95 204.086 1027.73 203.862 1027.45 203.862C1027.17 203.862 1026.95 204.086 1026.95 204.362C1026.95 204.638 1027.17 204.862 1027.45 204.862Z" fill="white" fill-opacity="0.5"/>
<path d="M1057.45 224.862C1057.73 224.862 1057.95 224.638 1057.95 224.362C1057.95 224.086 1057.73 223.862 1057.45 223.862C1057.17 223.862 1056.95 224.086 1056.95 224.362C1056.95 224.638 1057.17 224.862 1057.45 224.862Z" fill="white" fill-opacity="0.5"/>
<path d="M1097.45 214.862C1097.73 214.862 1097.95 214.638 1097.95 214.362C1097.95 214.086 1097.73 213.862 1097.45 213.862C1097.17 213.862 1096.95 214.086 1096.95 214.362C1096.95 214.638 1097.17 214.862 1097.45 214.862Z" fill="white" fill-opacity="0.5"/>
<path d="M1117.45 184.862C1117.73 184.862 1117.95 184.638 1117.95 184.362C1117.95 184.086 1117.73 183.862 1117.45 183.862C1117.17 183.862 1116.95 184.086 1116.95 184.362C1116.95 184.638 1117.17 184.862 1117.45 184.862Z" fill="white" fill-opacity="0.5"/>
<path d="M1167.45 204.862C1167.73 204.862 1167.95 204.638 1167.95 204.362C1167.95 204.086 1167.73 203.862 1167.45 203.862C1167.17 203.862 1166.95 204.086 1166.95 204.362C1166.95 204.638 1167.17 204.862 1167.45 204.862Z" fill="white" fill-opacity="0.5"/>
</svg>
