<svg width="1440" height="1336" viewBox="0 0 1440 1336" fill="none" xmlns="http://www.w3.org/2000/svg">
<rect y="-1" width="1440" height="780" fill="url(#paint0_linear_1473_24467)"/>
<g filter="url(#filter0_f_1473_24467)">
<path d="M-170 590.336C98.0459 294.336 256 333.627 411 369.396C566 405.164 750 580.896 1060 545.396C1370 509.896 2099.05 849.336 2099.05 849.336L-170 849.336L-170 590.336Z" fill="url(#paint1_linear_1473_24467)"/>
</g>
<g filter="url(#filter1_f_1473_24467)">
<path d="M1291.86 551.16C1079.06 469.268 906.86 483.004 729.36 504.103C551.86 525.201 431.248 463.388 265.86 444.842C100.472 426.296 67.4829 449.222 -11.6396 469.003C-11.6396 556.935 -4.1394 970.871 -4.1394 970.871L1517.96 970.871L1517.96 487.463C1517.96 487.463 1505.05 633.203 1291.86 551.16Z" fill="url(#paint2_linear_1473_24467)"/>
</g>
<g filter="url(#filter2_f_1473_24467)">
<path d="M1291.5 551.158C1078.7 469.265 906.501 483.002 729.001 504.1C551.501 525.199 430.888 463.386 265.5 444.839C100.112 426.293 67.1235 449.22 -11.999 469C-11.999 556.933 -4.49878 970.869 -4.49878 970.869L1517.6 970.869L1517.6 487.461C1517.6 487.461 1504.69 633.201 1291.5 551.158Z" fill="url(#paint3_linear_1473_24467)"/>
</g>
<g filter="url(#filter3_f_1473_24467)">
<path d="M1272.24 664.191C1059.44 582.298 911.121 531.211 689.139 550.191C467.156 569.171 508.667 538.639 343.279 520.093C177.89 501.547 31.1232 571.716 -47.9994 591.497C-47.9994 679.429 -47.9998 1185 -47.9998 1185L1474.1 1185L1474.1 669.43C1474.1 669.43 1485.43 746.234 1272.24 664.191Z" fill="url(#paint4_linear_1473_24467)"/>
</g>
<path d="M979 736.657C766.199 654.764 735.861 651.754 636 688.657C536.14 725.559 478.528 723.106 313.14 704.56C147.752 686.013 60.1233 709.637 -18.9993 729.418C-18.9993 817.35 -18.9988 1171 -18.9988 1171L1503.1 1171L1499 708.66C1499 708.66 1192.19 818.699 979 736.657Z" fill="url(#paint5_linear_1473_24467)"/>
<path d="M1233.1 938.907C1020.3 857.014 1010.12 871.927 788.138 890.907C566.156 909.886 497.527 957.453 332.138 938.907C166.75 920.361 79.1221 943.984 -0.000488086 963.765C-0.000488086 1051.7 -0.000731583 1252.32 -0.000731583 1252.32L1522.1 1252.32L1522.1 938.907C1522.1 938.907 1446.29 1020.95 1233.1 938.907Z" fill="url(#paint6_linear_1473_24467)"/>
<g opacity="0.5" filter="url(#filter4_d_1473_24467)">
<path d="M112 -24C388.118 -7.61615 516 274.324 746 297C976 319.676 1380 241 1453 416" stroke="url(#paint7_linear_1473_24467)" stroke-linecap="round" stroke-dasharray="200 100"/>
</g>
<g opacity="0.2" filter="url(#filter5_d_1473_24467)">
<path d="M78 -12C343 -12 511 301.118 751 317C991 332.882 1384.78 247.526 1447 432" stroke="url(#paint8_linear_1473_24467)" stroke-linecap="round" stroke-dasharray="100 50"/>
</g>
<g opacity="0.2" filter="url(#filter6_d_1473_24467)">
<path d="M68 -2C333 -2 462 293 741 327C1020 361 1386.78 263.526 1449 448" stroke="url(#paint9_linear_1473_24467)" stroke-width="0.5" stroke-linecap="round" stroke-dasharray="50 100"/>
</g>
<g filter="url(#filter7_d_1473_24467)">
<path d="M151 -50C352 -36 510 248.605 747 278C984 307.395 1390.59 206.866 1464 422" stroke="url(#paint10_linear_1473_24467)" stroke-linecap="round" stroke-dasharray="200 100"/>
</g>
<defs>
<filter id="filter0_f_1473_24467" x="-320" y="195" width="2569.04" height="804.336" filterUnits="userSpaceOnUse" color-interpolation-filters="sRGB">
<feFlood flood-opacity="0" result="BackgroundImageFix"/>
<feBlend mode="normal" in="SourceGraphic" in2="BackgroundImageFix" result="shape"/>
<feGaussianBlur stdDeviation="75" result="effect1_foregroundBlur_1473_24467"/>
</filter>
<filter id="filter1_f_1473_24467" x="-161.639" y="288.002" width="1829.6" height="832.869" filterUnits="userSpaceOnUse" color-interpolation-filters="sRGB">
<feFlood flood-opacity="0" result="BackgroundImageFix"/>
<feBlend mode="normal" in="SourceGraphic" in2="BackgroundImageFix" result="shape"/>
<feGaussianBlur stdDeviation="75" result="effect1_foregroundBlur_1473_24467"/>
</filter>
<filter id="filter2_f_1473_24467" x="-161.998" y="288" width="1829.6" height="832.869" filterUnits="userSpaceOnUse" color-interpolation-filters="sRGB">
<feFlood flood-opacity="0" result="BackgroundImageFix"/>
<feBlend mode="normal" in="SourceGraphic" in2="BackgroundImageFix" result="shape"/>
<feGaussianBlur stdDeviation="75" result="effect1_foregroundBlur_1473_24467"/>
</filter>
<filter id="filter3_f_1473_24467" x="-198" y="367.003" width="1822.21" height="968" filterUnits="userSpaceOnUse" color-interpolation-filters="sRGB">
<feFlood flood-opacity="0" result="BackgroundImageFix"/>
<feBlend mode="normal" in="SourceGraphic" in2="BackgroundImageFix" result="shape"/>
<feGaussianBlur stdDeviation="75" result="effect1_foregroundBlur_1473_24467"/>
</filter>
<filter id="filter4_d_1473_24467" x="-67.2474" y="-203.247" width="1699.49" height="798.495" filterUnits="userSpaceOnUse" color-interpolation-filters="sRGB">
<feFlood flood-opacity="0" result="BackgroundImageFix"/>
<feColorMatrix in="SourceAlpha" type="matrix" values="0 0 0 0 0 0 0 0 0 0 0 0 0 0 0 0 0 0 127 0" result="hardAlpha"/>
<feOffset/>
<feGaussianBlur stdDeviation="89.3737"/>
<feColorMatrix type="matrix" values="0 0 0 0 0.129427 0 0 0 0 0.224219 0 0 0 0 0.4375 0 0 0 0.3 0"/>
<feBlend mode="normal" in2="BackgroundImageFix" result="effect1_dropShadow_1473_24467"/>
<feBlend mode="normal" in="SourceGraphic" in2="effect1_dropShadow_1473_24467" result="shape"/>
</filter>
<filter id="filter5_d_1473_24467" x="-101.247" y="-191.247" width="1727.49" height="802.495" filterUnits="userSpaceOnUse" color-interpolation-filters="sRGB">
<feFlood flood-opacity="0" result="BackgroundImageFix"/>
<feColorMatrix in="SourceAlpha" type="matrix" values="0 0 0 0 0 0 0 0 0 0 0 0 0 0 0 0 0 0 127 0" result="hardAlpha"/>
<feOffset/>
<feGaussianBlur stdDeviation="89.3737"/>
<feColorMatrix type="matrix" values="0 0 0 0 0.129427 0 0 0 0 0.224219 0 0 0 0 0.4375 0 0 0 0.3 0"/>
<feBlend mode="normal" in2="BackgroundImageFix" result="effect1_dropShadow_1473_24467"/>
<feBlend mode="normal" in="SourceGraphic" in2="effect1_dropShadow_1473_24467" result="shape"/>
</filter>
<filter id="filter6_d_1473_24467" x="-110.997" y="-180.997" width="1738.99" height="807.995" filterUnits="userSpaceOnUse" color-interpolation-filters="sRGB">
<feFlood flood-opacity="0" result="BackgroundImageFix"/>
<feColorMatrix in="SourceAlpha" type="matrix" values="0 0 0 0 0 0 0 0 0 0 0 0 0 0 0 0 0 0 127 0" result="hardAlpha"/>
<feOffset/>
<feGaussianBlur stdDeviation="89.3737"/>
<feColorMatrix type="matrix" values="0 0 0 0 0.129427 0 0 0 0 0.224219 0 0 0 0 0.4375 0 0 0 0.3 0"/>
<feBlend mode="normal" in2="BackgroundImageFix" result="effect1_dropShadow_1473_24467"/>
<feBlend mode="normal" in="SourceGraphic" in2="effect1_dropShadow_1473_24467" result="shape"/>
</filter>
<filter id="filter7_d_1473_24467" x="-28.2474" y="-229.247" width="1671.49" height="830.495" filterUnits="userSpaceOnUse" color-interpolation-filters="sRGB">
<feFlood flood-opacity="0" result="BackgroundImageFix"/>
<feColorMatrix in="SourceAlpha" type="matrix" values="0 0 0 0 0 0 0 0 0 0 0 0 0 0 0 0 0 0 127 0" result="hardAlpha"/>
<feOffset/>
<feGaussianBlur stdDeviation="89.3737"/>
<feColorMatrix type="matrix" values="0 0 0 0 0.129427 0 0 0 0 0.224219 0 0 0 0 0.4375 0 0 0 0.3 0"/>
<feBlend mode="normal" in2="BackgroundImageFix" result="effect1_dropShadow_1473_24467"/>
<feBlend mode="normal" in="SourceGraphic" in2="effect1_dropShadow_1473_24467" result="shape"/>
</filter>
<linearGradient id="paint0_linear_1473_24467" x1="720" y1="-1" x2="720" y2="779" gradientUnits="userSpaceOnUse">
<stop stop-color="#191A43"/>
<stop offset="1" stop-color="#442D85"/>
</linearGradient>
<linearGradient id="paint1_linear_1473_24467" x1="958.985" y1="349" x2="958.985" y2="667.396" gradientUnits="userSpaceOnUse">
<stop stop-color="#3D14B3" stop-opacity="0.24"/>
<stop offset="1" stop-color="#C5C8CA"/>
</linearGradient>
<linearGradient id="paint2_linear_1473_24467" x1="812.291" y1="412.002" x2="812.291" y2="740.002" gradientUnits="userSpaceOnUse">
<stop stop-color="#7557DA"/>
<stop offset="1" stop-color="#AB282B"/>
</linearGradient>
<linearGradient id="paint3_linear_1473_24467" x1="811.932" y1="412" x2="811.932" y2="740" gradientUnits="userSpaceOnUse">
<stop stop-color="#7557DA"/>
<stop offset="1" stop-color="#AB282B"/>
</linearGradient>
<linearGradient id="paint4_linear_1473_24467" x1="1370.97" y1="243.524" x2="1370.97" y2="1240.83" gradientUnits="userSpaceOnUse">
<stop stop-color="#4B20DD"/>
<stop offset="0.484375" stop-color="#DB5356"/>
<stop offset="1" stop-color="#FF5F8F" stop-opacity="0"/>
</linearGradient>
<linearGradient id="paint5_linear_1473_24467" x1="800.89" y1="614.712" x2="800.89" y2="1307.17" gradientUnits="userSpaceOnUse">
<stop stop-color="#000AFF" stop-opacity="0.25"/>
<stop offset="0.45568" stop-color="#9BAACD"/>
<stop offset="1" stop-color="#F2F6FF"/>
</linearGradient>
<linearGradient id="paint6_linear_1473_24467" x1="761.049" y1="876.004" x2="761.049" y2="1252.32" gradientUnits="userSpaceOnUse">
<stop stop-color="#BCC6F6"/>
<stop offset="1" stop-color="#1F1F47"/>
</linearGradient>
<linearGradient id="paint7_linear_1473_24467" x1="176.256" y1="882.178" x2="1385.14" y2="212.082" gradientUnits="userSpaceOnUse">
<stop stop-color="#844FFC"/>
<stop offset="1" stop-color="#2FB8FF"/>
</linearGradient>
<linearGradient id="paint8_linear_1473_24467" x1="242.519" y1="842.203" x2="1333.41" y2="237.513" gradientUnits="userSpaceOnUse">
<stop stop-color="#844FFC"/>
<stop offset="1" stop-color="#2FB8FF"/>
</linearGradient>
<linearGradient id="paint9_linear_1473_24467" x1="232.519" y1="852.203" x2="1323.41" y2="247.513" gradientUnits="userSpaceOnUse">
<stop stop-color="#844FFC"/>
<stop offset="1" stop-color="#2FB8FF"/>
</linearGradient>
<linearGradient id="paint10_linear_1473_24467" x1="167.06" y1="886.059" x2="1416.11" y2="193.702" gradientUnits="userSpaceOnUse">
<stop stop-color="#844FFC"/>
<stop offset="1" stop-color="#2FB8FF"/>
</linearGradient>
</defs>
</svg>
