<svg width="1440" height="837" viewBox="0 0 1440 837" fill="none" xmlns="http://www.w3.org/2000/svg">
<path d="M-6.90666e-08 62C147.218 34.2486 179 0 358 0C537 0 755 146 959 126C1163 106 1251 185 1336 195C1421 205 1440 202 1440 202L1440 717L-3.68145e-07 717L-6.90666e-08 62Z" fill="url(#paint0_linear)"/>
<path opacity="0.111111" d="M-27.9258 652.545C77.8161 631.71 194.854 608.128 418.377 582.314C641.899 556.501 719.596 546.322 852.556 516.492C985.516 486.661 1026.5 481.81 1316.52 465.781C1607.07 449.723 2015.71 359.062 2015.71 359.062" stroke="url(#paint1_linear)" stroke-width="1.11111"/>
<path opacity="0.222222" d="M-53.2893 620.377C53.2004 598.51 171.046 573.541 396.859 554.057C622.672 534.574 701.117 526.032 834.875 493.208C968.634 460.383 1010.03 456.637 1303.7 456.976C1597.91 457.315 2009.05 357.928 2009.05 357.928" stroke="url(#paint2_linear)" stroke-width="1.22222"/>
<path opacity="0.333333" d="M-78.3965 587.664C28.9091 564.786 147.645 538.453 375.595 525.37C603.545 512.288 682.706 505.406 817.408 469.608C952.111 433.809 993.901 431.182 1290.74 448.007C1588.12 464.864 2002.18 356.814 2002.18 356.814" stroke="url(#paint3_linear)" stroke-width="1.33333"/>
<path opacity="0.444444" d="M-103.238 554.408C4.95111 530.541 124.662 502.868 354.593 496.255C584.525 489.641 664.367 484.442 800.157 445.694C935.948 406.946 978.101 405.45 1277.62 438.869C1577.68 472.35 1995.09 355.715 1995.09 355.715" stroke="url(#paint4_linear)" stroke-width="1.44444"/>
<path opacity="0.555556" d="M-127.796 520.611C-18.6562 495.78 102.112 466.793 333.868 466.714C565.624 466.634 646.112 463.139 783.135 421.47C920.158 379.801 962.646 379.447 1264.35 429.556C1566.61 479.757 1987.8 354.625 1987.8 354.625" stroke="url(#paint5_linear)" stroke-width="1.55556"/>
<path opacity="0.666667" d="M-152.061 486.273C-41.9041 460.505 80.0037 430.235 313.426 436.75C546.848 443.264 627.947 441.494 766.345 396.938C904.743 352.381 947.54 353.181 1250.95 420.062C1554.91 487.066 1980.29 353.538 1980.29 353.538" stroke="url(#paint6_linear)" stroke-width="1.66667"/>
<path opacity="0.777778" d="M-176.015 451.398C-64.7761 424.721 58.3526 393.201 293.281 406.367C528.209 419.533 609.884 419.508 749.799 372.1C889.714 324.693 932.792 326.656 1237.4 410.382C1542.57 494.26 1972.58 352.449 1972.58 352.449" stroke="url(#paint7_linear)" stroke-width="1.77778"/>
<path opacity="0.888889" d="M-199.65 415.989C-87.2625 388.434 37.1676 355.696 273.44 375.568C509.713 395.439 591.926 397.179 733.501 346.961C875.075 296.744 918.406 299.882 1223.72 400.509C1529.6 501.321 1964.64 351.353 1964.64 351.353" stroke="url(#paint8_linear)" stroke-width="1.88889"/>
<path d="M-222.946 103.047C-109.347 74.6468 -3.45404 -0.626842 234 26.0005C471.454 52.6279 549.083 149.123 723.542 126.085C898 103.047 910.472 77.4238 1216 195.001C1522.09 312.793 1956.5 73.2433 1956.5 73.2433" stroke="url(#paint9_linear)"/>
<g style="mix-blend-mode:hard-light">
<circle cx="398" cy="405" r="192" fill="url(#paint10_linear)"/>
</g>
<g style="mix-blend-mode:hard-light">
<circle cx="217" cy="398" r="192" fill="url(#paint11_linear)"/>
</g>
<path d="M1189 483C976.201 401.107 914.986 464.02 693.003 483C471.02 501.98 402.391 549.546 237.003 531C71.6149 512.454 57.9783 594.608 -21.1443 614.389C-21.1443 702.321 -21.1443 836.371 -21.1443 836.371L1555.04 836.371L1555.04 512.189C1555.04 512.189 1402.19 565.043 1189 483Z" fill="url(#paint12_linear)"/>
<defs>
<linearGradient id="paint0_linear" x1="720" y1="8.02064e-07" x2="720" y2="717" gradientUnits="userSpaceOnUse">
<stop stop-color="#242452"/>
<stop offset="1" stop-color="#4926AD"/>
</linearGradient>
<linearGradient id="paint1_linear" x1="2013.93" y1="346.43" x2="2018.14" y2="376.353" gradientUnits="userSpaceOnUse">
<stop stop-color="#FF7373"/>
<stop offset="1" stop-color="#491EB8"/>
</linearGradient>
<linearGradient id="paint2_linear" x1="2006.75" y1="339.251" x2="2012.19" y2="383.494" gradientUnits="userSpaceOnUse">
<stop stop-color="#FF7373"/>
<stop offset="1" stop-color="#491EB8"/>
</linearGradient>
<linearGradient id="paint3_linear" x1="1999.58" y1="332.073" x2="2005.74" y2="390.682" gradientUnits="userSpaceOnUse">
<stop stop-color="#FF7373"/>
<stop offset="1" stop-color="#491EB8"/>
</linearGradient>
<linearGradient id="paint4_linear" x1="1992.4" y1="324.894" x2="1998.78" y2="397.904" gradientUnits="userSpaceOnUse">
<stop stop-color="#FF7373"/>
<stop offset="1" stop-color="#491EB8"/>
</linearGradient>
<linearGradient id="paint5_linear" x1="1985.22" y1="317.715" x2="1991.33" y2="405.149" gradientUnits="userSpaceOnUse">
<stop stop-color="#FF7373"/>
<stop offset="1" stop-color="#491EB8"/>
</linearGradient>
<linearGradient id="paint6_linear" x1="1978.04" y1="310.537" x2="1983.38" y2="412.401" gradientUnits="userSpaceOnUse">
<stop stop-color="#FF7373"/>
<stop offset="1" stop-color="#491EB8"/>
</linearGradient>
<linearGradient id="paint7_linear" x1="1970.86" y1="303.358" x2="1974.92" y2="419.648" gradientUnits="userSpaceOnUse">
<stop stop-color="#FF7373"/>
<stop offset="1" stop-color="#491EB8"/>
</linearGradient>
<linearGradient id="paint8_linear" x1="1963.68" y1="296.179" x2="1965.96" y2="426.878" gradientUnits="userSpaceOnUse">
<stop stop-color="#FF7373"/>
<stop offset="1" stop-color="#491EB8"/>
</linearGradient>
<linearGradient id="paint9_linear" x1="1956.5" y1="20.3911" x2="1956.5" y2="227.575" gradientUnits="userSpaceOnUse">
<stop stop-color="#FF7373"/>
<stop offset="1" stop-color="#491EB8"/>
</linearGradient>
<linearGradient id="paint10_linear" x1="398" y1="335" x2="398" y2="597" gradientUnits="userSpaceOnUse">
<stop stop-color="#2FB8FF" stop-opacity="0.42"/>
<stop offset="1" stop-color="#9EECD9"/>
</linearGradient>
<linearGradient id="paint11_linear" x1="217" y1="308" x2="217" y2="590" gradientUnits="userSpaceOnUse">
<stop stop-color="#BA75FF" stop-opacity="0.49"/>
<stop offset="1" stop-color="#3913B8"/>
</linearGradient>
<linearGradient id="paint12_linear" x1="827.88" y1="407.142" x2="827.88" y2="836" gradientUnits="userSpaceOnUse">
<stop stop-color="#1F1F47"/>
<stop offset="1" stop-color="#1F1F47"/>
</linearGradient>
</defs>
</svg>
