<svg width="1050" height="600" viewBox="0 0 1050 600" fill="none" xmlns="http://www.w3.org/2000/svg">
<g clip-path="url(#clip0_4605:25188)">
<rect width="1050" height="600" fill="white"/>
<rect x="1050" y="600" width="1050" height="600" transform="rotate(-180 1050 600)" fill="#272727"/>
<path d="M238.145 111.586H278.469V118.793H261.91V162H254.703V118.793H238.145V111.586ZM310.876 111.586L330.317 162H323.11L318.645 150.398H295.899L291.434 162H284.227L303.669 111.586H310.876ZM298.641 143.191H315.868L307.29 120.973L298.641 143.191ZM336.076 111.586H376.4V118.793H359.841V162H352.634V118.793H336.076V111.586ZM392.248 111.586H428.987V118.793H399.455V133.207H424.663V140.414H399.455V154.793H428.987V162H392.248V111.586ZM485.855 162L471.441 111.586H478.648L489.828 151.699L500.973 111.586H508.18L519.324 151.699L530.504 111.586H537.711L523.297 162H515.387L504.594 124.207L493.766 162H485.855ZM573.001 111.586L592.442 162H585.235L580.77 150.398H558.024L553.559 162H546.352L565.794 111.586H573.001ZM560.766 143.191H577.993L569.415 120.973L560.766 143.191ZM615.498 111.586V154.793H641.408V162H608.291V111.586H615.498ZM664.463 111.586V133.348L688.51 111.586H698.67L671.389 136.301L699.76 162H689.6L664.463 139.324V162H657.256V111.586H664.463ZM713.534 111.586H750.273V118.793H720.741V133.207H745.948V140.414H720.741V154.793H750.273V162H713.534V111.586ZM808.098 129.586C808.098 136.617 805.098 140.625 799.098 141.609L808.59 162H800.609L791.258 141.855H775.473V162H768.266V111.586H795.863C804.02 111.586 808.098 115.676 808.098 123.855V129.586ZM775.473 134.648H795.477C797.398 134.648 798.781 134.227 799.625 133.383C800.469 132.539 800.891 131.156 800.891 129.234V124.207C800.891 122.285 800.469 120.902 799.625 120.059C798.781 119.215 797.398 118.793 795.477 118.793H775.473V134.648Z" fill="#FABFAB"/>
<path d="M384.486 332.396V335.648H380.883V332.396C380.883 331.904 380.977 331.441 381.164 331.008C381.352 330.562 381.609 330.182 381.938 329.865C382.266 329.537 382.646 329.279 383.08 329.092C383.525 328.893 383.994 328.793 384.486 328.793H395.895C396.387 328.793 396.85 328.893 397.283 329.092C397.729 329.279 398.109 329.537 398.426 329.865C398.754 330.182 399.012 330.562 399.199 331.008C399.398 331.441 399.498 331.904 399.498 332.396V337.002C399.498 337.494 399.451 337.934 399.357 338.32C399.264 338.707 399.111 339.059 398.9 339.375C398.701 339.68 398.443 339.955 398.127 340.201C397.811 340.447 397.424 340.682 396.967 340.904L384.486 346.758V350.396H396.352V347.162H399.955V354H380.883V347.373C380.883 346.881 380.93 346.441 381.023 346.055C381.129 345.668 381.281 345.322 381.48 345.018C381.68 344.713 381.938 344.438 382.254 344.191C382.582 343.934 382.963 343.699 383.396 343.488L395.895 337.617V332.396H384.486ZM422.364 339.498C423.243 339.463 423.87 339.229 424.245 338.795C424.62 338.35 424.807 337.67 424.807 336.756V335.104C424.807 334.143 424.596 333.439 424.174 332.994C423.752 332.549 423.067 332.326 422.118 332.326H415.561C414.612 332.326 413.926 332.549 413.504 332.994C413.082 333.439 412.871 334.143 412.871 335.104V336.756C412.871 337.67 413.059 338.35 413.434 338.795C413.821 339.229 414.448 339.463 415.315 339.498H422.364ZM422.469 350.467C423.43 350.467 424.121 350.244 424.543 349.799C424.965 349.354 425.176 348.656 425.176 347.707V345.756C425.176 344.795 424.965 344.098 424.543 343.664C424.121 343.23 423.43 343.014 422.469 343.014H415.209C414.248 343.014 413.557 343.23 413.135 343.664C412.713 344.098 412.502 344.795 412.502 345.756V347.707C412.502 348.656 412.713 349.354 413.135 349.799C413.557 350.244 414.248 350.467 415.209 350.467H422.469ZM415.104 354C411.014 354 408.969 351.961 408.969 347.883V346.617C408.969 345.047 409.25 343.787 409.813 342.838C410.375 341.889 411.19 341.256 412.256 340.939C411.307 340.494 410.58 339.814 410.077 338.9C409.584 337.975 409.338 336.803 409.338 335.385V334.928C409.338 330.838 411.377 328.793 415.455 328.793H422.223C426.301 328.793 428.34 330.838 428.34 334.928V335.385C428.34 336.803 428.088 337.975 427.584 338.9C427.092 339.814 426.371 340.494 425.422 340.939C426.489 341.256 427.303 341.889 427.866 342.838C428.428 343.787 428.709 345.047 428.709 346.617V347.883C428.709 351.961 426.67 354 422.592 354H415.104ZM443.841 328.793V354H440.237V332.396H435.913V328.793H443.841ZM453.945 342.117H462.364V345.58H453.945V342.117ZM472.099 332.396C472.099 331.904 472.193 331.441 472.38 331.008C472.568 330.562 472.826 330.182 473.154 329.865C473.482 329.537 473.863 329.279 474.296 329.092C474.742 328.893 475.211 328.793 475.703 328.793H487.216C487.709 328.793 488.171 328.893 488.605 329.092C489.05 329.279 489.437 329.537 489.765 329.865C490.093 330.182 490.351 330.562 490.539 331.008C490.726 331.441 490.82 331.904 490.82 332.396V335.648H487.216V332.396H475.703V339.604H487.216C487.709 339.604 488.171 339.697 488.605 339.885C489.05 340.072 489.437 340.33 489.765 340.658C490.093 340.986 490.351 341.373 490.539 341.818C490.726 342.252 490.82 342.715 490.82 343.207V350.396C490.82 350.889 490.726 351.357 490.539 351.803C490.351 352.236 490.093 352.617 489.765 352.945C489.437 353.273 489.05 353.531 488.605 353.719C488.171 353.906 487.709 354 487.216 354H475.703C475.211 354 474.742 353.906 474.296 353.719C473.863 353.531 473.482 353.273 473.154 352.945C472.826 352.617 472.568 352.236 472.38 351.803C472.193 351.357 472.099 350.889 472.099 350.396V332.396ZM475.703 343.207V350.396H487.216V343.207H475.703ZM499.465 346.371H502.998V347.707C502.998 348.656 503.209 349.354 503.631 349.799C504.053 350.244 504.744 350.467 505.705 350.467H512.965C513.926 350.467 514.617 350.244 515.039 349.799C515.461 349.354 515.672 348.656 515.672 347.707V345.756C515.672 344.795 515.461 344.098 515.039 343.664C514.617 343.23 513.926 343.014 512.965 343.014H505.512V339.498H512.859C513.738 339.463 514.365 339.229 514.74 338.795C515.127 338.35 515.32 337.67 515.32 336.756V335.104C515.32 334.143 515.104 333.439 514.67 332.994C514.248 332.549 513.562 332.326 512.613 332.326H506.057C505.107 332.326 504.422 332.549 504 332.994C503.578 333.439 503.367 334.143 503.367 335.104V336.439H499.834V334.928C499.834 330.838 501.873 328.793 505.951 328.793H512.719C514.793 328.793 516.328 329.297 517.324 330.305C518.332 331.312 518.836 332.854 518.836 334.928V335.385C518.836 336.803 518.584 337.975 518.08 338.9C517.588 339.814 516.867 340.494 515.918 340.939C516.984 341.256 517.799 341.889 518.361 342.838C518.924 343.787 519.205 345.047 519.205 346.617V347.883C519.205 351.961 517.166 354 513.088 354H505.6C501.51 354 499.465 351.961 499.465 347.883V346.371ZM548.012 350.396C548.012 350.889 547.918 351.357 547.731 351.803C547.543 352.236 547.286 352.617 546.957 352.945C546.629 353.273 546.243 353.531 545.797 353.719C545.364 353.906 544.901 354 544.409 354H531.805C531.313 354 530.844 353.906 530.399 353.719C529.965 353.531 529.584 353.273 529.256 352.945C528.928 352.617 528.67 352.236 528.483 351.803C528.295 351.357 528.202 350.889 528.202 350.396V332.396C528.202 331.904 528.295 331.441 528.483 331.008C528.67 330.562 528.928 330.182 529.256 329.865C529.584 329.537 529.965 329.279 530.399 329.092C530.844 328.893 531.313 328.793 531.805 328.793H544.409C544.901 328.793 545.364 328.893 545.797 329.092C546.243 329.279 546.629 329.537 546.957 329.865C547.286 330.182 547.543 330.562 547.731 331.008C547.918 331.441 548.012 331.904 548.012 332.396V350.396ZM531.805 332.396V350.396H544.409V332.396H531.805ZM557.747 342.117H566.167V345.58H557.747V342.117ZM588.575 339.498C589.454 339.463 590.081 339.229 590.456 338.795C590.831 338.35 591.019 337.67 591.019 336.756V335.104C591.019 334.143 590.808 333.439 590.386 332.994C589.964 332.549 589.279 332.326 588.329 332.326H581.773C580.823 332.326 580.138 332.549 579.716 332.994C579.294 333.439 579.083 334.143 579.083 335.104V336.756C579.083 337.67 579.271 338.35 579.646 338.795C580.032 339.229 580.659 339.463 581.527 339.498H588.575ZM588.681 350.467C589.642 350.467 590.333 350.244 590.755 349.799C591.177 349.354 591.388 348.656 591.388 347.707V345.756C591.388 344.795 591.177 344.098 590.755 343.664C590.333 343.23 589.642 343.014 588.681 343.014H581.421C580.46 343.014 579.769 343.23 579.347 343.664C578.925 344.098 578.714 344.795 578.714 345.756V347.707C578.714 348.656 578.925 349.354 579.347 349.799C579.769 350.244 580.46 350.467 581.421 350.467H588.681ZM581.316 354C577.226 354 575.181 351.961 575.181 347.883V346.617C575.181 345.047 575.462 343.787 576.025 342.838C576.587 341.889 577.402 341.256 578.468 340.939C577.519 340.494 576.792 339.814 576.288 338.9C575.796 337.975 575.55 336.803 575.55 335.385V334.928C575.55 330.838 577.589 328.793 581.667 328.793H588.435C592.513 328.793 594.552 330.838 594.552 334.928V335.385C594.552 336.803 594.3 337.975 593.796 338.9C593.304 339.814 592.583 340.494 591.634 340.939C592.7 341.256 593.515 341.889 594.077 342.838C594.64 343.787 594.921 345.047 594.921 346.617V347.883C594.921 351.961 592.882 354 588.804 354H581.316ZM607.539 332.396V335.648H603.935V332.396C603.935 331.904 604.029 331.441 604.216 331.008C604.404 330.562 604.662 330.182 604.99 329.865C605.318 329.537 605.699 329.279 606.132 329.092C606.578 328.893 607.046 328.793 607.539 328.793H618.947C619.439 328.793 619.902 328.893 620.336 329.092C620.781 329.279 621.162 329.537 621.478 329.865C621.806 330.182 622.064 330.562 622.252 331.008C622.451 331.441 622.55 331.904 622.55 332.396V337.002C622.55 337.494 622.504 337.934 622.41 338.32C622.316 338.707 622.164 339.059 621.953 339.375C621.754 339.68 621.496 339.955 621.179 340.201C620.863 340.447 620.476 340.682 620.019 340.904L607.539 346.758V350.396H619.404V347.162H623.007V354H603.935V347.373C603.935 346.881 603.982 346.441 604.076 346.055C604.181 345.668 604.334 345.322 604.533 345.018C604.732 344.713 604.99 344.438 605.306 344.191C605.634 343.934 606.015 343.699 606.449 343.488L618.947 337.617V332.396H607.539ZM638.508 328.793V354H634.904V332.396H630.58V328.793H638.508ZM652.215 332.396V335.648H648.612V332.396C648.612 331.904 648.705 331.441 648.893 331.008C649.08 330.562 649.338 330.182 649.666 329.865C649.995 329.537 650.375 329.279 650.809 329.092C651.254 328.893 651.723 328.793 652.215 328.793H663.623C664.116 328.793 664.579 328.893 665.012 329.092C665.457 329.279 665.838 329.537 666.155 329.865C666.483 330.182 666.741 330.562 666.928 331.008C667.127 331.441 667.227 331.904 667.227 332.396V337.002C667.227 337.494 667.18 337.934 667.086 338.32C666.993 338.707 666.84 339.059 666.629 339.375C666.43 339.68 666.172 339.955 665.856 340.201C665.539 340.447 665.153 340.682 664.696 340.904L652.215 346.758V350.396H664.08V347.162H667.684V354H648.612V347.373C648.612 346.881 648.659 346.441 648.752 346.055C648.858 345.668 649.01 345.322 649.209 345.018C649.409 344.713 649.666 344.438 649.983 344.191C650.311 343.934 650.692 343.699 651.125 343.488L663.623 337.617V332.396H652.215Z" fill="#FABFAB"/>
<path d="M369.883 427.279H373.328V442.537H382.979V427.279H386.441V446H382.979V442.836C382.943 443.27 382.826 443.68 382.627 444.066C382.428 444.453 382.17 444.793 381.854 445.086C381.549 445.367 381.197 445.59 380.799 445.754C380.4 445.918 379.979 446 379.533 446H373.328C372.859 446 372.414 445.912 371.992 445.736C371.57 445.549 371.201 445.303 370.885 444.998C370.58 444.682 370.334 444.312 370.146 443.891C369.971 443.469 369.883 443.018 369.883 442.537V427.279ZM412.366 442.537C412.366 443.018 412.272 443.469 412.084 443.891C411.909 444.312 411.663 444.682 411.346 444.998C411.041 445.303 410.678 445.549 410.256 445.736C409.834 445.912 409.383 446 408.903 446H399.252V453.559H395.807V427.279H399.252V430.443C399.288 429.998 399.405 429.588 399.604 429.213C399.803 428.826 400.055 428.492 400.36 428.211C400.664 427.918 401.016 427.689 401.414 427.525C401.825 427.361 402.258 427.279 402.715 427.279H408.903C409.383 427.279 409.834 427.373 410.256 427.561C410.678 427.736 411.041 427.982 411.346 428.299C411.663 428.604 411.909 428.967 412.084 429.389C412.272 429.811 412.366 430.262 412.366 430.742V442.537ZM408.903 442.537V430.742H399.252V442.537H408.903ZM425.37 427.279V446H421.907V427.279H425.37ZM421.731 420.072H425.546V423.676H421.731V420.072ZM451.488 446H448.025V430.742H438.374V446H434.929V427.279H438.374V430.584C438.398 430.127 438.503 429.699 438.691 429.301C438.878 428.891 439.124 428.539 439.429 428.246C439.745 427.941 440.109 427.707 440.519 427.543C440.929 427.367 441.368 427.279 441.837 427.279H448.025C448.505 427.279 448.956 427.373 449.378 427.561C449.8 427.736 450.163 427.982 450.468 428.299C450.784 428.604 451.03 428.967 451.206 429.389C451.394 429.811 451.488 430.262 451.488 430.742V446ZM476.691 438.406H464.298V442.537H476.691V446H464.298C463.83 446 463.384 445.912 462.963 445.736C462.541 445.549 462.171 445.303 461.855 444.998C461.55 444.682 461.304 444.312 461.117 443.891C460.941 443.469 460.853 443.018 460.853 442.537V430.742C460.853 430.262 460.941 429.811 461.117 429.389C461.304 428.967 461.55 428.604 461.855 428.299C462.171 427.982 462.541 427.736 462.963 427.561C463.384 427.373 463.83 427.279 464.298 427.279H473.228C473.709 427.279 474.16 427.373 474.582 427.561C475.004 427.736 475.367 427.982 475.671 428.299C475.988 428.604 476.234 428.967 476.41 429.389C476.597 429.811 476.691 430.262 476.691 430.742V438.406ZM464.298 430.742V434.943H473.228V430.742H464.298ZM486.074 437.826C486.074 437.346 486.162 436.9 486.338 436.49C486.525 436.068 486.771 435.699 487.076 435.383C487.393 435.066 487.762 434.82 488.184 434.645C488.605 434.457 489.051 434.363 489.52 434.363H498.449V430.742H487.146V427.279H498.449C498.93 427.279 499.381 427.373 499.803 427.561C500.225 427.736 500.588 427.982 500.893 428.299C501.209 428.604 501.455 428.967 501.631 429.389C501.818 429.811 501.912 430.262 501.912 430.742V446H498.449V442.836C498.414 443.27 498.297 443.68 498.098 444.066C497.898 444.453 497.641 444.793 497.324 445.086C497.02 445.367 496.668 445.59 496.27 445.754C495.871 445.918 495.449 446 495.004 446H489.52C489.051 446 488.605 445.912 488.184 445.736C487.762 445.549 487.393 445.303 487.076 444.998C486.771 444.682 486.525 444.312 486.338 443.891C486.162 443.469 486.074 443.018 486.074 442.537V437.826ZM489.52 442.537H498.449V437.826H489.52V442.537ZM527.854 442.537C527.854 443.018 527.76 443.469 527.573 443.891C527.397 444.312 527.151 444.682 526.834 444.998C526.53 445.303 526.166 445.549 525.745 445.736C525.323 445.912 524.871 446 524.391 446H514.741V453.559H511.295V427.279H514.741V430.443C514.776 429.998 514.893 429.588 515.092 429.213C515.291 428.826 515.543 428.492 515.848 428.211C516.153 427.918 516.504 427.689 516.903 427.525C517.313 427.361 517.746 427.279 518.204 427.279H524.391C524.871 427.279 525.323 427.373 525.745 427.561C526.166 427.736 526.53 427.982 526.834 428.299C527.151 428.604 527.397 428.967 527.573 429.389C527.76 429.811 527.854 430.262 527.854 430.742V442.537ZM524.391 442.537V430.742H514.741V442.537H524.391ZM553.778 442.537C553.778 443.018 553.684 443.469 553.497 443.891C553.321 444.312 553.075 444.682 552.759 444.998C552.454 445.303 552.091 445.549 551.669 445.736C551.247 445.912 550.796 446 550.315 446H540.665V453.559H537.22V427.279H540.665V430.443C540.7 429.998 540.817 429.588 541.016 429.213C541.216 428.826 541.468 428.492 541.772 428.211C542.077 427.918 542.429 427.689 542.827 427.525C543.237 427.361 543.671 427.279 544.128 427.279H550.315C550.796 427.279 551.247 427.373 551.669 427.561C552.091 427.736 552.454 427.982 552.759 428.299C553.075 428.604 553.321 428.967 553.497 429.389C553.684 429.811 553.778 430.262 553.778 430.742V442.537ZM550.315 442.537V430.742H540.665V442.537H550.315ZM574.446 442.537V438.195H566.238C565.757 438.195 565.306 438.107 564.884 437.932C564.462 437.744 564.093 437.498 563.777 437.193C563.472 436.877 563.226 436.508 563.038 436.086C562.863 435.664 562.775 435.213 562.775 434.732V430.742C562.775 430.262 562.863 429.811 563.038 429.389C563.226 428.967 563.472 428.604 563.777 428.299C564.093 427.982 564.462 427.736 564.884 427.561C565.306 427.373 565.757 427.279 566.238 427.279H577.189V430.742H566.238V434.732H574.446C574.927 434.732 575.372 434.826 575.782 435.014C576.204 435.189 576.573 435.436 576.89 435.752C577.206 436.057 577.452 436.42 577.628 436.842C577.816 437.264 577.909 437.715 577.909 438.195V442.537C577.909 443.018 577.816 443.469 577.628 443.891C577.452 444.312 577.206 444.682 576.89 444.998C576.573 445.303 576.204 445.549 575.782 445.736C575.372 445.912 574.927 446 574.446 446H562.775V442.537H574.446ZM586.923 440.744H592.179V446H586.923V440.744ZM605.008 430.742V442.537H613.938V439.373H617.4V442.537C617.4 443.018 617.307 443.469 617.119 443.891C616.943 444.312 616.697 444.682 616.381 444.998C616.076 445.303 615.713 445.549 615.291 445.736C614.869 445.912 614.418 446 613.938 446H605.008C604.539 446 604.094 445.912 603.672 445.736C603.25 445.549 602.881 445.303 602.564 444.998C602.26 444.682 602.014 444.312 601.826 443.891C601.65 443.469 601.562 443.018 601.562 442.537V430.742C601.562 430.262 601.65 429.811 601.826 429.389C602.014 428.967 602.26 428.604 602.564 428.299C602.881 427.982 603.25 427.736 603.672 427.561C604.094 427.373 604.539 427.279 605.008 427.279H613.938C614.418 427.279 614.869 427.373 615.291 427.561C615.713 427.736 616.076 427.982 616.381 428.299C616.697 428.604 616.943 428.967 617.119 429.389C617.307 429.811 617.4 430.262 617.4 430.742V433.906H613.938V430.742H605.008ZM642.973 442.537C642.973 443.018 642.879 443.469 642.692 443.891C642.516 444.312 642.27 444.682 641.954 444.998C641.649 445.303 641.286 445.549 640.864 445.736C640.454 445.912 640.008 446 639.528 446H630.229C629.76 446 629.315 445.912 628.893 445.736C628.471 445.549 628.102 445.303 627.786 444.998C627.481 444.682 627.235 444.312 627.047 443.891C626.871 443.469 626.784 443.018 626.784 442.537V430.742C626.784 430.262 626.871 429.811 627.047 429.389C627.235 428.967 627.481 428.604 627.786 428.299C628.102 427.982 628.471 427.736 628.893 427.561C629.315 427.373 629.76 427.279 630.229 427.279H639.528C640.008 427.279 640.454 427.373 640.864 427.561C641.286 427.736 641.649 427.982 641.954 428.299C642.27 428.604 642.516 428.967 642.692 429.389C642.879 429.811 642.973 430.262 642.973 430.742V442.537ZM630.229 430.742V442.537H639.528V430.742H630.229ZM667.192 430.742V446H663.729V430.742H655.802V446H652.356V427.279H655.802V430.584C655.825 430.127 655.93 429.699 656.118 429.301C656.305 428.891 656.552 428.539 656.856 428.246C657.173 427.941 657.536 427.707 657.946 427.543C658.356 427.367 658.796 427.279 659.264 427.279H663.729C664.186 427.279 664.62 427.367 665.03 427.543C665.44 427.707 665.804 427.941 666.12 428.246C666.436 428.539 666.688 428.891 666.876 429.301C667.075 429.699 667.18 430.127 667.192 430.584C667.216 430.127 667.315 429.699 667.491 429.301C667.679 428.891 667.925 428.539 668.229 428.246C668.546 427.941 668.909 427.707 669.319 427.543C669.729 427.367 670.169 427.279 670.638 427.279H675.102C675.583 427.279 676.034 427.373 676.456 427.561C676.878 427.736 677.241 427.982 677.546 428.299C677.862 428.604 678.108 428.967 678.284 429.389C678.471 429.811 678.565 430.262 678.565 430.742V446H675.102V430.742H667.192Z" fill="#FABFAB"/>
<path d="M284.793 381.279H289.363V375.514H292.826V381.279H298.979V384.742H292.826V396.537H298.979V400H292.826C292.357 400 291.912 399.912 291.49 399.736C291.068 399.549 290.699 399.303 290.383 398.998C290.066 398.682 289.814 398.312 289.627 397.891C289.451 397.469 289.363 397.018 289.363 396.537V384.742H284.793V381.279ZM308.362 391.826C308.362 391.346 308.45 390.9 308.625 390.49C308.813 390.068 309.059 389.699 309.364 389.383C309.68 389.066 310.049 388.82 310.471 388.645C310.893 388.457 311.338 388.363 311.807 388.363H320.737V384.742H309.434V381.279H320.737C321.217 381.279 321.668 381.373 322.09 381.561C322.512 381.736 322.875 381.982 323.18 382.299C323.496 382.604 323.743 382.967 323.918 383.389C324.106 383.811 324.2 384.262 324.2 384.742V400H320.737V396.836C320.702 397.27 320.584 397.68 320.385 398.066C320.186 398.453 319.928 398.793 319.612 399.086C319.307 399.367 318.955 399.59 318.557 399.754C318.159 399.918 317.737 400 317.291 400H311.807C311.338 400 310.893 399.912 310.471 399.736C310.049 399.549 309.68 399.303 309.364 398.998C309.059 398.682 308.813 398.312 308.625 397.891C308.45 397.469 308.362 397.018 308.362 396.537V391.826ZM311.807 396.537H320.737V391.826H311.807V396.537ZM332.493 381.279H337.063V375.514H340.526V381.279H346.679V384.742H340.526V396.537H346.679V400H340.526C340.057 400 339.612 399.912 339.19 399.736C338.768 399.549 338.399 399.303 338.083 398.998C337.766 398.682 337.514 398.312 337.327 397.891C337.151 397.469 337.063 397.018 337.063 396.537V384.742H332.493V381.279ZM371.9 392.406H359.507V396.537H371.9V400H359.507C359.038 400 358.593 399.912 358.171 399.736C357.749 399.549 357.38 399.303 357.064 398.998C356.759 398.682 356.513 398.312 356.325 397.891C356.15 397.469 356.062 397.018 356.062 396.537V384.742C356.062 384.262 356.15 383.811 356.325 383.389C356.513 382.967 356.759 382.604 357.064 382.299C357.38 381.982 357.749 381.736 358.171 381.561C358.593 381.373 359.038 381.279 359.507 381.279H368.437C368.917 381.279 369.368 381.373 369.79 381.561C370.212 381.736 370.575 381.982 370.88 382.299C371.196 382.604 371.443 382.967 371.618 383.389C371.806 383.811 371.9 384.262 371.9 384.742V392.406ZM359.507 384.742V388.943H368.437V384.742H359.507ZM389.738 385.814C389.738 385.334 389.826 384.889 390.002 384.479C390.189 384.057 390.435 383.688 390.74 383.371C391.056 383.055 391.425 382.809 391.847 382.633C392.269 382.445 392.72 382.352 393.201 382.352H397.947C398.404 382.352 398.838 382.439 399.248 382.615C399.67 382.791 400.033 383.031 400.338 383.336C400.654 383.629 400.906 383.98 401.093 384.391C401.293 384.789 401.398 385.217 401.41 385.674V382.352H404.855V396.537H409.865V383.477C409.865 382.656 409.748 381.924 409.513 381.279C409.279 380.635 408.933 380.09 408.476 379.645C408.031 379.188 407.486 378.842 406.841 378.607C406.197 378.373 405.464 378.256 404.644 378.256H390.318C389.498 378.256 388.765 378.373 388.121 378.607C387.476 378.842 386.931 379.188 386.486 379.645C386.041 380.09 385.695 380.635 385.449 381.279C385.214 381.924 385.097 382.656 385.097 383.477V398.734C385.097 399.566 385.214 400.311 385.449 400.967C385.683 401.635 386.023 402.197 386.468 402.654C386.914 403.123 387.459 403.48 388.103 403.727C388.748 403.973 389.486 404.096 390.318 404.096H409.039C409.039 404.553 408.945 404.992 408.757 405.414C408.57 405.836 408.318 406.205 408.002 406.521C407.685 406.838 407.316 407.09 406.894 407.277C406.472 407.465 406.033 407.559 405.576 407.559H390.459C389.123 407.559 387.91 407.348 386.82 406.926C385.73 406.516 384.798 405.924 384.025 405.15C383.263 404.389 382.671 403.463 382.25 402.373C381.839 401.283 381.634 400.07 381.634 398.734V383.617C381.634 382.281 381.839 381.068 382.25 379.979C382.671 378.889 383.263 377.963 384.025 377.201C384.798 376.428 385.73 375.836 386.82 375.426C387.91 375.004 389.123 374.793 390.459 374.793H404.504C405.839 374.793 407.052 375.004 408.142 375.426C409.232 375.836 410.158 376.428 410.92 377.201C411.693 377.963 412.285 378.889 412.695 379.979C413.117 381.068 413.328 382.281 413.328 383.617V396.537C413.328 397.018 413.234 397.469 413.046 397.891C412.871 398.312 412.625 398.682 412.308 398.998C411.992 399.303 411.623 399.549 411.201 399.736C410.791 399.912 410.345 400 409.865 400H404.855C404.398 400 403.964 399.918 403.554 399.754C403.156 399.59 402.804 399.367 402.5 399.086C402.195 398.793 401.943 398.453 401.744 398.066C401.556 397.68 401.445 397.27 401.41 396.836C401.375 397.27 401.252 397.68 401.041 398.066C400.841 398.453 400.584 398.793 400.267 399.086C399.963 399.367 399.611 399.59 399.213 399.754C398.814 399.918 398.392 400 397.947 400H393.201C392.72 400 392.269 399.912 391.847 399.736C391.425 399.549 391.056 399.303 390.74 398.998C390.435 398.682 390.189 398.312 390.002 397.891C389.826 397.469 389.738 397.018 389.738 396.537V385.814ZM401.41 385.814H393.201V396.537H401.41V385.814ZM423.062 381.279H426.508V396.537H436.158V381.279H439.621V400H436.158V396.836C436.123 397.27 436.006 397.68 435.807 398.066C435.607 398.453 435.35 398.793 435.033 399.086C434.729 399.367 434.377 399.59 433.979 399.754C433.58 399.918 433.158 400 432.713 400H426.508C426.039 400 425.594 399.912 425.172 399.736C424.75 399.549 424.381 399.303 424.064 398.998C423.76 398.682 423.514 398.312 423.326 397.891C423.15 397.469 423.062 397.018 423.062 396.537V381.279ZM465.545 396.537C465.545 397.018 465.452 397.469 465.264 397.891C465.088 398.312 464.842 398.682 464.526 398.998C464.221 399.303 463.858 399.549 463.436 399.736C463.014 399.912 462.563 400 462.082 400H452.432V407.559H448.987V381.279H452.432V384.443C452.467 383.998 452.584 383.588 452.784 383.213C452.983 382.826 453.235 382.492 453.539 382.211C453.844 381.918 454.196 381.689 454.594 381.525C455.004 381.361 455.438 381.279 455.895 381.279H462.082C462.563 381.279 463.014 381.373 463.436 381.561C463.858 381.736 464.221 381.982 464.526 382.299C464.842 382.604 465.088 382.967 465.264 383.389C465.452 383.811 465.545 384.262 465.545 384.742V396.537ZM462.082 396.537V384.742H452.432V396.537H462.082ZM478.55 381.279V400H475.087V381.279H478.55ZM474.911 374.072H478.725V377.676H474.911V374.072ZM504.667 400H501.204V384.742H491.554V400H488.109V381.279H491.554V384.584C491.577 384.127 491.683 383.699 491.87 383.301C492.058 382.891 492.304 382.539 492.609 382.246C492.925 381.941 493.288 381.707 493.698 381.543C494.109 381.367 494.548 381.279 495.017 381.279H501.204C501.685 381.279 502.136 381.373 502.558 381.561C502.98 381.736 503.343 381.982 503.648 382.299C503.964 382.604 504.21 382.967 504.386 383.389C504.573 383.811 504.667 384.262 504.667 384.742V400ZM529.871 392.406H517.478V396.537H529.871V400H517.478C517.009 400 516.564 399.912 516.142 399.736C515.72 399.549 515.351 399.303 515.035 398.998C514.73 398.682 514.484 398.312 514.296 397.891C514.121 397.469 514.033 397.018 514.033 396.537V384.742C514.033 384.262 514.121 383.811 514.296 383.389C514.484 382.967 514.73 382.604 515.035 382.299C515.351 381.982 515.72 381.736 516.142 381.561C516.564 381.373 517.009 381.279 517.478 381.279H526.408C526.888 381.279 527.339 381.373 527.761 381.561C528.183 381.736 528.546 381.982 528.851 382.299C529.168 382.604 529.414 382.967 529.589 383.389C529.777 383.811 529.871 384.262 529.871 384.742V392.406ZM517.478 384.742V388.943H526.408V384.742H517.478ZM539.254 391.826C539.254 391.346 539.342 390.9 539.518 390.49C539.705 390.068 539.951 389.699 540.256 389.383C540.572 389.066 540.941 388.82 541.363 388.645C541.785 388.457 542.23 388.363 542.699 388.363H551.629V384.742H540.326V381.279H551.629C552.109 381.279 552.561 381.373 552.982 381.561C553.404 381.736 553.768 381.982 554.072 382.299C554.389 382.604 554.635 382.967 554.811 383.389C554.998 383.811 555.092 384.262 555.092 384.742V400H551.629V396.836C551.594 397.27 551.477 397.68 551.277 398.066C551.078 398.453 550.82 398.793 550.504 399.086C550.199 399.367 549.848 399.59 549.449 399.754C549.051 399.918 548.629 400 548.184 400H542.699C542.23 400 541.785 399.912 541.363 399.736C540.941 399.549 540.572 399.303 540.256 398.998C539.951 398.682 539.705 398.312 539.518 397.891C539.342 397.469 539.254 397.018 539.254 396.537V391.826ZM542.699 396.537H551.629V391.826H542.699V396.537ZM581.034 396.537C581.034 397.018 580.94 397.469 580.752 397.891C580.577 398.312 580.33 398.682 580.014 398.998C579.709 399.303 579.346 399.549 578.924 399.736C578.502 399.912 578.051 400 577.571 400H567.92V407.559H564.475V381.279H567.92V384.443C567.955 383.998 568.073 383.588 568.272 383.213C568.471 382.826 568.723 382.492 569.028 382.211C569.332 381.918 569.684 381.689 570.082 381.525C570.493 381.361 570.926 381.279 571.383 381.279H577.571C578.051 381.279 578.502 381.373 578.924 381.561C579.346 381.736 579.709 381.982 580.014 382.299C580.33 382.604 580.577 382.967 580.752 383.389C580.94 383.811 581.034 384.262 581.034 384.742V396.537ZM577.571 396.537V384.742H567.92V396.537H577.571ZM606.958 396.537C606.958 397.018 606.864 397.469 606.677 397.891C606.501 398.312 606.255 398.682 605.938 398.998C605.634 399.303 605.27 399.549 604.848 399.736C604.427 399.912 603.975 400 603.495 400H593.845V407.559H590.399V381.279H593.845V384.443C593.88 383.998 593.997 383.588 594.196 383.213C594.395 382.826 594.647 382.492 594.952 382.211C595.257 381.918 595.608 381.689 596.007 381.525C596.417 381.361 596.85 381.279 597.307 381.279H603.495C603.975 381.279 604.427 381.373 604.848 381.561C605.27 381.736 605.634 381.982 605.938 382.299C606.255 382.604 606.501 382.967 606.677 383.389C606.864 383.811 606.958 384.262 606.958 384.742V396.537ZM603.495 396.537V384.742H593.845V396.537H603.495ZM627.626 396.537V392.195H619.417C618.937 392.195 618.486 392.107 618.064 391.932C617.642 391.744 617.273 391.498 616.956 391.193C616.652 390.877 616.405 390.508 616.218 390.086C616.042 389.664 615.954 389.213 615.954 388.732V384.742C615.954 384.262 616.042 383.811 616.218 383.389C616.405 382.967 616.652 382.604 616.956 382.299C617.273 381.982 617.642 381.736 618.064 381.561C618.486 381.373 618.937 381.279 619.417 381.279H630.368V384.742H619.417V388.732H627.626C628.107 388.732 628.552 388.826 628.962 389.014C629.384 389.189 629.753 389.436 630.07 389.752C630.386 390.057 630.632 390.42 630.808 390.842C630.995 391.264 631.089 391.715 631.089 392.195V396.537C631.089 397.018 630.995 397.469 630.808 397.891C630.632 398.312 630.386 398.682 630.07 398.998C629.753 399.303 629.384 399.549 628.962 399.736C628.552 399.912 628.107 400 627.626 400H615.954V396.537H627.626ZM640.103 394.744H645.359V400H640.103V394.744ZM658.188 384.742V396.537H667.117V393.373H670.58V396.537C670.58 397.018 670.486 397.469 670.299 397.891C670.123 398.312 669.877 398.682 669.561 398.998C669.256 399.303 668.893 399.549 668.471 399.736C668.049 399.912 667.598 400 667.117 400H658.188C657.719 400 657.273 399.912 656.852 399.736C656.43 399.549 656.061 399.303 655.744 398.998C655.439 398.682 655.193 398.312 655.006 397.891C654.83 397.469 654.742 397.018 654.742 396.537V384.742C654.742 384.262 654.83 383.811 655.006 383.389C655.193 382.967 655.439 382.604 655.744 382.299C656.061 381.982 656.43 381.736 656.852 381.561C657.273 381.373 657.719 381.279 658.188 381.279H667.117C667.598 381.279 668.049 381.373 668.471 381.561C668.893 381.736 669.256 381.982 669.561 382.299C669.877 382.604 670.123 382.967 670.299 383.389C670.486 383.811 670.58 384.262 670.58 384.742V387.906H667.117V384.742H658.188ZM696.153 396.537C696.153 397.018 696.059 397.469 695.871 397.891C695.696 398.312 695.45 398.682 695.133 398.998C694.829 399.303 694.465 399.549 694.043 399.736C693.633 399.912 693.188 400 692.707 400H683.409C682.94 400 682.495 399.912 682.073 399.736C681.651 399.549 681.282 399.303 680.965 398.998C680.661 398.682 680.414 398.312 680.227 397.891C680.051 397.469 679.963 397.018 679.963 396.537V384.742C679.963 384.262 680.051 383.811 680.227 383.389C680.414 382.967 680.661 382.604 680.965 382.299C681.282 381.982 681.651 381.736 682.073 381.561C682.495 381.373 682.94 381.279 683.409 381.279H692.707C693.188 381.279 693.633 381.373 694.043 381.561C694.465 381.736 694.829 381.982 695.133 382.299C695.45 382.604 695.696 382.967 695.871 383.389C696.059 383.811 696.153 384.262 696.153 384.742V396.537ZM683.409 384.742V396.537H692.707V384.742H683.409ZM720.372 384.742V400H716.909V384.742H708.981V400H705.536V381.279H708.981V384.584C709.005 384.127 709.11 383.699 709.298 383.301C709.485 382.891 709.731 382.539 710.036 382.246C710.352 381.941 710.716 381.707 711.126 381.543C711.536 381.367 711.975 381.279 712.444 381.279H716.909C717.366 381.279 717.8 381.367 718.21 381.543C718.62 381.707 718.983 381.941 719.3 382.246C719.616 382.539 719.868 382.891 720.055 383.301C720.255 383.699 720.36 384.127 720.372 384.584C720.395 384.127 720.495 383.699 720.671 383.301C720.858 382.891 721.104 382.539 721.409 382.246C721.725 381.941 722.089 381.707 722.499 381.543C722.909 381.367 723.348 381.279 723.817 381.279H728.282C728.763 381.279 729.214 381.373 729.636 381.561C730.057 381.736 730.421 381.982 730.725 382.299C731.042 382.604 731.288 382.967 731.464 383.389C731.651 383.811 731.745 384.262 731.745 384.742V400H728.282V384.742H720.372Z" fill="#FABFAB"/>
<path d="M420.234 195.396C420.234 194.904 420.328 194.441 420.516 194.008C420.703 193.562 420.961 193.182 421.289 192.865C421.617 192.537 421.998 192.279 422.432 192.092C422.877 191.893 423.346 191.793 423.838 191.793H437.514C438.006 191.793 438.469 191.893 438.902 192.092C439.348 192.279 439.734 192.537 440.062 192.865C440.391 193.182 440.648 193.562 440.836 194.008C441.023 194.441 441.117 194.904 441.117 195.396V198.648H437.514V195.396H423.838V213.396H437.514V210.162H441.117V213.396C441.117 213.889 441.023 214.357 440.836 214.803C440.648 215.236 440.391 215.617 440.062 215.945C439.734 216.273 439.348 216.531 438.902 216.719C438.469 216.906 438.006 217 437.514 217H423.838C423.346 217 422.877 216.906 422.432 216.719C421.998 216.531 421.617 216.273 421.289 215.945C420.961 215.617 420.703 215.236 420.516 214.803C420.328 214.357 420.234 213.889 420.234 213.396V195.396ZM462.721 213.537C462.721 214.018 462.627 214.469 462.439 214.891C462.264 215.312 462.018 215.682 461.701 215.998C461.396 216.303 461.033 216.549 460.611 216.736C460.201 216.912 459.756 217 459.275 217H449.977C449.508 217 449.062 216.912 448.641 216.736C448.219 216.549 447.85 216.303 447.533 215.998C447.229 215.682 446.982 215.312 446.795 214.891C446.619 214.469 446.531 214.018 446.531 213.537V201.742C446.531 201.262 446.619 200.811 446.795 200.389C446.982 199.967 447.229 199.604 447.533 199.299C447.85 198.982 448.219 198.736 448.641 198.561C449.062 198.373 449.508 198.279 449.977 198.279H459.275C459.756 198.279 460.201 198.373 460.611 198.561C461.033 198.736 461.396 198.982 461.701 199.299C462.018 199.604 462.264 199.967 462.439 200.389C462.627 200.811 462.721 201.262 462.721 201.742V213.537ZM449.977 201.742V213.537H459.275V201.742H449.977ZM468.504 205.117H476.924V208.58H468.504V205.117ZM483.059 191.793H501.428V195.396H486.662V202.604H499.266V206.207H486.662V217H483.059V191.793ZM522.311 213.537C522.311 214.018 522.217 214.469 522.029 214.891C521.854 215.312 521.607 215.682 521.291 215.998C520.986 216.303 520.623 216.549 520.201 216.736C519.791 216.912 519.346 217 518.865 217H509.566C509.098 217 508.652 216.912 508.23 216.736C507.809 216.549 507.439 216.303 507.123 215.998C506.818 215.682 506.572 215.312 506.385 214.891C506.209 214.469 506.121 214.018 506.121 213.537V201.742C506.121 201.262 506.209 200.811 506.385 200.389C506.572 199.967 506.818 199.604 507.123 199.299C507.439 198.982 507.809 198.736 508.23 198.561C508.652 198.373 509.098 198.279 509.566 198.279H518.865C519.346 198.279 519.791 198.373 520.201 198.561C520.623 198.736 520.986 198.982 521.291 199.299C521.607 199.604 521.854 199.967 522.029 200.389C522.217 200.811 522.311 201.262 522.311 201.742V213.537ZM509.566 201.742V213.537H518.865V201.742H509.566ZM528.094 198.279H531.539V213.537H541.189V198.279H544.652V217H541.189V213.836C541.154 214.27 541.037 214.68 540.838 215.066C540.639 215.453 540.381 215.793 540.064 216.086C539.76 216.367 539.408 216.59 539.01 216.754C538.611 216.918 538.189 217 537.744 217H531.539C531.07 217 530.625 216.912 530.203 216.736C529.781 216.549 529.412 216.303 529.096 215.998C528.791 215.682 528.545 215.312 528.357 214.891C528.182 214.469 528.094 214.018 528.094 213.537V198.279ZM566.977 217H563.514V201.742H553.863V217H550.418V198.279H553.863V201.584C553.887 201.127 553.992 200.699 554.18 200.301C554.367 199.891 554.613 199.539 554.918 199.246C555.234 198.941 555.598 198.707 556.008 198.543C556.418 198.367 556.857 198.279 557.326 198.279H563.514C563.994 198.279 564.445 198.373 564.867 198.561C565.289 198.736 565.652 198.982 565.957 199.299C566.273 199.604 566.52 199.967 566.695 200.389C566.883 200.811 566.977 201.262 566.977 201.742V217ZM572.742 201.742C572.742 201.262 572.83 200.811 573.006 200.389C573.193 199.967 573.439 199.604 573.744 199.299C574.061 198.982 574.43 198.736 574.852 198.561C575.273 198.373 575.719 198.279 576.188 198.279H585.838V191.072H589.301V217H585.838V213.836C585.803 214.27 585.686 214.68 585.486 215.066C585.287 215.453 585.029 215.793 584.713 216.086C584.408 216.367 584.057 216.59 583.658 216.754C583.26 216.918 582.838 217 582.393 217H576.188C575.719 217 575.273 216.912 574.852 216.736C574.43 216.549 574.061 216.303 573.744 215.998C573.439 215.682 573.193 215.312 573.006 214.891C572.83 214.469 572.742 214.018 572.742 213.537V201.742ZM576.188 213.537H585.838V201.742H576.188V213.537ZM610.904 209.406H598.512V213.537H610.904V217H598.512C598.043 217 597.598 216.912 597.176 216.736C596.754 216.549 596.385 216.303 596.068 215.998C595.764 215.682 595.518 215.312 595.33 214.891C595.154 214.469 595.066 214.018 595.066 213.537V201.742C595.066 201.262 595.154 200.811 595.33 200.389C595.518 199.967 595.764 199.604 596.068 199.299C596.385 198.982 596.754 198.736 597.176 198.561C597.598 198.373 598.043 198.279 598.512 198.279H607.441C607.922 198.279 608.373 198.373 608.795 198.561C609.217 198.736 609.58 198.982 609.885 199.299C610.201 199.604 610.447 199.967 610.623 200.389C610.811 200.811 610.904 201.262 610.904 201.742V209.406ZM598.512 201.742V205.943H607.441V201.742H598.512ZM620.133 201.742V217H616.688V198.279H620.133V201.584C620.156 201.127 620.262 200.699 620.449 200.301C620.637 199.891 620.883 199.539 621.188 199.246C621.504 198.941 621.867 198.707 622.277 198.543C622.688 198.367 623.127 198.279 623.596 198.279H627.27C627.75 198.279 628.195 198.373 628.605 198.561C629.027 198.736 629.396 198.982 629.713 199.299C630.029 199.604 630.275 199.967 630.451 200.389C630.639 200.811 630.732 201.262 630.732 201.742V204.906H627.27V201.742H620.133Z" fill="#BF8373"/>
</g>
<defs>
<clipPath id="clip0_4605:25188">
<rect width="1050" height="600" fill="white"/>
</clipPath>
</defs>
</svg>
