<?xml version="1.0" encoding="utf-8"?>
<!-- Generator: Adobe Illustrator 24.2.3, SVG Export Plug-In . SVG Version: 6.00 Build 0)  -->
<svg version="1.1" id="Layer_1" xmlns="http://www.w3.org/2000/svg" xmlns:xlink="http://www.w3.org/1999/xlink" x="0px" y="0px"
	 viewBox="0 0 412 274" style="enable-background:new 0 0 412 274;" xml:space="preserve">
<style type="text/css">
	.st0{fill:#27143E;fill-opacity:0.2;}
	.st1{clip-path:url(#SVGID_2_);}
	.st2{fill-opacity:0.2;}
	.st3{fill:#5B6686;}
	.st4{fill:#E8B5C0;}
	.st5{fill:none;stroke:#E8B5C0;}
	.st6{clip-path:url(#SVGID_4_);}
	.st7{fill-rule:evenodd;clip-rule:evenodd;fill:#18204D;}
	.st8{clip-path:url(#SVGID_6_);}
	.st9{fill:#42A5F5;fill-opacity:0.8;}
	.st10{fill:#0D47A1;}
	.st11{fill:#42A5F5;}
	.st12{fill:url(#SVGID_7_);}
	.st13{fill:url(#SVGID_8_);}
	.st14{clip-path:url(#SVGID_10_);}
	.st15{fill:#FFFFFF;}
	.st16{clip-path:url(#SVGID_12_);}
	.st17{clip-path:url(#SVGID_14_);}
	.st18{fill:#FFFFFF;fill-opacity:0.3;}
	.st19{clip-path:url(#SVGID_16_);}
	.st20{clip-path:url(#SVGID_18_);}
	.st21{clip-path:url(#SVGID_20_);}
	.st22{clip-path:url(#SVGID_22_);}
	.st23{clip-path:url(#SVGID_24_);}
	.st24{clip-path:url(#SVGID_26_);}
</style>
<g>
	<path class="st0" d="M8,0h396c4.4,0,8,3.6,8,8v258c0,4.4-3.6,8-8,8H8c-4.4,0-8-3.6-8-8V8C0,3.6,3.6,0,8,0z"/>
	<g>
		<defs>
			<path id="SVGID_1_" d="M20.6,13.7h356.7c3.8,0,6.9,3.1,6.9,6.8v232.8c0,3.8-3.1,6.8-6.9,6.8H20.6c-3.8,0-6.9-3.1-6.9-6.8V20.5
				C13.7,16.8,16.8,13.7,20.6,13.7z"/>
		</defs>
		<clipPath id="SVGID_2_">
			<use xlink:href="#SVGID_1_"  style="overflow:visible;"/>
		</clipPath>
		<g class="st1">
			<path class="st2" d="M20.6,13.7h356.7c3.8,0,6.9,3.1,6.9,6.8v232.8c0,3.8-3.1,6.8-6.9,6.8H20.6c-3.8,0-6.9-3.1-6.9-6.8V20.5
				C13.7,16.8,16.8,13.7,20.6,13.7z"/>
			<path class="st3" d="M13.7,20.5c0-3.8,3.1-6.9,6.9-6.9h152.8c3.8,0,6.9,3.1,6.9,6.9v232.8c0,3.8-3.1,6.9-6.9,6.9H20.6
				c-3.8,0-6.9-3.1-6.9-6.9V20.5z"/>
			<path class="st4" d="M68.8,216h57.8c5.6,0,10.1,4.5,10.1,10l0,0c0,5.5-4.5,10-10.1,10H68.8c-5.6,0-10.1-4.5-10.1-10l0,0
				C58.6,220.5,63.2,216,68.8,216z"/>
			<path class="st3" d="M84.8,229h3.8v-0.5h-3.2v-5.8h-0.6V229z M92.3,229.1c1.8,0,2.9-1.3,2.9-3.3v0c0-2-1.1-3.3-2.9-3.3
				c-1.8,0-2.9,1.3-2.9,3.3v0C89.3,227.9,90.5,229.1,92.3,229.1z M92.3,228.6c-1.4,0-2.3-1.1-2.3-2.7v0c0-1.7,0.9-2.7,2.3-2.7
				c1.4,0,2.3,1.1,2.3,2.7v0C94.6,227.5,93.7,228.6,92.3,228.6z M99.2,229.1c1.6,0,2.7-1.1,2.7-2.7v-0.6h-2.6v0.5h2v0.1
				c0,1.2-0.8,2.1-2.1,2.1c-1.4,0-2.2-1.1-2.2-2.8v0c0-1.7,0.9-2.7,2.2-2.7c1,0,1.7,0.5,2,1.4l0,0h0.6l0,0c-0.3-1.2-1.2-1.9-2.6-1.9
				c-1.7,0-2.9,1.3-2.9,3.3v0C96.3,227.8,97.4,229.1,99.2,229.1z M103.3,229h0.6v-6.3h-0.6V229z M105.6,229h0.6v-5.3h0.1l3.8,5.3
				h0.6v-6.3H110v5.3h-0.1l-3.7-5.3h-0.6V229z"/>
			<path class="st4" d="M134.3,64c-0.9-1.4-2.8-2.4-5.9-2.4c-1.6,0-3.1,0.3-4.5,1c-1.4,0.7-2.6,1.7-3.6,2.9c0.1-0.4,0.1-0.8,0-1.2
				c-0.1-0.4-0.3-0.8-0.5-1.1c-0.3-0.3-0.6-0.6-1-0.8c-0.4-0.2-0.8-0.3-1.2-0.3h-2c-0.6,0-1.3,0.2-1.8,0.6c-0.5,0.4-0.8,1-1,1.6
				l-1.5,7c-0.7,3.1-1.8,5.1-4.2,5.1c-1.7,0-2-1.1-1.5-3.5l1.6-7.4c0.1-0.4,0.1-0.8,0-1.2c-0.1-0.4-0.3-0.8-0.6-1.1
				c-0.3-0.3-0.6-0.6-1-0.8c-0.4-0.2-0.8-0.3-1.2-0.3h-2.1c-0.6,0-1.3,0.2-1.8,0.6c-0.5,0.4-0.8,1-1,1.6l-0.4,1.8
				c-0.4-3-2.5-4.5-5.9-4.5c-1.2-0.1-2.4,0.1-3.6,0.6c-1.1,0.4-2.2,1.1-3,2c0-0.3,0-0.5,0-0.8c-0.1-0.2-0.2-0.5-0.4-0.7
				c-0.2-0.2-0.4-0.4-0.6-0.5c-0.2-0.1-0.5-0.2-0.8-0.2h-4.2c-0.4,0-0.8,0.1-1.1,0.4c-0.3,0.3-0.5,0.6-0.6,1c-0.2,1-0.4,2.2-0.8,3.8
				l-0.9,4.2c-0.6-2.8-3-4.8-9.2-6.3c-3.6-0.9-4.8-1.3-4.8-2.8c0-1.3,1.2-2.3,3.2-2.3c2,0,3.2,0.6,3.8,1.3c0.3,0.4,0.7,0.7,1.1,0.9
				c0.4,0.2,0.9,0.4,1.4,0.4h0.4c0.7,0,1.4-0.2,1.9-0.6c0.6-0.4,1-1,1.2-1.6c0.2-0.7,0.2-1.4,0-2c-0.2-0.6-0.7-1.2-1.2-1.6
				c-1.9-1.2-4.6-2-8.5-2C59.6,55,55,58.4,55,63.5c0,3.6,2.3,5.6,9.3,7.3c4,1,4.8,1.8,4.8,3.2c0,1.8-1.7,2.4-4.1,2.4
				c-2.3,0-3.7-0.7-4.4-1.8c-0.3-0.4-0.7-0.8-1.1-1.1c-0.4-0.3-1-0.4-1.5-0.4h-1.2c-0.6,0-1.2,0.1-1.7,0.4c-0.5,0.3-0.9,0.7-1.2,1.3
				c-0.3,0.5-0.4,1.1-0.3,1.7c0.1,0.6,0.3,1.1,0.7,1.6c2,2.3,5.5,3.5,10.3,3.5c5.7,0,9.6-1.6,11.6-4.2c-0.1,0.4-0.1,0.9,0,1.3
				c0.1,0.4,0.3,0.8,0.6,1.2c0.3,0.3,0.7,0.6,1.1,0.8c0.4,0.2,0.9,0.3,1.3,0.3h1.5c0.7,0,1.4-0.2,1.9-0.7s0.9-1.1,1.1-1.7l1.6-7.4
				c0.7-3.1,1.9-4.4,3.9-4.4c2,0,2.3,1.3,1.8,3.2l-1.3,6.5c-0.1,0.6-0.1,1.1,0,1.7c0.1,0.5,0.4,1.1,0.7,1.5c0.4,0.4,0.8,0.8,1.3,1
				c0.5,0.2,1.1,0.4,1.7,0.4c0.9,0,1.7-0.3,2.4-0.8c0.7-0.5,1.2-1.3,1.3-2.2c0,0,0-0.1,0.1-0.1c0,0,0.1,0,0.1,0s0.1,0,0.1,0
				c0,0,0.1,0.1,0.1,0.1c0.7,2.4,2.7,3.5,5.7,3.5c3.6,0,5.2-1.2,6.3-2.4c0,0.2,0,0.5,0.1,0.7c0.1,0.2,0.2,0.4,0.4,0.6
				c0.2,0.2,0.4,0.3,0.6,0.4c0.2,0.1,0.5,0.2,0.7,0.2h4.3c0.4,0,0.8-0.1,1.1-0.4c0.3-0.3,0.5-0.6,0.6-1c0.2-1.1,0.4-2.3,0.7-3.8
				c0.9,3.1,3.5,5.1,7.1,5.1c3,0,4.5-0.7,5.9-2.2l-0.3,1.2c-0.7,2.8-0.9,3.9-3.6,3.9c-1.6,0-4.1-1.6-5.9-1.6c-0.8,0-1.5,0.2-2.2,0.6
				c-0.7,0.4-1.2,1-1.5,1.7c-0.3,0.7-0.5,1.5-0.4,2.2c0.1,0.8,0.4,1.5,0.9,2.1c1.5,1.7,3.8,3,7.6,3c7.9,0,11.4-5.7,12.9-12.7
				l2.5-11.7c0.2-0.7,0.3-1.5,0.5-2.1c0.1-0.4,0.1-0.8,0-1.2c-0.1-0.4-0.3-0.8-0.5-1.1c-0.3-0.3-0.6-0.6-1-0.8
				c-0.4-0.2-0.8-0.3-1.2-0.3h-2c-0.6,0-1.2,0.2-1.6,0.6C134.8,62.9,134.5,63.4,134.3,64z M132.9,71.5c-0.6,2.6-1.8,4.4-4.2,4.4
				c-2,0-2.8-1.1-2.8-3.2c0-2.4,1.5-6,4.4-6C132.8,66.7,133.5,68.7,132.9,71.5z"/>
			<path class="st5" d="M50.5,157h93.8"/>
			<path class="st5" d="M50.5,188h93.8"/>
			<path class="st4" d="M51,196h0.6v-1.2h0.8c0.7,0,1.2-0.5,1.2-1.2v0c0-0.7-0.5-1.2-1.2-1.2H51V196z M52.2,193
				c0.5,0,0.7,0.2,0.7,0.7v0c0,0.4-0.3,0.7-0.7,0.7h-0.6V193H52.2z M54.9,196c0.4,0,0.6-0.2,0.8-0.4h0v0.4h0.6v-1.8
				c0-0.6-0.4-0.9-1.1-0.9c-0.6,0-1.1,0.3-1.1,0.7l0,0h0.6l0,0c0.1-0.2,0.2-0.3,0.5-0.3c0.3,0,0.5,0.1,0.5,0.4v0.2l-0.7,0
				c-0.7,0-1,0.3-1,0.8v0C54,195.7,54.4,196,54.9,196z M54.6,195.2L54.6,195.2c0-0.2,0.2-0.3,0.5-0.4l0.6,0v0.2
				c0,0.3-0.3,0.6-0.6,0.6C54.8,195.6,54.6,195.4,54.6,195.2z M58.1,196.1c0.7,0,1.1-0.3,1.1-0.8v0c0-0.4-0.3-0.6-0.8-0.7l-0.4-0.1
				c-0.3-0.1-0.4-0.2-0.4-0.3v0c0-0.2,0.2-0.3,0.5-0.3c0.3,0,0.5,0.1,0.5,0.3l0,0h0.6v0c0-0.4-0.4-0.8-1.1-0.8
				c-0.6,0-1.1,0.3-1.1,0.8v0c0,0.4,0.2,0.6,0.8,0.7l0.4,0.1c0.3,0.1,0.4,0.2,0.4,0.3v0c0,0.2-0.2,0.3-0.5,0.3
				c-0.3,0-0.5-0.1-0.6-0.3l0,0h-0.6v0C57,195.7,57.4,196.1,58.1,196.1z M60.8,196.1c0.7,0,1.1-0.3,1.1-0.8v0c0-0.4-0.3-0.6-0.8-0.7
				l-0.4-0.1c-0.3-0.1-0.4-0.2-0.4-0.3v0c0-0.2,0.2-0.3,0.5-0.3c0.3,0,0.5,0.1,0.5,0.3l0,0h0.6v0c0-0.4-0.4-0.8-1.1-0.8
				c-0.6,0-1.1,0.3-1.1,0.8v0c0,0.4,0.2,0.6,0.8,0.7l0.4,0.1c0.3,0.1,0.4,0.2,0.4,0.3v0c0,0.2-0.2,0.3-0.5,0.3
				c-0.3,0-0.5-0.1-0.6-0.3l0,0h-0.6v0C59.7,195.7,60.2,196.1,60.8,196.1z M63.1,196h0.6l0.5-1.9h0l0.5,1.9h0.6l0.7-2.7h-0.6l-0.4,2
				h0l-0.5-2H64l-0.5,2h0l-0.5-2h-0.6L63.1,196z M67.8,196.1c0.8,0,1.3-0.5,1.3-1.4v0c0-0.9-0.5-1.4-1.3-1.4c-0.8,0-1.3,0.5-1.3,1.4
				v0C66.5,195.5,67,196.1,67.8,196.1z M67.8,195.6c-0.4,0-0.7-0.3-0.7-0.9v0c0-0.6,0.2-0.9,0.7-0.9c0.4,0,0.7,0.3,0.7,0.9v0
				C68.4,195.2,68.2,195.6,67.8,195.6z M69.7,196h0.6v-1.6c0-0.4,0.3-0.6,0.7-0.6c0.1,0,0.2,0,0.3,0v-0.5c-0.1,0-0.2,0-0.3,0
				c-0.4,0-0.6,0.2-0.7,0.5h0v-0.4h-0.6V196z M72.7,196c0.4,0,0.7-0.2,0.8-0.5h0v0.4h0.6v-3.7h-0.6v1.5h0c-0.1-0.3-0.5-0.5-0.8-0.5
				c-0.7,0-1.1,0.5-1.1,1.4v0C71.6,195.5,72,196,72.7,196z M72.9,195.5c-0.4,0-0.7-0.3-0.7-0.9v0c0-0.5,0.3-0.9,0.7-0.9
				c0.4,0,0.7,0.3,0.7,0.9v0C73.6,195.2,73.3,195.5,72.9,195.5z"/>
			<path class="st4" d="M51,165h0.6v-1.2h0.8c0.7,0,1.2-0.5,1.2-1.2v0c0-0.7-0.5-1.2-1.2-1.2H51V165z M52.2,162
				c0.5,0,0.7,0.2,0.7,0.7v0c0,0.4-0.3,0.7-0.7,0.7h-0.6V162H52.2z M54.3,165h0.6v-1.6c0-0.4,0.2-0.7,0.6-0.7c0.4,0,0.5,0.2,0.5,0.6
				v1.6h0.6v-1.7c0-0.6-0.3-1-0.9-1c-0.4,0-0.7,0.2-0.8,0.5h0v-1.4h-0.6V165z M58.5,165.1c0.8,0,1.3-0.5,1.3-1.4v0
				c0-0.9-0.5-1.4-1.3-1.4c-0.8,0-1.3,0.5-1.3,1.4v0C57.2,164.5,57.7,165.1,58.5,165.1z M58.5,164.6c-0.4,0-0.7-0.3-0.7-0.9v0
				c0-0.6,0.2-0.9,0.7-0.9c0.4,0,0.7,0.3,0.7,0.9v0C59.2,164.2,59,164.6,58.5,164.6z M60.5,165h0.6v-1.6c0-0.4,0.2-0.7,0.6-0.7
				c0.4,0,0.5,0.2,0.5,0.6v1.6h0.6v-1.7c0-0.6-0.3-1-0.9-1c-0.4,0-0.7,0.2-0.8,0.5h0v-0.4h-0.6V165z M64.7,165.1
				c0.7,0,1.1-0.4,1.2-0.8l0,0h-0.6l0,0c-0.1,0.1-0.3,0.3-0.6,0.3c-0.4,0-0.7-0.3-0.7-0.8h1.9v-0.2c0-0.8-0.5-1.3-1.2-1.3
				c-0.8,0-1.3,0.6-1.3,1.4v0C63.4,164.5,63.9,165.1,64.7,165.1z M64.7,162.8c0.3,0,0.6,0.2,0.6,0.7h-1.3
				C64.1,163,64.4,162.8,64.7,162.8z"/>
			<g>
				<defs>
					<rect id="SVGID_3_" x="148.9" y="23" width="22.2" height="21.9"/>
				</defs>
				<clipPath id="SVGID_4_">
					<use xlink:href="#SVGID_3_"  style="overflow:visible;"/>
				</clipPath>
				<g class="st6">
					<path class="st7" d="M160,44.9c6.1,0,11.1-4.9,11.1-11s-5-11-11.1-11c-6.1,0-11.1,4.9-11.1,11S153.9,44.9,160,44.9z"/>
					<g>
						<defs>
							<rect id="SVGID_5_" x="154.2" y="28.2" width="9.7" height="11.8"/>
						</defs>
						<clipPath id="SVGID_6_">
							<use xlink:href="#SVGID_5_"  style="overflow:visible;"/>
						</clipPath>
						<g class="st8">
							<path class="st9" d="M156,35.9l-1.8-1.8l6-5.9h3.7L156,35.9z M163.9,33.7h-3.7l-1.4,1.4l1.8,1.8"/>
							<path class="st10" d="M158.8,38.7l1.4,1.4h3.7l-3.2-3.2"/>
							<path class="st11" d="M157,36.8l1.8-1.8l1.8,1.8l-1.8,1.8L157,36.8z"/>
							
								<linearGradient id="SVGID_7_" gradientUnits="userSpaceOnUse" x1="159.7298" y1="238.2563" x2="159.9987" y2="237.9878" gradientTransform="matrix(1 0 0 -1 0 276)">
								<stop  offset="0.2" style="stop-color:#000000;stop-opacity:0.15"/>
								<stop  offset="0.85" style="stop-color:#616161;stop-opacity:1.000000e-02"/>
							</linearGradient>
							<path class="st12" d="M158.8,38.7l1.8-1.8l0.3,0.3l-1.8,1.8L158.8,38.7z"/>
							
								<linearGradient id="SVGID_8_" gradientUnits="userSpaceOnUse" x1="158.8127" y1="238.2489" x2="161.5508" y2="238.2489" gradientTransform="matrix(1 0 0 -1 0 276)">
								<stop  offset="0.2" style="stop-color:#000000;stop-opacity:0.55"/>
								<stop  offset="0.85" style="stop-color:#616161;stop-opacity:1.000000e-02"/>
							</linearGradient>
							<path class="st13" d="M158.8,38.7l2.7-0.9l-0.9-0.9"/>
						</g>
					</g>
				</g>
			</g>
			<g>
				<defs>
					<rect id="SVGID_9_" x="194.3" y="69.9" width="176.1" height="26.5"/>
				</defs>
				<clipPath id="SVGID_10_">
					<use xlink:href="#SVGID_9_"  style="overflow:visible;"/>
				</clipPath>
				<g class="st14">
					<ellipse class="st2" cx="205.4" cy="80.8" rx="11.1" ry="11"/>
					<path class="st15" d="M205.6,85.6h1.2V76h-1.2l-2.6,1.8v1.3l2.5-1.8h0.1V85.6z"/>
					<g>
						<defs>
							<rect id="SVGID_11_" x="230.4" y="69.9" width="140" height="26.5"/>
						</defs>
						<clipPath id="SVGID_12_">
							<use xlink:href="#SVGID_11_"  style="overflow:visible;"/>
						</clipPath>
						<g class="st16">
							<g>
								<defs>
									<rect id="SVGID_13_" x="230.4" y="69.9" width="140" height="26.5"/>
								</defs>
								<clipPath id="SVGID_14_">
									<use xlink:href="#SVGID_13_"  style="overflow:visible;"/>
								</clipPath>
								<g class="st17">
									<path class="st15" d="M231.3,79.9h1.3v-5h0.1l3.6,5h1.1v-7.2h-1.3v5H236l-3.6-5h-1.1V79.9z M240.6,80
										c0.7,0,1.3-0.3,1.6-0.8h0.1v0.8h1.3v-3.7c0-1.2-0.8-1.8-2.2-1.8c-1.3,0-2.2,0.6-2.3,1.5l0,0h1.2l0,0
										c0.1-0.4,0.5-0.6,1.1-0.6c0.7,0,1,0.3,1,0.8v0.5l-1.4,0.1c-1.4,0.1-2.1,0.7-2.1,1.6v0C238.8,79.3,239.5,80,240.6,80z
										 M240,78.3L240,78.3c0-0.5,0.3-0.7,1-0.8l1.3-0.1v0.4c0,0.7-0.6,1.1-1.3,1.1C240.4,79,240,78.7,240,78.3z M247.3,79.9
										c0.2,0,0.5,0,0.7-0.1v-1c-0.2,0-0.2,0-0.4,0c-0.5,0-0.7-0.2-0.7-0.8v-2.8h1.2v-1h-1.2v-1.3h-1.3v1.3h-0.9v1h0.9v3.1
										C245.5,79.5,246,79.9,247.3,79.9z M249.8,73.5c0.4,0,0.8-0.3,0.8-0.7c0-0.4-0.3-0.7-0.8-0.7c-0.4,0-0.8,0.3-0.8,0.7
										C249.1,73.2,249.4,73.5,249.8,73.5z M249.2,79.9h1.3v-5.5h-1.3V79.9z M253.5,79.9h1.4l2-5.5h-1.3l-1.3,4.3h-0.1l-1.3-4.3
										h-1.4L253.5,79.9z M260.1,80c1.5,0,2.3-0.9,2.4-1.6l0,0h-1.2l0,0c-0.1,0.3-0.5,0.6-1.2,0.6c-0.9,0-1.4-0.6-1.4-1.6h3.9V77
										c0-1.7-1-2.7-2.6-2.7c-1.6,0-2.6,1.1-2.6,2.9v0C257.4,78.9,258.4,80,260.1,80z M260,75.3c0.7,0,1.2,0.4,1.3,1.3h-2.6
										C258.8,75.7,259.3,75.3,260,75.3z M266.8,79.9h1.2v-5.1h0.1l2,5.1h0.9l2-5.1h0.1v5.1h1.2v-7.2h-1.5l-2.2,5.6h-0.1l-2.2-5.6
										h-1.5V79.9z M278.4,80c1.7,0,2.7-1.1,2.7-2.8v0c0-1.8-1-2.8-2.7-2.8c-1.7,0-2.7,1.1-2.7,2.8v0
										C275.7,78.9,276.7,80,278.4,80z M278.4,79c-0.9,0-1.4-0.7-1.4-1.8v0c0-1.2,0.5-1.8,1.4-1.8c0.9,0,1.4,0.7,1.4,1.8v0
										C279.7,78.3,279.2,79,278.4,79z M285.4,80c1.4,0,2.3-1.1,2.3-2.8v0c0-1.7-0.9-2.8-2.3-2.8c-0.8,0-1.4,0.4-1.7,1h-0.1v-3
										h-1.3v7.6h1.3V79h0.1C284,79.6,284.6,80,285.4,80z M285,78.9c-0.9,0-1.4-0.7-1.4-1.8v0c0-1.1,0.5-1.8,1.4-1.8
										c0.9,0,1.4,0.7,1.4,1.8v0C286.4,78.3,285.9,78.9,285,78.9z M289.6,73.5c0.4,0,0.8-0.3,0.8-0.7c0-0.4-0.3-0.7-0.8-0.7
										c-0.4,0-0.8,0.3-0.8,0.7C288.8,73.2,289.2,73.5,289.6,73.5z M289,79.9h1.3v-5.5H289V79.9z M291.8,79.9h1.3v-7.6h-1.3V79.9z
										 M297.1,80c1.5,0,2.3-0.9,2.4-1.6l0,0h-1.2l0,0c-0.1,0.3-0.5,0.6-1.2,0.6c-0.9,0-1.4-0.6-1.4-1.6h3.9V77
										c0-1.7-1-2.7-2.6-2.7c-1.6,0-2.6,1.1-2.6,2.9v0C294.4,78.9,295.4,80,297.1,80z M297,75.3c0.7,0,1.2,0.4,1.3,1.3h-2.6
										C295.8,75.7,296.3,75.3,297,75.3z M303.2,79.9h1.4l0.6-1.9h2.7l0.6,1.9h1.4l-2.6-7.2h-1.5L303.2,79.9z M306.5,74L306.5,74
										l1.1,3h-2.1L306.5,74z M311,81.7h1.3V79h0.1c0.3,0.6,0.9,1,1.7,1c1.4,0,2.3-1.1,2.3-2.8v0c0-1.7-0.9-2.8-2.3-2.8
										c-0.8,0-1.4,0.4-1.7,0.9h-0.1v-0.9H311V81.7z M313.7,78.9c-0.9,0-1.4-0.7-1.4-1.8v0c0-1.1,0.5-1.8,1.4-1.8
										c0.9,0,1.4,0.7,1.4,1.8v0C315.1,78.2,314.5,78.9,313.7,78.9z M317.6,81.7h1.3V79h0.1c0.3,0.6,0.9,1,1.7,1
										c1.4,0,2.3-1.1,2.3-2.8v0c0-1.7-0.9-2.8-2.3-2.8c-0.8,0-1.4,0.4-1.7,0.9h-0.1v-0.9h-1.3V81.7z M320.3,78.9
										c-0.9,0-1.4-0.7-1.4-1.8v0c0-1.1,0.5-1.8,1.4-1.8c0.9,0,1.4,0.7,1.4,1.8v0C321.7,78.2,321.1,78.9,320.3,78.9z M324.3,79.9
										h1.3v-7.6h-1.3V79.9z M327.8,73.5c0.4,0,0.8-0.3,0.8-0.7c0-0.4-0.3-0.7-0.8-0.7c-0.4,0-0.8,0.3-0.8,0.7
										C327.1,73.2,327.4,73.5,327.8,73.5z M327.2,79.9h1.3v-5.5h-1.3V79.9z M332.4,80c1.4,0,2.2-0.7,2.4-1.9l0,0l-1.2,0l0,0
										c-0.2,0.6-0.6,0.9-1.2,0.9c-0.9,0-1.4-0.7-1.4-1.8v0c0-1.1,0.5-1.8,1.4-1.8c0.7,0,1.1,0.4,1.2,0.9l0,0h1.2v0
										c-0.1-1.1-1-1.9-2.4-1.9c-1.7,0-2.7,1.1-2.7,2.8v0C329.7,78.9,330.7,80,332.4,80z M337.5,80c0.7,0,1.3-0.3,1.6-0.8h0.1v0.8
										h1.3v-3.7c0-1.2-0.8-1.8-2.2-1.8c-1.3,0-2.2,0.6-2.3,1.5l0,0h1.2l0,0c0.1-0.4,0.5-0.6,1.1-0.6c0.7,0,1,0.3,1,0.8v0.5
										l-1.4,0.1c-1.4,0.1-2.1,0.7-2.1,1.6v0C335.7,79.3,336.5,80,337.5,80z M337,78.3L337,78.3c0-0.5,0.3-0.7,1-0.8l1.3-0.1v0.4
										c0,0.7-0.6,1.1-1.3,1.1C337.4,79,337,78.7,337,78.3z M344.2,79.9c0.2,0,0.5,0,0.7-0.1v-1c-0.2,0-0.2,0-0.4,0
										c-0.5,0-0.7-0.2-0.7-0.8v-2.8h1.2v-1h-1.2v-1.3h-1.3v1.3h-0.9v1h0.9v3.1C342.4,79.5,342.9,79.9,344.2,79.9z M346.8,73.5
										c0.4,0,0.8-0.3,0.8-0.7c0-0.4-0.3-0.7-0.8-0.7c-0.4,0-0.8,0.3-0.8,0.7C346,73.2,346.4,73.5,346.8,73.5z M346.1,79.9h1.3
										v-5.5h-1.3V79.9z M351.4,80c1.7,0,2.7-1.1,2.7-2.8v0c0-1.8-1-2.8-2.7-2.8c-1.7,0-2.7,1.1-2.7,2.8v0
										C348.7,78.9,349.7,80,351.4,80z M351.4,79c-0.9,0-1.4-0.7-1.4-1.8v0c0-1.2,0.5-1.8,1.4-1.8c0.9,0,1.4,0.7,1.4,1.8v0
										C352.7,78.3,352.2,79,351.4,79z M355.3,79.9h1.3v-3.2c0-0.8,0.5-1.3,1.2-1.3c0.8,0,1.1,0.4,1.1,1.3v3.3h1.3v-3.5
										c0-1.3-0.7-2-1.9-2c-0.8,0-1.3,0.4-1.6,0.9h-0.1v-0.8h-1.3V79.9z M363.8,80c1.4,0,2.4-0.7,2.4-1.7v0c0-0.8-0.5-1.3-1.6-1.5
										l-0.9-0.2c-0.6-0.1-0.8-0.3-0.8-0.7v0c0-0.4,0.4-0.7,1-0.7c0.6,0,1,0.3,1.1,0.6l0,0h1.2v0c-0.1-0.9-0.9-1.5-2.2-1.5
										c-1.3,0-2.2,0.7-2.2,1.7v0c0,0.8,0.5,1.3,1.6,1.5l0.9,0.2c0.6,0.1,0.9,0.3,0.9,0.7v0c0,0.4-0.4,0.7-1.1,0.7
										c-0.6,0-1-0.3-1.1-0.6l0,0h-1.3v0C361.5,79.3,362.4,80,363.8,80z"/>
									<path class="st18" d="M231.9,87.6h103.5c0.8,0,1.5,0.7,1.5,1.5l0,0c0,0.8-0.7,1.5-1.5,1.5H231.9c-0.8,0-1.5-0.7-1.5-1.5
										l0,0C230.4,88.3,231.1,87.6,231.9,87.6z"/>
									<path class="st18" d="M231.9,93.4h63.9c0.8,0,1.5,0.7,1.5,1.5l0,0c0,0.8-0.7,1.5-1.5,1.5h-63.9c-0.8,0-1.5-0.7-1.5-1.5l0,0
										C230.4,94,231.1,93.4,231.9,93.4z"/>
								</g>
							</g>
						</g>
					</g>
				</g>
			</g>
			<g>
				<defs>
					<rect id="SVGID_15_" x="194.3" y="126.4" width="161.1" height="23.8"/>
				</defs>
				<clipPath id="SVGID_16_">
					<use xlink:href="#SVGID_15_"  style="overflow:visible;"/>
				</clipPath>
				<g class="st19">
					<ellipse class="st2" cx="205.4" cy="137.3" rx="11.1" ry="11"/>
					<path class="st15" d="M202.6,142.1h6.3V141h-4.6v-0.1l2.2-2.3c1.8-1.8,2.3-2.6,2.3-3.7v0c0-1.6-1.3-2.7-3-2.7
						c-1.9,0-3.2,1.2-3.2,2.9l0,0l1.2,0l0,0c0-1.1,0.8-1.9,2-1.9c1.2,0,1.9,0.8,1.9,1.8v0c0,0.8-0.4,1.3-1.6,2.7l-3.3,3.5V142.1z"/>
					<g>
						<defs>
							<rect id="SVGID_17_" x="230.4" y="126.4" width="125" height="23.8"/>
						</defs>
						<clipPath id="SVGID_18_">
							<use xlink:href="#SVGID_17_"  style="overflow:visible;"/>
						</clipPath>
						<g class="st20">
							<g>
								<defs>
									<rect id="SVGID_19_" x="230.4" y="126.4" width="125" height="23.8"/>
								</defs>
								<clipPath id="SVGID_20_">
									<use xlink:href="#SVGID_19_"  style="overflow:visible;"/>
								</clipPath>
								<g class="st21">
									<path class="st15" d="M231.3,136.4h1.1v-2.8h1.6l1.5,2.8h1.3l-1.6-3c0.9-0.3,1.4-1.1,1.4-2.1v0c0-1.3-0.9-2.2-2.4-2.2h-2.9
										V136.4z M232.4,132.7v-2.6h1.6c0.9,0,1.4,0.5,1.4,1.3v0c0,0.8-0.5,1.3-1.4,1.3H232.4z M240.3,136.5c1.4,0,2.2-0.8,2.4-1.5
										l0,0l-1.1,0l0,0c-0.1,0.3-0.6,0.6-1.3,0.6c-0.9,0-1.5-0.6-1.5-1.6h3.9v-0.4c0-1.6-0.9-2.7-2.5-2.7c-1.5,0-2.5,1.1-2.5,2.8
										v0C237.7,135.4,238.7,136.5,240.3,136.5z M240.2,131.7c0.7,0,1.3,0.5,1.4,1.4h-2.8C238.9,132.2,239.5,131.7,240.2,131.7z
										 M246,136.5c1.3,0,2.3-0.7,2.3-1.7v0c0-0.8-0.5-1.2-1.6-1.5l-0.9-0.2c-0.6-0.1-0.9-0.4-0.9-0.7v0c0-0.4,0.4-0.7,1-0.7
										c0.6,0,1,0.3,1.1,0.7v0h1.1v0c-0.1-0.9-0.9-1.5-2.2-1.5c-1.3,0-2.1,0.7-2.1,1.6v0c0,0.8,0.5,1.3,1.5,1.5l0.9,0.2
										c0.6,0.1,0.9,0.4,0.9,0.7v0c0,0.4-0.5,0.8-1.2,0.8c-0.7,0-1.1-0.3-1.2-0.7l0,0h-1.1v0C243.9,135.8,244.7,136.5,246,136.5z
										 M249.7,138.2h1.1v-2.7h0.1c0.3,0.6,0.9,1,1.7,1c1.4,0,2.3-1.1,2.3-2.8v0c0-1.7-0.9-2.8-2.3-2.8c-0.8,0-1.4,0.4-1.7,1h-0.1
										v-0.9h-1.1V138.2z M252.2,135.5c-0.9,0-1.5-0.7-1.5-1.9v0c0-1.2,0.6-1.9,1.5-1.9c0.9,0,1.5,0.7,1.5,1.9v0
										C253.7,134.8,253.1,135.5,252.2,135.5z M258.5,136.5c1.6,0,2.6-1.1,2.6-2.8v0c0-1.8-1-2.8-2.6-2.8c-1.6,0-2.6,1.1-2.6,2.8
										v0C255.9,135.4,256.9,136.5,258.5,136.5z M258.5,135.6c-1,0-1.5-0.7-1.5-1.9v0c0-1.2,0.5-1.9,1.5-1.9
										c0.9,0,1.5,0.7,1.5,1.9v0C260,134.8,259.4,135.6,258.5,135.6z M262.4,136.4h1.1v-3.2c0-0.9,0.5-1.4,1.3-1.4
										c0.8,0,1.2,0.4,1.2,1.3v3.3h1.1v-3.5c0-1.3-0.7-2-1.9-2c-0.8,0-1.3,0.4-1.6,0.9h-0.1v-0.8h-1.1V136.4z M270.7,136.5
										c1.3,0,2.3-0.7,2.3-1.7v0c0-0.8-0.5-1.2-1.6-1.5l-0.9-0.2c-0.6-0.1-0.9-0.4-0.9-0.7v0c0-0.4,0.4-0.7,1-0.7
										c0.6,0,1,0.3,1.1,0.7v0h1.1v0c-0.1-0.9-0.9-1.5-2.2-1.5c-1.3,0-2.1,0.7-2.1,1.6v0c0,0.8,0.5,1.3,1.5,1.5l0.9,0.2
										c0.6,0.1,0.9,0.4,0.9,0.7v0c0,0.4-0.5,0.8-1.2,0.8c-0.7,0-1.1-0.3-1.2-0.7l0,0h-1.1v0C268.5,135.8,269.3,136.5,270.7,136.5
										z M274.9,129.9c0.4,0,0.7-0.3,0.7-0.7c0-0.4-0.3-0.7-0.7-0.7c-0.4,0-0.7,0.3-0.7,0.7C274.2,129.6,274.5,129.9,274.9,129.9z
										 M274.3,136.4h1.1v-5.4h-1.1V136.4z M278.5,136.4h1.2l2-5.4h-1.2l-1.4,4.3h-0.1l-1.4-4.3h-1.2L278.5,136.4z M284.9,136.5
										c1.4,0,2.2-0.8,2.4-1.5l0,0l-1.1,0l0,0c-0.1,0.3-0.6,0.6-1.3,0.6c-0.9,0-1.5-0.6-1.5-1.6h3.9v-0.4c0-1.6-0.9-2.7-2.5-2.7
										c-1.5,0-2.5,1.1-2.5,2.8v0C282.3,135.4,283.3,136.5,284.9,136.5z M284.9,131.7c0.7,0,1.3,0.5,1.4,1.4h-2.8
										C283.5,132.2,284.1,131.7,284.9,131.7z M291.6,136.4h2.6c2.2,0,3.5-1.3,3.5-3.6v0c0-2.3-1.3-3.6-3.5-3.6h-2.6V136.4z
										 M292.8,135.4v-5.3h1.4c1.5,0,2.4,1,2.4,2.6v0c0,1.7-0.9,2.6-2.4,2.6H292.8z M301.5,136.5c1.4,0,2.2-0.8,2.4-1.5l0,0
										l-1.1,0l0,0c-0.1,0.3-0.6,0.6-1.3,0.6c-0.9,0-1.5-0.6-1.5-1.6h3.9v-0.4c0-1.6-0.9-2.7-2.5-2.7c-1.5,0-2.5,1.1-2.5,2.8v0
										C298.9,135.4,299.9,136.5,301.5,136.5z M301.4,131.7c0.7,0,1.3,0.5,1.4,1.4H300C300.1,132.2,300.7,131.7,301.4,131.7z
										 M307.2,136.5c1.3,0,2.3-0.7,2.3-1.7v0c0-0.8-0.5-1.2-1.6-1.5l-0.9-0.2c-0.6-0.1-0.9-0.4-0.9-0.7v0c0-0.4,0.4-0.7,1-0.7
										c0.6,0,1,0.3,1.1,0.7v0h1.1v0c-0.1-0.9-0.9-1.5-2.2-1.5c-1.3,0-2.1,0.7-2.1,1.6v0c0,0.8,0.5,1.3,1.5,1.5l0.9,0.2
										c0.6,0.1,0.9,0.4,0.9,0.7v0c0,0.4-0.5,0.8-1.2,0.8c-0.7,0-1.1-0.3-1.2-0.7l0,0h-1.1v0C305.1,135.8,305.9,136.5,307.2,136.5
										z M311.4,129.9c0.4,0,0.7-0.3,0.7-0.7c0-0.4-0.3-0.7-0.7-0.7c-0.4,0-0.7,0.3-0.7,0.7C310.7,129.6,311,129.9,311.4,129.9z
										 M310.9,136.4h1.1v-5.4h-1.1V136.4z M315.9,138.3c1.6,0,2.6-0.8,2.6-2v-5.3h-1.1v0.9h-0.1c-0.3-0.6-0.9-1-1.7-1
										c-1.4,0-2.3,1.1-2.3,2.7v0c0,1.5,0.9,2.6,2.3,2.6c0.8,0,1.4-0.3,1.7-0.9h0.1v1.1c0,0.7-0.5,1.2-1.4,1.2
										c-0.7,0-1.2-0.3-1.3-0.6l0,0h-1.1l0,0C313.6,137.7,314.5,138.3,315.9,138.3z M315.9,135.2c-0.9,0-1.5-0.7-1.5-1.7v0
										c0-1,0.5-1.7,1.5-1.7c0.9,0,1.5,0.7,1.5,1.7v0C317.4,134.5,316.8,135.2,315.9,135.2z M320,136.4h1.1v-3.2
										c0-0.9,0.5-1.4,1.3-1.4c0.8,0,1.2,0.4,1.2,1.3v3.3h1.1v-3.5c0-1.3-0.7-2-1.9-2c-0.8,0-1.3,0.4-1.6,0.9h-0.1v-0.8H320V136.4
										z"/>
									<path class="st18" d="M231.9,141.4h37.5c0.8,0,1.5,0.7,1.5,1.5l0,0c0,0.8-0.7,1.5-1.5,1.5h-37.5c-0.8,0-1.5-0.7-1.5-1.5
										l0,0C230.4,142.1,231.1,141.4,231.9,141.4z"/>
									<path class="st18" d="M231.9,147.2H310c0.8,0,1.5,0.7,1.5,1.5l0,0c0,0.8-0.7,1.5-1.5,1.5h-78.1c-0.8,0-1.5-0.7-1.5-1.5l0,0
										C230.4,147.8,231.1,147.2,231.9,147.2z"/>
								</g>
							</g>
						</g>
					</g>
				</g>
			</g>
			<g>
				<defs>
					<rect id="SVGID_21_" x="194.3" y="180.2" width="160.4" height="23.8"/>
				</defs>
				<clipPath id="SVGID_22_">
					<use xlink:href="#SVGID_21_"  style="overflow:visible;"/>
				</clipPath>
				<g class="st22">
					<ellipse class="st2" cx="205.4" cy="191.1" rx="11.1" ry="11"/>
					<path class="st15" d="M205.8,196.1c2,0,3.4-1.2,3.4-2.8v0c0-1.4-1-2.2-2.4-2.4v0c1.2-0.3,2.1-1.1,2.1-2.3v0
						c0-1.5-1.2-2.5-3.1-2.5c-1.8,0-3.1,1-3.2,2.6l0,0.1h1.2l0-0.1c0.1-1,0.9-1.6,2.1-1.6c1.2,0,1.9,0.6,1.9,1.6v0
						c0,1-0.8,1.7-2,1.7h-1.2v1h1.2c1.4,0,2.2,0.7,2.2,1.8v0c0,1-0.9,1.7-2.2,1.7c-1.3,0-2.2-0.7-2.3-1.6l0-0.1h-1.2l0,0.1
						C202.5,194.9,203.8,196.1,205.8,196.1z"/>
					<g>
						<defs>
							<rect id="SVGID_23_" x="230.4" y="180.2" width="124.3" height="23.8"/>
						</defs>
						<clipPath id="SVGID_24_">
							<use xlink:href="#SVGID_23_"  style="overflow:visible;"/>
						</clipPath>
						<g class="st23">
							<g>
								<defs>
									<rect id="SVGID_25_" x="230.4" y="180.2" width="124.3" height="23.8"/>
								</defs>
								<clipPath id="SVGID_26_">
									<use xlink:href="#SVGID_25_"  style="overflow:visible;"/>
								</clipPath>
								<g class="st24">
									<path class="st15" d="M234.3,190.3c1.6,0,2.8-0.9,3-2.3v0h-1.1l0,0c-0.2,0.8-0.9,1.3-1.9,1.3c-1.3,0-2.1-1.1-2.1-2.8v0
										c0-1.7,0.8-2.8,2.1-2.8c1,0,1.7,0.6,1.9,1.5v0h1.1l0,0c-0.2-1.4-1.4-2.4-3.1-2.4c-2,0-3.3,1.5-3.3,3.8v0
										C231,188.9,232.3,190.3,234.3,190.3z M238.8,190.2h1.1v-7.6h-1.1V190.2z M243.9,190.3c1.6,0,2.6-1.1,2.6-2.8v0
										c0-1.8-1-2.8-2.6-2.8c-1.6,0-2.6,1.1-2.6,2.8v0C241.3,189.2,242.3,190.3,243.9,190.3z M243.9,189.4c-1,0-1.5-0.7-1.5-1.9v0
										c0-1.2,0.5-1.9,1.5-1.9c0.9,0,1.5,0.7,1.5,1.9v0C245.4,188.6,244.8,189.4,243.9,189.4z M249.6,190.3c0.8,0,1.4-0.3,1.6-0.9
										h0.1v0.8h1.1v-5.4h-1.1v3.2c0,0.9-0.5,1.4-1.4,1.4c-0.8,0-1.1-0.4-1.1-1.3v-3.3h-1.1v3.5
										C247.8,189.5,248.4,190.3,249.6,190.3z M256.1,190.3c0.8,0,1.4-0.4,1.7-0.9h0.1v0.9h1.1v-7.6h-1.1v3h-0.1
										c-0.3-0.6-0.9-1-1.7-1c-1.4,0-2.3,1.1-2.3,2.8v0C253.8,189.2,254.7,190.3,256.1,190.3z M256.4,189.3
										c-0.9,0-1.5-0.7-1.5-1.9v0c0-1.2,0.6-1.9,1.5-1.9c0.9,0,1.5,0.7,1.5,1.9v0C257.9,188.6,257.3,189.3,256.4,189.3z
										 M260.6,187.7h3.4v-1h-3.4V187.7z M265.6,190.2h1.1V187c0-0.9,0.5-1.4,1.3-1.4c0.8,0,1.2,0.4,1.2,1.3v3.3h1.1v-3.5
										c0-1.3-0.7-2-1.9-2c-0.8,0-1.3,0.4-1.6,0.9h-0.1v-3h-1.1V190.2z M274.2,190.3c1.6,0,2.6-1.1,2.6-2.8v0c0-1.8-1-2.8-2.6-2.8
										c-1.6,0-2.6,1.1-2.6,2.8v0C271.6,189.2,272.6,190.3,274.2,190.3z M274.2,189.4c-1,0-1.5-0.7-1.5-1.9v0
										c0-1.2,0.5-1.9,1.5-1.9c0.9,0,1.5,0.7,1.5,1.9v0C275.7,188.6,275.1,189.4,274.2,189.4z M280.1,190.3c1.3,0,2.3-0.7,2.3-1.7
										v0c0-0.8-0.5-1.2-1.6-1.5l-0.9-0.2c-0.6-0.1-0.9-0.4-0.9-0.7v0c0-0.4,0.4-0.7,1-0.7c0.6,0,1,0.3,1.1,0.7v0h1.1v0
										c-0.1-0.9-0.9-1.5-2.2-1.5c-1.3,0-2.1,0.7-2.1,1.6v0c0,0.8,0.5,1.3,1.5,1.5l0.9,0.2c0.6,0.1,0.9,0.4,0.9,0.7v0
										c0,0.4-0.5,0.8-1.2,0.8c-0.7,0-1.1-0.3-1.2-0.7l0,0h-1.1v0C278,189.6,278.8,190.3,280.1,190.3z M285.8,190.2
										c0.2,0,0.4,0,0.6-0.1v-0.9c-0.2,0-0.2,0-0.4,0c-0.5,0-0.8-0.2-0.8-0.8v-2.9h1.2v-0.9h-1.2v-1.4h-1.1v1.4h-0.9v0.9h0.9v3.2
										C284.1,189.8,284.6,190.2,285.8,190.2z M289.9,190.3c1.4,0,2.2-0.8,2.4-1.5l0,0l-1.1,0l0,0c-0.1,0.3-0.6,0.6-1.3,0.6
										c-0.9,0-1.5-0.6-1.5-1.6h3.9v-0.4c0-1.6-0.9-2.7-2.5-2.7c-1.5,0-2.5,1.1-2.5,2.8v0C287.3,189.2,288.3,190.3,289.9,190.3z
										 M289.9,185.5c0.7,0,1.3,0.5,1.4,1.4h-2.8C288.5,186,289.1,185.5,289.9,185.5z M295.7,190.3c0.8,0,1.4-0.4,1.7-0.9h0.1v0.9
										h1.1v-7.6h-1.1v3h-0.1c-0.3-0.6-0.9-1-1.7-1c-1.4,0-2.3,1.1-2.3,2.8v0C293.4,189.2,294.3,190.3,295.7,190.3z M296,189.3
										c-0.9,0-1.5-0.7-1.5-1.9v0c0-1.2,0.6-1.9,1.5-1.9c0.9,0,1.5,0.7,1.5,1.9v0C297.5,188.6,296.9,189.3,296,189.3z"/>
									<path class="st18" d="M231.9,195.2H310c0.8,0,1.5,0.7,1.5,1.5l0,0c0,0.8-0.7,1.5-1.5,1.5h-78.1c-0.8,0-1.5-0.7-1.5-1.5l0,0
										C230.4,195.9,231.1,195.2,231.9,195.2z"/>
									<path class="st18" d="M231.9,201h118.7c0.8,0,1.5,0.7,1.5,1.5l0,0c0,0.8-0.7,1.5-1.5,1.5H231.9c-0.8,0-1.5-0.7-1.5-1.5l0,0
										C230.4,201.6,231.1,201,231.9,201z"/>
								</g>
							</g>
						</g>
					</g>
				</g>
			</g>
		</g>
	</g>
</g>
</svg>
