<?xml version="1.0" encoding="utf-8"?>
<!-- Generator: Adobe Illustrator 24.2.3, SVG Export Plug-In . SVG Version: 6.00 Build 0)  -->
<svg version="1.1" id="Layer_1" xmlns="http://www.w3.org/2000/svg" xmlns:xlink="http://www.w3.org/1999/xlink" x="0px" y="0px"
	 viewBox="0 0 399 274" style="enable-background:new 0 0 399 274;" xml:space="preserve">
<style type="text/css">
	.st0{fill:#27143E;fill-opacity:0.3;}
	.st1{clip-path:url(#SVGID_2_);}
	.st2{fill-opacity:0.2;}
	.st3{clip-path:url(#SVGID_4_);}
	.st4{fill:#FFFFFF;}
	.st5{clip-path:url(#SVGID_6_);}
	.st6{clip-path:url(#SVGID_8_);}
	.st7{fill:#FFFFFF;fill-opacity:0.3;}
	.st8{clip-path:url(#SVGID_10_);}
	.st9{clip-path:url(#SVGID_12_);}
	.st10{clip-path:url(#SVGID_14_);}
	.st11{clip-path:url(#SVGID_16_);}
	.st12{clip-path:url(#SVGID_18_);}
	.st13{clip-path:url(#SVGID_20_);}
	.st14{fill:url(#SVGID_21_);}
	.st15{opacity:0.5;fill:#B3CAF8;enable-background:new    ;}
	.st16{opacity:0.3;fill:#02364B;enable-background:new    ;}
	.st17{fill:#4382FF;}
	.st18{fill:#8FE4FF;}
	.st19{fill-opacity:0.3;}
	.st20{fill:#FFFFFF;fill-opacity:0.51;}
	.st21{fill:#B3CAF8;}
	.st22{fill:#02364B;}
	.st23{fill:#3D7991;}
	.st24{fill:#543629;}
	.st25{fill:#E29771;}
	.st26{fill:#661F00;}
	.st27{fill:#E5B093;}
	.st28{fill:#FEFFFF;}
	.st29{opacity:0.4;fill:#4382FF;enable-background:new    ;}
</style>
<g>
	<path class="st0" d="M8,0h383c4.4,0,8,3.6,8,8v258c0,4.4-3.6,8-8,8H8c-4.4,0-8-3.6-8-8V8C0,3.6,3.6,0,8,0z"/>
	<g>
		<defs>
			<path id="SVGID_1_" d="M20.6,13.7h356.8c3.8,0,6.9,3.1,6.9,6.8v232.8c0,3.8-3.1,6.8-6.9,6.8H20.6c-3.8,0-6.9-3.1-6.9-6.8V20.5
				C13.7,16.8,16.8,13.7,20.6,13.7z"/>
		</defs>
		<clipPath id="SVGID_2_">
			<use xlink:href="#SVGID_1_"  style="overflow:visible;"/>
		</clipPath>
		<g class="st1">
			<path class="st2" d="M20.6,13.7h356.8c3.8,0,6.9,3.1,6.9,6.8v232.8c0,3.8-3.1,6.8-6.9,6.8H20.6c-3.8,0-6.9-3.1-6.9-6.8V20.5
				C13.7,16.8,16.8,13.7,20.6,13.7z"/>
			<g>
				<defs>
					<rect id="SVGID_3_" x="27.6" y="69.5" width="176.2" height="26.5"/>
				</defs>
				<clipPath id="SVGID_4_">
					<use xlink:href="#SVGID_3_"  style="overflow:visible;"/>
				</clipPath>
				<g class="st3">
					<ellipse class="st2" cx="38.7" cy="80.5" rx="11.1" ry="11"/>
					<path class="st4" d="M39,85.3h1.2v-9.6H39l-2.6,1.8v1.3l2.5-1.8H39V85.3z"/>
					<g>
						<defs>
							<rect id="SVGID_5_" x="63.7" y="69.5" width="140" height="26.5"/>
						</defs>
						<clipPath id="SVGID_6_">
							<use xlink:href="#SVGID_5_"  style="overflow:visible;"/>
						</clipPath>
						<g class="st5">
							<g>
								<defs>
									<rect id="SVGID_7_" x="63.7" y="69.5" width="140" height="26.5"/>
								</defs>
								<clipPath id="SVGID_8_">
									<use xlink:href="#SVGID_7_"  style="overflow:visible;"/>
								</clipPath>
								<g class="st6">
									<path class="st4" d="M67.7,79.7c1.7,0,2.9-1,3.1-2.4v0h-1.3l0,0c-0.2,0.8-0.9,1.3-1.8,1.3c-1.3,0-2-1-2-2.7v0
										c0-1.6,0.8-2.7,2-2.7c0.9,0,1.6,0.6,1.8,1.4l0,0h1.3v0c-0.2-1.5-1.4-2.5-3.1-2.5c-2.1,0-3.4,1.4-3.4,3.8v0
										C64.3,78.3,65.6,79.7,67.7,79.7z M72.2,79.5h1.3v-7.6h-1.3V79.5z M77.4,79.7c1.7,0,2.7-1.1,2.7-2.8v0c0-1.8-1-2.8-2.7-2.8
										c-1.7,0-2.7,1.1-2.7,2.8v0C74.8,78.6,75.8,79.7,77.4,79.7z M77.4,78.6c-0.9,0-1.4-0.7-1.4-1.8v0c0-1.2,0.5-1.8,1.4-1.8
										c0.9,0,1.4,0.7,1.4,1.8v0C78.8,78,78.3,78.6,77.4,78.6z M83.2,79.7c0.8,0,1.4-0.4,1.6-0.9H85v0.8h1.3v-5.5H85v3.2
										c0,0.8-0.4,1.3-1.3,1.3c-0.8,0-1.1-0.4-1.1-1.3v-3.3h-1.3v3.5C81.3,78.9,82,79.7,83.2,79.7z M89.8,79.6
										c0.8,0,1.4-0.4,1.7-0.9h0.1v0.9h1.3v-7.6h-1.3v3h-0.1c-0.3-0.6-0.9-1-1.7-1c-1.4,0-2.3,1.1-2.3,2.8v0
										C87.5,78.5,88.4,79.6,89.8,79.6z M90.2,78.6c-0.9,0-1.4-0.7-1.4-1.8v0c0-1.1,0.5-1.8,1.4-1.8c0.9,0,1.4,0.7,1.4,1.8v0
										C91.6,77.9,91,78.6,90.2,78.6z M97.3,79.5h1.3v-3.1h3.6v3.1h1.3v-7.2h-1.3v3h-3.6v-3h-1.3V79.5z M107.6,79.7
										c1.7,0,2.7-1.1,2.7-2.8v0c0-1.8-1-2.8-2.7-2.8c-1.7,0-2.7,1.1-2.7,2.8v0C104.9,78.6,105.9,79.7,107.6,79.7z M107.6,78.6
										c-0.9,0-1.4-0.7-1.4-1.8v0c0-1.2,0.5-1.8,1.4-1.8c0.9,0,1.4,0.7,1.4,1.8v0C109,78,108.5,78.6,107.6,78.6z M113.7,79.7
										c1.4,0,2.4-0.7,2.4-1.7v0c0-0.8-0.5-1.3-1.6-1.5l-0.9-0.2c-0.6-0.1-0.8-0.3-0.8-0.7v0c0-0.4,0.4-0.7,1-0.7
										c0.6,0,1,0.3,1.1,0.6l0,0h1.2v0c-0.1-0.9-0.9-1.5-2.2-1.5c-1.3,0-2.2,0.7-2.2,1.7v0c0,0.8,0.5,1.3,1.6,1.5l0.9,0.2
										c0.6,0.1,0.9,0.3,0.9,0.7v0c0,0.4-0.4,0.7-1.1,0.7s-1-0.3-1.1-0.6l0,0h-1.3v0C111.4,79,112.2,79.7,113.7,79.7z M119.4,79.6
										c0.2,0,0.5,0,0.7-0.1v-1c-0.2,0-0.2,0-0.4,0c-0.5,0-0.7-0.2-0.7-0.8V75h1.2v-1h-1.2v-1.3h-1.3v1.3h-0.9v1h0.9v3.1
										C117.6,79.1,118.2,79.6,119.4,79.6z M122,73.1c0.4,0,0.8-0.3,0.8-0.7c0-0.4-0.3-0.7-0.8-0.7c-0.4,0-0.8,0.3-0.8,0.7
										C121.3,72.8,121.6,73.1,122,73.1z M121.4,79.5h1.3v-5.5h-1.3V79.5z M124.2,79.5h1.3v-3.2c0-0.8,0.5-1.3,1.2-1.3
										c0.8,0,1.1,0.4,1.1,1.3v3.3h1.3V76c0-1.3-0.7-2-1.9-2c-0.8,0-1.3,0.4-1.6,0.9h-0.1v-0.8h-1.3V79.5z M133,81.5
										c1.6,0,2.7-0.8,2.7-2.1v-5.3h-1.3V75h-0.1c-0.3-0.6-0.9-1-1.7-1c-1.4,0-2.3,1.1-2.3,2.7v0c0,1.6,0.9,2.6,2.3,2.6
										c0.8,0,1.4-0.3,1.7-0.9h0.1v1c0,0.7-0.5,1.1-1.4,1.1c-0.7,0-1.1-0.2-1.2-0.6l0,0h-1.3l0,0C130.6,80.9,131.5,81.5,133,81.5z
										 M133,78.3c-0.9,0-1.4-0.7-1.4-1.6v0c0-1,0.5-1.6,1.4-1.6c0.9,0,1.4,0.7,1.4,1.6v0C134.4,77.6,133.8,78.3,133,78.3z"/>
									<path class="st7" d="M65.2,87.3h103.5c0.8,0,1.5,0.7,1.5,1.5l0,0c0,0.8-0.7,1.5-1.5,1.5H65.2c-0.8,0-1.5-0.7-1.5-1.5l0,0
										C63.7,88,64.4,87.3,65.2,87.3z"/>
									<path class="st7" d="M65.2,93h63.9c0.8,0,1.5,0.7,1.5,1.5l0,0c0,0.8-0.7,1.5-1.5,1.5H65.2c-0.8,0-1.5-0.7-1.5-1.5l0,0
										C63.7,93.7,64.4,93,65.2,93z"/>
								</g>
							</g>
						</g>
					</g>
				</g>
			</g>
			<g>
				<defs>
					<rect id="SVGID_9_" x="27.6" y="126" width="174.1" height="24.5"/>
				</defs>
				<clipPath id="SVGID_10_">
					<use xlink:href="#SVGID_9_"  style="overflow:visible;"/>
				</clipPath>
				<g class="st8">
					<ellipse class="st2" cx="38.7" cy="137" rx="11.1" ry="11"/>
					<path class="st4" d="M36,141.8h6.3v-1.1h-4.6v-0.1l2.2-2.3c1.8-1.8,2.3-2.6,2.3-3.7v0c0-1.6-1.3-2.7-3-2.7
						c-1.9,0-3.2,1.2-3.2,2.9l0,0l1.2,0l0,0c0-1.1,0.8-1.9,2-1.9c1.2,0,1.9,0.8,1.9,1.8v0c0,0.8-0.4,1.3-1.6,2.7l-3.3,3.5V141.8z"/>
					<g>
						<defs>
							<rect id="SVGID_11_" x="63.7" y="126" width="138" height="24.5"/>
						</defs>
						<clipPath id="SVGID_12_">
							<use xlink:href="#SVGID_11_"  style="overflow:visible;"/>
						</clipPath>
						<g class="st9">
							<g>
								<defs>
									<rect id="SVGID_13_" x="63.7" y="126" width="138" height="24.5"/>
								</defs>
								<clipPath id="SVGID_14_">
									<use xlink:href="#SVGID_13_"  style="overflow:visible;"/>
								</clipPath>
								<g class="st10">
									<path class="st4" d="M64.6,136h1v-5.3h0.1l2.2,5.3h0.8l2.2-5.3H71v5.3h1v-7.2h-1.3l-2.3,5.8h-0.1l-2.3-5.8h-1.3V136z
										 M75.3,136.1c0.7,0,1.3-0.3,1.6-0.9H77v0.8h1.1v-3.7c0-1.1-0.8-1.8-2.2-1.8c-1.3,0-2.1,0.6-2.3,1.5l0,0h1.1l0,0
										c0.1-0.4,0.5-0.6,1.1-0.6c0.7,0,1.1,0.3,1.1,0.9v0.5l-1.5,0.1c-1.3,0.1-2.1,0.6-2.1,1.6v0
										C73.4,135.5,74.2,136.1,75.3,136.1z M74.5,134.4L74.5,134.4c0-0.5,0.3-0.8,1.1-0.8l1.3-0.1v0.5c0,0.7-0.6,1.2-1.4,1.2
										C75,135.2,74.5,134.9,74.5,134.4z M79.6,136h1.1v-3.2c0-0.9,0.5-1.4,1.3-1.4c0.8,0,1.2,0.4,1.2,1.3v3.3h1.1v-3.5
										c0-1.3-0.7-2-1.9-2c-0.8,0-1.3,0.4-1.6,0.9h-0.1v-0.8h-1.1V136z M87.4,136.1c0.7,0,1.3-0.3,1.6-0.9h0.1v0.8h1.1v-3.7
										c0-1.1-0.8-1.8-2.2-1.8c-1.3,0-2.1,0.6-2.3,1.5l0,0h1.1l0,0c0.1-0.4,0.5-0.6,1.1-0.6c0.7,0,1.1,0.3,1.1,0.9v0.5l-1.5,0.1
										c-1.3,0.1-2.1,0.6-2.1,1.6v0C85.6,135.5,86.3,136.1,87.4,136.1z M86.7,134.4L86.7,134.4c0-0.5,0.3-0.8,1.1-0.8l1.3-0.1v0.5
										c0,0.7-0.6,1.2-1.4,1.2C87.1,135.2,86.7,134.9,86.7,134.4z M94.1,137.9c1.6,0,2.6-0.8,2.6-2v-5.3h-1.1v0.9h-0.1
										c-0.3-0.6-0.9-1-1.7-1c-1.4,0-2.3,1.1-2.3,2.7v0c0,1.5,0.9,2.6,2.3,2.6c0.8,0,1.4-0.3,1.7-0.9h0.1v1.1
										c0,0.7-0.5,1.2-1.5,1.2c-0.7,0-1.2-0.3-1.3-0.6l0,0h-1.1l0,0C91.8,137.3,92.7,137.9,94.1,137.9z M94.1,134.9
										c-0.9,0-1.5-0.7-1.5-1.7v0c0-1,0.5-1.7,1.5-1.7c0.9,0,1.5,0.7,1.5,1.7v0C95.6,134.2,95,134.9,94.1,134.9z M100.6,136.1
										c1.4,0,2.2-0.8,2.4-1.5l0,0l-1.1,0l0,0c-0.1,0.3-0.6,0.6-1.3,0.6c-0.9,0-1.5-0.6-1.5-1.6h3.9v-0.4c0-1.6-0.9-2.7-2.5-2.7
										c-1.5,0-2.5,1.1-2.5,2.8v0C98,135,99,136.1,100.6,136.1z M100.5,131.4c0.7,0,1.3,0.5,1.4,1.4h-2.8
										C99.2,131.9,99.8,131.4,100.5,131.4z M106.3,136.1c0.8,0,1.4-0.4,1.7-0.9h0.1v0.9h1.1v-7.6h-1.1v3H108
										c-0.3-0.6-0.9-1-1.7-1c-1.4,0-2.3,1.1-2.3,2.8v0C104,135,105,136.1,106.3,136.1z M106.7,135.2c-0.9,0-1.5-0.7-1.5-1.9v0
										c0-1.2,0.6-1.9,1.5-1.9c0.9,0,1.5,0.7,1.5,1.9v0C108.1,134.5,107.6,135.2,106.7,135.2z M116.3,136.2c1.7,0,2.8-0.9,2.8-2.2
										v0c0-1.1-0.6-1.7-2.2-2l-0.8-0.2c-1-0.2-1.3-0.6-1.3-1.1v0c0-0.7,0.6-1.1,1.5-1.1c0.9,0,1.5,0.4,1.6,1l0,0.1h1.1l0-0.1
										c-0.1-1.1-1.1-2-2.7-2c-1.6,0-2.7,0.9-2.7,2.1v0c0,1.1,0.6,1.8,2.1,2.1l0.8,0.2c1,0.2,1.4,0.6,1.4,1.1v0
										c0,0.7-0.7,1.1-1.6,1.1c-1,0-1.7-0.4-1.8-1.1l0-0.1h-1.1l0,0.1C113.6,135.4,114.7,136.2,116.3,136.2z M122.8,136.1
										c1.4,0,2.2-0.8,2.4-1.5l0,0l-1.1,0l0,0c-0.1,0.3-0.6,0.6-1.3,0.6c-0.9,0-1.5-0.6-1.5-1.6h3.9v-0.4c0-1.6-0.9-2.7-2.5-2.7
										c-1.5,0-2.5,1.1-2.5,2.8v0C120.2,135,121.2,136.1,122.8,136.1z M122.8,131.4c0.7,0,1.3,0.5,1.4,1.4h-2.8
										C121.5,131.9,122,131.4,122.8,131.4z M126.6,136h1.1v-3.3c0-0.8,0.6-1.3,1.4-1.3c0.2,0,0.4,0,0.6,0.1v-1
										c-0.1,0-0.3-0.1-0.5-0.1c-0.7,0-1.3,0.3-1.5,0.9h-0.1v-0.8h-1.1V136z M132.3,136h1.2l2-5.4h-1.2l-1.4,4.3h-0.1l-1.4-4.3
										h-1.2L132.3,136z M137.2,129.6c0.4,0,0.7-0.3,0.7-0.7c0-0.4-0.3-0.7-0.7-0.7c-0.4,0-0.7,0.3-0.7,0.7
										C136.5,129.3,136.8,129.6,137.2,129.6z M136.6,136h1.1v-5.4h-1.1V136z M141.6,136.1c1.4,0,2.2-0.7,2.4-1.8l0,0h-1.1l0,0
										c-0.2,0.6-0.6,0.9-1.3,0.9c-0.9,0-1.5-0.7-1.5-1.9v0c0-1.2,0.6-1.9,1.5-1.9c0.7,0,1.2,0.4,1.3,0.9l0,0l1.1,0v0
										c-0.2-1.1-1-1.8-2.4-1.8c-1.6,0-2.6,1.1-2.6,2.8v0C139,135,140,136.1,141.6,136.1z M147.6,136.1c1.4,0,2.2-0.8,2.4-1.5l0,0
										l-1.1,0l0,0c-0.1,0.3-0.6,0.6-1.3,0.6c-0.9,0-1.5-0.6-1.5-1.6h3.9v-0.4c0-1.6-0.9-2.7-2.5-2.7c-1.5,0-2.5,1.1-2.5,2.8v0
										C145,135,145.9,136.1,147.6,136.1z M147.5,131.4c0.7,0,1.3,0.5,1.4,1.4h-2.8C146.2,131.9,146.8,131.4,147.5,131.4z
										 M154.3,136h1.1v-2.5h1.7c1.4,0,2.4-1,2.4-2.4v0c0-1.4-1-2.4-2.4-2.4h-2.9V136z M156.9,129.7c1,0,1.6,0.5,1.6,1.4v0
										c0,0.9-0.6,1.4-1.6,1.4h-1.4v-2.9H156.9z M160.9,136h1.1v-3.3c0-0.8,0.6-1.3,1.4-1.3c0.2,0,0.4,0,0.6,0.1v-1
										c-0.1,0-0.3-0.1-0.5-0.1c-0.7,0-1.3,0.3-1.5,0.9H162v-0.8h-1.1V136z M167.3,136.1c1.6,0,2.6-1.1,2.6-2.8v0
										c0-1.8-1-2.8-2.6-2.8c-1.6,0-2.6,1.1-2.6,2.8v0C164.7,135.1,165.7,136.1,167.3,136.1z M167.3,135.2c-1,0-1.5-0.7-1.5-1.9v0
										c0-1.2,0.5-1.9,1.5-1.9c0.9,0,1.5,0.7,1.5,1.9v0C168.8,134.5,168.2,135.2,167.3,135.2z M172.5,136h1.2l2-5.4h-1.2l-1.4,4.3
										h-0.1l-1.4-4.3h-1.2L172.5,136z M177.4,129.6c0.4,0,0.7-0.3,0.7-0.7c0-0.4-0.3-0.7-0.7-0.7c-0.4,0-0.7,0.3-0.7,0.7
										C176.7,129.3,177,129.6,177.4,129.6z M176.8,136h1.1v-5.4h-1.1V136z M181.6,136.1c0.8,0,1.4-0.4,1.7-0.9h0.1v0.9h1.1v-7.6
										h-1.1v3h-0.1c-0.3-0.6-0.9-1-1.7-1c-1.4,0-2.3,1.1-2.3,2.8v0C179.3,135,180.2,136.1,181.6,136.1z M181.9,135.2
										c-0.9,0-1.5-0.7-1.5-1.9v0c0-1.2,0.6-1.9,1.5-1.9c0.9,0,1.5,0.7,1.5,1.9v0C183.4,134.5,182.8,135.2,181.9,135.2z
										 M188.4,136.1c1.4,0,2.2-0.8,2.4-1.5l0,0l-1.1,0l0,0c-0.1,0.3-0.6,0.6-1.3,0.6c-0.9,0-1.5-0.6-1.5-1.6h3.9v-0.4
										c0-1.6-0.9-2.7-2.5-2.7c-1.5,0-2.5,1.1-2.5,2.8v0C185.8,135,186.8,136.1,188.4,136.1z M188.4,131.4c0.7,0,1.3,0.5,1.4,1.4
										h-2.8C187,131.9,187.6,131.4,188.4,131.4z M192.2,136h1.1v-3.3c0-0.8,0.6-1.3,1.4-1.3c0.2,0,0.4,0,0.6,0.1v-1
										c-0.1,0-0.3-0.1-0.5-0.1c-0.7,0-1.3,0.3-1.5,0.9h-0.1v-0.8h-1.1V136z"/>
									<path class="st7" d="M65.2,141.8h37.5c0.8,0,1.5,0.7,1.5,1.5l0,0c0,0.8-0.7,1.5-1.5,1.5H65.2c-0.8,0-1.5-0.7-1.5-1.5l0,0
										C63.7,142.4,64.4,141.8,65.2,141.8z"/>
									<path class="st7" d="M65.2,147.5h78.1c0.8,0,1.5,0.7,1.5,1.5l0,0c0,0.8-0.7,1.5-1.5,1.5H65.2c-0.8,0-1.5-0.7-1.5-1.5l0,0
										C63.7,148.2,64.4,147.5,65.2,147.5z"/>
								</g>
							</g>
						</g>
					</g>
				</g>
			</g>
			<g>
				<defs>
					<rect id="SVGID_15_" x="27.6" y="180.5" width="160.5" height="23.8"/>
				</defs>
				<clipPath id="SVGID_16_">
					<use xlink:href="#SVGID_15_"  style="overflow:visible;"/>
				</clipPath>
				<g class="st11">
					<ellipse class="st2" cx="38.7" cy="191.5" rx="11.1" ry="11"/>
					<path class="st4" d="M39.1,196.4c2,0,3.4-1.2,3.4-2.8v0c0-1.4-1-2.2-2.4-2.4v0c1.2-0.3,2.1-1.1,2.1-2.3v0
						c0-1.5-1.2-2.5-3.1-2.5c-1.8,0-3.1,1.1-3.2,2.6l0,0.1H37l0-0.1c0.1-1,0.9-1.6,2.1-1.6c1.2,0,1.9,0.6,1.9,1.6v0
						c0,1-0.8,1.7-2,1.7h-1.2v1H39c1.4,0,2.2,0.7,2.2,1.8v0c0,1-0.9,1.7-2.2,1.7c-1.3,0-2.2-0.7-2.3-1.6l0-0.1h-1.2l0,0.1
						C35.8,195.3,37.1,196.4,39.1,196.4z"/>
					<g>
						<defs>
							<rect id="SVGID_17_" x="63.7" y="180.5" width="124.4" height="23.8"/>
						</defs>
						<clipPath id="SVGID_18_">
							<use xlink:href="#SVGID_17_"  style="overflow:visible;"/>
						</clipPath>
						<g class="st12">
							<g>
								<defs>
									<rect id="SVGID_19_" x="63.7" y="180.5" width="124.4" height="23.8"/>
								</defs>
								<clipPath id="SVGID_20_">
									<use xlink:href="#SVGID_19_"  style="overflow:visible;"/>
								</clipPath>
								<g class="st13">
									<path class="st4" d="M66.1,190.5h1.1l1.6-5.4h0.1l1.6,5.4h1.1l2-7.2h-1.2l-1.3,5.6h-0.1l-1.5-5.6h-1.1l-1.5,5.6h-0.1
										l-1.3-5.6h-1.2L66.1,190.5z M76.5,190.6c1.4,0,2.2-0.8,2.4-1.5l0,0l-1.1,0l0,0c-0.1,0.3-0.6,0.6-1.3,0.6
										c-0.9,0-1.5-0.6-1.5-1.7H79v-0.4c0-1.6-0.9-2.7-2.5-2.7c-1.5,0-2.5,1.1-2.5,2.8v0C73.9,189.5,74.9,190.6,76.5,190.6z
										 M76.5,185.8c0.7,0,1.3,0.5,1.4,1.4h-2.8C75.2,186.3,75.7,185.8,76.5,185.8z M83.2,190.6c1.4,0,2.3-1.1,2.3-2.8v0
										c0-1.7-0.9-2.8-2.3-2.8c-0.8,0-1.4,0.4-1.7,1h-0.1v-3h-1.1v7.6h1.1v-0.9h0.1C81.8,190.2,82.4,190.6,83.2,190.6z
										 M82.9,189.7c-0.9,0-1.5-0.7-1.5-1.9v0c0-1.2,0.6-1.9,1.5-1.9c0.9,0,1.5,0.7,1.5,1.9v0C84.4,188.9,83.8,189.7,82.9,189.7z
										 M88.8,190.6c1.3,0,2.3-0.7,2.3-1.7v0c0-0.8-0.5-1.2-1.6-1.5l-0.9-0.2c-0.6-0.1-0.9-0.4-0.9-0.7v0c0-0.4,0.4-0.7,1-0.7
										c0.6,0,1,0.3,1.1,0.7v0H91v0c-0.1-0.9-0.9-1.5-2.2-1.5c-1.3,0-2.1,0.7-2.1,1.6v0c0,0.8,0.5,1.3,1.5,1.5l0.9,0.2
										c0.6,0.1,0.9,0.4,0.9,0.7v0c0,0.4-0.5,0.8-1.2,0.8c-0.7,0-1.1-0.3-1.2-0.7l0,0h-1.1v0C86.7,190,87.5,190.6,88.8,190.6z
										 M93,184.1c0.4,0,0.7-0.3,0.7-0.7c0-0.4-0.3-0.7-0.7-0.7c-0.4,0-0.7,0.3-0.7,0.7C92.3,183.8,92.6,184.1,93,184.1z
										 M92.5,190.5h1.1v-5.4h-1.1V190.5z M97.3,190.5c0.2,0,0.4,0,0.6-0.1v-0.9c-0.2,0-0.2,0-0.4,0c-0.5,0-0.8-0.2-0.8-0.8v-2.9
										h1.2v-0.9h-1.2v-1.4h-1.1v1.4h-0.9v0.9h0.9v3.2C95.5,190.1,96,190.5,97.3,190.5z M101.4,190.6c1.4,0,2.2-0.8,2.4-1.5l0,0
										l-1.1,0l0,0c-0.1,0.3-0.6,0.6-1.3,0.6c-0.9,0-1.5-0.6-1.5-1.7h3.9v-0.4c0-1.6-0.9-2.7-2.5-2.7c-1.5,0-2.5,1.1-2.5,2.8v0
										C98.8,189.5,99.8,190.6,101.4,190.6z M101.3,185.8c0.7,0,1.3,0.5,1.4,1.4h-2.8C100,186.3,100.6,185.8,101.3,185.8z
										 M108.1,190.5h2.7c2.2,0,3.5-1.3,3.5-3.6v0c0-2.3-1.3-3.6-3.5-3.6h-2.7V190.5z M109.3,189.5v-5.3h1.4c1.5,0,2.4,1,2.4,2.6
										v0c0,1.7-0.9,2.6-2.4,2.6H109.3z M118,190.6c1.4,0,2.2-0.8,2.4-1.5l0,0l-1.1,0l0,0c-0.1,0.3-0.6,0.6-1.3,0.6
										c-0.9,0-1.5-0.6-1.5-1.7h3.9v-0.4c0-1.6-0.9-2.7-2.5-2.7c-1.5,0-2.5,1.1-2.5,2.8v0C115.4,189.5,116.3,190.6,118,190.6z
										 M117.9,185.8c0.7,0,1.3,0.5,1.4,1.4h-2.8C116.6,186.3,117.2,185.8,117.9,185.8z M123.7,190.6c1.3,0,2.3-0.7,2.3-1.7v0
										c0-0.8-0.5-1.2-1.6-1.5l-0.9-0.2c-0.6-0.1-0.9-0.4-0.9-0.7v0c0-0.4,0.4-0.7,1-0.7c0.6,0,1,0.3,1.1,0.7v0h1.1v0
										c-0.1-0.9-0.9-1.5-2.2-1.5c-1.3,0-2.1,0.7-2.1,1.6v0c0,0.8,0.5,1.3,1.5,1.5l0.9,0.2c0.6,0.1,0.9,0.4,0.9,0.7v0
										c0,0.4-0.5,0.8-1.2,0.8c-0.7,0-1.1-0.3-1.2-0.7l0,0h-1.1v0C121.5,190,122.4,190.6,123.7,190.6z M127.9,184.1
										c0.4,0,0.7-0.3,0.7-0.7c0-0.4-0.3-0.7-0.7-0.7c-0.4,0-0.7,0.3-0.7,0.7C127.2,183.8,127.5,184.1,127.9,184.1z M127.3,190.5
										h1.1v-5.4h-1.1V190.5z M132.4,192.4c1.6,0,2.6-0.8,2.6-2v-5.3h-1.1v0.9h-0.1c-0.3-0.6-0.9-1-1.7-1c-1.4,0-2.3,1.1-2.3,2.7
										v0c0,1.5,0.9,2.6,2.3,2.6c0.8,0,1.4-0.3,1.7-0.9h0.1v1.1c0,0.7-0.5,1.2-1.5,1.2c-0.7,0-1.2-0.3-1.3-0.6l0,0H130l0,0
										C130.1,191.8,131,192.4,132.4,192.4z M132.4,189.3c-0.9,0-1.5-0.7-1.5-1.7v0c0-1,0.5-1.7,1.5-1.7c0.9,0,1.5,0.7,1.5,1.7v0
										C133.9,188.6,133.3,189.3,132.4,189.3z M136.5,190.5h1.1v-3.2c0-0.9,0.5-1.4,1.3-1.4c0.8,0,1.2,0.4,1.2,1.3v3.3h1.1V187
										c0-1.3-0.7-2-1.9-2c-0.8,0-1.3,0.4-1.6,0.9h-0.1v-0.8h-1.1V190.5z"/>
									<path class="st7" d="M65.2,195.6h78.1c0.8,0,1.5,0.7,1.5,1.5l0,0c0,0.8-0.7,1.5-1.5,1.5H65.2c-0.8,0-1.5-0.7-1.5-1.5l0,0
										C63.7,196.2,64.4,195.6,65.2,195.6z"/>
									<path class="st7" d="M65.2,201.3H184c0.8,0,1.5,0.7,1.5,1.5l0,0c0,0.8-0.7,1.5-1.5,1.5H65.2c-0.8,0-1.5-0.7-1.5-1.5l0,0
										C63.7,202,64.4,201.3,65.2,201.3z"/>
								</g>
							</g>
						</g>
					</g>
				</g>
			</g>
			
				<linearGradient id="SVGID_21_" gradientUnits="userSpaceOnUse" x1="301.036" y1="262.3079" x2="301.036" y2="15.848" gradientTransform="matrix(1 0 0 -1 0 276)">
				<stop  offset="0" style="stop-color:#343563"/>
				<stop  offset="1" style="stop-color:#4926AD"/>
			</linearGradient>
			<path class="st14" d="M217.7,20.5c0-3.8,3.1-6.9,7-6.9h152.8c3.8,0,7,3.1,7,6.9v232.8c0,3.8-3.1,6.9-7,6.9H224.6
				c-3.8,0-7-3.1-7-6.9V20.5z"/>
			<path class="st15" d="M221.2,178.1c3.9-0.2,9.8-0.3,16.9,0.7c12.3,1.7,15.1,4.8,23.7,6.8c16.4,3.7,20.5-4.6,53-6.1
				c5.6-0.3,11.1-0.3,15.6-0.3c15-0.1,22.4-0.1,30.2,0.5c13,1.1,19.6,3,21.4-0.1c1.2-2-0.3-5-1.6-7.8c-2.7-5.5-6.4-8.2-8.6-10.4
				c-8.1-7.8-3.6-15.7-9.4-25.4c-4.7-7.9-15.9-16.5-25.8-15c-13.7,2.1-15.2,22.3-36.6,30.4c-3.2,1.2-5.8,2.2-9.5,2.2
				c-12.2,0.1-16.8-10.5-26.7-9.2c-5,0.6-8.5,3.9-11.3,6.5c-8.3,7.9-5.5,15.1-11.9,18.1c-4.6,2.2-9.4,0.2-16.7,3.1
				c-1.6,0.6-3.5,1.6-3.8,3.2C219.9,176.4,220.7,177.5,221.2,178.1z"/>
			<path class="st16" d="M257.8,174.5h-30.7c-0.4,0-0.5-0.6-0.1-0.7l1.4-0.5h32.9l-3.4,1.2C257.9,174.5,257.9,174.5,257.8,174.5z"/>
			<path class="st17" d="M310.7,180.5h-36.6c-2.5,0-4.6-2-4.6-4.5v-72.5c0-2.5,2.1-4.5,4.6-4.5h36.6c2.5,0,4.6,2,4.6,4.5V176
				C315.3,178.5,313.3,180.5,310.7,180.5z"/>
			<path class="st18" d="M315.8,181.2H269c-0.6,0-1-0.5-1-1v-42.8c0-0.6,0.5-1,1-1h46.8c0.6,0,1,0.5,1,1v42.8
				C316.8,180.8,316.4,181.2,315.8,181.2z"/>
			<path class="st19" d="M281.7,111.6c0.7-0.9,1.6-2.4,1.3-3.1c0,0-0.6,1-0.8,0.7c0,0,0.5-0.6,0-1.4c0,0-1.1,1.1-1.4,1
				c0,0,1-1.4,0.7-2.9c0,0-2.1,1.3-2.7,1.3c-0.5,0-5.2,1.2-4.8,2.8c0,0-2.5,1.1-1.7,2.4c0.2,0.3,0.6,0.8,0.9,1.4
				c-0.9,1.1-1.4,2.5-1.4,4.1c0,3.8,3.2,6.8,7.2,6.8c4,0,7.2-3.1,7.2-6.8C286.3,115,284.4,112.6,281.7,111.6z"/>
			<path class="st20" d="M300.8,122.5h-3.6l-1.8,3.1l1.8,3.1h3.6l1.8-3.1L300.8,122.5z"/>
			<path class="st4" d="M279.8,123.4c3.6,0,6.5-2.9,6.5-6.4c0-3.5-2.9-6.4-6.5-6.4s-6.5,2.9-6.5,6.4
				C273.3,120.5,276.2,123.4,279.8,123.4z"/>
			<path class="st21" d="M302.1,174.1H281c-1.3,0-2.3-1-2.3-2.3v-1.3c0-1.2,1-2.3,2.3-2.3h21.1c1.3,0,2.3,1,2.3,2.3v1.3
				C304.4,173.1,303.4,174.1,302.1,174.1z"/>
			<path class="st18" d="M249.1,152.7h-14v6.9h14V152.7z"/>
			<path class="st17" d="M261.3,159.6h-32.9v13.8h32.9V159.6z"/>
			<path class="st21" d="M366.7,174.2H324c-1.3,0-2.3-1-2.3-2.3v-1.6c0-1.3,1-2.3,2.3-2.3h42.7c1.3,0,2.3,1,2.3,2.3v1.6
				C369,173.2,368,174.2,366.7,174.2z"/>
			<path class="st21" d="M358.8,167.7h-26.6c-1.3,0-2.3-1-2.3-2.3v-1.6c0-1.2,1-2.3,2.3-2.3h26.6c1.3,0,2.3,1,2.3,2.3v1.6
				C361.1,166.7,360.1,167.7,358.8,167.7z"/>
			<path class="st22" d="M368.9,174.6h-45c-1.3,0-2.4-1.1-2.4-2.4v-2.3c0-1.3,1.1-2.4,2.4-2.4h45c1.3,0,2.4,1.1,2.4,2.4v2.3
				C371.3,173.6,370.2,174.6,368.9,174.6z M323.9,167.8c-1.2,0-2.2,1-2.2,2.2v2.3c0,1.2,1,2.2,2.2,2.2h45c1.2,0,2.2-1,2.2-2.2v-2.3
				c0-1.2-1-2.2-2.2-2.2H323.9z"/>
			<path class="st22" d="M360.2,167.8h-28.1c-1.3,0-2.4-1.1-2.4-2.4V163c0-1.3,1.1-2.4,2.4-2.4h28.1c1.3,0,2.4,1.1,2.4,2.4v2.3
				C362.6,166.7,361.5,167.8,360.2,167.8z M332.1,160.9c-1.2,0-2.2,1-2.2,2.2v2.3c0,1.2,1,2.2,2.2,2.2h28.1c1.2,0,2.2-1,2.2-2.2
				v-2.3c0-1.2-1-2.2-2.2-2.2H332.1z"/>
			<path class="st21" d="M304.3,116.3h-9.8c-0.6,0-1.1-0.5-1.1-1v-1c0-0.6,0.5-1,1.1-1h9.8c0.6,0,1.1,0.5,1.1,1v1
				C305.3,115.8,304.9,116.3,304.3,116.3z M294.5,113.3c-0.5,0-0.9,0.4-0.9,0.8v1c0,0.5,0.4,0.8,0.9,0.8h9.8c0.5,0,0.9-0.4,0.9-0.8
				v-1c0-0.5-0.4-0.8-0.9-0.8H294.5z"/>
			<path class="st18" d="M284,127.7h-8.3c-0.4,0-0.6-0.3-0.6-0.6v-0.2c0-0.3,0.3-0.6,0.6-0.6h8.3c0.4,0,0.6,0.3,0.6,0.6v0.2
				C284.6,127.4,284.3,127.7,284,127.7z"/>
			<path class="st21" d="M303.6,117.7h-8.4c-0.2,0-0.3-0.1-0.3-0.3c0-0.2,0.1-0.3,0.3-0.3h8.4c0.2,0,0.3,0.1,0.3,0.3
				C303.9,117.5,303.8,117.7,303.6,117.7z"/>
			<path class="st21" d="M303.6,118.9h-8.4c-0.2,0-0.3-0.1-0.3-0.3c0-0.2,0.1-0.3,0.3-0.3h8.4c0.2,0,0.3,0.1,0.3,0.3
				C303.9,118.7,303.8,118.9,303.6,118.9z"/>
			<path class="st18" d="M246.3,163.7h-8.4c-0.2,0-0.3-0.1-0.3-0.3s0.1-0.3,0.3-0.3h8.4c0.2,0,0.3,0.1,0.3,0.3
				S246.4,163.7,246.3,163.7z"/>
			<path class="st18" d="M246.3,165.6h-8.4c-0.2,0-0.3-0.1-0.3-0.3s0.1-0.3,0.3-0.3h8.4c0.2,0,0.3,0.1,0.3,0.3
				S246.4,165.6,246.3,165.6z"/>
			<path class="st18" d="M246.3,167.6h-8.4c-0.2,0-0.3-0.1-0.3-0.3c0-0.2,0.1-0.3,0.3-0.3h8.4c0.2,0,0.3,0.1,0.3,0.3
				C246.6,167.4,246.4,167.6,246.3,167.6z"/>
			<path class="st16" d="M286.4,140.9h-16.2c-0.4,0-0.6-0.3-0.6-0.6v-0.6c0-0.3,0.3-0.6,0.6-0.6h16.2c0.4,0,0.6,0.3,0.6,0.6v0.6
				C287,140.6,286.7,140.9,286.4,140.9z"/>
			<path class="st17" d="M289.6,141.4h-19.5c-0.4,0-0.7-0.3-0.7-0.7v-1.8c0-0.4,0.3-0.7,0.7-0.7h19.5c0.4,0,0.7,0.3,0.7,0.7v1.8
				C290.3,141.1,290,141.4,289.6,141.4z M270.1,138.3c-0.3,0-0.5,0.2-0.5,0.5v1.8c0,0.3,0.2,0.5,0.5,0.5h19.5c0.3,0,0.5-0.2,0.5-0.5
				v-1.8c0-0.3-0.2-0.5-0.5-0.5H270.1z"/>
			<path class="st18" d="M244.6,121.2h-17.4c-0.4,0-0.6-0.3-0.6-0.6v-1.3c0-0.3,0.3-0.6,0.6-0.6h17.4c0.4,0,0.6,0.3,0.6,0.6v1.3
				C245.2,120.9,244.9,121.2,244.6,121.2z"/>
			<path class="st21" d="M244.6,126.8h-17.4c-0.4,0-0.6-0.3-0.6-0.6v-1.3c0-0.3,0.3-0.6,0.6-0.6h17.4c0.4,0,0.6,0.3,0.6,0.6v1.3
				C245.2,126.6,244.9,126.8,244.6,126.8z"/>
			<path class="st22" d="M246.1,121h-19.5c-0.4,0-0.7-0.3-0.7-0.7v-1.8c0-0.4,0.3-0.7,0.7-0.7h19.5c0.4,0,0.7,0.3,0.7,0.7v1.8
				C246.8,120.7,246.5,121,246.1,121z M226.6,118c-0.3,0-0.5,0.2-0.5,0.5v1.8c0,0.3,0.2,0.5,0.5,0.5h19.5c0.3,0,0.5-0.2,0.5-0.5
				v-1.8c0-0.3-0.2-0.5-0.5-0.5H226.6z"/>
			<path class="st22" d="M246.1,126.7h-19.5c-0.4,0-0.7-0.3-0.7-0.7v-1.8c0-0.4,0.3-0.7,0.7-0.7h19.5c0.4,0,0.7,0.3,0.7,0.7v1.8
				C246.8,126.4,246.5,126.7,246.1,126.7z M226.6,123.7c-0.3,0-0.5,0.2-0.5,0.5v1.8c0,0.3,0.2,0.5,0.5,0.5h19.5
				c0.3,0,0.5-0.2,0.5-0.5v-1.8c0-0.3-0.2-0.5-0.5-0.5H226.6z"/>
			<path class="st18" d="M284,130.2h-8.3c-0.4,0-0.6-0.3-0.6-0.6v-0.2c0-0.3,0.3-0.6,0.6-0.6h8.3c0.4,0,0.6,0.3,0.6,0.6v0.2
				C284.6,129.9,284.3,130.2,284,130.2z"/>
			<path class="st21" d="M287.8,162.3h-18.3c-0.4,0-0.6-0.3-0.6-0.6v-0.2c0-0.3,0.3-0.6,0.6-0.6h18.3c0.4,0,0.6,0.3,0.6,0.6v0.2
				C288.5,162.1,288.2,162.3,287.8,162.3z"/>
			<path class="st17" d="M239.8,153.7v-11c0-0.3,0.3-0.5,0.6-0.5h0.2c0.4,0,0.6,0.2,0.6,0.5v11H239.8z"/>
			<path class="st21" d="M287.8,165h-18.3c-0.4,0-0.6-0.3-0.6-0.6v-0.2c0-0.3,0.3-0.6,0.6-0.6h18.3c0.4,0,0.6,0.3,0.6,0.6v0.2
				C288.5,164.7,288.2,165,287.8,165z"/>
			<path class="st17" d="M342.5,171.8h-18.3c-0.4,0-0.6-0.3-0.6-0.6V171c0-0.3,0.3-0.6,0.6-0.6h18.3c0.4,0,0.6,0.3,0.6,0.6v0.2
				C343.1,171.5,342.8,171.8,342.5,171.8z"/>
			<path class="st22" d="M316.9,182.3h-48.9c-0.6,0-1.1-0.5-1.1-1.1v-44.8c0-0.6,0.5-1.1,1.1-1.1h48.9c0.6,0,1.1,0.5,1.1,1.1v44.8
				C318,181.8,317.5,182.3,316.9,182.3z M267.9,135.5c-0.5,0-0.9,0.4-0.9,0.9v44.8c0,0.5,0.4,0.9,0.9,0.9h48.9
				c0.5,0,0.9-0.4,0.9-0.9v-44.8c0-0.5-0.4-0.9-0.9-0.9H267.9z"/>
			<path class="st22" d="M368.2,160.9h-32.5c-0.7,0-1.2-0.6-1.2-1.2v-19.5c0-0.7,0.6-1.2,1.2-1.2h32.5c0.7,0,1.2,0.6,1.2,1.2v19.5
				C369.5,160.3,368.9,160.9,368.2,160.9z M335.7,139.1c-0.6,0-1,0.5-1,1v19.5c0,0.6,0.5,1,1,1h32.5c0.6,0,1-0.5,1-1v-19.5
				c0-0.6-0.5-1-1-1H335.7z"/>
			<path class="st17" d="M367.4,159.7h-30.8c-0.4,0-0.6-0.3-0.6-0.6v-18.4c0-0.3,0.3-0.6,0.6-0.6h30.8c0.4,0,0.6,0.3,0.6,0.6v18.4
				C368,159.4,367.7,159.7,367.4,159.7z"/>
			<path class="st18" d="M343.1,148.3c1.8,0,3.3-1.5,3.3-3.3c0-1.8-1.5-3.3-3.3-3.3c-1.8,0-3.3,1.5-3.3,3.3
				C339.8,146.8,341.3,148.3,343.1,148.3z"/>
			<path class="st18" d="M368,156.4v2.7c0,0.3-0.3,0.6-0.6,0.6h-30.9c-0.3,0-0.6-0.2-0.7-0.6l0-0.5l9-7.1l4.9,4.1l10.8-11.8
				L368,156.4z"/>
			<path class="st22" d="M354.1,166.2l-0.1-0.2l2.4-1.8l-2.4-1.9l0.1-0.2l2.6,2L354.1,166.2z"/>
			<path class="st22" d="M337.1,166.2l-2.6-2l2.6-2l0.1,0.2l-2.4,1.9l2.4,1.8L337.1,166.2z"/>
			<path class="st23" d="M318.9,134.6h-2v2h2V134.6z"/>
			<path class="st23" d="M318.9,181.2h-2v2h2V181.2z"/>
			<path class="st23" d="M267.9,134.6h-2v2h2V134.6z"/>
			<path class="st23" d="M267.9,181.2h-2v2h2V181.2z"/>
			<path class="st17" d="M355.8,168.8h-0.2v4.7h0.2V168.8z"/>
			<path class="st17" d="M356.7,168.8h-0.4v4.7h0.4V168.8z"/>
			<path class="st17" d="M357.7,168.8h-0.6v4.7h0.6V168.8z"/>
			<path class="st17" d="M358.5,168.8h-0.4v4.7h0.4V168.8z"/>
			<path class="st17" d="M359.2,168.8h-0.2v4.7h0.2V168.8z"/>
			<path class="st17" d="M359.8,168.8h-0.2v4.7h0.2V168.8z"/>
			<path class="st17" d="M360.6,168.8h-0.4v4.7h0.4V168.8z"/>
			<path class="st17" d="M361.2,168.8H361v4.7h0.2V168.8z"/>
			<path class="st17" d="M362.3,168.8h-0.6v4.7h0.6V168.8z"/>
			<path class="st17" d="M363.1,168.8h-0.4v4.7h0.4V168.8z"/>
			<path class="st17" d="M363.7,168.8h-0.2v4.7h0.2V168.8z"/>
			<path class="st17" d="M364.8,168.8h-0.6v4.7h0.6V168.8z"/>
			<path class="st17" d="M365.8,168.8h-0.6v4.7h0.6V168.8z"/>
			<path class="st17" d="M366.4,168.8h-0.2v4.7h0.2V168.8z"/>
			<path class="st18" d="M345.5,135.3h-0.2v-1h0.2V135.3z M345.5,133.3h-0.2v-1h0.2V133.3z M345.5,131.3h-0.2v-1h0.2V131.3z
				 M345.5,129.2h-0.2v-1h0.2V129.2z M345.5,127.2h-0.2v-1h0.2V127.2z M345.5,125.1h-0.2v-0.5h-0.4v-0.2h0.6V125.1z M343.8,124.7h-1
				v-0.2h1V124.7z M341.8,124.7h-1v-0.2h1V124.7z M339.7,124.7h-1v-0.2h1V124.7z M337.6,124.7h-1v-0.2h1V124.7z M335.5,124.7h-1
				v-0.2h1V124.7z M333.4,124.7h-1v-0.2h1V124.7z M331.4,124.7h-1v-0.2h1V124.7z M329.3,124.7h-1v-0.2h1V124.7z M327.2,124.7h-1
				v-0.2h1V124.7z M325.1,124.7h-1v-0.2h1V124.7z M323,124.7h-1v-0.2h1V124.7z M321,124.7h-1v-0.2h1V124.7z M318.9,124.7h-1v-0.2h1
				V124.7z M316.8,124.7h-1v-0.2h1V124.7z M314.7,124.7h-1v-0.2h1V124.7z M312.6,124.7h-1v-0.2h1V124.7z M310.6,124.7h-1v-0.2h1
				V124.7z M308.5,124.7h-1v-0.2h1V124.7z M306.4,124.7h-1v-0.2h1V124.7z M304.3,124.7h-1v-0.2h1V124.7z M302.2,124.7h-1v-0.2h1
				V124.7z"/>
			<path class="st18" d="M300.8,122.2H298l-1.4,2.4l1.4,2.4h2.8l1.4-2.4L300.8,122.2z"/>
			<path class="st20" d="M299.4,130.3h-1c-1.4,0-2.7-0.7-3.4-1.9l-0.5-0.8c-0.7-1.2-0.7-2.7,0-3.9l0.5-0.8c0.7-1.2,2-1.9,3.4-1.9h1
				c1.4,0,2.7,0.7,3.4,1.9l0.5,0.8c0.7,1.2,0.7,2.7,0,3.9l-0.5,0.8C302.1,129.5,300.8,130.3,299.4,130.3z M298.5,121.1
				c-1.3,0-2.5,0.7-3.2,1.8l-0.5,0.8c-0.7,1.1-0.7,2.5,0,3.6l0.5,0.8c0.7,1.1,1.9,1.8,3.2,1.8h1c1.3,0,2.5-0.7,3.2-1.8l0.5-0.8
				c0.7-1.1,0.7-2.5,0-3.6l-0.5-0.8c-0.7-1.1-1.9-1.8-3.2-1.8H298.5z"/>
			<path class="st17" d="M254.7,92.4h-2.8l-1.4,2.4l1.4,2.4h2.8l1.4-2.4L254.7,92.4z"/>
			<path class="st18" d="M254.8,97.2h-2.9l-1.5-2.5l1.5-2.5h2.9l1.5,2.5L254.8,97.2z M252,97h2.7l1.3-2.3l-1.3-2.3H252l-1.3,2.3
				L252,97z"/>
			<path class="st18" d="M254.7,164.6h-2.8l-1.4,2.4l1.4,2.4h2.8l1.4-2.4L254.7,164.6z"/>
			<path class="st17" d="M253.3,167.9c0.6,0,1-0.4,1-1c0-0.6-0.5-1-1-1c-0.6,0-1,0.4-1,1C252.3,167.5,252.8,167.9,253.3,167.9z"/>
			<path class="st18" d="M253.4,142.5h-0.2v-1h0.2V142.5z M253.4,140.5h-0.2v-1h0.2V140.5z M253.4,138.4h-0.2v-1h0.2V138.4z
				 M253.4,136.4h-0.2v-1h0.2V136.4z M253.4,134.3h-0.2v-1h0.2V134.3z M253.4,132.3h-0.2v-1h0.2V132.3z M253.4,130.2h-0.2v-1h0.2
				V130.2z M253.4,128.2h-0.2v-1h0.2V128.2z M253.4,126.1h-0.2v-1h0.2V126.1z M253.4,124.1h-0.2v-1h0.2V124.1z M253.4,122h-0.2v-1
				h0.2V122z M253.4,120h-0.2v-1h0.2V120z M253.4,117.9h-0.2v-1h0.2V117.9z M253.4,115.9h-0.2v-1h0.2V115.9z M253.4,113.8h-0.2v-1
				h0.2V113.8z M253.4,111.8h-0.2v-1h0.2V111.8z M278.6,110.6h-0.2v-0.2h0.2V110.6z M253.4,109.7h-0.2v-1h0.2V109.7z M278.6,109.3
				h-0.2v-1h0.2V109.3z M253.4,107.7h-0.2v-1h0.2V107.7z M278.6,107.3h-0.2v-1h0.2V107.3z M253.4,105.6h-0.2v-1h0.2V105.6z
				 M278.6,105.2h-0.2v-1h0.2V105.2z M253.4,103.6h-0.2v-1h0.2V103.6z M278.6,103.2h-0.2v-1h0.2V103.2z M253.4,101.5h-0.2v-1h0.2
				V101.5z M278.6,101.1h-0.2v-1h0.2V101.1z M253.4,99.5h-0.2v-1h0.2V99.5z M278.6,99.1h-0.2v-1h0.2V99.1z M253.4,97.4h-0.2v-1h0.2
				V97.4z M278.6,97h-0.2v-1h0.2V97z M253.4,95.4h-0.2v-0.7h0.5v0.2h-0.3V95.4z M278.6,95h-0.2v-0.1h-0.7v-0.2h0.9V95z M276.6,94.9
				h-1v-0.2h1V94.9z M274.6,94.9h-1v-0.2h1V94.9z M272.5,94.9h-1v-0.2h1V94.9z M270.4,94.9h-1v-0.2h1V94.9z M268.3,94.9h-1v-0.2h1
				V94.9z M266.2,94.9h-1v-0.2h1V94.9z M264.2,94.9h-1v-0.2h1V94.9z M262.1,94.9h-1v-0.2h1V94.9z M260,94.9h-1v-0.2h1V94.9z
				 M257.9,94.9h-1v-0.2h1V94.9z M255.8,94.9h-1v-0.2h1V94.9z"/>
			<path class="st17" d="M278.5,95.5c0.4,0,0.7-0.3,0.7-0.7c0-0.4-0.3-0.7-0.7-0.7c-0.4,0-0.7,0.3-0.7,0.7
				C277.8,95.2,278.1,95.5,278.5,95.5z"/>
			<path class="st17" d="M366.2,126.1l-1.1-1.2l0.1-2.8l1.4-1.3l2.8,0.1l1.1,1.2l-0.1,2.5l1.5,0l0.1-3.4l-1.9-1.9l-4.6-0.1l-4.9-5.1
				l-4.9-5.1l0.1-4.5l-1.9-1.9l-3.5-0.1l0,1.5l2.6,0.1l1.1,1.2l-0.1,2.8v0l-1.4,1.2l-2.8-0.1l-1.1-1.2l0.1-2.5l-1.5,0l-0.1,3.4
				l1.9,1.9l4.6,0.1l4.9,5.1l4.9,5.1l-0.1,4.5l1.9,1.9l3.5,0.1l0-1.5L366.2,126.1z"/>
			<path class="st21" d="M364,120.2l-9.7-10.1c-0.1-0.1-0.1-0.3,0-0.4l0.1-0.1c0.1-0.1,0.3-0.1,0.4,0l9.7,10.1
				c0.1,0.1,0.1,0.3,0,0.4l-0.1,0.1C364.3,120.3,364.1,120.3,364,120.2z"/>
			<path class="st24" d="M276,118.7l-1.7,1.7c0,0,0.6,0.9,1.5,1.6c0.6,0.5,1.3,0.8,1.9,1c0.9,0.5,2.9,0.6,4.3,0
				c1.5-0.5,2.5-1.5,2.5-1.6l-3.7-1.3C280.7,120.2,276.1,119.8,276,118.7z"/>
			<path class="st22" d="M279.8,123.5c-3.6,0-6.6-2.9-6.6-6.5c0-3.6,3-6.5,6.6-6.5c3.6,0,6.6,2.9,6.6,6.5
				C286.4,120.6,283.5,123.5,279.8,123.5z M279.8,110.7c-3.5,0-6.4,2.8-6.4,6.3c0,3.5,2.9,6.3,6.4,6.3c3.5,0,6.4-2.8,6.4-6.3
				C286.2,113.5,283.4,110.7,279.8,110.7z"/>
			<path class="st25" d="M277.6,115.5l-1.1,3.9c0,0,3.6,2.3,4.7,2.1l1-3.5l-2.7-4.5h-1L277.6,115.5z"/>
			<path class="st26" d="M278.7,115.6l0.7,2.2c0.1,0.2,1.4,0.4,1.4,0.4l0.7,2.4l0.8-2.6L278.7,115.6z"/>
			<path class="st27" d="M278.5,115.6l0.8,1.9c0.1,0.2,0.2,0.3,0.5,0.4l4.4,0.8c0.3,0.1,0.6-0.1,0.7-0.5c0-0.2,0-0.4,0-0.6
				c-0.1-0.3-0.5-0.6-0.6-1c-0.1-0.3-0.3-1.1-0.3-1.1l0.9-0.5c0-0.3-1.7-2.2-1.7-2.2s-0.7-1.8-1.2-2.2c0,0-2.1-0.8-3,0
				c-0.9,0.8-1,3.2-1,3.2L278.5,115.6z"/>
			<path class="st27" d="M278.9,115.6c0,0-0.3,0.3-0.8,0.2c-0.8-0.2-1.4-2.5-0.9-2.5c0.7-0.1,2.1,1.2,2.1,1.2L278.9,115.6z"/>
			<path class="st24" d="M278,113.6c0,0,0.7,0.8,1,1.2c0,0,0.6,0.1,0.7-0.2c0.1-0.3-0.4-1.2-0.1-1.4s1.1-1.2,1-1.4
				c0,0,1.5,0.1,2.2-0.8c0.7-0.9,1.6-2.4,1.3-3.2c0,0-0.6,1-0.8,0.7c0,0,0.5-0.6,0-1.4c0,0-1,1.1-1.4,1c0,0,0.9-1.4,0.6-2.9
				c0,0-2,1.3-2.6,1.3c-0.5,0-5,1.2-4.6,2.8c0,0-2.4,1.1-1.6,2.4c0.8,1.3,3.3,5.2,4,5c0.7-0.2,0.9-0.7,0.9-0.7l-0.2-0.4
				c0,0-0.8,0.9-1.5-1.6c0-0.2,0-0.5,0.1-0.6C277.4,113.3,277.8,113.5,278,113.6z"/>
			<path class="st24" d="M281.3,113.5l0.2-0.6l1.1-0.8c0,0,0.1-0.1,0.1,0.2c0,0.3-0.3,0.5-0.3,0.5s-0.6,0.2-0.7,0.3
				C281.7,113.4,281.3,113.5,281.3,113.5z"/>
			<path d="M282.5,113.9c0.1,0,0.1-0.2,0.1-0.3c0-0.2-0.1-0.3-0.1-0.3s-0.1,0.2-0.1,0.3C282.3,113.7,282.4,113.9,282.5,113.9z"/>
			<path class="st28" d="M282.3,115.9c0.5,0.9,1.6,0.5,1.6,0.5l-0.2-0.6L282.3,115.9z"/>
			<path class="st24" d="M276.7,117.7c0,0-1.4,1.8-1.2,2.2c0.1,0.3,6,2.8,6.2,2.7c0.2-0.1-0.5-1-0.5-1s-1.6-0.1-2.3-0.9
				C278.1,119.8,277.5,117.6,276.7,117.7z"/>
			<path d="M278,115c-0.1,0-0.1,0-0.2-0.1c0,0,0,0,0-0.1c0,0,0,0,0.1,0c0.1,0,0.1,0.1,0.2,0c0.1,0,0.2-0.1,0.2-0.2c0,0,0,0,0.1,0
				c0,0,0,0,0,0.1C278.3,114.8,278.2,114.9,278,115C278.1,115,278.1,115,278,115z"/>
			<path d="M278.2,114.9C278.1,114.9,278.1,114.9,278.2,114.9C278.1,114.9,278.1,114.8,278.2,114.9c0-0.2,0-0.3-0.1-0.3
				c0,0-0.1-0.1-0.1-0.1c0,0,0,0,0-0.1c0,0,0-0.1,0.1,0c0.1,0,0.1,0,0.2,0.1C278.2,114.6,278.3,114.7,278.2,114.9
				C278.2,114.9,278.2,114.9,278.2,114.9z"/>
			<path class="st18" d="M233.3,123.2c-0.2-0.1-0.3-0.2-0.3-0.3c0-0.2,0.1-0.4,0.3-0.3c0.2,0,0.4,0.2,0.3,0.4
				C233.7,123,233.5,123.1,233.3,123.2z"/>
			<path class="st18" d="M243.4,122.4c0.2,0,0.4,0.2,0.4,0.3c0,0.2-0.1,0.3-0.3,0.3c-0.2,0-0.3-0.1-0.4-0.3
				C243.1,122.6,243.3,122.6,243.4,122.4z"/>
			<path class="st18" d="M245.5,122.8c0,0.2-0.1,0.3-0.3,0.3c-0.2,0-0.3-0.1-0.3-0.3c0-0.2,0.1-0.3,0.3-0.4
				C245.3,122.5,245.4,122.7,245.5,122.8z"/>
			<path class="st18" d="M228.6,122.8c0,0.2-0.2,0.4-0.4,0.4c-0.2,0-0.3-0.1-0.3-0.3c0-0.2,0.1-0.3,0.3-0.4
				C228.5,122.5,228.6,122.6,228.6,122.8z"/>
			<path class="st18" d="M235.4,122.8c0,0.2-0.1,0.3-0.3,0.3c-0.2,0-0.4-0.1-0.4-0.3c0-0.2,0.1-0.3,0.3-0.3
				C235.2,122.5,235.3,122.6,235.4,122.8z"/>
			<path class="st18" d="M236.7,122.4c0.2,0.1,0.4,0.2,0.3,0.4c0,0.2-0.2,0.3-0.3,0.3c-0.2,0-0.3-0.1-0.3-0.3
				C236.4,122.6,236.5,122.5,236.7,122.4z"/>
			<path class="st18" d="M238.8,122.8c0,0.2-0.2,0.4-0.4,0.3c-0.2,0-0.3-0.1-0.3-0.3c0-0.2,0.1-0.3,0.4-0.3
				C238.6,122.5,238.7,122.6,238.8,122.8z"/>
			<path class="st18" d="M235.4,129.4c-0.1,0.2-0.2,0.3-0.3,0.3c-0.2,0-0.4-0.2-0.4-0.3c0-0.2,0.1-0.3,0.4-0.3
				C235.2,129.1,235.3,129.3,235.4,129.4z"/>
			<path class="st18" d="M233.7,129.5c-0.1,0.2-0.2,0.3-0.4,0.3c-0.2,0-0.3-0.2-0.3-0.3c0-0.2,0.1-0.3,0.4-0.3
				C233.6,129.1,233.7,129.3,233.7,129.5z"/>
			<path class="st18" d="M242.6,128.3c0.2,0,0.3,0.1,0.4,0.3c0,0.2-0.1,0.3-0.3,0.4c-0.2,0-0.3-0.1-0.4-0.3
				C242.2,128.5,242.5,128.4,242.6,128.3z"/>
			<path class="st18" d="M240.9,129c-0.2-0.1-0.4-0.2-0.3-0.4c0-0.1,0.2-0.3,0.4-0.3c0.2,0,0.4,0.2,0.3,0.4
				C241.2,128.8,241.1,128.9,240.9,129z"/>
			<path class="st18" d="M239.6,128.6c-0.1,0.2-0.2,0.3-0.3,0.3c-0.2,0-0.4-0.1-0.4-0.3c0-0.2,0.1-0.3,0.3-0.3
				C239.4,128.3,239.5,128.4,239.6,128.6z"/>
			<path class="st18" d="M232.8,128.6c-0.1,0.2-0.2,0.3-0.4,0.3c-0.2,0-0.4-0.2-0.3-0.4c0-0.2,0.2-0.3,0.3-0.3
				C232.7,128.3,232.8,128.4,232.8,128.6z"/>
			<path class="st18" d="M231.2,128.6c-0.1,0.2-0.2,0.3-0.3,0.3c-0.2,0-0.4-0.2-0.3-0.3c0-0.2,0.2-0.3,0.4-0.3
				C231,128.3,231.1,128.5,231.2,128.6z"/>
			<path class="st18" d="M229.1,128.3c0.2,0.1,0.4,0.2,0.4,0.4c0,0.2-0.1,0.3-0.3,0.3c-0.2,0-0.3-0.1-0.4-0.3
				C228.7,128.4,229,128.4,229.1,128.3z"/>
			<path class="st18" d="M227.8,128.6c-0.1,0.2-0.2,0.4-0.3,0.4c-0.2,0-0.4-0.1-0.4-0.3c0-0.2,0.1-0.3,0.3-0.3
				C227.6,128.3,227.7,128.5,227.8,128.6z"/>
			<path class="st18" d="M237.6,128.3c0.1,0.1,0.4,0.2,0.3,0.4c0,0.2-0.2,0.3-0.3,0.3c-0.2,0-0.4-0.2-0.3-0.4
				C237.3,128.4,237.4,128.3,237.6,128.3z"/>
			<path class="st18" d="M236.7,129.8c-0.2-0.1-0.4-0.2-0.4-0.4c0-0.2,0.1-0.3,0.3-0.3c0.2,0,0.3,0.1,0.4,0.3
				C237.1,129.6,236.9,129.7,236.7,129.8z"/>
			<path class="st18" d="M241.8,122.5c0.1,0.1,0.4,0.2,0.3,0.4c0,0.2-0.2,0.3-0.4,0.3c-0.2,0-0.4-0.2-0.3-0.4
				C241.5,122.6,241.6,122.5,241.8,122.5z"/>
			<path class="st18" d="M240.1,123.2c-0.2-0.1-0.4-0.2-0.4-0.3c0-0.2,0.1-0.4,0.3-0.4c0.2,0,0.4,0.2,0.3,0.4
				C240.4,123,240.2,123.1,240.1,123.2z"/>
			<path class="st18" d="M231.7,123.2c-0.2-0.1-0.3-0.2-0.3-0.3c0-0.2,0.1-0.4,0.3-0.4c0.2,0,0.4,0.2,0.3,0.4
				C232,123,231.8,123.1,231.7,123.2z"/>
			<path class="st18" d="M230.3,122.8c-0.1,0.2-0.2,0.4-0.4,0.3c-0.2,0-0.4-0.2-0.4-0.3c0-0.2,0.1-0.3,0.3-0.3
				C230.2,122.5,230.2,122.7,230.3,122.8z"/>
			<path class="st18" d="M242.7,122.3c-0.2,0-0.4-0.2-0.4-0.3c0-0.2,0.1-0.3,0.3-0.4c0.2,0,0.3,0.1,0.4,0.3
				C243,122.1,242.8,122.2,242.7,122.3z"/>
			<path class="st18" d="M237.9,122c0,0.2-0.1,0.3-0.3,0.3c-0.2,0-0.4-0.1-0.4-0.3c0-0.2,0.1-0.3,0.3-0.3
				C237.8,121.6,237.8,121.8,237.9,122z"/>
			<path class="st18" d="M232.5,122.3c-0.2-0.1-0.4-0.2-0.3-0.4c0-0.2,0.1-0.3,0.3-0.3c0.2,0,0.4,0.2,0.3,0.4
				C232.8,122.2,232.7,122.3,232.5,122.3z"/>
			<path class="st18" d="M242.1,127.8c-0.1,0.1-0.2,0.3-0.4,0.3c-0.2,0-0.3-0.2-0.3-0.3c0-0.2,0.2-0.3,0.4-0.3
				C242,127.5,242.1,127.6,242.1,127.8z"/>
			<path class="st18" d="M232,127.8c-0.1,0.2-0.2,0.3-0.3,0.4c-0.2,0-0.4-0.2-0.4-0.3c0-0.2,0.1-0.3,0.3-0.3
				C231.9,127.5,231.9,127.6,232,127.8z"/>
			<path class="st18" d="M236.2,122c0,0.2-0.1,0.3-0.3,0.3c-0.2,0-0.3-0.1-0.4-0.3c0-0.2,0.1-0.4,0.3-0.4
				C236.1,121.6,236.2,121.8,236.2,122z"/>
			<path class="st18" d="M228.6,127.8c-0.1,0.2-0.2,0.3-0.4,0.3c-0.2,0-0.4-0.2-0.3-0.4c0-0.2,0.2-0.3,0.4-0.3
				C228.5,127.5,228.6,127.6,228.6,127.8z"/>
			<path class="st18" d="M235.4,127.8c-0.1,0.2-0.2,0.3-0.4,0.3c-0.2,0-0.3-0.2-0.3-0.3c0-0.2,0.2-0.3,0.4-0.3
				C235.2,127.5,235.4,127.6,235.4,127.8z"/>
			<path class="st18" d="M238.8,127.8c-0.1,0.2-0.1,0.3-0.3,0.3c-0.2,0-0.4-0.2-0.4-0.4c0-0.2,0.1-0.3,0.4-0.3
				C238.6,127.5,238.7,127.6,238.8,127.8z"/>
			<path class="st18" d="M234.5,128.6c0,0.2-0.1,0.3-0.3,0.4c-0.2,0-0.4-0.1-0.4-0.3c0-0.2,0.1-0.3,0.3-0.3
				C234.4,128.3,234.5,128.4,234.5,128.6z"/>
			<path class="st18" d="M236.2,128.6c-0.1,0.2-0.2,0.3-0.3,0.3c-0.2,0-0.4-0.1-0.3-0.3c0-0.2,0.1-0.3,0.3-0.3
				C236.1,128.3,236.2,128.4,236.2,128.6z"/>
			<path class="st18" d="M244.7,128.6c0,0.2-0.2,0.3-0.3,0.3c-0.2,0-0.4-0.1-0.4-0.3c0-0.2,0.1-0.3,0.3-0.3
				C244.5,128.3,244.6,128.4,244.7,128.6z"/>
			<path class="st18" d="M229.6,129.5c0-0.2,0.1-0.4,0.3-0.4c0.2,0,0.4,0.1,0.4,0.3c0,0.2-0.1,0.3-0.3,0.3
				C229.8,129.8,229.7,129.6,229.6,129.5z"/>
			<path class="st18" d="M238.4,129.1c0.2,0.1,0.3,0.2,0.3,0.3c0,0.2-0.1,0.3-0.4,0.3c-0.2,0-0.4-0.2-0.3-0.4
				C238.1,129.3,238.2,129.1,238.4,129.1z"/>
			<path class="st18" d="M240.1,129.8c-0.2-0.1-0.4-0.2-0.4-0.4c0-0.2,0.1-0.3,0.3-0.3c0.2,0,0.3,0.1,0.3,0.3
				C240.5,129.6,240.3,129.7,240.1,129.8z"/>
			<path class="st18" d="M242.1,129.5c-0.1,0.1-0.2,0.3-0.3,0.3c-0.2,0-0.4-0.2-0.3-0.4c0-0.2,0.1-0.3,0.4-0.3
				C242,129.1,242.1,129.3,242.1,129.5z"/>
			<path class="st18" d="M231.6,129.8c-0.2-0.1-0.3-0.2-0.3-0.3c0-0.2,0.1-0.3,0.3-0.3c0.2,0,0.4,0.2,0.3,0.4
				C232,129.6,231.8,129.8,231.6,129.8z"/>
			<path class="st18" d="M243.5,128.1c-0.2,0-0.3-0.2-0.4-0.3c0-0.2,0.1-0.3,0.3-0.4c0.2,0,0.3,0.1,0.4,0.3
				C243.8,127.9,243.7,128.1,243.5,128.1z"/>
			<path class="st18" d="M237.1,127.8c0,0.2-0.1,0.3-0.3,0.4c-0.2,0-0.4-0.1-0.4-0.3c0-0.2,0.1-0.3,0.3-0.3
				C236.9,127.5,237,127.6,237.1,127.8z"/>
			<path class="st18" d="M233.7,127.8c-0.1,0.2-0.2,0.3-0.4,0.3c-0.2,0-0.3-0.2-0.3-0.3c0-0.2,0.1-0.3,0.4-0.3
				C233.6,127.5,233.7,127.6,233.7,127.8z"/>
			<path class="st18" d="M230.8,122.3c-0.2-0.1-0.4-0.2-0.3-0.4c0-0.1,0.2-0.3,0.4-0.3c0.2,0,0.4,0.2,0.3,0.4
				C231.1,122.2,231,122.3,230.8,122.3z"/>
			<path class="st18" d="M241.3,122c-0.1,0.2-0.2,0.3-0.3,0.3c-0.2,0-0.4-0.2-0.3-0.4c0-0.2,0.2-0.3,0.4-0.3
				C241.2,121.7,241.3,121.8,241.3,122z"/>
			<path class="st18" d="M239.3,121.6c0.2,0.1,0.4,0.2,0.3,0.4c0,0.2-0.1,0.3-0.3,0.3c-0.2,0-0.4-0.2-0.3-0.4
				C238.9,121.8,239.1,121.7,239.3,121.6z"/>
			<path class="st18" d="M230,127.5c0.2,0.1,0.3,0.2,0.3,0.3c0,0.2-0.1,0.3-0.3,0.3c-0.2,0-0.4-0.2-0.3-0.4
				C229.7,127.6,229.8,127.5,230,127.5z"/>
			<path class="st18" d="M240.1,127.5c0.2,0,0.3,0.2,0.3,0.3c0,0.2-0.1,0.3-0.3,0.3c-0.2,0-0.4-0.1-0.4-0.3
				C239.8,127.6,239.9,127.5,240.1,127.5z"/>
			<path class="st18" d="M234.5,122c-0.1,0.2-0.1,0.3-0.4,0.3c-0.2,0-0.3-0.1-0.3-0.3c0-0.2,0.1-0.4,0.4-0.3
				C234.4,121.7,234.5,121.8,234.5,122z"/>
			<path class="st18" d="M275.2,92.6c-0.2-0.1-0.4-0.2-0.4-0.5c0-0.3,0.2-0.5,0.5-0.5c0.2,0,0.5,0.2,0.4,0.5
				C275.6,92.4,275.4,92.5,275.2,92.6z"/>
			<path class="st18" d="M278,92.1c0,0.3-0.2,0.5-0.4,0.5c-0.3,0.1-0.5-0.2-0.5-0.4c0-0.3,0.2-0.5,0.5-0.5
				C277.7,91.7,277.9,91.9,278,92.1z"/>
			<path class="st18" d="M279.8,91.6c0.2,0.1,0.5,0.2,0.4,0.5c0,0.2-0.2,0.4-0.5,0.4c-0.2,0-0.4-0.2-0.4-0.4
				C279.3,91.9,279.6,91.7,279.8,91.6z"/>
			<path class="st18" d="M282.6,92.1c-0.1,0.3-0.2,0.5-0.5,0.5c-0.2,0-0.4-0.2-0.4-0.5c0-0.3,0.2-0.5,0.5-0.5
				C282.3,91.7,282.5,91.9,282.6,92.1z"/>
			<path class="st18" d="M281.4,95.5c-0.1,0.3-0.2,0.5-0.5,0.5c-0.2,0-0.4-0.2-0.4-0.4c0-0.3,0.2-0.5,0.5-0.5
				C281.2,95.1,281.3,95.3,281.4,95.5z"/>
			<path class="st18" d="M283.2,96c-0.2-0.1-0.5-0.2-0.4-0.5c0-0.2,0.2-0.4,0.5-0.4c0.2,0,0.4,0.2,0.4,0.4
				C283.7,95.8,283.5,95.9,283.2,96z"/>
			<path class="st18" d="M280.9,97.3c0.2,0.1,0.5,0.2,0.5,0.5c0,0.2-0.2,0.4-0.5,0.4c-0.2,0-0.4-0.2-0.5-0.4
				C280.5,97.5,280.7,97.4,280.9,97.3z"/>
			<path class="st18" d="M275.9,95.3c0.1-0.2,0.2-0.4,0.5-0.4c0.3,0,0.5,0.2,0.5,0.5c0,0.2-0.2,0.5-0.5,0.4
				C276.1,95.8,276,95.6,275.9,95.3z"/>
			<path class="st18" d="M276.4,98.3c-0.2-0.1-0.4-0.2-0.5-0.5c0-0.3,0.2-0.5,0.4-0.5c0.2,0,0.4,0.2,0.5,0.4
				C276.8,98,276.6,98.1,276.4,98.3z"/>
			<path class="st18" d="M278.6,97.3c0.3,0.1,0.5,0.3,0.5,0.6c0,0.2-0.2,0.5-0.5,0.4c-0.3,0-0.5-0.2-0.5-0.5
				C278.2,97.5,278.5,97.4,278.6,97.3z"/>
			<path class="st18" d="M274.6,95.5c-0.1,0.3-0.2,0.5-0.5,0.5c-0.2,0-0.4-0.2-0.4-0.5c0-0.3,0.2-0.5,0.5-0.5
				C274.4,95.1,274.5,95.3,274.6,95.5z"/>
			<path class="st18" d="M281.4,91c-0.1,0.2-0.2,0.4-0.4,0.5c-0.3,0-0.5-0.2-0.5-0.5c0-0.2,0.2-0.4,0.4-0.5
				C281.2,90.5,281.3,90.8,281.4,91z"/>
			<path class="st18" d="M282.2,94.9c-0.3,0-0.5-0.2-0.5-0.4c-0.1-0.3,0.2-0.5,0.4-0.5c0.3,0,0.5,0.2,0.5,0.5
				C282.6,94.6,282.3,94.7,282.2,94.9z"/>
			<path class="st18" d="M275.7,94.4c-0.1,0.2-0.2,0.5-0.5,0.5c-0.3,0-0.5-0.2-0.5-0.5c0-0.2,0.2-0.4,0.4-0.4
				C275.5,93.9,275.6,94.2,275.7,94.4z"/>
			<path class="st18" d="M276.4,93.8c-0.3-0.1-0.5-0.2-0.5-0.5c0-0.2,0.2-0.4,0.4-0.4c0.3,0,0.5,0.2,0.5,0.5
				C276.8,93.5,276.6,93.6,276.4,93.8z"/>
			<path class="st18" d="M274.1,93.7c-0.3-0.1-0.5-0.2-0.5-0.5c0-0.2,0.2-0.4,0.4-0.5c0.2,0,0.4,0.2,0.5,0.4
				C274.6,93.5,274.3,93.6,274.1,93.7z"/>
			<path class="st18" d="M281.4,93.3c-0.1,0.2-0.2,0.5-0.6,0.5c-0.2,0-0.4-0.2-0.4-0.5c0-0.2,0.2-0.5,0.5-0.4
				C281.2,92.8,281.4,93.1,281.4,93.3z"/>
			<path class="st18" d="M283.7,93.2c-0.1,0.3-0.2,0.5-0.5,0.5c-0.3,0-0.5-0.2-0.5-0.5c0-0.2,0.2-0.4,0.5-0.4
				C283.5,92.8,283.6,93.1,283.7,93.2z"/>
			<path class="st18" d="M279.1,93c-0.1,0.2-0.2,0.4-0.4,0.5c-0.3,0-0.4-0.2-0.5-0.4c0-0.3,0.2-0.5,0.5-0.5
				C278.9,92.5,279,92.7,279.1,93z"/>
			<path class="st18" d="M282.1,97.1c-0.3,0-0.5-0.2-0.5-0.4c0-0.3,0.2-0.5,0.5-0.5c0.2,0,0.4,0.2,0.4,0.5
				C282.5,96.9,282.3,97,282.1,97.1z"/>
			<path class="st18" d="M278,98.9c-0.1,0.2-0.2,0.5-0.5,0.4c-0.2,0-0.4-0.2-0.4-0.5c0-0.2,0.2-0.5,0.5-0.4
				C277.8,98.5,278,98.7,278,98.9z"/>
			<path class="st18" d="M280.3,98.8c-0.1,0.3-0.2,0.5-0.4,0.5c-0.3,0-0.5-0.2-0.5-0.5c0-0.2,0.2-0.4,0.5-0.4
				C280.1,98.4,280.2,98.7,280.3,98.8z"/>
			<path class="st18" d="M277.8,96.4c-0.1,0.2-0.2,0.5-0.5,0.4c-0.2,0-0.4-0.2-0.4-0.5c0-0.3,0.2-0.5,0.5-0.5
				C277.6,96,277.8,96.2,277.8,96.4z"/>
			<path class="st18" d="M280.3,96.6c-0.1,0.2-0.2,0.5-0.5,0.5c-0.2,0-0.5-0.2-0.5-0.4c0-0.3,0.2-0.5,0.5-0.5
				C280.1,96.2,280.2,96.4,280.3,96.6z"/>
			<path class="st18" d="M275.7,96.6c-0.1,0.2-0.2,0.4-0.4,0.5c-0.3,0-0.5-0.2-0.5-0.4c0-0.2,0.2-0.4,0.4-0.5
				C275.5,96.1,275.6,96.4,275.7,96.6z"/>
			<path class="st18" d="M278.7,90.4c0.2,0.1,0.5,0.2,0.4,0.5c0,0.2-0.2,0.4-0.5,0.4c-0.3,0-0.5-0.2-0.5-0.5
				C278.2,90.6,278.4,90.5,278.7,90.4z"/>
			<path class="st18" d="M276.8,91c-0.1,0.2-0.2,0.4-0.5,0.4c-0.2,0-0.4-0.2-0.4-0.4c0-0.3,0.2-0.5,0.5-0.5
				C276.6,90.6,276.8,90.8,276.8,91z"/>
			<path class="st17" d="M345.3,124.9c0.4,0,0.7-0.3,0.7-0.7c0-0.4-0.3-0.7-0.7-0.7c-0.4,0-0.7,0.3-0.7,0.7
				C344.6,124.5,344.9,124.9,345.3,124.9z"/>
			<path class="st18" d="M342.1,122c-0.2-0.1-0.4-0.2-0.4-0.5c0-0.3,0.2-0.5,0.5-0.5s0.5,0.2,0.4,0.5
				C342.5,121.8,342.3,121.9,342.1,122z"/>
			<path class="st18" d="M344.8,121.5c0,0.3-0.2,0.5-0.4,0.5c-0.3,0.1-0.5-0.2-0.5-0.4c0-0.3,0.2-0.5,0.5-0.5
				C344.6,121,344.7,121.3,344.8,121.5z"/>
			<path class="st18" d="M346.7,121c0.2,0.1,0.5,0.2,0.4,0.5c0,0.2-0.2,0.4-0.5,0.4c-0.2,0-0.4-0.2-0.4-0.4
				C346.2,121.2,346.4,121.1,346.7,121z"/>
			<path class="st18" d="M349.4,121.5c-0.1,0.3-0.2,0.5-0.5,0.5c-0.2,0-0.4-0.2-0.4-0.5c0-0.3,0.2-0.5,0.5-0.5
				C349.2,121,349.3,121.2,349.4,121.5z"/>
			<path class="st18" d="M348.3,124.8c-0.1,0.3-0.2,0.5-0.5,0.5c-0.2,0-0.4-0.2-0.4-0.4c0-0.3,0.2-0.5,0.5-0.5
				C348.1,124.4,348.1,124.7,348.3,124.8z"/>
			<path class="st18" d="M350.1,125.4c-0.2-0.1-0.5-0.2-0.4-0.5c0-0.2,0.2-0.4,0.5-0.4c0.2,0,0.4,0.2,0.4,0.4
				C350.6,125.1,350.3,125.3,350.1,125.4z"/>
			<path class="st18" d="M347.8,126.7c0.2,0.1,0.5,0.2,0.5,0.5c0,0.2-0.2,0.4-0.5,0.4c-0.2,0-0.4-0.2-0.5-0.4
				C347.3,126.9,347.6,126.8,347.8,126.7z"/>
			<path class="st18" d="M342.8,124.7c0.1-0.2,0.2-0.4,0.5-0.4c0.3,0,0.5,0.2,0.5,0.5c0,0.2-0.2,0.5-0.5,0.4
				C343,125.1,342.8,124.9,342.8,124.7z"/>
			<path class="st18" d="M343.2,127.6c-0.2-0.1-0.4-0.2-0.5-0.5c0-0.3,0.2-0.5,0.4-0.5c0.2,0,0.4,0.2,0.5,0.4
				C343.7,127.4,343.4,127.5,343.2,127.6z"/>
			<path class="st18" d="M341.4,124.9c-0.1,0.3-0.2,0.5-0.5,0.5c-0.2,0-0.4-0.2-0.4-0.5c0-0.3,0.2-0.5,0.5-0.5
				C341.2,124.4,341.3,124.7,341.4,124.9z"/>
			<path class="st18" d="M349,124.2c-0.3,0-0.5-0.2-0.5-0.4c-0.1-0.3,0.2-0.5,0.4-0.5c0.3,0,0.5,0.2,0.5,0.5
				C349.4,124,349.2,124.1,349,124.2z"/>
			<path class="st18" d="M342.6,123.8c-0.1,0.2-0.2,0.5-0.5,0.5c-0.3,0-0.5-0.2-0.5-0.5c0-0.2,0.2-0.4,0.4-0.4
				C342.3,123.3,342.4,123.5,342.6,123.8z"/>
			<path class="st18" d="M343.3,123.1c-0.3-0.1-0.5-0.2-0.5-0.5c0-0.2,0.2-0.4,0.4-0.4c0.3,0,0.5,0.2,0.5,0.5
				C343.7,122.9,343.4,123,343.3,123.1z"/>
			<path class="st18" d="M341,123.1c-0.3-0.1-0.5-0.2-0.5-0.5c0-0.2,0.2-0.4,0.4-0.5c0.2,0,0.4,0.2,0.5,0.4
				C341.4,122.9,341.2,123,341,123.1z"/>
			<path class="st18" d="M348.3,122.6c-0.1,0.2-0.2,0.5-0.6,0.5c-0.2,0-0.4-0.2-0.4-0.5c0-0.2,0.2-0.5,0.5-0.4
				C348.1,122.2,348.2,122.4,348.3,122.6z"/>
			<path class="st18" d="M350.6,122.6c-0.1,0.3-0.2,0.5-0.5,0.5c-0.3,0-0.5-0.2-0.5-0.5c0-0.2,0.2-0.4,0.5-0.4
				C350.4,122.2,350.5,122.4,350.6,122.6z"/>
			<path class="st18" d="M346,122.3c-0.1,0.2-0.2,0.4-0.4,0.5c-0.3,0-0.4-0.2-0.5-0.4c0-0.3,0.2-0.5,0.5-0.5
				C345.8,121.9,345.9,122.1,346,122.3z"/>
			<path class="st18" d="M349,126.5c-0.3,0-0.5-0.2-0.5-0.4c0-0.3,0.2-0.5,0.5-0.5c0.2,0,0.4,0.2,0.4,0.5
				C349.4,126.2,349.2,126.4,349,126.5z"/>
			<path class="st18" d="M344.7,125.8c-0.1,0.2-0.2,0.5-0.5,0.4c-0.2,0-0.4-0.2-0.4-0.5c0-0.3,0.2-0.5,0.5-0.5
				C344.5,125.4,344.6,125.6,344.7,125.8z"/>
			<path class="st18" d="M347.1,126c-0.1,0.2-0.2,0.5-0.5,0.5c-0.2,0-0.5-0.2-0.5-0.4c0-0.3,0.2-0.5,0.5-0.5
				C346.9,125.6,347.1,125.8,347.1,126z"/>
			<path class="st18" d="M342.6,126c-0.1,0.2-0.2,0.4-0.4,0.5c-0.3,0-0.5-0.2-0.5-0.4c0-0.2,0.2-0.4,0.4-0.5
				C342.3,125.5,342.4,125.8,342.6,126z"/>
			<path class="st18" d="M343.7,120.4c-0.1,0.2-0.2,0.4-0.5,0.4s-0.4-0.2-0.4-0.4c0-0.3,0.2-0.5,0.5-0.5
				C343.5,120,343.6,120.2,343.7,120.4z"/>
			<path class="st21" d="M309.1,186c-0.4-0.1-0.7-0.3-0.7-0.6c-0.1-0.4,0.2-0.6,0.6-0.7s0.6,0.2,0.6,0.5
				C309.7,185.7,309.3,185.8,309.1,186z"/>
			<path class="st21" d="M254.2,182.3c-0.1,0.3-0.3,0.6-0.6,0.6c-0.4,0-0.7-0.3-0.6-0.6c0-0.3,0.3-0.6,0.7-0.6
				C253.9,181.8,254.1,182.1,254.2,182.3z"/>
			<path class="st21" d="M328.2,182.3c-0.1,0.4-0.3,0.6-0.6,0.7c-0.4,0-0.6-0.3-0.7-0.6c0-0.3,0.3-0.6,0.6-0.6
				C327.9,181.7,328,182.1,328.2,182.3z"/>
			<path class="st21" d="M342.9,183c-0.3-0.2-0.7-0.3-0.6-0.7c0-0.3,0.3-0.6,0.6-0.6c0.4,0,0.6,0.3,0.6,0.7
				C343.5,182.7,343.2,182.9,342.9,183z"/>
			<path class="st21" d="M340.5,182.4c-0.2,0.2-0.3,0.6-0.7,0.5c-0.3-0.1-0.6-0.3-0.5-0.6c0.1-0.3,0.3-0.7,0.7-0.6
				C340.2,181.8,340.4,182,340.5,182.4z"/>
			<path class="st21" d="M247.4,186c-0.3-0.1-0.6-0.3-0.6-0.7c0-0.3,0.3-0.6,0.6-0.6c0.4,0,0.6,0.3,0.6,0.7
				C248,185.7,247.7,185.9,247.4,186z"/>
			<path class="st21" d="M324.5,183c-0.4-0.1-0.7-0.3-0.7-0.6c-0.1-0.4,0.2-0.6,0.6-0.7c0.3,0,0.6,0.2,0.6,0.5
				C325.1,182.7,324.7,182.7,324.5,183z"/>
			<path class="st21" d="M321.4,181.7c0.3,0.1,0.6,0.3,0.6,0.6c0,0.4-0.3,0.7-0.6,0.6c-0.3,0-0.6-0.3-0.6-0.7
				C320.8,182,321,181.8,321.4,181.7z"/>
			<path class="st21" d="M251.1,185.4c-0.1,0.3-0.4,0.6-0.6,0.6c-0.3,0-0.7-0.3-0.6-0.7c0.1-0.3,0.3-0.6,0.6-0.5
				C250.8,184.8,251,185.1,251.1,185.4z"/>
			<path class="st21" d="M253.6,186c-0.4,0-0.6-0.3-0.7-0.6c-0.1-0.4,0.2-0.6,0.6-0.7c0.3-0.1,0.6,0.2,0.6,0.5
				C254.2,185.7,253.9,185.8,253.6,186z"/>
			<path class="st21" d="M257.3,185.4c-0.1,0.3-0.3,0.6-0.6,0.6c-0.4,0-0.6-0.3-0.6-0.7c0-0.3,0.3-0.6,0.6-0.6
				C257,184.7,257.1,185.1,257.3,185.4z"/>
			<path class="st21" d="M342.9,184.7c0.3,0.2,0.6,0.3,0.6,0.7c0,0.3-0.3,0.6-0.6,0.6c-0.3,0-0.7-0.3-0.6-0.7
				C342.4,185,342.6,184.8,342.9,184.7z"/>
			<path class="st21" d="M265.9,184.7c0.3,0.2,0.6,0.3,0.6,0.7c-0.1,0.3-0.3,0.6-0.6,0.6c-0.3,0-0.6-0.3-0.6-0.7
				C265.3,185,265.6,184.8,265.9,184.7z"/>
			<path class="st21" d="M251.1,182.3c-0.1,0.3-0.3,0.6-0.7,0.6c-0.3,0-0.6-0.3-0.6-0.6c0-0.4,0.3-0.6,0.6-0.6
				C250.8,181.7,251,182,251.1,182.3z"/>
			<path class="st21" d="M248,182.3c-0.1,0.3-0.3,0.6-0.6,0.7c-0.3,0-0.6-0.3-0.6-0.6c0-0.4,0.2-0.6,0.6-0.7
				C247.7,181.7,247.9,182,248,182.3z"/>
			<path class="st21" d="M261.9,180.8c-0.1,0.3-0.3,0.6-0.6,0.6c-0.4,0-0.6-0.3-0.6-0.6c0-0.3,0.3-0.6,0.6-0.6
				C261.6,180.2,261.8,180.5,261.9,180.8z"/>
			<path class="st21" d="M242.7,180.1c0.4,0.1,0.7,0.3,0.7,0.7c0,0.3-0.3,0.6-0.6,0.6c-0.3,0-0.6-0.3-0.6-0.6
				C242.1,180.5,242.5,180.3,242.7,180.1z"/>
			<path class="st21" d="M340.5,185.4c-0.1,0.3-0.3,0.6-0.6,0.6c-0.4,0-0.6-0.3-0.6-0.7c0-0.3,0.3-0.6,0.6-0.6
				C340.2,184.7,340.4,185,340.5,185.4z"/>
			<path class="st21" d="M268.9,184.7c0.3,0.2,0.6,0.3,0.6,0.7c0,0.3-0.3,0.7-0.7,0.6c-0.3,0-0.6-0.3-0.5-0.6
				C268.4,185,268.7,184.9,268.9,184.7z"/>
			<path class="st21" d="M272.7,185.3c-0.1,0.3-0.3,0.7-0.7,0.7c-0.3,0-0.6-0.3-0.6-0.6c0-0.4,0.3-0.6,0.6-0.7
				C272.4,184.7,272.6,185,272.7,185.3z"/>
			<path class="st21" d="M275.1,186c-0.3-0.2-0.7-0.3-0.6-0.7c0-0.3,0.3-0.6,0.6-0.6c0.3,0,0.6,0.3,0.6,0.7
				C275.7,185.7,275.4,185.9,275.1,186z"/>
			<path class="st21" d="M284.4,184.7c0.3,0.2,0.6,0.3,0.6,0.7c0,0.3-0.3,0.6-0.6,0.6c-0.3,0-0.6-0.3-0.6-0.7
				C283.8,185,284,184.8,284.4,184.7z"/>
			<path class="st21" d="M331.2,185.4c-0.1,0.3-0.4,0.7-0.6,0.6c-0.4,0-0.6-0.3-0.6-0.7c0-0.3,0.3-0.6,0.6-0.6
				C330.9,184.7,331.1,185.1,331.2,185.4z"/>
			<path class="st21" d="M328.1,185.3c-0.1,0.3-0.3,0.7-0.7,0.7c-0.3,0-0.6-0.3-0.6-0.6c0-0.4,0.3-0.7,0.6-0.7
				C327.8,184.7,328,185,328.1,185.3z"/>
			<path class="st21" d="M287.5,186c-0.4-0.1-0.6-0.3-0.7-0.6c0-0.3,0.2-0.6,0.5-0.6c0.4-0.1,0.6,0.3,0.7,0.6
				C288.1,185.7,287.7,185.8,287.5,186z"/>
			<path class="st21" d="M290.6,184.7c0.3,0.2,0.6,0.3,0.6,0.7c-0.1,0.3-0.3,0.6-0.6,0.6c-0.3,0-0.6-0.3-0.6-0.7
				C290,185,290.2,184.8,290.6,184.7z"/>
			<path class="st21" d="M325.1,185.4c-0.1,0.3-0.3,0.6-0.6,0.6c-0.4,0-0.7-0.3-0.6-0.7c0-0.3,0.3-0.6,0.6-0.6
				C324.7,184.8,325,185.1,325.1,185.4z"/>
			<path class="st21" d="M293.6,186c-0.3-0.1-0.6-0.3-0.6-0.6c-0.1-0.4,0.2-0.6,0.6-0.7c0.3,0,0.6,0.3,0.6,0.6
				C294.3,185.7,293.9,185.8,293.6,186z"/>
			<path class="st21" d="M322,185.3c-0.1,0.4-0.3,0.7-0.7,0.7c-0.3,0-0.6-0.3-0.6-0.6c0-0.4,0.3-0.6,0.6-0.7
				C321.7,184.7,321.8,185.1,322,185.3z"/>
			<path class="st21" d="M312.7,185.4c-0.1,0.3-0.3,0.7-0.7,0.6c-0.3,0-0.6-0.3-0.6-0.6c0-0.3,0.3-0.6,0.6-0.6
				C312.4,184.7,312.6,185,312.7,185.4z"/>
			<path class="st21" d="M306.6,185.3c-0.1,0.3-0.3,0.6-0.6,0.6c-0.4,0-0.6-0.3-0.6-0.6c0-0.3,0.3-0.6,0.6-0.6
				C306.2,184.7,306.4,185,306.6,185.3z"/>
			<path class="st21" d="M302.9,186c-0.3-0.2-0.7-0.3-0.6-0.7c0-0.3,0.3-0.6,0.6-0.6s0.6,0.3,0.6,0.7
				C303.4,185.7,303.1,185.9,302.9,186z"/>
			<path class="st21" d="M315.8,185.3c-0.1,0.4-0.3,0.7-0.6,0.7c-0.3,0-0.6-0.3-0.6-0.6c0-0.4,0.2-0.7,0.6-0.7
				C315.5,184.7,315.7,185,315.8,185.3z"/>
			<path class="st21" d="M300.4,185.4c-0.1,0.3-0.3,0.6-0.6,0.6c-0.4,0-0.6-0.3-0.6-0.7c0-0.3,0.3-0.6,0.6-0.6
				C300.1,184.7,300.3,185,300.4,185.4z"/>
			<path class="st21" d="M318.9,185.3c-0.1,0.4-0.3,0.7-0.6,0.7c-0.3,0-0.6-0.3-0.6-0.6c0-0.4,0.3-0.7,0.6-0.7
				C318.6,184.7,318.8,185,318.9,185.3z"/>
			<path class="st21" d="M297.3,185.3c-0.1,0.4-0.3,0.7-0.7,0.7c-0.3,0-0.6-0.3-0.6-0.6c0-0.3,0.3-0.6,0.6-0.6
				C297,184.7,297.1,185.1,297.3,185.3z"/>
			<path class="st21" d="M334.3,185.3c-0.1,0.4-0.3,0.6-0.6,0.7c-0.4,0-0.7-0.3-0.6-0.6c0-0.3,0.3-0.7,0.7-0.6
				C334,184.8,334.2,185.1,334.3,185.3z"/>
			<path class="st21" d="M281.3,184.7c0.3,0.1,0.6,0.3,0.6,0.7c0,0.3-0.3,0.6-0.6,0.6c-0.4,0-0.6-0.3-0.6-0.7
				C280.7,185,281,184.8,281.3,184.7z"/>
			<path class="st21" d="M278.2,186c-0.3-0.1-0.6-0.3-0.6-0.6c0-0.4,0.2-0.7,0.6-0.7c0.3,0,0.6,0.3,0.6,0.6
				C278.8,185.7,278.5,185.9,278.2,186z"/>
			<path class="st21" d="M336.8,186c-0.4,0-0.6-0.3-0.7-0.6c-0.1-0.4,0.2-0.7,0.6-0.7c0.3-0.1,0.6,0.2,0.6,0.5
				C337.5,185.7,337.1,185.8,336.8,186z"/>
			<path class="st21" d="M246,181.5c-0.4,0-0.7-0.3-0.7-0.6c-0.1-0.4,0.2-0.6,0.6-0.7c0.4-0.1,0.6,0.2,0.6,0.5
				C246.6,181.1,246.1,181.3,246,181.5z"/>
			<path class="st21" d="M265,180.8c-0.1,0.3-0.3,0.7-0.7,0.6c-0.3,0-0.6-0.3-0.6-0.6c0-0.3,0.3-0.6,0.7-0.6
				C264.7,180.2,264.9,180.5,265,180.8z"/>
			<path class="st21" d="M320.4,180.8c-0.1,0.3-0.3,0.6-0.7,0.6c-0.3,0-0.6-0.3-0.5-0.6c0-0.3,0.3-0.7,0.7-0.6
				C320.2,180.2,320.4,180.5,320.4,180.8z"/>
			<path class="st21" d="M257.2,182.4c-0.2,0.2-0.3,0.6-0.7,0.5c-0.3-0.1-0.6-0.3-0.6-0.7c0.1-0.3,0.3-0.6,0.6-0.5
				C257,181.8,257.2,182,257.2,182.4z"/>
			<path class="st21" d="M263.4,185.4c-0.1,0.3-0.3,0.6-0.6,0.6c-0.4,0-0.6-0.3-0.7-0.6c0-0.3,0.3-0.6,0.6-0.6
				C263.1,184.7,263.3,185,263.4,185.4z"/>
			<path class="st21" d="M259.1,185.4c0.1-0.3,0.3-0.6,0.6-0.6c0.4,0,0.7,0.3,0.7,0.6c0,0.3-0.3,0.7-0.6,0.6
				C259.3,186,259.2,185.7,259.1,185.4z"/>
			<path class="st21" d="M331.2,182.3c-0.1,0.3-0.3,0.6-0.7,0.6c-0.3,0-0.6-0.3-0.6-0.6c0-0.4,0.3-0.6,0.6-0.6
				C330.9,181.7,331.1,182,331.2,182.3z"/>
			<path class="st21" d="M245,185.4c-0.1,0.3-0.3,0.7-0.7,0.6c-0.3,0-0.6-0.3-0.6-0.6c0-0.3,0.3-0.6,0.6-0.6
				C244.6,184.7,244.8,185,245,185.4z"/>
			<path class="st21" d="M255.7,183.9c-0.1,0.3-0.3,0.6-0.6,0.6c-0.4,0-0.6-0.3-0.6-0.6c0-0.3,0.3-0.6,0.6-0.6
				C255.4,183.2,255.6,183.5,255.7,183.9z"/>
			<path class="st21" d="M274.2,183.9c-0.1,0.3-0.3,0.6-0.6,0.6c-0.4,0-0.6-0.3-0.6-0.7c0-0.3,0.3-0.6,0.6-0.6
				C273.9,183.2,274.1,183.5,274.2,183.9z"/>
			<path class="st21" d="M292,184.5c-0.3-0.1-0.6-0.3-0.6-0.7c0-0.3,0.3-0.6,0.6-0.6c0.4,0,0.6,0.3,0.6,0.7
				C292.6,184.2,292.4,184.4,292,184.5z"/>
			<path class="st21" d="M310.6,183.2c0.3,0.2,0.6,0.3,0.6,0.7c-0.1,0.3-0.3,0.6-0.6,0.5c-0.4-0.1-0.6-0.3-0.6-0.7
				C310,183.5,310.3,183.3,310.6,183.2z"/>
			<path class="st21" d="M329,183.2c0.4,0,0.6,0.3,0.7,0.6c0.1,0.4-0.2,0.6-0.6,0.7c-0.4,0.1-0.6-0.2-0.6-0.5
				C328.4,183.5,328.7,183.4,329,183.2z"/>
			<path class="st21" d="M249,181.5c-0.4-0.1-0.6-0.3-0.7-0.6c-0.1-0.4,0.2-0.7,0.6-0.7c0.4,0,0.6,0.3,0.6,0.6
				C249.5,181.1,249.2,181.3,249,181.5z"/>
			<path class="st21" d="M258.2,181.5c-0.4-0.1-0.6-0.3-0.7-0.6c-0.1-0.4,0.2-0.7,0.6-0.7c0.4,0,0.6,0.3,0.6,0.6
				C258.8,181.2,258.5,181.3,258.2,181.5z"/>
			<path class="st21" d="M323.5,180.8c-0.1,0.4-0.3,0.7-0.7,0.7c-0.3,0-0.6-0.3-0.6-0.6c0-0.3,0.3-0.6,0.6-0.6
				C323.2,180.2,323.4,180.5,323.5,180.8z"/>
			<path class="st21" d="M243.4,183.9c-0.1,0.3-0.3,0.6-0.6,0.6c-0.4,0-0.6-0.3-0.6-0.6c0-0.3,0.3-0.6,0.6-0.6
				C243.1,183.2,243.3,183.5,243.4,183.9z"/>
			<path class="st21" d="M337.4,182.4c-0.1,0.3-0.3,0.6-0.7,0.6c-0.3,0-0.6-0.3-0.6-0.6c0-0.3,0.3-0.7,0.7-0.6
				C337.1,181.8,337.3,182,337.4,182.4z"/>
			<path class="st21" d="M333.6,183c-0.3-0.2-0.6-0.3-0.6-0.7c0.1-0.3,0.3-0.6,0.6-0.5s0.6,0.3,0.6,0.7
				C334.2,182.7,334,182.9,333.6,183z"/>
			<path class="st21" d="M246.5,183.8c-0.1,0.4-0.3,0.7-0.6,0.7c-0.4,0-0.7-0.3-0.6-0.6c0-0.3,0.3-0.6,0.7-0.6
				C246.2,183.3,246.3,183.6,246.5,183.8z"/>
			<path class="st21" d="M249,183.2c0.3,0.1,0.6,0.3,0.6,0.7c0,0.3-0.2,0.6-0.6,0.6c-0.4,0-0.7-0.3-0.6-0.7
				C248.3,183.5,248.6,183.3,249,183.2z"/>
			<path class="st21" d="M263.4,182.3c-0.1,0.3-0.3,0.6-0.7,0.6c-0.3,0-0.6-0.3-0.6-0.6c0-0.4,0.3-0.6,0.6-0.6
				C263.1,181.7,263.3,182,263.4,182.3z"/>
			<path class="st21" d="M259.7,183c-0.3-0.2-0.6-0.3-0.5-0.7c0.1-0.3,0.3-0.6,0.6-0.5c0.3,0,0.6,0.3,0.6,0.7
				C260.2,182.7,260,182.9,259.7,183z"/>
			<path class="st21" d="M260.6,183.9c0.1-0.3,0.3-0.7,0.6-0.7c0.3,0,0.6,0.3,0.6,0.6c0,0.4-0.2,0.6-0.6,0.7
				C260.9,184.5,260.7,184.2,260.6,183.9z"/>
			<path class="st21" d="M264.9,183.8c0,0.3-0.2,0.6-0.5,0.7c-0.4,0.1-0.7-0.2-0.7-0.6c0-0.3,0.2-0.6,0.6-0.7
				C264.7,183.2,264.8,183.5,264.9,183.8z"/>
			<path class="st21" d="M268,183.9c-0.1,0.3-0.3,0.6-0.6,0.6c-0.3,0-0.6-0.3-0.6-0.6c0-0.3,0.3-0.7,0.7-0.6
				C267.8,183.3,268,183.5,268,183.9z"/>
			<path class="st21" d="M279.7,184.5c-0.3-0.1-0.6-0.3-0.6-0.6c0-0.3,0.3-0.7,0.6-0.6c0.4,0,0.6,0.3,0.6,0.7
				C280.3,184.2,280.1,184.4,279.7,184.5z"/>
			<path class="st21" d="M283.4,183.8c-0.1,0.3-0.3,0.6-0.6,0.6c-0.4,0-0.7-0.3-0.7-0.6s0.3-0.6,0.6-0.6
				C283.2,183.3,283.4,183.5,283.4,183.8z"/>
			<path class="st21" d="M244.9,182.4c-0.2,0.2-0.3,0.6-0.7,0.5c-0.3-0.1-0.6-0.3-0.6-0.7c0.1-0.3,0.3-0.6,0.7-0.5
				C244.7,181.8,245,182.1,244.9,182.4z"/>
			<path class="st21" d="M241.9,182.3c-0.1,0.3-0.3,0.6-0.6,0.6c-0.3,0-0.6-0.3-0.6-0.6c0-0.4,0.2-0.6,0.6-0.7
				C241.5,181.7,241.7,182,241.9,182.3z"/>
			<path class="st21" d="M286.5,183.8c-0.1,0.3-0.3,0.6-0.6,0.6c-0.4,0-0.6-0.3-0.6-0.6c0-0.4,0.2-0.7,0.6-0.7
				C286.3,183.2,286.4,183.5,286.5,183.8z"/>
			<path class="st21" d="M298.9,183.8c-0.1,0.3-0.3,0.6-0.6,0.6c-0.4,0-0.6-0.2-0.7-0.6c0-0.3,0.2-0.6,0.6-0.6
				C298.6,183.2,298.7,183.5,298.9,183.8z"/>
			<path class="st21" d="M304.3,184.5c-0.3-0.1-0.6-0.3-0.5-0.7c0-0.3,0.3-0.7,0.7-0.6c0.3,0.1,0.6,0.3,0.5,0.7
				C304.9,184.2,304.7,184.4,304.3,184.5z"/>
			<path class="st21" d="M329.1,181.5c-0.4-0.1-0.6-0.3-0.7-0.6c0-0.3,0.2-0.6,0.5-0.6c0.4,0,0.6,0.3,0.7,0.6
				C329.7,181.2,329.3,181.3,329.1,181.5z"/>
			<path class="st21" d="M326.6,180.8c0,0.4-0.3,0.6-0.6,0.7c-0.4,0.1-0.7-0.2-0.7-0.6c0-0.3,0.3-0.6,0.6-0.6
				C326.3,180.2,326.5,180.5,326.6,180.8z"/>
			<path class="st21" d="M317.4,183.8c-0.1,0.3-0.3,0.7-0.7,0.6c-0.4,0-0.7-0.3-0.6-0.7c0-0.3,0.3-0.6,0.6-0.6
				C317.1,183.2,317.2,183.6,317.4,183.8z"/>
			<path class="st21" d="M322.8,184.5c-0.3-0.1-0.6-0.3-0.5-0.7s0.3-0.7,0.7-0.6c0.3,0.1,0.6,0.3,0.5,0.7
				C323.4,184.2,323.2,184.4,322.8,184.5z"/>
			<path class="st21" d="M334.5,183.9c0.1-0.3,0.3-0.7,0.6-0.7c0.3,0,0.6,0.3,0.6,0.6c0,0.4-0.2,0.7-0.6,0.7
				C334.9,184.5,334.7,184.2,334.5,183.9z"/>
			<path class="st21" d="M341.3,183.2c0.4,0.1,0.6,0.3,0.7,0.6c0,0.3-0.2,0.6-0.6,0.6c-0.4,0-0.6-0.3-0.6-0.6
				C340.8,183.5,341.1,183.3,341.3,183.2z"/>
			<path class="st21" d="M255.7,180.7c0,0.4-0.3,0.7-0.6,0.7c-0.4,0.1-0.6-0.2-0.7-0.5c-0.1-0.4,0.2-0.7,0.6-0.7
				C255.4,180.1,255.5,180.6,255.7,180.7z"/>
			<path class="st21" d="M252.6,180.8c-0.1,0.3-0.3,0.6-0.6,0.6c-0.4,0-0.6-0.3-0.6-0.6c0-0.3,0.3-0.6,0.6-0.6
				C252.4,180.2,252.5,180.5,252.6,180.8z"/>
			<path class="st21" d="M338.9,183.8c-0.1,0.4-0.3,0.7-0.7,0.7c-0.3,0-0.6-0.3-0.6-0.6c0-0.3,0.2-0.7,0.7-0.6
				C338.7,183.3,338.8,183.6,338.9,183.8z"/>
			<path class="st21" d="M332.8,183.8c-0.1,0.4-0.3,0.7-0.6,0.7c-0.4,0-0.6-0.2-0.7-0.6c0-0.3,0.2-0.6,0.6-0.6
				C332.5,183.2,332.6,183.6,332.8,183.8z"/>
			<path class="st21" d="M320.4,183.8c-0.1,0.3-0.2,0.6-0.6,0.6c-0.4,0.1-0.7-0.3-0.7-0.6c0-0.3,0.2-0.6,0.6-0.6
				C320.1,183.2,320.3,183.5,320.4,183.8z"/>
			<path class="st21" d="M314.3,183.8c-0.1,0.3-0.3,0.6-0.6,0.6c-0.4,0.1-0.6-0.2-0.7-0.6c0-0.3,0.2-0.6,0.5-0.6
				C314,183.2,314.1,183.5,314.3,183.8z"/>
			<path class="st21" d="M302,183.8c-0.1,0.4-0.3,0.7-0.7,0.7c-0.3,0-0.6-0.3-0.6-0.6c0-0.3,0.2-0.7,0.7-0.6
				C301.7,183.3,301.8,183.6,302,183.8z"/>
			<path class="st21" d="M295.2,184.5c-0.4,0-0.6-0.3-0.6-0.6c-0.1-0.4,0.2-0.7,0.6-0.7c0.4,0,0.6,0.3,0.6,0.6
				C295.8,184.2,295.5,184.4,295.2,184.5z"/>
			<path class="st21" d="M276.5,183.2c0.4,0.1,0.7,0.3,0.7,0.7c0,0.3-0.2,0.6-0.6,0.6c-0.4,0-0.6-0.2-0.6-0.5
				C276,183.5,276.3,183.4,276.5,183.2z"/>
			<path class="st21" d="M258.8,183.8c-0.1,0.4-0.3,0.7-0.6,0.7c-0.4,0.1-0.6-0.2-0.7-0.6c0-0.3,0.2-0.6,0.5-0.6
				C258.5,183.2,258.6,183.6,258.8,183.8z"/>
			<path class="st21" d="M252.6,183.8c-0.1,0.4-0.3,0.6-0.6,0.7c-0.3,0-0.6-0.3-0.6-0.6c0-0.3,0.2-0.7,0.6-0.6
				C252.4,183.3,252.5,183.6,252.6,183.8z"/>
			<path class="st21" d="M269.9,183.9c0.1-0.3,0.3-0.6,0.6-0.6c0.4,0,0.6,0.3,0.6,0.7c0,0.3-0.3,0.6-0.6,0.6
				C270.1,184.4,270,184.2,269.9,183.9z"/>
			<path class="st21" d="M288.4,183.9c0.1-0.3,0.3-0.6,0.6-0.6c0.4,0,0.6,0.3,0.6,0.7c0,0.3-0.3,0.6-0.6,0.6
				C288.6,184.4,288.5,184.2,288.4,183.9z"/>
			<path class="st21" d="M307.4,184.5c-0.3-0.1-0.6-0.3-0.5-0.7c0-0.3,0.3-0.7,0.7-0.6c0.3,0.1,0.6,0.3,0.5,0.7
				C308,184.2,307.8,184.4,307.4,184.5z"/>
			<path class="st21" d="M326.6,183.9c-0.1,0.3-0.3,0.6-0.6,0.6c-0.3,0-0.6-0.3-0.6-0.6c0-0.3,0.3-0.7,0.6-0.6
				C326.3,183.3,326.5,183.6,326.6,183.9z"/>
			<path class="st21" d="M370.3,176.5c-0.2-0.1-0.4-0.2-0.3-0.4c0-0.2,0.2-0.3,0.3-0.3c0.2,0,0.4,0.2,0.3,0.4
				C370.6,176.3,370.5,176.4,370.3,176.5z"/>
			<path class="st21" d="M359.9,176.1c0-0.2,0.2-0.3,0.3-0.4c0.2,0,0.4,0.1,0.4,0.3c0,0.2-0.1,0.3-0.4,0.3
				C360.1,176.4,360,176.3,359.9,176.1z"/>
			<path class="st21" d="M350.3,175.8c0.2,0.1,0.4,0.2,0.4,0.4c0,0.2-0.1,0.3-0.3,0.3c-0.2,0-0.3-0.1-0.3-0.3
				C349.9,175.9,350.1,175.9,350.3,175.8z"/>
			<path class="st21" d="M352,175.8c0.2,0.1,0.4,0.2,0.3,0.4c0,0.2-0.2,0.3-0.3,0.3c-0.2,0-0.4-0.2-0.3-0.4
				C351.7,175.9,351.8,175.8,352,175.8z"/>
			<path class="st21" d="M353.3,176.1c0.1-0.1,0.2-0.3,0.4-0.3c0.1,0,0.3,0.2,0.3,0.3c0,0.2-0.2,0.3-0.4,0.3
				C353.4,176.4,353.3,176.3,353.3,176.1z"/>
			<path class="st21" d="M361.9,175.8c0.2,0,0.4,0.2,0.4,0.3c0,0.2-0.1,0.3-0.3,0.4c-0.2,0-0.3-0.1-0.3-0.3
				C361.6,175.9,361.8,175.9,361.9,175.8z"/>
			<path class="st21" d="M363.6,176.5c-0.2-0.1-0.3-0.2-0.3-0.3c0-0.2,0.1-0.3,0.3-0.3c0.2,0,0.4,0.2,0.3,0.4
				C363.9,176.3,363.8,176.4,363.6,176.5z"/>
			<path class="st21" d="M371.6,176.1c0.1-0.1,0.2-0.3,0.4-0.3c0.2,0,0.4,0.2,0.3,0.4c0,0.2-0.2,0.3-0.4,0.3
				C371.7,176.4,371.6,176.2,371.6,176.1z"/>
			<path class="st21" d="M373.3,176.1c0.1-0.1,0.2-0.3,0.4-0.3c0.2,0,0.3,0.2,0.3,0.3c0,0.2-0.1,0.3-0.4,0.3
				C373.4,176.4,373.3,176.3,373.3,176.1z"/>
			<path class="st21" d="M355.8,177c0.1-0.2,0.1-0.3,0.3-0.4c0.2,0,0.4,0.1,0.4,0.3c0,0.2-0.1,0.3-0.4,0.3
				C355.9,177.3,355.9,177.1,355.8,177z"/>
			<path class="st21" d="M366.1,176.6c0.2,0.1,0.4,0.2,0.3,0.4c0,0.1-0.2,0.3-0.3,0.3c-0.2,0-0.4-0.2-0.3-0.4
				C365.8,176.7,366,176.6,366.1,176.6z"/>
			<path class="st21" d="M376.1,177.3c-0.1-0.1-0.3-0.2-0.3-0.4c0-0.2,0.2-0.3,0.3-0.3c0.2,0,0.4,0.2,0.3,0.4
				C376.4,177.1,376.3,177.3,376.1,177.3z"/>
			<path class="st21" d="M374.1,177c0.1-0.2,0.2-0.3,0.3-0.3c0.2,0,0.4,0.1,0.3,0.3c0,0.2-0.1,0.3-0.4,0.3
				C374.2,177.3,374.2,177.1,374.1,177z"/>
			<path class="st21" d="M364.1,176.9c0.1-0.2,0.2-0.3,0.4-0.3c0.2,0,0.3,0.2,0.3,0.3c0,0.2-0.1,0.3-0.4,0.3
				C364.3,177.3,364.1,177.1,364.1,176.9z"/>
			<path class="st21" d="M354.1,176.9c0.1-0.2,0.2-0.3,0.4-0.3c0.2,0,0.3,0.2,0.3,0.3c0,0.2-0.1,0.3-0.4,0.3
				C354.3,177.3,354.2,177.1,354.1,176.9z"/>
			<path class="st21" d="M368.3,176.1c0.1-0.2,0.2-0.3,0.3-0.3c0.2,0,0.3,0.1,0.4,0.3c0,0.2-0.1,0.3-0.3,0.3
				C368.4,176.5,368.3,176.3,368.3,176.1z"/>
			<path class="st21" d="M358.3,176.1c0.1-0.2,0.2-0.3,0.4-0.3c0.2,0,0.3,0.1,0.3,0.3c0,0.2-0.1,0.3-0.3,0.3
				C358.4,176.4,358.3,176.3,358.3,176.1z"/>
			<path class="st21" d="M348.7,176.5c-0.2,0-0.3-0.1-0.4-0.3c0-0.2,0.1-0.3,0.3-0.4c0.2,0,0.3,0.1,0.4,0.3
				C349,176.3,348.8,176.4,348.7,176.5z"/>
			<path class="st21" d="M372.8,177.3c-0.1-0.1-0.4-0.2-0.3-0.4c0-0.2,0.1-0.3,0.3-0.3c0.2,0,0.3,0.1,0.3,0.3
				C373.1,177.1,372.9,177.2,372.8,177.3z"/>
			<path class="st21" d="M367.8,176.6c0.2,0.1,0.3,0.2,0.3,0.4c0,0.1-0.2,0.3-0.4,0.3c-0.2,0-0.4-0.2-0.3-0.4
				C367.5,176.7,367.6,176.6,367.8,176.6z"/>
			<path class="st21" d="M362.4,177c0-0.2,0.1-0.3,0.4-0.3c0.2,0,0.3,0.1,0.3,0.3c0,0.2-0.1,0.3-0.3,0.3
				C362.6,177.3,362.5,177.1,362.4,177z"/>
			<path class="st21" d="M357.4,177c0-0.2,0.2-0.4,0.3-0.4c0.2,0,0.4,0.1,0.4,0.3c0,0.2-0.1,0.3-0.3,0.3
				C357.6,177.3,357.6,177.1,357.4,177z"/>
			<path class="st21" d="M352.8,177.3c-0.2,0-0.3-0.1-0.4-0.3c0-0.2,0.1-0.3,0.3-0.4c0.2,0,0.3,0.1,0.3,0.3
				C353.2,177.1,353,177.2,352.8,177.3z"/>
			<path class="st21" d="M347.8,176.6c0.2,0.1,0.3,0.2,0.3,0.4c0,0.1-0.2,0.3-0.4,0.3c-0.2,0-0.4-0.2-0.3-0.4
				C347.5,176.7,347.7,176.6,347.8,176.6z"/>
			<path class="st21" d="M355,176.1c0.1-0.2,0.2-0.3,0.4-0.3c0.2,0,0.3,0.2,0.3,0.3c0,0.2-0.1,0.3-0.4,0.3
				C355.1,176.4,355,176.3,355,176.1z"/>
			<path class="st21" d="M357,175.8c0.1,0.1,0.3,0.2,0.3,0.4c0,0.2-0.2,0.3-0.3,0.3c-0.2,0-0.4-0.2-0.3-0.4
				C356.7,175.9,356.8,175.8,357,175.8z"/>
			<path class="st21" d="M364.9,176.1c0-0.2,0.1-0.3,0.4-0.3c0.2,0,0.3,0.1,0.3,0.3c0,0.2-0.1,0.3-0.3,0.3
				C365.1,176.5,365,176.3,364.9,176.1z"/>
			<path class="st21" d="M367.3,176.1c0,0.2-0.1,0.3-0.3,0.3c-0.2,0-0.4-0.1-0.4-0.3c0-0.2,0.1-0.3,0.3-0.3
				C367.1,175.8,367.2,175.9,367.3,176.1z"/>
			<path class="st21" d="M374.9,176.2c0-0.2,0.2-0.4,0.4-0.4c0.2,0,0.3,0.1,0.3,0.3c0,0.2-0.1,0.3-0.3,0.4
				C375.1,176.5,375,176.3,374.9,176.2z"/>
			<path class="st21" d="M349.1,176.9c0.1-0.2,0.2-0.3,0.4-0.3c0.2,0,0.3,0.1,0.3,0.3c0,0.2-0.1,0.4-0.4,0.3
				C349.3,177.2,349.2,177.1,349.1,176.9z"/>
			<path class="st21" d="M351.1,177.3c-0.1-0.1-0.3-0.2-0.3-0.4c0-0.2,0.2-0.3,0.3-0.3c0.2,0,0.4,0.2,0.3,0.4
				C351.4,177.1,351.3,177.3,351.1,177.3z"/>
			<path class="st21" d="M359.4,176.6c0.2,0,0.4,0.2,0.4,0.3c0,0.2-0.1,0.3-0.3,0.3c-0.2,0-0.4-0.1-0.4-0.3
				C359.1,176.7,359.3,176.7,359.4,176.6z"/>
			<path class="st21" d="M360.8,177c0-0.2,0.1-0.3,0.3-0.3c0.2,0,0.4,0.1,0.4,0.3c0,0.2-0.1,0.3-0.3,0.3
				C360.9,177.3,360.9,177.1,360.8,177z"/>
			<path class="st21" d="M369.1,177c0-0.2,0.1-0.3,0.3-0.4c0.2,0,0.3,0.1,0.4,0.3c0,0.2-0.1,0.3-0.3,0.4
				C369.3,177.3,369.2,177.1,369.1,177z"/>
			<path class="st21" d="M371.1,177.3c-0.2,0-0.3-0.1-0.4-0.3c0-0.2,0.1-0.3,0.3-0.4c0.2,0,0.3,0.1,0.4,0.3
				C371.5,177.1,371.3,177.2,371.1,177.3z"/>
			<path class="st18" d="M302.2,101.3h-19.5c-0.7,0-1.3-0.6-1.3-1.3V98h22.1v1.9C303.4,100.7,302.9,101.3,302.2,101.3z"/>
			<path class="st21" d="M329.9,86.6h-25.4c-2.6,0-4.7,2.1-4.7,4.6v8.9v1.1v2.4c-0.1-0.7-0.1-1.6,0-2.4l-10.4,9.7l15.3-2.5
				c-0.4,0-0.7-0.1-1-0.2c0.2,0,0.5,0.1,0.8,0.1h25.4c2.6,0,4.7-2.1,4.7-4.6V91.2C334.5,88.7,332.5,86.6,329.9,86.6z M300.4,105.9
				c0.5,0.9,1.3,1.6,2.2,2.1C301.5,107.5,300.8,106.9,300.4,105.9z"/>
			<path class="st22" d="M289.1,111.1l10.6-9.9v-9.9c0-2.6,2.1-4.7,4.8-4.7h25.4c2.6,0,4.8,2.1,4.8,4.7v12.6c0,2.6-2.1,4.7-4.8,4.7
				h-24.6L289.1,111.1z M299.7,101.5l-9.9,9.3l14.3-2.3c-0.1,0-0.2,0-0.4-0.1l0-0.2c0.2,0,0.5,0.1,0.8,0.1h25.4c2.5,0,4.6-2,4.6-4.5
				V91.2c0-2.5-2.1-4.5-4.6-4.5h-25.4c-2.5,0-4.6,2-4.6,4.5v9.8l0,0l0,0.3v2.4h-0.2C299.7,103,299.7,102.3,299.7,101.5z
				 M302.5,108.1c-1.1-0.4-1.8-1.1-2.3-2.1l0.2-0.1c0.5,0.9,1.2,1.6,2.2,2L302.5,108.1z"/>
			<path class="st18" d="M317.2,103c3.1,0,5.5-2.4,5.5-5.5c0-3-2.5-5.5-5.5-5.5c-3.1,0-5.5,2.4-5.5,5.5
				C311.7,100.5,314.1,103,317.2,103z"/>
			<path class="st22" d="M317.2,103.1c-3.1,0-5.6-2.5-5.6-5.6c0-3.1,2.5-5.6,5.6-5.6c1.3,0,2.6,0.5,3.6,1.3l-0.1,0.2
				c-1-0.8-2.2-1.2-3.5-1.2c-3,0-5.4,2.4-5.4,5.4c0,3,2.4,5.4,5.4,5.4c1.5,0,2.8-0.6,3.9-1.6l0.1,0.1
				C320.1,102.5,318.7,103.1,317.2,103.1z"/>
			<path class="st22" d="M322.5,96.2c-0.1-0.3-0.2-0.7-0.4-1l0.2-0.1c0.2,0.3,0.3,0.7,0.4,1.1L322.5,96.2z"/>
			<path class="st22" d="M315.4,99.9h-1c-0.1,0-0.2-0.1-0.2-0.2v-3.2c0-0.1,0.1-0.2,0.2-0.2h1c0.1,0,0.2,0.1,0.2,0.2v3.2
				C315.7,99.8,315.5,99.9,315.4,99.9z M314.4,96.4C314.4,96.4,314.4,96.4,314.4,96.4l0,3.3c0,0,0,0,0,0h1c0,0,0,0,0,0v-3.2
				c0,0,0,0,0,0H314.4z"/>
			<path class="st17" d="M315.4,96.7h0.6c0.3,0,0.6-0.2,0.6-0.6v-1.4c0-0.2,0.3-0.4,0.5-0.2l0.2,0.1c0.3,0.2,0.5,0.5,0.5,0.9v0.7
				c0,0.2,0.2,0.4,0.4,0.4h1.4c0.3,0,0.6,0.3,0.6,0.6v1.9c0,0.5-0.4,0.8-0.8,0.8H317c-0.2,0-0.4-0.1-0.5-0.2l-1-0.8L315.4,96.7
				L315.4,96.7z"/>
			<path class="st21" d="M315.6,100h-1c-0.1,0-0.1-0.1-0.1-0.1v-3.2c0-0.1,0.1-0.1,0.1-0.1h1c0.1,0,0.1,0.1,0.1,0.1v3.2
				C315.8,99.9,315.7,100,315.6,100z"/>
			<path class="st29" d="M306,106c0.4,0,0.6-0.3,0.6-0.6c0-0.4-0.3-0.6-0.6-0.6c-0.4,0-0.6,0.3-0.6,0.6
				C305.4,105.7,305.7,106,306,106z"/>
			<path class="st17" d="M308,106c0.4,0,0.6-0.3,0.6-0.6c0-0.4-0.3-0.6-0.6-0.6c-0.4,0-0.6,0.3-0.6,0.6
				C307.3,105.7,307.6,106,308,106z"/>
			<path class="st29" d="M310,106c0.4,0,0.6-0.3,0.6-0.6c0-0.4-0.3-0.6-0.6-0.6c-0.4,0-0.6,0.3-0.6,0.6
				C309.3,105.7,309.6,106,310,106z"/>
			<path class="st22" d="M303.8,174.6H281c-1.3,0-2.4-1.1-2.4-2.4v-2.3c0-1.3,1.1-2.4,2.4-2.4h22.8c1.3,0,2.4,1.1,2.4,2.4v2.3
				C306.2,173.6,305.1,174.6,303.8,174.6z M281,167.8c-1.2,0-2.2,1-2.2,2.2v2.3c0,1.2,1,2.2,2.2,2.2h22.8c1.2,0,2.2-1,2.2-2.2v-2.3
				c0-1.2-1-2.2-2.2-2.2H281z"/>
			<path class="st17" d="M252.9,144.1H237c-0.4,0-0.6-0.3-0.6-0.6v-1.3c0-0.3,0.3-0.6,0.6-0.6h15.9c0.4,0,0.6,0.3,0.6,0.6v1.3
				C253.6,143.8,253.3,144.1,252.9,144.1z"/>
			<path class="st17" d="M256.5,144.2H237c-0.4,0-0.7-0.3-0.7-0.7v-1.8c0-0.4,0.3-0.7,0.7-0.7h19.5c0.4,0,0.7,0.3,0.7,0.7v1.8
				C257.2,143.8,256.9,144.2,256.5,144.2z M237,141.1c-0.3,0-0.5,0.2-0.5,0.5v1.8c0,0.3,0.2,0.5,0.5,0.5h19.5c0.3,0,0.5-0.2,0.5-0.5
				v-1.8c0-0.3-0.2-0.5-0.5-0.5H237z"/>
			<path class="st18" d="M254.7,140.1h-2.8l-1.4,2.4l1.4,2.4h2.8l1.4-2.4L254.7,140.1z"/>
			<path class="st16" d="M317.3,148.2h-48.9v12h48.9V148.2z"/>
			<path class="st16" d="M335.7,160.8c1.6,0,24.2,0,24.2,0c0.6,0,0.1,0.6-1.4,0.6c-1.4,0-24.3,0-24.3,0
				C333.7,161.4,334.2,160.8,335.7,160.8z"/>
			<path class="st16" d="M304.6,175.6h-24.3c-1.6,0-1.7-3.4-1.7-3.4l0.2,0.9c0,0,0,0,0,0c0.3,0.9,1.3,1.5,2.3,1.5l23.1-0.1
				c1.2-0.3,1.8-1.1,1.9-2.3C306.1,172.3,305.9,175.6,304.6,175.6z"/>
			<path class="st16" d="M358.7,168.1h-27.5c-1.5,0-0.2-0.5,0.8-0.5l27.2-0.1h1.4C360.5,167.9,359.2,168.1,358.7,168.1z"/>
			<path class="st16" d="M369.7,175.6h-46.5c-1.6,0-1.7-3.4-1.7-3.4l0.2,0.9c0,0,0,0,0,0c0.3,0.9,1.3,1.5,2.3,1.5l45.3-0.1
				c1.2-0.3,1.8-1.1,1.9-2.3C371.3,172.3,371.1,175.6,369.7,175.6z"/>
			<path class="st17" d="M253.3,143.5c0.6,0,1-0.5,1-1c0-0.6-0.5-1-1-1c-0.6,0-1,0.4-1,1C252.3,143.1,252.8,143.5,253.3,143.5z"/>
			<path class="st22" d="M251.4,159.5h-20.5v0.2h20.5V159.5z"/>
			<path class="st21" d="M317.7,158.1h-52.3c-1.8,0-3.3-1.5-3.3-3.2v-3.4c0-1.8,1.5-3.2,3.3-3.2h52.3c1.8,0,3.3,1.5,3.3,3.2v3.4
				C321,156.6,319.5,158.1,317.7,158.1z"/>
			<path class="st22" d="M319.8,158.4H265c-1.9,0-3.4-1.5-3.4-3.3v-4.7c0-1.8,1.5-3.3,3.4-3.3h54.7c1.9,0,3.4,1.5,3.4,3.3v4.7
				C323.2,156.9,321.6,158.4,319.8,158.4z M265,147.2c-1.8,0-3.2,1.4-3.2,3.1v4.7c0,1.7,1.4,3.1,3.2,3.1h54.7c1.8,0,3.2-1.4,3.2-3.1
				v-4.7c0-1.7-1.4-3.1-3.2-3.1H265z"/>
			<path class="st17" d="M269.3,150.7c-0.2-0.1-0.3-0.2-0.3-0.3c0-0.2,0.1-0.4,0.3-0.3c0.2,0,0.4,0.2,0.3,0.4
				C269.6,150.5,269.5,150.6,269.3,150.7z"/>
			<path class="st17" d="M264.6,150.3c0,0.2-0.2,0.4-0.4,0.4c-0.2,0-0.3-0.1-0.3-0.3c0-0.2,0.1-0.3,0.3-0.4
				C264.4,150,264.5,150.2,264.6,150.3z"/>
			<path class="st17" d="M271.3,150.3c0,0.2-0.1,0.3-0.3,0.3c-0.2,0-0.4-0.1-0.4-0.3c0-0.2,0.1-0.3,0.3-0.3
				C271.2,150,271.3,150.2,271.3,150.3z"/>
			<path class="st17" d="M272.7,150c0.2,0.1,0.4,0.2,0.3,0.4c0,0.2-0.2,0.3-0.3,0.3c-0.2,0-0.3-0.1-0.3-0.3
				C272.3,150.2,272.5,150,272.7,150z"/>
			<path class="st17" d="M274.7,150.3c0,0.2-0.2,0.4-0.4,0.3c-0.2,0-0.3-0.1-0.3-0.3c0-0.2,0.1-0.3,0.4-0.3
				C274.6,150,274.7,150.2,274.7,150.3z"/>
			<path class="st17" d="M271.4,157c-0.1,0.2-0.2,0.3-0.3,0.3c-0.2,0-0.4-0.2-0.4-0.3c0-0.2,0.1-0.3,0.4-0.3
				C271.2,156.7,271.3,156.8,271.4,157z"/>
			<path class="st17" d="M269.7,157c-0.1,0.2-0.2,0.3-0.4,0.3c-0.2,0-0.3-0.2-0.3-0.3c0-0.2,0.1-0.3,0.4-0.3
				C269.5,156.7,269.6,156.8,269.7,157z"/>
			<path class="st17" d="M263.4,153.2c-0.2,0-0.4-0.2-0.4-0.3c0-0.2,0.1-0.3,0.3-0.4c0.2,0,0.3,0.1,0.4,0.3
				C263.8,153,263.5,153.1,263.4,153.2z"/>
			<path class="st17" d="M265.1,152.5c0.1,0.1,0.3,0.2,0.3,0.3c0,0.2-0.2,0.4-0.4,0.3c-0.2,0-0.4-0.2-0.3-0.4
				C264.8,152.6,264.9,152.5,265.1,152.5z"/>
			<path class="st17" d="M278.6,155.8c0.2,0,0.3,0.1,0.4,0.3c0,0.2-0.1,0.3-0.3,0.4c-0.2,0-0.3-0.1-0.4-0.3
				C278.2,156,278.4,155.9,278.6,155.8z"/>
			<path class="st17" d="M276.9,156.5c-0.2-0.1-0.4-0.2-0.3-0.4c0-0.1,0.2-0.3,0.4-0.3c0.2,0,0.4,0.2,0.3,0.4
				C277.2,156.4,277.1,156.5,276.9,156.5z"/>
			<path class="st17" d="M275.6,156.2c-0.1,0.2-0.2,0.3-0.3,0.3c-0.2,0-0.4-0.1-0.4-0.3c0-0.2,0.1-0.3,0.3-0.3
				C275.4,155.8,275.5,156,275.6,156.2z"/>
			<path class="st17" d="M268.8,156.2c-0.1,0.2-0.2,0.3-0.4,0.3c-0.2,0-0.4-0.2-0.3-0.4c0-0.2,0.2-0.3,0.3-0.3
				C268.6,155.8,268.8,156,268.8,156.2z"/>
			<path class="st17" d="M267.1,156.2c-0.1,0.2-0.2,0.3-0.3,0.3c-0.2,0-0.4-0.2-0.3-0.3c0-0.2,0.2-0.3,0.4-0.3
				C267,155.9,267.1,156,267.1,156.2z"/>
			<path class="st17" d="M265.1,155.8c0.2,0.1,0.4,0.2,0.4,0.4c0,0.2-0.1,0.3-0.3,0.3c-0.2,0-0.3-0.1-0.4-0.3
				C264.7,156,264.9,155.9,265.1,155.8z"/>
			<path class="st17" d="M265.4,154.5c-0.1,0.2-0.2,0.3-0.3,0.3c-0.2,0-0.4-0.1-0.3-0.4c0-0.2,0.2-0.3,0.3-0.3
				C265.3,154.2,265.4,154.3,265.4,154.5z"/>
			<path class="st17" d="M263.4,154.1c0.2,0.1,0.4,0.2,0.3,0.4c0,0.2-0.2,0.3-0.4,0.3c-0.2,0-0.4-0.2-0.3-0.4
				C263.1,154.3,263.2,154.2,263.4,154.1z"/>
			<path class="st17" d="M263.8,156.1c-0.1,0.2-0.2,0.4-0.3,0.4c-0.2,0-0.4-0.1-0.4-0.3c0-0.2,0.1-0.3,0.3-0.3
				C263.6,155.8,263.6,156,263.8,156.1z"/>
			<path class="st17" d="M273.5,155.8c0.1,0.1,0.4,0.2,0.3,0.4c0,0.2-0.2,0.3-0.3,0.3c-0.2,0-0.4-0.2-0.3-0.4
				C273.2,156,273.4,155.9,273.5,155.8z"/>
			<path class="st17" d="M272.7,157.3c-0.2-0.1-0.4-0.2-0.4-0.4c0-0.2,0.1-0.3,0.3-0.3c0.2,0,0.3,0.1,0.4,0.3
				C273.1,157.2,272.9,157.2,272.7,157.3z"/>
			<path class="st17" d="M276.1,150.7c-0.2-0.1-0.4-0.2-0.4-0.3c0-0.2,0.1-0.4,0.3-0.4c0.2,0,0.4,0.2,0.3,0.4
				C276.4,150.5,276.2,150.6,276.1,150.7z"/>
			<path class="st17" d="M267.6,150.7c-0.2-0.1-0.3-0.2-0.3-0.3c0-0.2,0.1-0.4,0.3-0.4c0.2,0,0.4,0.2,0.3,0.4
				C267.9,150.5,267.8,150.6,267.6,150.7z"/>
			<path class="st17" d="M266.3,150.3c-0.1,0.2-0.2,0.4-0.4,0.3c-0.2,0-0.4-0.2-0.4-0.3c0-0.2,0.1-0.3,0.3-0.3
				C266.1,150,266.2,150.2,266.3,150.3z"/>
			<path class="st17" d="M278.7,149.8c-0.2,0-0.4-0.2-0.4-0.3c0-0.2,0.1-0.3,0.3-0.4c0.2,0,0.3,0.1,0.4,0.3
				C279,149.7,278.8,149.7,278.7,149.8z"/>
			<path class="st17" d="M273.9,149.5c0,0.2-0.1,0.3-0.3,0.3c-0.2,0-0.4-0.1-0.4-0.3c0-0.2,0.1-0.3,0.3-0.3
				C273.7,149.1,273.8,149.3,273.9,149.5z"/>
			<path class="st17" d="M268.5,149.9c-0.2-0.1-0.4-0.2-0.3-0.4c0-0.2,0.1-0.3,0.3-0.3c0.2,0,0.4,0.2,0.3,0.4
				C268.8,149.7,268.6,149.8,268.5,149.9z"/>
			<path class="st17" d="M268,155.3c-0.1,0.2-0.2,0.3-0.3,0.4c-0.2,0-0.4-0.2-0.4-0.3c0-0.2,0.1-0.3,0.3-0.3
				C267.8,155,267.9,155.2,268,155.3z"/>
			<path class="st17" d="M264.6,152c0,0.2-0.1,0.4-0.4,0.4c-0.2,0-0.3-0.1-0.3-0.3c0-0.2,0.1-0.3,0.3-0.3
				C264.4,151.6,264.5,151.8,264.6,152z"/>
			<path class="st17" d="M270.2,151.5c-0.2-0.1-0.4-0.2-0.4-0.4c0-0.2,0.1-0.3,0.3-0.3c0.2,0,0.4,0.1,0.4,0.3
				C270.5,151.4,270.3,151.4,270.2,151.5z"/>
			<path class="st17" d="M263.7,151.2c-0.1,0.2-0.2,0.3-0.4,0.3c-0.2,0-0.3-0.2-0.3-0.3c0-0.2,0.1-0.3,0.4-0.3
				C263.6,150.8,263.7,151,263.7,151.2z"/>
			<path class="st17" d="M265.1,150.8c0.1,0.1,0.3,0.2,0.3,0.3c0,0.2-0.1,0.4-0.4,0.3c-0.2,0-0.4-0.2-0.3-0.4
				C264.8,151,264.9,150.8,265.1,150.8z"/>
			<path class="st17" d="M268.5,151.5c-0.2,0-0.4-0.2-0.4-0.3c0-0.2,0.1-0.3,0.3-0.3c0.2,0,0.3,0.1,0.4,0.3
				C268.8,151.3,268.6,151.4,268.5,151.5z"/>
			<path class="st17" d="M273.9,151.2c-0.1,0.2-0.2,0.4-0.4,0.3c-0.2,0-0.3-0.2-0.3-0.3c0-0.2,0.2-0.3,0.4-0.3
				C273.7,150.9,273.8,151,273.9,151.2z"/>
			<path class="st17" d="M275.6,151.1c-0.1,0.2-0.2,0.3-0.3,0.4c-0.2,0-0.4-0.2-0.4-0.3c0-0.2,0.1-0.3,0.3-0.3
				C275.4,150.8,275.5,151,275.6,151.1z"/>
			<path class="st17" d="M272.2,149.5c0,0.2-0.1,0.3-0.3,0.3c-0.2,0-0.3-0.1-0.4-0.3c0-0.2,0.1-0.4,0.3-0.4
				C272,149.2,272.1,149.3,272.2,149.5z"/>
			<path class="st17" d="M265.9,152.3c-0.2-0.1-0.3-0.2-0.3-0.3c0-0.2,0.1-0.4,0.3-0.3c0.2,0,0.4,0.2,0.3,0.4
				C266.2,152.2,266.1,152.3,265.9,152.3z"/>
			<path class="st17" d="M264.6,153.7c0,0.2-0.1,0.3-0.3,0.3c-0.2,0-0.3-0.1-0.4-0.3c0-0.2,0.1-0.4,0.3-0.4
				C264.4,153.3,264.5,153.5,264.6,153.7z"/>
			<path class="st17" d="M264.6,155.3c-0.1,0.2-0.2,0.3-0.4,0.3c-0.2,0-0.4-0.2-0.3-0.4c0-0.2,0.2-0.3,0.4-0.3
				C264.4,155,264.5,155.2,264.6,155.3z"/>
			<path class="st17" d="M271.4,155.3c-0.1,0.2-0.2,0.3-0.4,0.3c-0.2,0-0.3-0.2-0.3-0.3c0-0.2,0.2-0.3,0.4-0.3
				C271.2,155,271.3,155.2,271.4,155.3z"/>
			<path class="st17" d="M274.7,155.3c-0.1,0.2-0.1,0.3-0.3,0.3c-0.2,0-0.4-0.2-0.4-0.4c0-0.2,0.1-0.3,0.4-0.3
				C274.6,155,274.7,155.2,274.7,155.3z"/>
			<path class="st17" d="M270.5,156.1c0,0.2-0.1,0.3-0.3,0.4c-0.2,0-0.4-0.1-0.4-0.3c0-0.2,0.1-0.3,0.3-0.3
				C270.3,155.8,270.4,156,270.5,156.1z"/>
			<path class="st17" d="M272.2,156.2c-0.1,0.2-0.2,0.3-0.3,0.3c-0.2,0-0.4-0.1-0.3-0.3c0-0.2,0.1-0.3,0.3-0.3
				C272,155.8,272.1,156,272.2,156.2z"/>
			<path class="st17" d="M280.6,156.2c0,0.2-0.2,0.3-0.3,0.3c-0.2,0-0.4-0.1-0.4-0.3c0-0.2,0.1-0.3,0.3-0.3
				C280.5,155.8,280.6,156,280.6,156.2z"/>
			<path class="st17" d="M265.6,157.1c0-0.2,0.1-0.4,0.3-0.4c0.2,0,0.4,0.1,0.4,0.3c0,0.2-0.1,0.3-0.3,0.3
				C265.7,157.4,265.7,157.1,265.6,157.1z"/>
			<path class="st17" d="M274.4,156.6c0.2,0.1,0.3,0.2,0.3,0.3c0,0.2-0.1,0.3-0.4,0.3c-0.2,0-0.4-0.2-0.3-0.4
				C274.1,156.8,274.2,156.7,274.4,156.6z"/>
			<path class="st17" d="M276.1,157.3c-0.2-0.1-0.4-0.2-0.4-0.4c0-0.2,0.1-0.3,0.3-0.3c0.2,0,0.3,0.1,0.3,0.3
				C276.4,157.2,276.2,157.2,276.1,157.3z"/>
			<path class="st17" d="M278.1,157c-0.1,0.1-0.2,0.3-0.3,0.3c-0.2,0-0.4-0.2-0.3-0.4c0-0.2,0.1-0.3,0.4-0.3
				C278,156.7,278.1,156.8,278.1,157z"/>
			<path class="st17" d="M267.6,157.3c-0.2-0.1-0.3-0.2-0.3-0.3c0-0.2,0.1-0.3,0.3-0.3c0.2,0,0.4,0.2,0.3,0.4
				C267.9,157.2,267.8,157.3,267.6,157.3z"/>
			<path class="st17" d="M273,155.3c0,0.2-0.1,0.3-0.3,0.4c-0.2,0-0.4-0.1-0.4-0.3c0-0.2,0.1-0.3,0.3-0.3
				C272.9,155,273,155.2,273,155.3z"/>
			<path class="st17" d="M269.7,155.3c-0.1,0.2-0.2,0.3-0.4,0.3c-0.2,0-0.3-0.2-0.3-0.3c0-0.2,0.1-0.3,0.4-0.3
				C269.5,155,269.6,155.2,269.7,155.3z"/>
			<path class="st17" d="M266.8,149.9c-0.2-0.1-0.4-0.2-0.3-0.4c0-0.1,0.2-0.3,0.4-0.3c0.2,0,0.4,0.2,0.3,0.4
				C267.1,149.7,266.9,149.8,266.8,149.9z"/>
			<path class="st17" d="M277.3,149.5c-0.1,0.2-0.2,0.3-0.3,0.3c-0.2,0-0.4-0.2-0.3-0.4c0-0.2,0.2-0.3,0.4-0.3
				C277.1,149.2,277.2,149.4,277.3,149.5z"/>
			<path class="st17" d="M276.9,151.5c-0.2-0.1-0.4-0.2-0.4-0.4c0-0.2,0.1-0.3,0.3-0.3c0.2,0,0.3,0.1,0.3,0.3
				C277.3,151.3,277.1,151.4,276.9,151.5z"/>
			<path class="st17" d="M272.2,151.2c0,0.2-0.1,0.3-0.3,0.3c-0.2,0-0.4-0.1-0.4-0.3c0-0.2,0.1-0.3,0.3-0.3
				C272,150.8,272.1,151,272.2,151.2z"/>
			<path class="st17" d="M267.1,151.2c-0.1,0.2-0.1,0.3-0.4,0.3c-0.2,0-0.3-0.2-0.3-0.3c0-0.2,0.1-0.3,0.3-0.3
				C267,150.8,267,151,267.1,151.2z"/>
			<path class="st17" d="M266.3,153.7c-0.1,0.2-0.2,0.3-0.4,0.3c-0.2,0-0.3-0.1-0.3-0.3c0-0.2,0.1-0.4,0.4-0.3
				C266.1,153.3,266.2,153.5,266.3,153.7z"/>
			<path class="st17" d="M275.2,149.1c0.2,0.1,0.4,0.2,0.3,0.4c0,0.2-0.1,0.3-0.3,0.3c-0.2,0-0.4-0.2-0.3-0.4
				C274.9,149.3,275,149.2,275.2,149.1z"/>
			<path class="st17" d="M265.9,155c0.2,0.1,0.3,0.2,0.3,0.3c0,0.2-0.1,0.3-0.3,0.3c-0.2,0-0.4-0.2-0.3-0.4
				C265.6,155.1,265.8,155,265.9,155z"/>
			<path class="st17" d="M315.5,149.9c0.2-0.1,0.3-0.2,0.3-0.3c0-0.2-0.1-0.4-0.3-0.3c-0.2,0-0.4,0.2-0.3,0.4
				C315.2,149.8,315.4,149.9,315.5,149.9z"/>
			<path class="st17" d="M320.2,149.5c0,0.2,0.2,0.4,0.4,0.4c0.2,0,0.3-0.1,0.3-0.3c0-0.2-0.1-0.3-0.3-0.4
				C320.4,149.2,320.3,149.4,320.2,149.5z"/>
			<path class="st17" d="M315.2,156.2c0.1,0.2,0.2,0.3,0.4,0.3c0.2,0,0.3-0.2,0.3-0.3c0-0.2-0.1-0.3-0.4-0.3
				C315.3,155.9,315.2,156.1,315.2,156.2z"/>
			<path class="st17" d="M321.4,152.4c0.2,0,0.4-0.2,0.4-0.3c0-0.2-0.1-0.3-0.3-0.4c-0.2,0-0.3,0.1-0.4,0.3
				C321.1,152.2,321.3,152.3,321.4,152.4z"/>
			<path class="st17" d="M316,155.4c0.1,0.2,0.2,0.3,0.4,0.3c0.2,0,0.4-0.2,0.3-0.4c0-0.2-0.2-0.3-0.3-0.3
				C316.2,155.1,316.1,155.2,316,155.4z"/>
			<path class="st17" d="M317.7,155.4c0.1,0.2,0.2,0.3,0.3,0.3c0.2,0,0.4-0.2,0.3-0.3c0-0.2-0.2-0.3-0.4-0.3
				C317.9,155.1,317.8,155.2,317.7,155.4z"/>
			<path class="st17" d="M319.8,155c-0.2,0.1-0.4,0.2-0.4,0.4c0,0.2,0.1,0.3,0.3,0.3c0.2,0,0.3-0.1,0.4-0.3
				C320.1,155.2,319.9,155.1,319.8,155z"/>
			<path class="st17" d="M321.4,153.4c-0.2,0.1-0.4,0.2-0.3,0.4c0,0.2,0.2,0.3,0.4,0.3c0.2,0,0.4-0.2,0.3-0.4
				C321.8,153.5,321.6,153.4,321.4,153.4z"/>
			<path class="st17" d="M321.1,155.3c0.1,0.2,0.2,0.4,0.3,0.4c0.2,0,0.4-0.1,0.4-0.3c0-0.2-0.1-0.3-0.3-0.3
				C321.2,155,321.2,155.2,321.1,155.3z"/>
			<path class="st17" d="M317.2,149.9c0.2-0.1,0.3-0.2,0.3-0.3c0-0.2-0.1-0.4-0.3-0.4c-0.2,0-0.4,0.2-0.3,0.4
				C316.9,149.8,317.1,149.9,317.2,149.9z"/>
			<path class="st17" d="M318.6,149.5c0.1,0.2,0.2,0.4,0.4,0.3c0.2,0,0.4-0.2,0.4-0.3c0-0.2-0.1-0.3-0.3-0.3
				C318.7,149.2,318.6,149.4,318.6,149.5z"/>
			<path class="st17" d="M316.4,149.1c0.2-0.1,0.4-0.2,0.3-0.4c0-0.2-0.1-0.3-0.3-0.3c-0.2,0-0.4,0.2-0.3,0.4
				C316.1,148.9,316.2,149,316.4,149.1z"/>
			<path class="st17" d="M316.9,154.5c0.1,0.2,0.2,0.3,0.3,0.4c0.2,0,0.4-0.2,0.4-0.3c0-0.2-0.1-0.3-0.3-0.3
				C317,154.2,317,154.4,316.9,154.5z"/>
			<path class="st17" d="M320.3,151.2c0,0.2,0.1,0.4,0.4,0.4c0.2,0,0.3-0.1,0.3-0.3c0-0.2-0.1-0.3-0.3-0.3
				C320.4,150.9,320.3,151.1,320.3,151.2z"/>
			<path class="st17" d="M321.1,150.4c0.1,0.2,0.2,0.3,0.4,0.3c0.2,0,0.3-0.2,0.3-0.3c0-0.2-0.1-0.3-0.4-0.3
				C321.2,150.1,321.2,150.2,321.1,150.4z"/>
			<path class="st17" d="M320.3,152.9c0,0.2,0.1,0.3,0.3,0.3c0.2,0,0.3-0.1,0.4-0.3c0-0.2-0.1-0.4-0.3-0.4
				C320.4,152.5,320.3,152.7,320.3,152.9z"/>
			<path class="st17" d="M320.2,154.5c0.1,0.2,0.2,0.3,0.4,0.3c0.2,0,0.4-0.2,0.3-0.4c0-0.2-0.2-0.3-0.4-0.3
				C320.4,154.2,320.3,154.4,320.2,154.5z"/>
			<path class="st17" d="M319.3,156.3c0-0.2-0.1-0.4-0.3-0.4c-0.2,0-0.4,0.1-0.4,0.3c0,0.2,0.1,0.3,0.3,0.3
				C319.1,156.6,319.1,156.4,319.3,156.3z"/>
			<path class="st17" d="M317.3,156.6c0.2-0.1,0.3-0.2,0.3-0.3c0-0.2-0.1-0.3-0.3-0.3c-0.2,0-0.4,0.2-0.3,0.4
				C316.9,156.4,317.1,156.5,317.3,156.6z"/>
			<path class="st17" d="M315.2,154.6c0.1,0.2,0.2,0.3,0.4,0.3c0.2,0,0.3-0.2,0.3-0.3c0-0.2-0.1-0.3-0.4-0.3
				C315.3,154.2,315.2,154.4,315.2,154.6z"/>
			<path class="st17" d="M318.1,149.1c0.2-0.1,0.4-0.2,0.3-0.4c0-0.1-0.2-0.3-0.4-0.3c-0.2,0-0.4,0.2-0.3,0.4
				C317.8,148.9,317.9,149,318.1,149.1z"/>
			<path class="st17" d="M318.9,154.2c-0.2,0.1-0.3,0.2-0.3,0.3c0,0.2,0.1,0.3,0.3,0.3c0.2,0,0.4-0.2,0.3-0.4
				C319.2,154.4,319.1,154.2,318.9,154.2z"/>
			<path class="st17" d="M276.1,155c0.2,0,0.3,0.2,0.3,0.3c0,0.2-0.1,0.3-0.3,0.3c-0.2,0-0.4-0.1-0.4-0.3
				C275.7,155.2,275.9,155,276.1,155z"/>
			<path class="st17" d="M270.5,149.5c-0.1,0.2-0.1,0.3-0.4,0.3c-0.2,0-0.3-0.1-0.3-0.3c0-0.2,0.1-0.4,0.4-0.3
				C270.4,149.2,270.5,149.3,270.5,149.5z"/>
			<path class="st18" d="M299.8,128.9h-0.9c-1.3,0-2.5-0.7-3.1-1.8l-0.4-0.8c-0.6-1.1-0.6-2.4,0-3.5l0.4-0.8
				c0.6-1.1,1.8-1.8,3.1-1.8h0.9c1.3,0,2.5,0.7,3.1,1.8l0.4,0.8c0.6,1.1,0.6,2.4,0,3.5l-0.4,0.8
				C302.3,128.2,301.1,128.9,299.8,128.9z M298.9,120.5c-1.2,0-2.3,0.6-2.9,1.7l-0.4,0.8c-0.6,1-0.6,2.3,0,3.3l0.4,0.8
				c0.6,1,1.7,1.7,2.9,1.7h0.9c1.2,0,2.3-0.6,2.9-1.7l0.4-0.8c0.6-1,0.6-2.3,0-3.3l-0.4-0.8c-0.6-1-1.7-1.7-2.9-1.7H298.9z"/>
			<path class="st17" d="M299.4,125.6c0.6,0,1-0.4,1-1s-0.5-1-1-1s-1,0.5-1,1S298.8,125.6,299.4,125.6z"/>
		</g>
	</g>
</g>
</svg>
