<?xml version="1.0" encoding="utf-8"?>
<!-- Generator: Adobe Illustrator 24.2.3, SVG Export Plug-In . SVG Version: 6.00 Build 0)  -->
<svg version="1.1" id="Layer_1" xmlns="http://www.w3.org/2000/svg" xmlns:xlink="http://www.w3.org/1999/xlink" x="0px" y="0px"
	 viewBox="0 0 701 428" style="enable-background:new 0 0 701 428;" xml:space="preserve">
<style type="text/css">
	.st0{fill:#170C3D;fill-opacity:0.5;}
	.st1{fill-opacity:0.1;}
	.st2{fill-rule:evenodd;clip-rule:evenodd;fill:#FFFFFF;fill-opacity:0.1;stroke:#FFFFFF;stroke-width:0.8215;stroke-opacity:0.3;}
	.st3{clip-path:url(#SVGID_2_);}
	.st4{clip-path:url(#SVGID_4_);}
	.st5{clip-path:url(#SVGID_6_);}
	
		.st6{fill:none;stroke:#FFFFFF;stroke-width:1.2;stroke-linecap:round;stroke-linejoin:round;stroke-miterlimit:10;stroke-opacity:0.7;}
	.st7{clip-path:url(#SVGID_8_);}
	.st8{fill:#FFFFFF;fill-opacity:0.6;}
	.st9{fill:#FFFFFF;fill-opacity:0.3;}
	.st10{clip-path:url(#SVGID_10_);}
	.st11{fill-opacity:0.2;}
	.st12{fill:#00CFFD;stroke:#000000;stroke-width:0.2471;stroke-opacity:5.000000e-02;}
	.st13{clip-path:url(#SVGID_12_);}
	.st14{fill:#FFFFFF;}
	.st15{fill:#FFFFFF;fill-opacity:0.1;}
	.st16{clip-path:url(#SVGID_14_);}
	
		.st17{fill:none;stroke:#FFFFFF;stroke-width:0.8215;stroke-linecap:round;stroke-linejoin:round;stroke-miterlimit:10;stroke-opacity:0.6;}
	.st18{fill:none;stroke:#FFFFFF;stroke-width:0.8215;stroke-miterlimit:10;stroke-opacity:0.6;}
	.st19{clip-path:url(#SVGID_16_);}
	.st20{fill-rule:evenodd;clip-rule:evenodd;fill:#FFFFFF;fill-opacity:0.6;}
	.st21{clip-path:url(#SVGID_18_);}
	.st22{clip-path:url(#SVGID_20_);}
	.st23{clip-path:url(#SVGID_22_);}
	.st24{fill:none;stroke:#FFFFFF;stroke-width:0.6846;stroke-opacity:0.2;}
	.st25{fill:none;stroke:#FFFFFF;stroke-width:0.5;stroke-linecap:round;stroke-linejoin:round;}
	.st26{clip-path:url(#SVGID_24_);}
	.st27{clip-path:url(#SVGID_26_);}
	.st28{clip-path:url(#SVGID_28_);}
	.st29{clip-path:url(#SVGID_30_);}
	.st30{clip-path:url(#SVGID_32_);}
	.st31{clip-path:url(#SVGID_34_);}
	.st32{clip-path:url(#SVGID_36_);}
	.st33{clip-path:url(#SVGID_38_);}
	.st34{fill:#EB6A5D;}
	.st35{fill:#F3BE4F;}
	.st36{fill:#64C354;}
	.st37{fill:#1A164A;fill-opacity:0.63;}
	.st38{fill:#1A164A;filter:url(#Adobe_OpacityMaskFilter);}
	.st39{mask:url(#mask0_1_);}
	.st40{fill-rule:evenodd;clip-rule:evenodd;fill:url(#SVGID_39_);}
	.st41{fill-rule:evenodd;clip-rule:evenodd;fill:#14BEFD;}
	.st42{fill-rule:evenodd;clip-rule:evenodd;fill:url(#SVGID_40_);}
	.st43{opacity:0.5;}
	.st44{fill:none;stroke:url(#SVGID_41_);stroke-width:6.7812;stroke-linecap:round;stroke-dasharray:67.81,33.91;}
	.st45{opacity:0.2;}
	.st46{fill:none;stroke:url(#SVGID_42_);stroke-width:3.3906;stroke-linecap:round;stroke-dasharray:33.91,16.95;}
	.st47{fill:none;stroke:url(#SVGID_43_);stroke-width:10.1718;stroke-linecap:round;stroke-dasharray:67.81,33.91;}
	
		.st48{fill-rule:evenodd;clip-rule:evenodd;fill:#FFFFFF;fill-opacity:5.000000e-02;stroke:#FFFFFF;stroke-width:0.8215;stroke-opacity:0.3;}
	.st49{clip-path:url(#SVGID_45_);}
	.st50{fill:#FFD8B8;}
	.st51{fill:#FABFAB;}
	.st52{fill:#BF8373;}
	.st53{clip-path:url(#SVGID_47_);}
	.st54{fill:#5B0000;fill-opacity:0.22;}
	.st55{clip-path:url(#SVGID_49_);}
	.st56{clip-path:url(#SVGID_51_);}
	.st57{clip-path:url(#SVGID_53_);}
	.st58{fill:#FFFFFF;fill-opacity:0.2;}
	.st59{fill:#FFFFFF;fill-opacity:5.000000e-02;}
</style>
<g>
	<path class="st0" d="M8,0h685c4.4,0,8,3.6,8,8v412c0,4.4-3.6,8-8,8H8c-4.4,0-8-3.6-8-8V8C0,3.6,3.6,0,8,0z"/>
	<path class="st1" d="M0,373.2h136.9V428H6.8c-3.8,0-6.8-3.1-6.8-6.8V373.2z"/>
	<path class="st2" d="M26,414c7.6,0,13.7-6.1,13.7-13.7c0-7.6-6.1-13.7-13.7-13.7s-13.7,6.1-13.7,13.7C12.3,407.8,18.4,414,26,414z"
		/>
	<g>
		<defs>
			<rect id="SVGID_1_" x="17.8" y="392" width="16.4" height="16.4"/>
		</defs>
		<clipPath id="SVGID_2_">
			<use xlink:href="#SVGID_1_"  style="overflow:visible;"/>
		</clipPath>
		<g class="st3">
			<g>
				<defs>
					<rect id="SVGID_3_" x="17.8" y="392" width="16.4" height="16.4"/>
				</defs>
				<clipPath id="SVGID_4_">
					<use xlink:href="#SVGID_3_"  style="overflow:visible;"/>
				</clipPath>
				<g class="st4">
					<g>
						<defs>
							<rect id="SVGID_5_" x="17" y="391" width="18" height="18"/>
						</defs>
						<clipPath id="SVGID_6_">
							<use xlink:href="#SVGID_5_"  style="overflow:visible;"/>
						</clipPath>
						<g class="st5">
							<path class="st6" d="M18.5,400.6l4.6,4.6"/>
							<path class="st6" d="M23.1,405.2l10.4-10.4"/>
						</g>
					</g>
				</g>
			</g>
		</g>
	</g>
	<g>
		<defs>
			<rect id="SVGID_7_" x="46.5" y="389.7" width="75.3" height="21.1"/>
		</defs>
		<clipPath id="SVGID_8_">
			<use xlink:href="#SVGID_7_"  style="overflow:visible;"/>
		</clipPath>
		<g class="st7">
			<path class="st8" d="M48.7,389.7h41c1.2,0,2.2,1,2.2,2.2l0,0c0,1.2-1,2.2-2.2,2.2h-41c-1.2,0-2.2-1-2.2-2.2l0,0
				C46.5,390.7,47.5,389.7,48.7,389.7z"/>
			<path class="st9" d="M47.6,399.6h29.5c0.6,0,1.1,0.5,1.1,1.1l0,0c0,0.6-0.5,1.1-1.1,1.1H47.6c-0.6,0-1.1-0.5-1.1-1.1l0,0
				C46.5,400.1,47,399.6,47.6,399.6z"/>
			<g>
				<defs>
					<path id="SVGID_9_" d="M48.3,407.4h71.9c0.9,0,1.7,0.8,1.7,1.7v0c0,0.9-0.8,1.7-1.7,1.7H48.3c-0.9,0-1.7-0.8-1.7-1.7v0
						C46.5,408.2,47.3,407.4,48.3,407.4z"/>
				</defs>
				<clipPath id="SVGID_10_">
					<use xlink:href="#SVGID_9_"  style="overflow:visible;"/>
				</clipPath>
				<g class="st10">
					<path class="st11" d="M48.3,407.4h71.9c0.9,0,1.7,0.8,1.7,1.7v0c0,0.9-0.8,1.7-1.7,1.7H48.3c-0.9,0-1.7-0.8-1.7-1.7v0
						C46.5,408.2,47.3,407.4,48.3,407.4z"/>
					<path class="st12" d="M48.3,408.1h47.2c0.6,0,1,0.5,1,1l0,0c0,0.6-0.5,1-1,1H48.3c-0.6,0-1-0.5-1-1l0,0
						C47.2,408.5,47.7,408.1,48.3,408.1z"/>
				</g>
			</g>
		</g>
	</g>
	<g>
		<defs>
			<rect id="SVGID_11_" y="40" width="136.9" height="309.3"/>
		</defs>
		<clipPath id="SVGID_12_">
			<use xlink:href="#SVGID_11_"  style="overflow:visible;"/>
		</clipPath>
		<g class="st13">
			<path class="st11" d="M10.3,40h116.4c1.9,0,3.4,1.5,3.4,3.4v12.3c0,1.9-1.5,3.4-3.4,3.4H10.3c-1.9,0-3.4-1.5-3.4-3.4V43.4
				C6.8,41.5,8.4,40,10.3,40z"/>
			<path class="st14" d="M16.7,52.6c0.7,0,1.3-0.2,1.9-0.6l1.9,1.9c0.1,0.1,0.3,0.2,0.5,0.2c0.4,0,0.6-0.3,0.6-0.6
				c0-0.2-0.1-0.3-0.2-0.4l-1.9-1.9c0.4-0.6,0.6-1.2,0.6-2c0-1.9-1.5-3.4-3.4-3.4c-1.9,0-3.4,1.5-3.4,3.4
				C13.3,51,14.9,52.6,16.7,52.6z M16.7,51.6c-1.4,0-2.5-1.1-2.5-2.5c0-1.4,1.1-2.5,2.5-2.5c1.4,0,2.5,1.1,2.5,2.5
				C19.2,50.5,18.1,51.6,16.7,51.6z"/>
			<path class="st8" d="M28,53.3c1.5,0,2.4-0.7,2.4-1.9v0c0-0.9-0.5-1.5-1.9-1.7l-0.7-0.2c-0.8-0.2-1.1-0.5-1.1-0.9v0
				c0-0.6,0.5-0.9,1.3-0.9c0.8,0,1.3,0.4,1.3,0.9l0,0.1h0.9l0-0.1c-0.1-1-0.9-1.7-2.3-1.7s-2.3,0.7-2.3,1.8v0c0,0.9,0.5,1.5,1.8,1.8
				l0.7,0.1c0.8,0.2,1.2,0.5,1.2,1v0c0,0.6-0.6,1-1.4,1c-0.8,0-1.4-0.4-1.5-0.9l0,0h-1l0,0.1C25.6,52.5,26.5,53.3,28,53.3z
				 M33.5,53.2c1.2,0,1.9-0.7,2-1.3l0,0l-0.9,0l0,0c-0.1,0.2-0.5,0.5-1.1,0.5c-0.8,0-1.3-0.5-1.3-1.4h3.3v-0.3
				c0-1.4-0.8-2.4-2.1-2.4c-1.3,0-2.2,1-2.2,2.5v0C31.3,52.2,32.1,53.2,33.5,53.2z M33.5,49.1c0.6,0,1.1,0.4,1.2,1.3h-2.4
				C32.3,49.5,32.8,49.1,33.5,49.1z M38,53.2c0.6,0,1.1-0.3,1.4-0.7h0.1v0.7h0.9v-3.2c0-1-0.7-1.6-1.9-1.6c-1.1,0-1.8,0.5-1.9,1.3
				l0,0h0.9l0,0c0.1-0.3,0.5-0.5,1-0.5c0.6,0,1,0.3,1,0.8v0.4l-1.3,0.1c-1.1,0.1-1.8,0.6-1.8,1.4v0C36.4,52.6,37.1,53.2,38,53.2z
				 M37.4,51.7L37.4,51.7c0-0.4,0.3-0.7,0.9-0.7l1.2-0.1v0.4c0,0.6-0.5,1.1-1.2,1.1C37.7,52.4,37.4,52.2,37.4,51.7z M41.7,53.1h0.9
				v-2.8c0-0.7,0.5-1.1,1.2-1.1c0.2,0,0.3,0,0.5,0.1v-0.9c-0.1,0-0.3,0-0.4,0c-0.6,0-1.1,0.3-1.2,0.8h-0.1v-0.7h-0.9V53.1z
				 M47.2,53.2c1.2,0,1.8-0.6,2-1.5l0,0h-0.9l0,0c-0.2,0.5-0.5,0.8-1.1,0.8c-0.8,0-1.3-0.6-1.3-1.7v0c0-1,0.5-1.6,1.3-1.6
				c0.6,0,1,0.3,1.1,0.8l0,0l0.9,0v0c-0.1-0.9-0.8-1.6-2-1.6c-1.4,0-2.2,0.9-2.2,2.4v0C44.9,52.3,45.8,53.2,47.2,53.2z M50.3,53.1
				h0.9v-2.8c0-0.8,0.4-1.2,1.1-1.2c0.7,0,1,0.4,1,1.2v2.8h0.9V50c0-1.1-0.6-1.8-1.6-1.8c-0.7,0-1.1,0.3-1.4,0.8h-0.1v-2.6h-0.9
				V53.1z"/>
			<path class="st9" d="M7.9,67.4h29.5c0.6,0,1.1,0.5,1.1,1.1l0,0c0,0.6-0.5,1.1-1.1,1.1H7.9c-0.6,0-1.1-0.5-1.1-1.1l0,0
				C6.8,67.9,7.3,67.4,7.9,67.4z"/>
			<path class="st15" d="M10.3,75h116.4c1.9,0,3.4,1.5,3.4,3.4v12.3c0,1.9-1.5,3.4-3.4,3.4H10.3c-1.9,0-3.4-1.5-3.4-3.4V78.5
				C6.8,76.6,8.4,75,10.3,75z"/>
			<g>
				<defs>
					<rect id="SVGID_13_" x="13.7" y="76.4" width="55" height="16.4"/>
				</defs>
				<clipPath id="SVGID_14_">
					<use xlink:href="#SVGID_13_"  style="overflow:visible;"/>
				</clipPath>
				<g class="st16">
					<path class="st17" d="M21.9,90.8h-6.2c-0.4,0-0.7-0.3-0.7-0.7v-11c0-0.4,0.3-0.7,0.7-0.7h6.2V90.8z"/>
					<path class="st17" d="M28.1,90.8h-6.2V78.5h6.2c0.4,0,0.7,0.3,0.7,0.7v11C28.8,90.5,28.4,90.8,28.1,90.8z"/>
					<path class="st18" d="M16.4,84.6h4.1"/>
					<path class="st18" d="M16.4,81.9h4.1"/>
					<path class="st18" d="M16.4,87.4h4.1"/>
					<path class="st18" d="M23.3,84.6h4.1"/>
					<path class="st18" d="M23.3,81.9h4.1"/>
					<path class="st9" d="M38.1,83.5h29.5c0.6,0,1.1,0.5,1.1,1.1l0,0c0,0.6-0.5,1.1-1.1,1.1H38.1c-0.6,0-1.1-0.5-1.1-1.1l0,0
						C37,84,37.5,83.5,38.1,83.5z"/>
				</g>
			</g>
			<g>
				<defs>
					<rect id="SVGID_15_" x="13.7" y="101.1" width="69.2" height="16.4"/>
				</defs>
				<clipPath id="SVGID_16_">
					<use xlink:href="#SVGID_15_"  style="overflow:visible;"/>
				</clipPath>
				<g class="st19">
					<path class="st17" d="M21.2,102.4c-1.6,0-3.6,1.2-3.6,4.2l-2.5,3.3c-0.1,0.1,0,0.2,0.2,0.2l1.7,0.8c0.1,0.6,0.4,2.5,0.6,3.4
						c0.1,0.3,2.9,0.1,2.9,0.1l0.8,1.7"/>
					<path class="st20" d="M24.5,102.6c0.1-0.2,0-0.4-0.2-0.5c-0.2-0.1-0.4,0-0.5,0.2l-0.7,2c-0.1,0.2,0,0.4,0.2,0.5
						c0.2,0.1,0.4,0,0.5-0.2L24.5,102.6z M28.8,104.6c0.2-0.1,0.2-0.4,0.1-0.6c-0.1-0.2-0.4-0.2-0.6-0.1l-2.3,1.8
						c-0.2,0.1-0.2,0.4-0.1,0.6c0.1,0.2,0.4,0.2,0.6,0.1L28.8,104.6z M26.1,109.2c0-0.2,0.2-0.4,0.4-0.4l2.2,0.2
						c0.2,0,0.4,0.2,0.4,0.4c0,0.2-0.2,0.4-0.4,0.4l-2.2-0.2C26.3,109.6,26.1,109.4,26.1,109.2z M21.7,112.9c-0.2,0-0.4,0.2-0.4,0.4
						c0,0.2,0.2,0.4,0.4,0.4h1.8c0.2,0,0.4-0.2,0.4-0.4c0-0.2-0.2-0.4-0.4-0.4H21.7z M21.3,111.6c0-0.2,0.2-0.4,0.4-0.4h0.1
						c-0.9-0.8-2.1-2.4-1.1-3.8c1-1.3,2.9-1.3,3.8,0c1,1.3-0.2,3-1.1,3.8h0.1c0.2,0,0.4,0.2,0.4,0.4c0,0.2-0.2,0.4-0.4,0.4h-1.8
						C21.5,112,21.3,111.8,21.3,111.6z M23,111.1v-1.8c0.2-0.1,0.3-0.4,0.3-0.6c0-0.4-0.3-0.8-0.8-0.8c-0.4,0-0.8,0.3-0.8,0.8
						c0,0.3,0.1,0.5,0.4,0.7v1.7H23z M22.6,108.7C22.6,108.7,22.6,108.7,22.6,108.7L22.6,108.7C22.6,108.7,22.6,108.7,22.6,108.7z"
						/>
					<path class="st9" d="M38.4,107.9h43.1c0.8,0,1.4,0.6,1.4,1.4v0c0,0.8-0.6,1.4-1.4,1.4H38.4c-0.8,0-1.4-0.6-1.4-1.4v0
						C37,108.5,37.6,107.9,38.4,107.9z"/>
				</g>
			</g>
			<g>
				<defs>
					<rect id="SVGID_17_" x="13.7" y="125.7" width="69.2" height="16.4"/>
				</defs>
				<clipPath id="SVGID_18_">
					<use xlink:href="#SVGID_17_"  style="overflow:visible;"/>
				</clipPath>
				<g class="st21">
					<path class="st17" d="M21.9,127.1l-6.8,6.8l6.8,6.8l6.8-6.8L21.9,127.1z"/>
					<path class="st20" d="M20.2,134.3c-0.2-0.2-0.4-0.2-0.6,0c-0.2,0.2-0.2,0.4,0,0.6l2.1,2.1c0.1,0.1,0.2,0.1,0.3,0.1
						c0.1,0,0.2,0,0.3-0.1l2.1-2.1c0.2-0.2,0.2-0.4,0-0.6c-0.2-0.2-0.4-0.2-0.6,0l-1.4,1.4v-4.9c0-0.2-0.2-0.4-0.4-0.4
						c-0.2,0-0.4,0.2-0.4,0.4v4.9L20.2,134.3z"/>
					<path class="st9" d="M38.4,132.5h43.1c0.8,0,1.4,0.6,1.4,1.4l0,0c0,0.8-0.6,1.4-1.4,1.4H38.4c-0.8,0-1.4-0.6-1.4-1.4l0,0
						C37,133.2,37.6,132.5,38.4,132.5z"/>
				</g>
			</g>
			<path class="st8" d="M9.9,166.7c1.5,0,2.4-0.9,2.4-2.1v-3.8h-1v3.7c0,0.8-0.5,1.3-1.3,1.3c-0.9,0-1.3-0.5-1.3-1.3v-3.7h-1v3.8
				C7.6,165.8,8.5,166.7,9.9,166.7z M15.3,166.7c1.1,0,1.9-0.6,1.9-1.4v0c0-0.6-0.4-1-1.3-1.2l-0.7-0.2c-0.5-0.1-0.7-0.3-0.7-0.5v0
				c0-0.3,0.3-0.5,0.8-0.5c0.5,0,0.8,0.2,0.8,0.5l0,0h0.9v0c-0.1-0.7-0.7-1.2-1.8-1.2c-1,0-1.8,0.5-1.8,1.3v0c0,0.6,0.4,1,1.2,1.2
				l0.7,0.2c0.5,0.1,0.7,0.3,0.7,0.5v0c0,0.3-0.3,0.6-0.8,0.6c-0.5,0-0.8-0.2-0.9-0.5l0,0h-1v0C13.5,166.1,14.2,166.7,15.3,166.7z
				 M20,166.7c1.2,0,1.8-0.7,1.9-1.3l0,0h-1l0,0c-0.1,0.2-0.4,0.5-0.9,0.5c-0.7,0-1.1-0.5-1.1-1.2H22v-0.3c0-1.3-0.8-2.2-2-2.2
				c-1.2,0-2,0.9-2,2.3v0C17.9,165.8,18.7,166.7,20,166.7z M20,162.9c0.6,0,1,0.4,1,1.1h-2.1C19,163.3,19.4,162.9,20,162.9z
				 M23,166.6h1V164c0-0.6,0.4-1,1.1-1c0.2,0,0.3,0,0.5,0.1v-0.9c-0.1,0-0.3,0-0.4,0c-0.6,0-1,0.3-1.1,0.7H24v-0.7h-1V166.6z
				 M28,166.7c1.1,0,1.9-0.6,1.9-1.4v0c0-0.6-0.4-1-1.3-1.2l-0.7-0.2c-0.5-0.1-0.7-0.3-0.7-0.5v0c0-0.3,0.3-0.5,0.8-0.5
				c0.5,0,0.8,0.2,0.8,0.5l0,0h0.9v0c-0.1-0.7-0.7-1.2-1.8-1.2c-1,0-1.8,0.5-1.8,1.3v0c0,0.6,0.4,1,1.2,1.2l0.7,0.2
				c0.5,0.1,0.7,0.3,0.7,0.5v0c0,0.3-0.3,0.6-0.8,0.6c-0.5,0-0.8-0.2-0.9-0.5l0,0h-1v0C26.2,166.1,26.9,166.7,28,166.7z"/>
			<g>
				<defs>
					<rect id="SVGID_19_" x="13.7" y="175" width="55" height="16.4"/>
				</defs>
				<clipPath id="SVGID_20_">
					<use xlink:href="#SVGID_19_"  style="overflow:visible;"/>
				</clipPath>
				<g class="st22">
					<g>
						<defs>
							<rect id="SVGID_21_" x="13.7" y="175" width="16.4" height="16.4"/>
						</defs>
						<clipPath id="SVGID_22_">
							<use xlink:href="#SVGID_21_"  style="overflow:visible;"/>
						</clipPath>
						<g class="st23">
							<path class="st24" d="M29.8,183.2c0,4.3-3.5,7.9-7.9,7.9s-7.9-3.5-7.9-7.9c0-4.3,3.5-7.9,7.9-7.9S29.8,178.9,29.8,183.2z"/>
							<path class="st25" d="M21.9,187.8c-1.8,0-3.4-0.3-3.4-1.4c0-1.2,1.6-2.2,3.4-2.2c1.8,0,3.4,1.1,3.4,2.2
								C25.3,187.5,23.8,187.8,21.9,187.8z"/>
							<path class="st25" d="M21.9,182.6c1.2,0,2.2-1,2.2-2.2c0-1.2-1-2.2-2.2-2.2c-1.2,0-2.2,1-2.2,2.2
								C19.7,181.6,20.7,182.6,21.9,182.6C21.9,182.6,21.9,182.6,21.9,182.6z"/>
						</g>
					</g>
					<path class="st9" d="M38.1,182.1h29.5c0.6,0,1.1,0.5,1.1,1.1l0,0c0,0.6-0.5,1.1-1.1,1.1H38.1c-0.6,0-1.1-0.5-1.1-1.1l0,0
						C37,182.6,37.5,182.1,38.1,182.1z"/>
				</g>
			</g>
			<g>
				<defs>
					<rect id="SVGID_23_" x="13.7" y="198.3" width="60.8" height="16.4"/>
				</defs>
				<clipPath id="SVGID_24_">
					<use xlink:href="#SVGID_23_"  style="overflow:visible;"/>
				</clipPath>
				<g class="st26">
					<path class="st24" d="M29.8,206.5c0,4.3-3.5,7.9-7.9,7.9s-7.9-3.5-7.9-7.9c0-4.3,3.5-7.9,7.9-7.9S29.8,202.1,29.8,206.5z"/>
					<path class="st25" d="M21.9,210.8c-1.8,0-3.4-0.3-3.4-1.4c0-1.2,1.6-2.2,3.4-2.2c1.8,0,3.4,1.1,3.4,2.2
						C25.3,210.5,23.8,210.8,21.9,210.8z"/>
					<path class="st25" d="M21.9,205.6c1.2,0,2.2-1,2.2-2.2c0-1.2-1-2.2-2.2-2.2c-1.2,0-2.2,1-2.2,2.2
						C19.7,204.6,20.7,205.6,21.9,205.6C21.9,205.6,21.9,205.6,21.9,205.6z"/>
					<path class="st9" d="M38.4,205.1h34.8c0.8,0,1.4,0.6,1.4,1.4l0,0c0,0.8-0.6,1.4-1.4,1.4H38.4c-0.8,0-1.4-0.6-1.4-1.4l0,0
						C37,205.7,37.6,205.1,38.4,205.1z"/>
				</g>
			</g>
			<g>
				<defs>
					<rect id="SVGID_25_" x="13.7" y="221.5" width="65" height="16.4"/>
				</defs>
				<clipPath id="SVGID_26_">
					<use xlink:href="#SVGID_25_"  style="overflow:visible;"/>
				</clipPath>
				<g class="st27">
					<g>
						<defs>
							<rect id="SVGID_27_" x="13.7" y="221.5" width="16.4" height="16.4"/>
						</defs>
						<clipPath id="SVGID_28_">
							<use xlink:href="#SVGID_27_"  style="overflow:visible;"/>
						</clipPath>
						<g class="st28">
							<path class="st24" d="M29.8,229.8c0,4.3-3.5,7.9-7.9,7.9s-7.9-3.5-7.9-7.9c0-4.3,3.5-7.9,7.9-7.9S29.8,225.4,29.8,229.8z"/>
							<path class="st25" d="M21.9,234.8c-1.8,0-3.4-0.3-3.4-1.4c0-1.2,1.6-2.2,3.4-2.2c1.8,0,3.4,1.1,3.4,2.2
								C25.3,234.5,23.8,234.8,21.9,234.8z"/>
							<path class="st25" d="M21.9,229.6c1.2,0,2.2-1,2.2-2.2c0-1.2-1-2.2-2.2-2.2c-1.2,0-2.2,1-2.2,2.2
								C19.7,228.6,20.7,229.6,21.9,229.6C21.9,229.6,21.9,229.6,21.9,229.6z"/>
						</g>
					</g>
					<path class="st9" d="M38.4,228.4h38.9c0.8,0,1.4,0.6,1.4,1.4l0,0c0,0.8-0.6,1.4-1.4,1.4H38.4c-0.8,0-1.4-0.6-1.4-1.4l0,0
						C37,229,37.6,228.4,38.4,228.4z"/>
				</g>
			</g>
			<path class="st8" d="M7.1,266.5h1.1l0.5-1.5h2.1l0.5,1.5h1.1l-2.1-5.8H9.2L7.1,266.5z M9.7,261.8L9.7,261.8l0.8,2.4H9L9.7,261.8z
				 M13.3,266.5h1V264c0-0.7,0.4-1.1,1-1.1c0.6,0,0.9,0.3,0.9,1v2.6h1v-2.8c0-1-0.5-1.6-1.5-1.6c-0.6,0-1.1,0.3-1.3,0.8h-0.1v-0.7
				h-1V266.5z M19.5,266.6c0.6,0,1-0.2,1.3-0.7h0.1v0.6h1v-3c0-0.9-0.6-1.5-1.8-1.5c-1,0-1.7,0.5-1.8,1.2l0,0h0.9l0,0
				c0.1-0.3,0.4-0.5,0.9-0.5c0.5,0,0.8,0.2,0.8,0.7v0.4l-1.1,0.1c-1.1,0.1-1.7,0.5-1.7,1.3v0C18.1,266.1,18.7,266.6,19.5,266.6z
				 M19.1,265.2L19.1,265.2c0-0.4,0.3-0.6,0.8-0.6l1-0.1v0.4c0,0.5-0.4,0.9-1,0.9C19.4,265.8,19.1,265.6,19.1,265.2z M23.1,266.5h1
				v-6.1h-1V266.5z M25.8,268.1c1,0,1.5-0.3,1.8-1.4l1.6-4.5h-1.1l-1,3.4h-0.1l-1-3.4H25l1.6,4.4l-0.1,0.2c-0.1,0.4-0.4,0.6-0.8,0.6
				c-0.1,0-0.2,0-0.3,0v0.8C25.6,268.1,25.7,268.1,25.8,268.1z M31.8,266.5c0.2,0,0.4,0,0.5,0v-0.8c-0.1,0-0.2,0-0.3,0
				c-0.4,0-0.6-0.2-0.6-0.6v-2.2h0.9v-0.8h-0.9v-1.1h-1v1.1h-0.7v0.8h0.7v2.4C30.4,266.2,30.8,266.5,31.8,266.5z M33.9,261.4
				c0.3,0,0.6-0.3,0.6-0.6c0-0.3-0.3-0.6-0.6-0.6c-0.3,0-0.6,0.3-0.6,0.6C33.3,261.1,33.5,261.4,33.9,261.4z M33.4,266.5h1v-4.4h-1
				V266.5z M37.5,266.6c1.1,0,1.8-0.6,1.9-1.5l0,0l-0.9,0l0,0c-0.1,0.5-0.4,0.7-1,0.7c-0.7,0-1.1-0.5-1.1-1.5v0
				c0-0.9,0.4-1.5,1.1-1.5c0.5,0,0.9,0.3,1,0.7l0,0h0.9v0c-0.1-0.9-0.8-1.5-1.9-1.5c-1.3,0-2.1,0.8-2.1,2.3v0
				C35.4,265.8,36.1,266.6,37.5,266.6z M42,266.6c1.1,0,1.9-0.6,1.9-1.4v0c0-0.6-0.4-1-1.3-1.2l-0.7-0.2c-0.5-0.1-0.7-0.3-0.7-0.5v0
				c0-0.3,0.3-0.5,0.8-0.5c0.5,0,0.8,0.2,0.8,0.5l0,0h0.9v0c-0.1-0.7-0.7-1.2-1.8-1.2c-1,0-1.8,0.5-1.8,1.3v0c0,0.6,0.4,1,1.2,1.2
				l0.7,0.2c0.5,0.1,0.7,0.3,0.7,0.5v0c0,0.3-0.3,0.6-0.8,0.6c-0.5,0-0.8-0.2-0.9-0.5l0,0h-1v0C40.2,266.1,40.9,266.6,42,266.6z"/>
			<g>
				<defs>
					<rect id="SVGID_29_" x="13.7" y="274" width="46.9" height="16.4"/>
				</defs>
				<clipPath id="SVGID_30_">
					<use xlink:href="#SVGID_29_"  style="overflow:visible;"/>
				</clipPath>
				<g class="st29">
					<g>
						<defs>
							<rect id="SVGID_31_" x="13.7" y="274" width="16.4" height="16.4"/>
						</defs>
						<clipPath id="SVGID_32_">
							<use xlink:href="#SVGID_31_"  style="overflow:visible;"/>
						</clipPath>
						<g class="st30">
							<path class="st24" d="M29.8,282.2c0,4.3-3.5,7.9-7.9,7.9s-7.9-3.5-7.9-7.9c0-4.3,3.5-7.9,7.9-7.9S29.8,277.9,29.8,282.2z"/>
							<path class="st14" d="M25.8,279.5c0.7,0,1.2-0.6,1.2-1.2s-0.6-1.2-1.2-1.2s-1.2,0.6-1.2,1.2c0,0.2,0.1,0.4,0.2,0.6l-1.6,1.6
								c-0.1,0-0.3-0.1-0.4-0.1c-0.3-0.5-0.8-0.8-1.4-0.8c-0.3,0-0.7,0.1-0.9,0.3l-1-1c0.1-0.2,0.2-0.4,0.2-0.6
								c0-0.7-0.6-1.2-1.2-1.2s-1.2,0.6-1.2,1.2s0.6,1.2,1.2,1.2c0.2,0,0.4-0.1,0.6-0.2l1,1c-0.2,0.2-0.3,0.5-0.3,0.8
								c-0.5,0.2-0.8,0.6-0.8,1.1v0.2c0,0.6,0.5,1.1,1.1,1.2l-1,1c-0.2-0.1-0.4-0.2-0.6-0.2c-0.7,0-1.2,0.6-1.2,1.2s0.6,1.2,1.2,1.2
								s1.2-0.6,1.2-1.2c0-0.2-0.1-0.4-0.2-0.6l1.4-1.4h2.5l1.4,1.4c-0.1,0.2-0.2,0.4-0.2,0.6c0,0.7,0.6,1.2,1.2,1.2
								s1.2-0.6,1.2-1.2s-0.6-1.2-1.2-1.2c-0.2,0-0.4,0.1-0.6,0.2l-1-1c0.6-0.1,1.1-0.6,1.1-1.2v-0.2c0-0.7-0.5-1.2-1.2-1.2h-0.1
								c-0.1-0.1-0.1-0.2-0.2-0.3l1.5-1.5C25.3,279.4,25.5,279.5,25.8,279.5z M25.1,278.2c0-0.3,0.3-0.6,0.6-0.6s0.6,0.3,0.6,0.6
								s-0.3,0.6-0.6,0.6c-0.1,0-0.1,0-0.2,0c-0.1,0-0.1,0-0.1-0.1c0,0,0,0,0,0c-0.1-0.1-0.2-0.1-0.2-0.2c0,0,0,0,0,0
								c0,0,0-0.1-0.1-0.1C25.1,278.4,25.1,278.3,25.1,278.2z M17.6,278.2c0-0.3,0.3-0.6,0.6-0.6s0.6,0.3,0.6,0.6c0,0.1,0,0.1,0,0.2
								c0,0.1,0,0.1-0.1,0.1c0,0,0,0,0,0c-0.1,0.1-0.1,0.2-0.2,0.2c0,0,0,0,0,0c0,0-0.1,0-0.1,0.1c-0.1,0-0.1,0-0.2,0
								C17.9,278.9,17.6,278.6,17.6,278.2z M18.9,285.8c0,0.3-0.3,0.6-0.6,0.6s-0.6-0.3-0.6-0.6s0.3-0.6,0.6-0.6c0.1,0,0.1,0,0.2,0
								c0.1,0,0.1,0,0.1,0.1c0,0,0,0,0,0c0.1,0.1,0.2,0.1,0.2,0.2c0,0,0,0,0,0c0,0,0,0.1,0.1,0.1C18.9,285.6,18.9,285.7,18.9,285.8z
								 M26.4,285.8c0,0.3-0.3,0.6-0.6,0.6s-0.6-0.3-0.6-0.6c0-0.1,0-0.1,0-0.2c0-0.1,0-0.1,0.1-0.1c0,0,0,0,0,0
								c0.1-0.1,0.1-0.2,0.2-0.2c0,0,0,0,0,0c0,0,0.1,0,0.1-0.1c0.1,0,0.1,0,0.2,0C26.1,285.1,26.4,285.4,26.4,285.8z M23.3,281.5
								l0.1,0.2l0.6,0c0.3,0,0.6,0.3,0.6,0.6v0.2c0,0.3-0.3,0.6-0.6,0.6h-0.5h-0.9h-1.2h-0.9H20c-0.3,0-0.6-0.3-0.6-0.6v-0.2
								c0-0.3,0.2-0.5,0.5-0.6l0.3,0l0-0.3c0,0,0-0.1,0-0.1c0-0.2,0-0.3,0.1-0.4c0.1-0.2,0.2-0.3,0.4-0.4c0.1-0.1,0.3-0.1,0.5-0.1
								c0.4,0,0.8,0.3,0.9,0.6l0.1,0.3l0.2,0l0.1,0c0,0,0,0,0,0c0,0,0,0,0.1,0c0,0,0,0,0,0c0.1,0,0.4,0,0.5,0.2
								C23.3,281.3,23.3,281.4,23.3,281.5z"/>
						</g>
					</g>
					<path class="st9" d="M38.4,280.8h20.9c0.8,0,1.4,0.6,1.4,1.4l0,0c0,0.8-0.6,1.4-1.4,1.4H38.4c-0.8,0-1.4-0.6-1.4-1.4l0,0
						C37,281.4,37.6,280.8,38.4,280.8z"/>
				</g>
			</g>
			<g>
				<defs>
					<rect id="SVGID_33_" x="13.7" y="297.3" width="55" height="16.4"/>
				</defs>
				<clipPath id="SVGID_34_">
					<use xlink:href="#SVGID_33_"  style="overflow:visible;"/>
				</clipPath>
				<g class="st31">
					<path class="st24" d="M29.8,305.5c0,4.3-3.5,7.9-7.9,7.9s-7.9-3.5-7.9-7.9s3.5-7.9,7.9-7.9S29.8,301.1,29.8,305.5z"/>
					<path class="st14" d="M25.2,306c-0.5,0-0.8,0.4-0.8,0.9c0,0.1,0,0.2,0.1,0.3l-1.2,1.1c-0.1-0.1-0.3-0.1-0.4-0.1
						c-0.2,0-0.4,0.1-0.5,0.2l-1.9-1.3c0-0.1,0-0.1,0-0.2c0-0.5-0.4-0.9-0.8-0.9s-0.8,0.4-0.8,0.9c0,0.2,0,0.3,0.1,0.5l-0.7,0.9
						c-0.1,0-0.2-0.1-0.3-0.1c-0.5,0-0.8,0.4-0.8,0.9s0.4,0.9,0.8,0.9c0.5,0,0.8-0.4,0.8-0.9c0-0.2,0-0.3-0.1-0.4l0.7-0.9
						c0.1,0,0.2,0.1,0.3,0.1c0.2,0,0.4-0.1,0.5-0.2l1.9,1.3c0,0.1,0,0.1,0,0.2c0,0.5,0.4,0.9,0.8,0.9c0.5,0,0.8-0.4,0.8-0.9
						c0-0.1,0-0.2-0.1-0.3l1.1-1.1c0.1,0.1,0.3,0.1,0.4,0.1c0.5,0,0.8-0.4,0.8-0.9C26,306.4,25.6,306,25.2,306z"/>
					<path class="st14" d="M25.2,302c-0.5,0-0.8,0.4-0.8,0.9c0,0.1,0,0.2,0.1,0.3l-1.2,1.1c-0.1-0.1-0.3-0.1-0.4-0.1
						c-0.2,0-0.4,0.1-0.5,0.2l-1.9-1.3c0-0.1,0-0.1,0-0.2c0-0.5-0.4-0.9-0.8-0.9s-0.8,0.4-0.8,0.9c0,0.2,0,0.3,0.1,0.5l-0.7,0.9
						c-0.1,0-0.2-0.1-0.3-0.1c-0.5,0-0.8,0.4-0.8,0.9s0.4,0.9,0.8,0.9c0.5,0,0.8-0.4,0.8-0.9c0-0.2,0-0.3-0.1-0.4l0.7-0.9
						c0.1,0,0.2,0.1,0.3,0.1c0.2,0,0.4-0.1,0.5-0.2l1.9,1.3c0,0.1,0,0.1,0,0.2c0,0.5,0.4,0.9,0.8,0.9c0.5,0,0.8-0.4,0.8-0.9
						c0-0.1,0-0.2-0.1-0.3l1.1-1.1c0.1,0.1,0.3,0.1,0.4,0.1c0.5,0,0.8-0.4,0.8-0.9C26,302.4,25.6,302,25.2,302z"/>
					<path class="st9" d="M38.1,304.4h29.5c0.6,0,1.1,0.5,1.1,1.1l0,0c0,0.6-0.5,1.1-1.1,1.1H38.1c-0.6,0-1.1-0.5-1.1-1.1l0,0
						C37,304.9,37.5,304.4,38.1,304.4z"/>
				</g>
			</g>
			<g>
				<defs>
					<rect id="SVGID_35_" x="13.7" y="320.5" width="74.7" height="16.4"/>
				</defs>
				<clipPath id="SVGID_36_">
					<use xlink:href="#SVGID_35_"  style="overflow:visible;"/>
				</clipPath>
				<g class="st32">
					<path class="st24" d="M29.8,328.8c0,4.3-3.5,7.9-7.9,7.9s-7.9-3.5-7.9-7.9c0-4.3,3.5-7.9,7.9-7.9S29.8,324.4,29.8,328.8z"/>
					<path class="st14" d="M18.4,329.6h-0.9v3.4h0.9V329.6z"/>
					<path class="st14" d="M20.4,327.3h-0.9v5.7h0.9V327.3z"/>
					<path class="st14" d="M22.5,324h-0.9v9h0.9V324z"/>
					<path class="st14" d="M24.5,327.3h-0.9v5.7h0.9V327.3z"/>
					<path class="st14" d="M26.5,329.6h-0.9v3.4h0.9V329.6z"/>
					<path class="st9" d="M38.4,327.4H87c0.8,0,1.4,0.6,1.4,1.4l0,0c0,0.8-0.6,1.4-1.4,1.4H38.4c-0.8,0-1.4-0.6-1.4-1.4l0,0
						C37,328,37.6,327.4,38.4,327.4z"/>
				</g>
			</g>
		</g>
	</g>
	<g>
		<defs>
			<rect id="SVGID_37_" x="13.7" y="13.7" width="37" height="8.2"/>
		</defs>
		<clipPath id="SVGID_38_">
			<use xlink:href="#SVGID_37_"  style="overflow:visible;"/>
		</clipPath>
		<g class="st33">
			<path class="st34" d="M17.8,13.7L17.8,13.7c2.3,0,4.1,1.8,4.1,4.1v0c0,2.3-1.8,4.1-4.1,4.1l0,0c-2.3,0-4.1-1.8-4.1-4.1v0
				C13.7,15.5,15.5,13.7,17.8,13.7z"/>
			<path class="st35" d="M32.2,13.7L32.2,13.7c2.3,0,4.1,1.8,4.1,4.1v0c0,2.3-1.8,4.1-4.1,4.1l0,0c-2.3,0-4.1-1.8-4.1-4.1v0
				C28.1,15.5,29.9,13.7,32.2,13.7z"/>
			<path class="st36" d="M46.6,13.7L46.6,13.7c2.3,0,4.1,1.8,4.1,4.1v0c0,2.3-1.8,4.1-4.1,4.1h0c-2.3,0-4.1-1.8-4.1-4.1v0
				C42.4,15.5,44.3,13.7,46.6,13.7z"/>
		</g>
	</g>
	<path class="st37" d="M136.9,0h557.2c3.8,0,6.8,3.1,6.8,6.8v414.3c0,3.8-3.1,6.8-6.8,6.8H136.9V0z"/>
	<defs>
		<filter id="Adobe_OpacityMaskFilter" filterUnits="userSpaceOnUse" x="235" y="-200.7" width="501.6" height="436.2">
			<feColorMatrix  type="matrix" values="1 0 0 0 0  0 1 0 0 0  0 0 1 0 0  0 0 0 1 0"/>
		</filter>
	</defs>
	<mask maskUnits="userSpaceOnUse" x="235" y="-200.7" width="501.6" height="436.2" id="mask0_1_">
		<path class="st38" d="M136.9,0h557.2c3.8,0,6.8,3.1,6.8,6.8v414.3c0,3.8-3.1,6.8-6.8,6.8H136.9V0z"/>
	</mask>
	<g class="st39">
		
			<linearGradient id="SVGID_39_" gradientUnits="userSpaceOnUse" x1="268.8983" y1="482.5025" x2="636.5209" y2="249.3031" gradientTransform="matrix(1 0 0 -1 0 430)">
			<stop  offset="0" style="stop-color:#E1467C"/>
			<stop  offset="1" style="stop-color:#FF9CE3"/>
		</linearGradient>
		<path class="st40" d="M650.5,156.6c26.2-64.2,69.6-174.5-42.6-238.7s-164.3-23.1-213.3-4.2c-49,18.9-170.2,31.3-152,107.8
			S264.9,231.9,352,231.9c87.1,0,75.4-36.3,131.4-42.7C539.3,182.8,624.3,220.7,650.5,156.6z"/>
		<path class="st41" d="M650.5,156.6c26.2-64.2,69.6-174.5-42.6-238.7s-164.3-23.1-213.3-4.2c-49,18.9-170.2,31.3-152,107.8
			S264.9,231.9,352,231.9c87.1,0,75.4-36.3,131.4-42.7C539.3,182.8,624.3,220.7,650.5,156.6z"/>
		<g>
			
				<linearGradient id="SVGID_40_" gradientUnits="userSpaceOnUse" x1="693.7515" y1="280.2073" x2="275.1107" y2="512.186" gradientTransform="matrix(1 0 0 -1 0 430)">
				<stop  offset="0" style="stop-color:#E0695B"/>
				<stop  offset="1" style="stop-color:#3913B8"/>
			</linearGradient>
			<path class="st42" d="M261.3-54.8c-24.6,72.1-65,196.1,62.3,259.2C450.9,267.5,505.4,219,558,195c52.6-24,184.8-45.4,159.8-128.2
				C692.8-16,679.6-162.6,584-156.9c-95.6,5.7-80.4,44.7-141.4,55.4C381.7-90.8,285.9-126.9,261.3-54.8z"/>
		</g>
		<g class="st43">
			
				<linearGradient id="SVGID_41_" gradientUnits="userSpaceOnUse" x1="694.1113" y1="296.1469" x2="284.1883" y2="523.2951" gradientTransform="matrix(1 0 0 -1 0 430)">
				<stop  offset="0" style="stop-color:#FF5A3D"/>
				<stop  offset="1" style="stop-color:#2FB8FF"/>
			</linearGradient>
			<path class="st44" d="M270.7-66.5c-24.1,70.6-63.7,192,61,253.8c124.6,61.8,178.1,14.3,229.5-9.1c51.5-23.5,181-44.5,156.5-125.5
				c-24.5-81.1-37.4-224.6-131-219.1c-93.6,5.6-78.7,43.8-138.5,54.3S294.8-137.1,270.7-66.5z"/>
		</g>
		<g class="st45">
			
				<linearGradient id="SVGID_42_" gradientUnits="userSpaceOnUse" x1="681.8129" y1="302.9147" x2="311.8999" y2="507.8921" gradientTransform="matrix(1 0 0 -1 0 430)">
				<stop  offset="0" style="stop-color:#FF5A3D"/>
				<stop  offset="1" style="stop-color:#2FB8FF"/>
			</linearGradient>
			<path class="st46" d="M300-54.2c-21.1,62.6-55.7,170.1,56.7,226c112.4,55.9,160,14.1,206.1-6.4c46-20.5,162.2-38.1,139.6-110.3
				S667.1-144.8,583-140.6c-84,4.2-70.4,38.3-123.9,47.2C405.5-84.6,321.1-116.7,300-54.2z"/>
		</g>
		<g>
			
				<linearGradient id="SVGID_43_" gradientUnits="userSpaceOnUse" x1="704.0086" y1="315.1812" x2="280.4676" y2="549.8763" gradientTransform="matrix(1 0 0 -1 0 430)">
				<stop  offset="0" style="stop-color:#FF6C6C"/>
				<stop  offset="1" style="stop-color:#2FB8FF"/>
			</linearGradient>
			<path class="st47" d="M266.5-92.2c-24.9,73-65.8,198.3,63,262.2s184,14.8,237.1-9.4s187-45.9,161.7-129.7
				C703.1-52.9,689.7-201.2,593-195.5c-96.7,5.7-81.4,45.2-143.1,56.1C388.3-128.6,291.4-165.1,266.5-92.2z"/>
		</g>
	</g>
	<path class="st48" d="M555.4,26.7c5.3,0,9.6-4.3,9.6-9.6s-4.3-9.6-9.6-9.6c-5.3,0-9.6,4.3-9.6,9.6S550.1,26.7,555.4,26.7z"/>
	<g>
		<defs>
			<rect id="SVGID_44_" x="548" y="12" width="15" height="10"/>
		</defs>
		<clipPath id="SVGID_45_">
			<use xlink:href="#SVGID_44_"  style="overflow:visible;"/>
		</clipPath>
		<g class="st49">
			<path class="st50" d="M556.6,21.6h-2.3v0L556.6,21.6L556.6,21.6z"/>
			<path class="st51" d="M563,21.3H548c-0.1,0.5,0.1,0.7,0.6,0.7h0.3c0.2,0,0.4,0,0.6,0c4.3,0,8.6,0,12.9,0
				C562.9,22,563.1,21.8,563,21.3z M556.8,21.6c0,0,0,0.1,0,0.1h-2.7c0,0,0,0,0-0.1c0,0,0,0,0-0.1c0,0,0-0.1,0-0.1h2.7
				C556.8,21.6,556.8,21.6,556.8,21.6z"/>
			<path class="st52" d="M555,16.4c0-0.2-0.1-0.5-0.2-0.7c-0.2-0.7-0.6-1.4-1.2-2c-0.4-0.4-0.9-0.8-1.6-1.1c0,0,0.1,0.1,0.1,0.2
				l0.1,0.2c0.1,0.1,0.1,0.2,0.2,0.3c0.1,0.3,0.2,0.6,0.3,0.9c0,0,0,0,0,0c0,0,0-0.1-0.1-0.1c-0.1-0.2-0.2-0.3-0.4-0.4
				c-0.4-0.4-0.9-0.8-1.5-1c-0.5-0.2-1-0.3-1.5-0.3h-0.1c0,0,0.1,0.1,0.2,0.1c0.2,0.2,0.5,0.4,0.7,0.7c0.5,0.6,0.6,1.1,0.6,1.1
				c0,0,0,0,0,0c0,0-0.1-0.2-0.4-0.5c-0.1-0.1-0.3-0.2-0.5-0.4c-0.1,0-0.1-0.1-0.2-0.1c-0.2-0.1-0.4-0.2-0.6-0.2c0,0.4,0,0.9,0,1.3
				c0,0.8,0,2.4,0,3.8c0,0.2,0,0.3,0,0.5c0.1,0,0.2,0,0.2-0.1c0.1,0,0.2-0.1,0.3-0.1c0.4-0.2,0.9-0.4,1.2-0.8c0.4-0.3,0.7-0.6,1-0.9
				c0.3-0.2,0.6-0.4,1-0.5c0.2-0.1,0.5-0.1,0.7-0.1c0.3,0,0.5,0,0.8,0.1c0.3,0.1,0.5,0.2,0.8,0.3C555,16.5,555,16.4,555,16.4z
				 M550.4,14.5C550.4,14.5,550.4,14.4,550.4,14.5L550.4,14.5c-0.1-0.1-0.1-0.2-0.1-0.2c0,0,0-0.1-0.1-0.1c-0.1-0.1-0.2-0.2-0.3-0.3
				c-0.1-0.1-0.2-0.2-0.4-0.3c-0.1-0.1-0.3-0.2-0.4-0.3c0.2,0,0.3,0.1,0.4,0.2c0.1,0.1,0.3,0.2,0.4,0.3c0.1,0.1,0.2,0.2,0.3,0.4
				c0,0,0,0.1,0.1,0.1s0,0.1,0.1,0.1L550.4,14.5C550.4,14.4,550.4,14.4,550.4,14.5C550.5,14.5,550.5,14.5,550.4,14.5
				C550.5,14.5,550.4,14.5,550.4,14.5z M550.3,12.7c0.2,0.1,0.4,0.1,0.6,0.3c0.2,0.1,0.4,0.2,0.6,0.4c0,0,0.1,0.1,0.1,0.1
				c0,0,0,0,0.1,0.1c0,0,0,0,0.1,0.1c0.1,0.1,0.2,0.2,0.2,0.3c0.1,0.2,0.3,0.4,0.4,0.6c-0.1-0.1-0.1-0.2-0.2-0.3c0,0,0,0-0.1-0.1
				s0,0-0.1-0.1c0,0,0,0-0.1-0.1l-0.1-0.1c-0.1-0.1-0.2-0.2-0.2-0.2c-0.1-0.1-0.2-0.1-0.3-0.2c-0.2-0.1-0.4-0.3-0.6-0.4
				C550.7,13,550.5,12.8,550.3,12.7z M551.7,15.6c-0.2-0.1-0.1,0.8-0.1,0.8c-0.2-0.1-0.2-0.3-0.2-0.3s-0.3-0.7,0.2-0.8
				c0.2,0,0.3,0,0.5,0.1c0.2,0.1,0.3,0.2,0.4,0.3C552.2,15.7,551.7,15.6,551.7,15.6z M553.8,14.4c-0.1-0.1-0.2-0.3-0.3-0.4
				c-0.1-0.1-0.2-0.3-0.4-0.4l-0.4-0.4c0.2,0.1,0.3,0.2,0.4,0.3c0.1,0.1,0.3,0.2,0.4,0.4c0,0,0.1,0.1,0.1,0.1l0,0.1l0,0.1
				c0,0,0.1,0.1,0.1,0.1C553.8,14.3,553.9,14.3,553.8,14.4c0.2,0.1,0.3,0.3,0.3,0.5C554,14.7,553.9,14.5,553.8,14.4z"/>
			<path class="st51" d="M561.9,12.9c0-0.7-0.2-0.9-0.9-0.9c-1.9,0-3.7,0-5.6,0c-1.5,0-2.9,0-4.4,0l-1.3,0c-0.1,0-0.1,0-0.2,0
				c0,0,0,0.1,0.1,0.2c0.4,0,0.8,0.1,1.1,0.3c0.1,0,0.2,0.1,0.3,0.1h0.7c0,0,0,0,0-0.1l0,0c0,0,0,0,0-0.1c0,0,0,0,0,0c0,0,0,0,0,0
				c0,0,0,0,0.1,0c0.2,0.1,0.3,0.1,0.5,0.2h9v7.7h-11.9c0,0,1-0.1,1.6-0.9c0,0,0.4,0.3,0.4,0.3c0.5,0.2,1,0.3,1.5,0.3
				c0.5,0,1.1-0.1,1.6-0.3c-0.1,0-0.3,0-0.4,0c-0.3,0-0.6,0-0.9-0.1c-0.1,0-0.2-0.1-0.4-0.1c0,0,0,0,0,0c0,0,0,0,0,0c0,0,0,0,0,0
				c0,0,0,0,0,0c0,0,0,0,0,0c0,0,0,0,0,0c0,0,0,0,0,0c0,0,0,0,0,0l0,0l0,0l0,0c0,0,0,0,0.1,0c0.1,0,0.1,0.1,0.2,0.1
				c0.3,0.1,0.5,0.1,0.8,0.1c0.2,0,0.5,0,0.7-0.1c0.3-0.1,0.5-0.3,0.7-0.5c0,0,0,0,0,0c0,0,0,0,0,0l0,0c-0.1,0-0.1-0.1-0.1-0.2
				c-0.1-0.1-0.1-0.3-0.1-0.4l0.1,0l-0.1,0c0,0,0-0.1,0-0.1c0-0.1,0-0.2,0.1-0.3c-0.2-0.1-0.3-0.2-0.5-0.4c-0.2-0.2-0.3-0.3-0.4-0.5
				c-0.1-0.2-0.2-0.4-0.3-0.6c-0.1,0-0.1,0-0.2-0.1c-0.2-0.1-0.5-0.1-0.7-0.1c-0.2,0-0.4,0-0.7,0.1c-0.2,0.1-0.4,0.2-0.6,0.3
				c-0.4,0.3-0.8,0.6-1.3,1.1c-0.2,0.2-0.5,0.4-0.7,0.6c0,0.1,0,0.1-0.1,0.2c-0.3,0.6-0.8,0.7-1,0.7c-0.1,0-0.1,0.4-0.1,0.4V20
				c0,0.7,0.2,0.9,0.9,0.9h1.4c0.4,0,0.7,0,1.1,0c2.9,0,5.9,0,8.8,0c0.7,0,0.9-0.2,0.9-0.9C562,17.6,562,15.3,561.9,12.9z
				 M553.2,17.7C553.2,17.7,553.2,17.6,553.2,17.7c0.1-0.1,0.1-0.2,0.1-0.2c0,0,0.1-0.1,0.1-0.1c0.1,0,0.2-0.1,0.3-0.1
				c0.1,0,0.1,0,0.2,0c0,0,0,0,0.1,0c0,0,0,0,0,0.1c0,0,0,0,0,0.1c0,0,0,0-0.1,0c0,0-0.1,0-0.1,0c0,0-0.1,0-0.1,0c0,0-0.1,0-0.1,0.1
				c0,0-0.1,0.1-0.1,0.1c0,0,0,0,0,0l0,0c0,0,0,0,0,0c0,0,0,0,0,0c0,0,0,0,0,0c0,0,0,0,0,0c0,0,0,0,0,0
				C553.2,17.8,553.2,17.8,553.2,17.7C553.2,17.8,553.2,17.7,553.2,17.7C553.2,17.7,553.2,17.7,553.2,17.7L553.2,17.7z"/>
			<path class="st52" d="M555.6,18.6c0,0.1,0.1,0.1,0.1,0.2c0,0,0,0.1,0.1,0.1c0,0,0,0,0.1,0c0,0,0,0,0.1,0c0,0,0,0,0.1,0
				c0,0,0.1,0,0.1-0.1c0,0,0.1-0.1,0.1-0.1c0-0.1,0.1-0.2,0.1-0.3c0-0.1,0-0.1,0-0.2c0-0.1,0-0.1-0.1-0.2c0,0,0,0,0-0.1c0,0,0,0,0,0
				c0,0,0,0-0.1,0c0,0-0.1,0-0.1,0c0,0-0.1,0-0.1,0.1c-0.1,0-0.1,0.1-0.1,0.1c0,0,0,0.1,0,0.2c0,0,0,0,0,0.1
				C555.6,18.4,555.6,18.5,555.6,18.6L555.6,18.6z"/>
		</g>
	</g>
	<path class="st14" d="M575.7,20.3c1.8,0,2.9-1.1,2.9-2.7v-4.7h-1.1v4.7c0,1-0.7,1.8-1.8,1.8c-1.2,0-1.8-0.7-1.8-1.8v-4.7h-1.1v4.7
		C572.8,19.2,573.9,20.3,575.7,20.3z M580.3,21.9h1.1v-2.7h0.1c0.3,0.6,0.9,1,1.7,1c1.4,0,2.3-1.1,2.3-2.8v0c0-1.7-0.9-2.8-2.3-2.8
		c-0.8,0-1.4,0.4-1.7,1h-0.1v-0.9h-1.1V21.9z M582.8,19.3c-0.9,0-1.5-0.7-1.5-1.9v0c0-1.2,0.6-1.9,1.5-1.9c0.9,0,1.5,0.7,1.5,1.9v0
		C584.3,18.6,583.7,19.3,582.8,19.3z M587.3,13.7c0.4,0,0.7-0.3,0.7-0.7c0-0.4-0.3-0.7-0.7-0.7c-0.4,0-0.7,0.3-0.7,0.7
		C586.6,13.4,586.9,13.7,587.3,13.7z M586.7,20.1h1.1v-5.4h-1.1V20.1z M589.4,20.1h1.1v-3.2c0-0.9,0.5-1.4,1.3-1.4
		c0.8,0,1.2,0.4,1.2,1.3v3.3h1.1v-3.5c0-1.3-0.7-2-1.9-2c-0.8,0-1.3,0.4-1.6,0.9h-0.1v-0.8h-1.1V20.1z M597.8,20.2
		c1.4,0,2.1-0.8,2.3-1.5l0,0l-1,0l0,0c-0.1,0.3-0.5,0.6-1.2,0.6c-0.9,0-1.5-0.6-1.5-1.6h3.9v-0.4c0-1.6-0.9-2.7-2.5-2.7
		c-1.5,0-2.5,1.1-2.5,2.8v0C595.3,19.1,596.2,20.2,597.8,20.2z M597.8,15.5c0.7,0,1.3,0.5,1.4,1.4h-2.8
		C596.5,16,597.1,15.5,597.8,15.5z M603.9,20.1h1.2l0.7-2h2.8l0.7,2h1.2l-2.6-7.2h-1.2L603.9,20.1z M607.1,14.2L607.1,14.2l1.1,3.1
		H606L607.1,14.2z M611.5,21.9h1.1v-2.7h0.1c0.3,0.6,0.9,1,1.7,1c1.4,0,2.3-1.1,2.3-2.8v0c0-1.7-0.9-2.8-2.3-2.8
		c-0.8,0-1.4,0.4-1.7,1h-0.1v-0.9h-1.1V21.9z M614,19.3c-0.9,0-1.5-0.7-1.5-1.9v0c0-1.2,0.6-1.9,1.5-1.9c0.9,0,1.5,0.7,1.5,1.9v0
		C615.5,18.6,614.9,19.3,614,19.3z M617.9,21.9h1.1v-2.7h0.1c0.3,0.6,0.9,1,1.7,1c1.4,0,2.3-1.1,2.3-2.8v0c0-1.7-0.9-2.8-2.3-2.8
		c-0.8,0-1.4,0.4-1.7,1H619v-0.9h-1.1V21.9z M620.4,19.3c-0.9,0-1.5-0.7-1.5-1.9v0c0-1.2,0.6-1.9,1.5-1.9c0.9,0,1.5,0.7,1.5,1.9v0
		C621.9,18.6,621.3,19.3,620.4,19.3z M626.3,20.2c1.3,0,2.3-0.7,2.3-1.7v0c0-0.8-0.5-1.2-1.5-1.5l-0.9-0.2c-0.6-0.1-0.9-0.4-0.9-0.7
		v0c0-0.4,0.4-0.7,1-0.7c0.6,0,1,0.3,1.1,0.7v0h1v0c-0.1-0.9-0.9-1.5-2.1-1.5c-1.2,0-2.1,0.7-2.1,1.6v0c0,0.8,0.5,1.3,1.5,1.5
		l0.9,0.2c0.6,0.1,0.9,0.4,0.9,0.7v0c0,0.4-0.5,0.8-1.1,0.8c-0.6,0-1-0.3-1.2-0.7l0,0H624v0C624.1,19.6,625,20.2,626.3,20.2z"/>
	<path class="st14" d="M650,19.9c0.2,0,0.3-0.1,0.4-0.2l3.3-3.4c0.1-0.1,0.1-0.2,0.1-0.4c0-0.3-0.2-0.5-0.5-0.5
		c-0.1,0-0.3,0.1-0.4,0.2l-3,3l-3-3c-0.1-0.1-0.2-0.2-0.4-0.2c-0.3,0-0.5,0.2-0.5,0.5c0,0.1,0.1,0.3,0.1,0.4l3.3,3.4
		C649.7,19.8,649.8,19.9,650,19.9z"/>
	<path class="st8" d="M159.6,62.1h133.3c1.2,0,2.2,1,2.2,2.2v4c0,1.2-1,2.2-2.2,2.2H159.6c-1.2,0-2.2-1-2.2-2.2v-4
		C157.5,63.1,158.4,62.1,159.6,62.1z"/>
	<path class="st8" d="M159.6,81.6h59.6c1.2,0,2.2,1,2.2,2.2v4c0,1.2-1,2.2-2.2,2.2h-59.6c-1.2,0-2.2-1-2.2-2.2v-4
		C157.5,82.6,158.4,81.6,159.6,81.6z"/>
	<path class="st9" d="M158.8,101.1h126.6c0.8,0,1.4,0.6,1.4,1.4v0c0,0.8-0.6,1.4-1.4,1.4H158.8c-0.8,0-1.4-0.6-1.4-1.4v0
		C157.5,101.7,158.1,101.1,158.8,101.1z"/>
	<path class="st9" d="M158.8,115H252c0.8,0,1.4,0.6,1.4,1.4v0c0,0.8-0.6,1.4-1.4,1.4h-93.2c-0.8,0-1.4-0.6-1.4-1.4v0
		C157.5,115.6,158.1,115,158.8,115z"/>
	<path class="st9" d="M158.8,128.9h109.9c0.8,0,1.4,0.6,1.4,1.4l0,0c0,0.8-0.6,1.4-1.4,1.4H158.8c-0.8,0-1.4-0.6-1.4-1.4l0,0
		C157.5,129.5,158.1,128.9,158.8,128.9z"/>
	<g>
		<defs>
			<rect id="SVGID_46_" x="563.4" y="48.6" width="123.9" height="67.6"/>
		</defs>
		<clipPath id="SVGID_47_">
			<use xlink:href="#SVGID_46_"  style="overflow:visible;"/>
		</clipPath>
		<g class="st53">
			<path class="st8" d="M565.6,48.6h41c1.2,0,2.2,1,2.2,2.2v0c0,1.2-1,2.2-2.2,2.2h-41c-1.2,0-2.2-1-2.2-2.2v0
				C563.4,49.6,564.4,48.6,565.6,48.6z"/>
			<path class="st9" d="M564.8,58.6H658c0.8,0,1.4,0.6,1.4,1.4v0c0,0.8-0.6,1.4-1.4,1.4h-93.2c-0.8,0-1.4-0.6-1.4-1.4v0
				C563.4,59.2,564,58.6,564.8,58.6z"/>
			<g>
				<path class="st54" d="M570.3,66.9h110.2c3.8,0,6.8,3.1,6.8,6.8v35.6c0,3.8-3.1,6.8-6.8,6.8H570.3c-3.8,0-6.8-3.1-6.8-6.8V73.8
					C563.4,70,566.5,66.9,570.3,66.9z"/>
				<path class="st2" d="M585.3,105.2c7.6,0,13.7-6.1,13.7-13.7c0-7.6-6.1-13.7-13.7-13.7s-13.7,6.1-13.7,13.7
					C571.6,99.1,577.8,105.2,585.3,105.2z"/>
				<g>
					<defs>
						<rect id="SVGID_48_" x="576" y="82" width="18" height="18"/>
					</defs>
					<clipPath id="SVGID_49_">
						<use xlink:href="#SVGID_48_"  style="overflow:visible;"/>
					</clipPath>
					<g class="st55">
						<path class="st6" d="M577.5,91.6l4.6,4.6"/>
						<path class="st6" d="M582.1,96.2l10.4-10.4"/>
					</g>
				</g>
				<g>
					<defs>
						<rect id="SVGID_50_" x="605.9" y="79.5" width="73.3" height="24"/>
					</defs>
					<clipPath id="SVGID_51_">
						<use xlink:href="#SVGID_50_"  style="overflow:visible;"/>
					</clipPath>
					<g class="st56">
						<path class="st14" d="M609.2,89.7c1.7,0,2.8-0.9,2.8-2.2v0c0-1.1-0.6-1.7-2.1-2l-0.8-0.2c-0.9-0.2-1.3-0.6-1.3-1.1v0
							c0-0.7,0.6-1.1,1.5-1.1c0.9,0,1.4,0.4,1.5,1l0,0.1h1.1l0-0.1c-0.1-1.1-1.1-2-2.6-2s-2.6,0.9-2.6,2.1v0c0,1.1,0.6,1.8,2.1,2.1
							l0.8,0.2c1,0.2,1.3,0.6,1.3,1.1v0c0,0.7-0.7,1.1-1.6,1.1c-1,0-1.7-0.4-1.7-1.1l0-0.1h-1.1l0,0.1
							C606.5,88.9,607.6,89.7,609.2,89.7z M615.4,89.6c0.2,0,0.4,0,0.6-0.1v-0.9c-0.1,0-0.2,0-0.4,0c-0.5,0-0.8-0.2-0.8-0.8V85h1.2
							v-0.9h-1.2v-1.4h-1.1v1.4h-0.9V85h0.9v3.2C613.7,89.2,614.2,89.6,615.4,89.6z M618.7,89.6c0.7,0,1.3-0.3,1.6-0.9h0.1v0.8h1.1
							v-3.7c0-1.1-0.8-1.8-2.1-1.8c-1.2,0-2.1,0.6-2.2,1.5l0,0h1l0,0c0.1-0.4,0.5-0.6,1.1-0.6c0.7,0,1.1,0.3,1.1,0.9v0.5l-1.5,0.1
							c-1.3,0.1-2,0.6-2,1.6v0C616.9,89,617.7,89.6,618.7,89.6z M618,88L618,88c0-0.5,0.3-0.8,1.1-0.8l1.3-0.1v0.5
							c0,0.7-0.6,1.2-1.4,1.2C618.4,88.8,618,88.5,618,88z M625.1,89.6c0.2,0,0.4,0,0.6-0.1v-0.9c-0.2,0-0.2,0-0.4,0
							c-0.5,0-0.8-0.2-0.8-0.8V85h1.2v-0.9h-1.2v-1.4h-1.1v1.4h-0.9V85h0.9v3.2C623.4,89.2,623.9,89.6,625.1,89.6z M628.8,89.7
							c0.8,0,1.3-0.3,1.6-0.9h0.1v0.8h1.1v-5.4h-1.1v3.2c0,0.9-0.5,1.4-1.3,1.4c-0.8,0-1.1-0.4-1.1-1.3v-3.3h-1.1v3.5
							C626.9,88.9,627.5,89.7,628.8,89.7z M635.1,89.7c1.3,0,2.3-0.7,2.3-1.7v0c0-0.8-0.5-1.2-1.5-1.5l-0.9-0.2
							c-0.6-0.1-0.9-0.4-0.9-0.7v0c0-0.4,0.4-0.7,1-0.7c0.6,0,1,0.3,1.1,0.7v0h1v0c-0.1-0.9-0.9-1.5-2.1-1.5c-1.2,0-2.1,0.7-2.1,1.6
							v0c0,0.8,0.5,1.3,1.5,1.5l0.9,0.2c0.6,0.1,0.9,0.4,0.9,0.7v0c0,0.4-0.5,0.8-1.1,0.8c-0.6,0-1-0.3-1.2-0.7l0,0h-1.1v0
							C632.9,89,633.8,89.7,635.1,89.7z"/>
						<path class="st9" d="M607.2,94.6h43.1c0.8,0,1.4,0.6,1.4,1.4v0c0,0.8-0.6,1.4-1.4,1.4h-43.1c-0.8,0-1.4-0.6-1.4-1.4v0
							C605.9,95.2,606.5,94.6,607.2,94.6z"/>
						<g>
							<defs>
								<path id="SVGID_52_" d="M607.6,100.1h65c0.9,0,1.7,0.8,1.7,1.7l0,0c0,0.9-0.8,1.7-1.7,1.7h-65c-0.9,0-1.7-0.8-1.7-1.7l0,0
									C605.9,100.9,606.6,100.1,607.6,100.1z"/>
							</defs>
							<clipPath id="SVGID_53_">
								<use xlink:href="#SVGID_52_"  style="overflow:visible;"/>
							</clipPath>
							<g class="st57">
								<path class="st11" d="M607.6,100.1h65c0.9,0,1.7,0.8,1.7,1.7l0,0c0,0.9-0.8,1.7-1.7,1.7h-65c-0.9,0-1.7-0.8-1.7-1.7l0,0
									C605.9,100.9,606.6,100.1,607.6,100.1z"/>
								<path class="st12" d="M607.6,100.8h39c0.6,0,1,0.5,1,1l0,0c0,0.6-0.5,1-1,1h-39c-0.6,0-1-0.5-1-1l0,0
									C606.5,101.3,607,100.8,607.6,100.8z"/>
							</g>
						</g>
					</g>
				</g>
			</g>
		</g>
	</g>
	<rect x="136.9" y="34.2" class="st58" width="564.1" height="0.3"/>
	<rect y="372.5" class="st59" width="136.9" height="0.7"/>
	<path class="st11" d="M147.9,7.5h19.9c1.5,0,2.7,1.2,2.7,2.7V24c0,1.5-1.2,2.7-2.7,2.7h-19.9c-1.5,0-2.7-1.2-2.7-2.7V10.3
		C145.1,8.8,146.4,7.5,147.9,7.5z"/>
	<path class="st14" d="M154.1,21.6h7.4c0.9,0,1.4-0.5,1.4-1.4v-5.3c0-0.9-0.5-1.4-1.4-1.4h-7.4c-0.9,0-1.4,0.5-1.4,1.4v5.3
		C152.6,21.1,153.1,21.6,154.1,21.6z M154.1,20.7c-0.4,0-0.6-0.2-0.6-0.6v-5.1c0-0.4,0.2-0.6,0.6-0.6h2v6.4H154.1z M161.5,14.3
		c0.4,0,0.6,0.2,0.6,0.6v5.1c0,0.4-0.2,0.6-0.6,0.6h-4.5v-6.4H161.5z M155.3,15.9c0.2,0,0.3-0.1,0.3-0.3c0-0.1-0.1-0.3-0.3-0.3h-0.9
		c-0.2,0-0.3,0.1-0.3,0.3c0,0.1,0.1,0.3,0.3,0.3H155.3z M155.3,17.1c0.2,0,0.3-0.1,0.3-0.3c0-0.1-0.1-0.3-0.3-0.3h-0.9
		c-0.2,0-0.3,0.1-0.3,0.3c0,0.2,0.1,0.3,0.3,0.3H155.3z M155.3,18.2c0.2,0,0.3-0.1,0.3-0.3c0-0.1-0.1-0.3-0.3-0.3h-0.9
		c-0.2,0-0.3,0.1-0.3,0.3c0,0.2,0.1,0.3,0.3,0.3H155.3z"/>
	<path class="st11" d="M672.3,7.5H690c1.5,0,2.7,1.2,2.7,2.7V24c0,1.5-1.2,2.7-2.7,2.7h-17.8c-1.5,0-2.7-1.2-2.7-2.7V10.3
		C669.5,8.8,670.7,7.5,672.3,7.5z"/>
	<path class="st14" d="M681.1,22c2.5,0,4.5-2,4.5-4.5c0-2.5-2-4.5-4.5-4.5c-2.5,0-4.5,2-4.5,4.5C676.7,20,678.7,22,681.1,22z
		 M681.1,21.1c-2,0-3.6-1.6-3.6-3.6c0-2,1.6-3.6,3.6-3.6c2,0,3.6,1.6,3.6,3.6C684.7,19.5,683.1,21.1,681.1,21.1z M681,18.4
		c0.2,0,0.4-0.1,0.4-0.3c0,0,0,0,0-0.1c0-0.2,0.2-0.4,0.4-0.6c0.4-0.3,0.7-0.5,0.7-1c0-0.7-0.7-1.1-1.4-1.1c-0.7,0-1.3,0.3-1.4,0.7
		c0,0.1,0,0.2,0,0.2c0,0.2,0.2,0.3,0.4,0.3c0.3,0,0.3-0.1,0.4-0.3c0.1-0.2,0.3-0.3,0.6-0.3c0.3,0,0.6,0.2,0.6,0.5
		c0,0.3-0.2,0.4-0.6,0.7c-0.3,0.2-0.5,0.4-0.5,0.8v0C680.6,18.2,680.8,18.4,681,18.4z M681,19.7c0.3,0,0.5-0.2,0.5-0.5
		c0-0.3-0.2-0.5-0.5-0.5c-0.3,0-0.5,0.2-0.5,0.5C680.5,19.5,680.8,19.7,681,19.7z"/>
</g>
</svg>
