<?xml version="1.0" encoding="utf-8"?>
<!-- Generator: Adobe Illustrator 27.0.1, SVG Export Plug-In . SVG Version: 6.00 Build 0)  -->
<svg version="1.1" id="Layer_1" xmlns="http://www.w3.org/2000/svg" xmlns:xlink="http://www.w3.org/1999/xlink" x="0px" y="0px"
	 viewBox="0 0 817.1 606.5" style="enable-background:new 0 0 817.1 606.5;" xml:space="preserve">
<g>
	<g>
		<g>
			<path d="M205.4,387c-1.4-2.1-0.9,1.2-0.4,4l2.9,1.4C207.1,390.7,206.2,388.8,205.4,387z"/>
			<path d="M210.5,399.6c1.7,1.7,3.3,3.4,5,5c-1.1-1.3-2.1-2.6-3.2-3.8c-1.5-5.3,2.3-0.4,3.6,1.2
				C211.5,394.4,212.3,400.3,210.5,399.6z"/>
			<path d="M218.4,410.5c2.1,3.8,2.7,2,2.1,0.3C219.8,410.9,217.8,408.8,218.4,410.5z"/>
			<path d="M450.6,518.4c-1.3,0-2.8,0.1-2.6-0.3C446.7,518.7,446.4,519.1,450.6,518.4z"/>
			<path d="M448,518c0.2-0.1,0.5-0.3,0.8-0.4c-0.3,0.1-0.5,0.2-0.8,0.3C447.9,517.9,448,518,448,518z"/>
			<path d="M362.3,501.4c-4.7,0.1-7.1-1.2-11.5-1.9l-1.9-2.3c-4.7-0.8-2.4,0.8-6,0.7c-3.8-2.3-12.7-4.5-14.6-5.4
				c-1-1.3,2.1-0.4,2.9-0.6c-5.4-1.5-5.7,0.2-12-2.6l0.1-0.5c-8.1-2.3-16.7-6.4-25.2-11.3c-8.4-4.9-16.6-10.6-24.3-16.1
				c0.9,0.9,0.4,1,0.6,1.5c-7.9-6.1-15.7-13.5-23-20.7c-7.3-7.2-14-14.4-20.2-19.9c3.3,4.4,7.2,10.8,11.7,16.7
				c4.6,5.9,9.8,11.4,14.8,14.2c2.1,3.8,8,6.9,8.1,9.3c5.8,5.6,10.6,8.6,15.4,11.4c4.9,2.7,9.8,5.2,16.3,9.2
				c1.7,1.4,0.4,1.6,0.5,2.6c-3.6-1.9-7.2-3.8-10.7-5.9c1.9,1.6,3.9,3.2,5.9,4.7c-3.2-1-9.4-6-11-5.3c4.9,2.4,10.8,6.2,16.8,9.5
				c5.9,3.3,12,6.2,16.7,7.2c-3.8-2.2-8.9-4.3-13.3-7c-1.7-1.6-4.5-3.8-3.9-4.4c6.9,2.8,12.9,5.6,19.1,8.4
				c6.1,2.8,12.3,5.5,19.5,7.7c3.6,1.1,8.4,2.8,8.8,3.7c-2.4-0.5-0.9,0.7-2.9,0.5c5.3,0.9,1.4-2.6,8.7-0.2l-1.7,2.5
				c3.7-2.1,9,3,14.8,2.4c1.7,1.5-2,1.5-6.2,0.6c4.6,1.6,5.4,0,9.1,0.8l-4.1,1.7c4.5-1.4,7.2,1.8,9.4,3c0.4-0.6-1.5-2.7,3.6-1.8
				c2.1,0.6,0.9,1.1,1.4,1.5c0.4-0.6,2.4-1.4,5.7-1.1c0.5,0.9-2.4,1-2.7,1.8c2.6,0.3,4.7,0.3,6.5,1.2c4.6-0.3-0.2-1.2,2.7-1.8
				c6.9,1.1,0.5,2.9,3,4.8c-5.4,0.8-12.4,0.4-15.4,0.6c3.5,0.2,6.9,0.4,10.4,0.5c-0.7,0.9,6.9,2.2,1.3,2.7c10.4,1.8,23.1,0.8,33-0.7
				c-1.4-0.2-3.3-0.3-3-1c5.1-0.9,4.6,0.3,5.7,0.9c3.8-1,3.2-2.6,5.4-4c7.9,0.5,8.9-0.5,15.8,0.3l-0.7-1.6c4.9,0.5,5.1-2.1,10.2-2.3
				c0.4,0.3-1.4,1.1-2.9,1.8c4.3-1.5,4.4,0.5,8.5-1.2l-3,2.6c3.4-0.9,8.3-2.8,7-0.8c5.5-3.4,16.1-6,22.8-9.9l0,1.5
				c1.5-1.5,5-2.9,8.2-4.4c3.3-1.5,6.5-3.1,7.5-4.8l0.8,0.3c2.1-1.7,4.1-3.5,6.1-5.3c3.2-1.6,3.2,0.9,3.1,0.2
				c6.7-4.2,11.8-7.6,16.4-9.8c0-2.3,6.5-7.4,11.4-11.6c12.7-9.2,24.4-20.8,34-33.6c9.7-12.7,17.3-26.5,22.9-39.9
				c1.9-3.9,2.5-10.1,3.7-15.4c-3,5.8-2.4,6.7-5.2,12.5c-2.6,4.1-5.2,4.7-8.3,7.6l2.4-1c-2,6.3-2.9,3.4-4.1,8.6l-2.1-1.5
				c0.2,2.2-3.1,5.4-4.7,6.6l0.6,2.4c-3.1,2.8-5,4.6-7,4.7l1.6,0.7c-0.9,0.3-3.1,3.4-5.2,5.7c-2,2.3-3.8,3.8-3.4,1.1
				c-0.4,1.1-0.4,2.5-2.2,4.3l-1.5-0.8c-2,3-4.5,6.2-5.9,6.4c1-1.7,0.9-2.7,0.8-3.6c-5.2,5.5-4.9,6.9-4.3,8.4
				c0.6,1.4,1.4,2.8-3.5,7.6l-0.6-0.9l-1.8,3.2l-3.6,1.4c-0.6,3-4.4,6.1-8.7,9.1c-4.3,3-9.2,5.9-12.2,9c-2.6,2.1-7.3,2.6-12.6,5.9
				l1.2,1.2c-2.6,0.5-8.1,2.8-13.8,4.5c-5.6,1.7-11.4,2.9-14.3,1.9c-3.8,2.9,0.6,0.1,1,1.4c-7.8,5-9.3,2.6-14,3.2
				c-5,2.5,4.2-0.7,1.8,1.4c-4.2,0.8-5.7,1.7-7.5,2.8c-1.7,1.1-3.8,2.2-9,3c-1.2-0.7,2.5-1.3,3.4-2.2c-3.3,1.8-8.5,3.2-14.2,4.2
				c-5.7,1.1-11.8,1.8-17.3,2.5c-6.3,0.1-14.1,0.1-22.2-0.4c-8-0.5-16.3-1.5-23.4-3.2l-0.3,0.6c-5.8-2.3-12.5-1.9-19.2-4.1
				L362.3,501.4z"/>
			<path d="M274.2,478.7l0.2,1.9c2.1,1.2,4.3,2.3,6.5,3.4C279.1,481.4,277.3,481.3,274.2,478.7z"/>
			<path d="M278,476.2l-3.4-1.7c1.6,1.2,3.3,2.3,4.9,3.5L278,476.2z"/>
			<path d="M358.6,514.5l-0.9-0.4c-4.5-0.6-9-1.3-13.5-2.1C349,512.9,353.8,513.8,358.6,514.5z"/>
			<path d="M450.4,519.9c-1.4,1.1-3.7,1.2-5.3,2c2.1-0.6,4.2-1.3,6.2-2L450.4,519.9z"/>
			<path d="M511.9,503c1-3.4,4.4-2.4,0.4-2.8C509,502.5,512.5,501.7,511.9,503z"/>
			<path d="M522.9,492.3c-1.9,1.1-2.8,2.1-3.7,3.1C522.3,494.8,521.7,493.6,522.9,492.3z"/>
		</g>
	</g>
	<g>
		<g>
			<g>
				<path d="M153.3,220.5l1.1,4.5c-0.3,3-0.4,5.5-0.3,7.6l-1,1.5c0.4,0.6,0.6,1.1,0.6,1.5c-0.6,1.3-1.7,6.5-3.1,15.8
					c-0.4,3.2-1.2,5.2-2.4,6.1l0.6,3c-1.3,2.2-2.8,7.8-4.6,16.8c-1.2,0.9-3.1,6.7-5.6,17.4l0,0.5c8.4-2.6,12.5-4.9,12.5-6.9
					c0.4,0,0.5,0.2,0.6,0.5c3.5-1.2,7.3-4.4,11.4-9.4c1-0.1,1.8-1.1,2.4-3.1c2.9-1.8,6.7-6.5,11.3-14c2.8-3.2,7.2-10.3,13.1-21.1
					c0.9-1.7,4.3-3.4,10-4.9c5.8-1.8,9.9-2.8,12.1-2.8l0,0.5c0.3,0.7,0.5,1.2,0.5,1.5c-2.6,7.4-7.1,15.1-13.5,23.1
					c0,0.7-5.4,6.4-16.2,17.1c-14.3,13.5-25.8,21.4-34.3,23.7c0,0.3-0.5,0.5-1.5,0.5l0,0.5c5.9,3.7,11.5,9.3,16.6,16.7
					c9.4,10.2,14.4,15.3,15.1,15.3c7.3,6.7,13.4,10.6,18.6,11.7c0,0.3-0.2,0.5-0.5,0.5l0.6,1c0,1-2.8,3.1-8.4,6.3
					c-1.1,1.1-2.3,1.6-3.5,1.6c-1,1.4-1.7,2.1-2,2.1c-0.7,0-1-0.3-1-1l-1,0.5l-1,0c-1.5,0-6.5-3.4-14.9-10.2c0-0.4-3.3-3.4-9.8-8.9
					L142.8,320c0-1.6-3-4.6-8.8-8.9l-1,0c-1.6,0.7-3,4-4.3,9.8c-1.6,3.3-2.7,6.8-3.3,10.7c0.7,0,1,0.5,1.1,1.5
					c-3.1,12.1-5,21.1-5.8,27l0.5,1l0.1,3l-0.5,0c-0.7-2.1-1.1-3.5-1.1-4l-3.9,4.2l-1,0c-0.3-1.7-0.8-2.5-1.6-2.5
					c-1.3,2.5-1.9,4-1.9,4.6l-1,0L108,364c-1.2,2.4-3.3,3.6-6.5,3.7l-0.5,0l0.4-2.6l-0.2-6.6c-0.2-8.3,2.4-19.2,7.8-32.6l5.1-16.8
					c-0.3-1-1.4-1.5-3.1-1.4l-2.5,0.1c0-0.4-1.1-1.4-3.1-3c-0.4-0.6-0.6-1.3-0.6-2c0.1-4.7,1.1-7.1,2.9-7.2l3.6,0.4
					c6-0.2,9-1.7,8.9-4.8c5.6-21.1,8.9-31.6,9.8-31.6c2.7-11,5-22.2,6.7-33.6l-0.6-1c0.4-1.7,0.9-2.6,1.5-2.6l0.5,0
					c1.4,0,2.1,1.8,2.2,5.5c1.2-2.4,3-3.7,5.5-3.7c0.3,0.4,0.5,1.6,0.6,3.6l0.5,0c0-1.8,0.1-3.3,0.4-4.6l1.5,0l0.1,3l1.5,0l0-1.5
					l-0.6-3.6C150.8,221.1,152,220.9,153.3,220.5z M107.2,352.9c0.4,0,0.5,0.1,0.5,0.5c-0.4,0-0.5,0.2-0.5,0.6l0.5,0
					c0.6-1.1,1-3,1.3-5.6c-0.3-0.5-0.5-1.2-0.5-2l0.5,0l-0.5-0.9c0.7-0.7,1.3-3.1,1.8-7.1c1.1-2.2,2.2-5.8,3.2-10.8
					c-1.8,2.4-3.6,7.1-5.2,14.3C107.6,346.9,107.1,350.6,107.2,352.9z M112.9,338c-1.5,6.5-2.2,10-2.2,10.7l0.1,3.5
					c0.1,0.7,0.4,1,1,1c0-1.9,0.5-6.8,1.6-14.7l0-0.5L112.9,338z M113.8,351.7l-0.5,1l0.1,4.1l0.5,0c0-0.9,0.3-1.7,0.9-2.6l0-1.5
					C114.8,352,114.5,351.6,113.8,351.7z M116.9,335.9l0,0.5c0.7,0,1.2-1.5,1.4-4.6C117.3,332,116.8,333.4,116.9,335.9z
					 M120.8,331.2c-0.7,0.9-1.7,4.6-3.2,11.2c0,0.4,0.2,0.5,0.5,0.5l-0.4,2.5l0.1,2.5c0.6,0,1.5-2.4,2.8-7.1c0-0.4-0.2-0.5-0.5-0.5
					c0.7-4,1.3-6.9,1.8-8.6L120.8,331.2z M120,321.1l-2.3,9.1l0,0.5l0.5,0c0-0.7,0.9-3.8,2.7-9.2L120,321.1z M119.8,311.5l-1.8,6.7
					l1,0c0-0.8,0.6-3.1,1.8-6.7L119.8,311.5z M124.8,311.9c0.8,0,2.4-4.3,4.7-12.8l-0.5,0C127.2,301.9,125.8,306.1,124.8,311.9z
					 M125.6,282l0,1.6l0.5,0c0-0.8,0.6-3.4,1.8-7.7C127.2,275.9,126.4,277.9,125.6,282z M134.7,264.6c-3.8,11-6.1,18.4-7,22l0.1,2.5
					l1-0.5l0,1l0.5,0l0.4-3.6c-0.4,0-0.5-0.1-0.5-0.5c1,0,1.6-1.2,1.9-3.6c1.2-3.9,2.6-9.5,4.1-16.8l0-0.5L134.7,264.6z
					 M134.8,283.8c0,0.4-0.5,1.9-1.4,4.6c0.6,0,1.2-1.4,1.9-4.1l0-0.5L134.8,283.8z M133.8,307.1l0,0.5c3.3,1.4,5.8,3.4,7.3,5.9l1,0
					l0-1C139.7,309.7,137,307.9,133.8,307.1z M137,273.1c-1,1.7-1.6,3.6-1.9,5.6c0.6,0,1.4-1.9,2.4-5.6L137,273.1z M139,235.6
					c-1.3,5.8-2.3,8.6-2.8,8.7c0,0.4,0.2,0.5,0.5,0.5c0,0.2-0.4,2.6-1.3,7.1l0,0.5l0.5,0c1.4-6.4,2.3-9.7,2.8-9.7l-0.5-1
					c1-1.4,1.4-3.3,1.3-5.6l0-0.5L139,235.6z M136.7,262.5l0,1c0.7,0,1.6-2.2,2.9-6.7c1.1,0,1.7-3.1,1.8-9.1l-0.5,0
					c-0.8,0-2,4.8-3.7,14.2C136.8,261.9,136.7,262.1,136.7,262.5z M140.2,260.4c-0.9,4.8-1.6,7.5-2.3,8.2l0,1l1,0
					c0-0.8,0.7-3.9,2.3-9.2L140.2,260.4z M139.9,306.4c0,0.3,2.2,2.3,6.7,5.9l1,0l0-0.5C144.7,308.5,142.2,306.7,139.9,306.4z
					 M142.4,268.9c-1.5,5-2.3,8.2-2.2,9.7c0.9,0,1.9-2.9,2.8-8.7l0-1L142.4,268.9z M142.1,235.5c-0.4,2.7-1.1,4.7-1.9,6.1
					c0.7,1.1,1.1,1.9,1.1,2.5l0.5,0c0.3-3.4,0.6-5.1,0.9-5.1l-0.5-1l0-0.5l0.5-1c-0.3,0-0.5-0.2-0.5-0.5c0.3,0,0.5-0.2,0.5-0.5
					L142.1,235.5z M147.6,236.8c-3.2,17.2-5.7,27.9-7.3,32.1l0.5,0c0.9,0,2.2-3.6,3.8-10.7c1.8-6.8,3.2-13.9,4-21.4L147.6,236.8z
					 M142.5,251.7c-0.3,0.6-0.6,2.1-0.9,4.6l0,0.5l0.5,0c0-0.4,0.2-0.9,0.5-1.5l-0.5,0l0.9-3.5L142.5,251.7z M143.7,242.5l-0.4,3.5
					c0.7,0,1-0.4,1-1l-0.1-2.5L143.7,242.5z M146.3,318.9l0,1c3.3,4.6,7.8,9.4,13.5,14.3l3.1,2.5l0-1c-0.8,0-3.4-2.3-7.8-6.9
					c-3-2.6-5.8-5.9-8.4-9.9L146.3,318.9z M149.2,313.3c1.5,3.7,2.9,5.6,4.2,6c-0.1-2.6-1.3-4.6-3.7-6L149.2,313.3z M150,306.7l0,1
					c0.8,1.5,2,2.7,3.6,3.4l0-1C153.3,309.1,152.1,307.9,150,306.7z M150.9,321.8l0,1c1.4,0,2,0.6,2.1,2l1,0c-1.3-2-2.1-3-2.6-3
					L150.9,321.8z M155.1,326.2l0,0.5c0,0.5,1.2,1.6,3.6,3.4l0-0.5c-0.6-1.5-1.6-2.7-3.1-3.5L155.1,326.2z M158.4,319.6
					c0,0.2,1,1.2,3.1,3c-0.5-1.4-1.3-2.4-2.6-3L158.4,319.6z M158.6,326.7c6.8,8.2,11.7,13.3,14.6,15.3l0.5,0l0-1
					c6.2,5.6,10.5,8.3,12.9,8.2l0.5,0l0-0.5c-1.1,0-2.8-0.8-5.1-2.4l-3.6-2.4c-0.7,0-2.3-1.7-4.7-4.9c-1.2,0-3.6-1.9-7.2-5.9
					c-0.9,0-3.2-2.1-6.8-6.4L158.6,326.7z M161.5,320.5c0.9,2.2,1.8,3.3,2.7,3.5l0-0.5C162.9,321.5,162,320.5,161.5,320.5z
					 M168.6,283.9l1,0c0.5,0,1.2-0.7,2-2.1l0-0.5l-0.5,0C170.7,281.3,169.8,282.2,168.6,283.9z M170.4,330.4l0,0.5
					c2,1.3,3,2.5,3.1,3.5l1-0.6C173.4,331.5,172,330.4,170.4,330.4z M172.1,279.7l0,1l0.5,0c2-0.8,3-1.5,3-2.1l0-1
					C173.7,279,172.5,279.7,172.1,279.7z M174.6,336.9l0,0.5c2.8,2.9,4.9,4.5,6.2,4.9l0-0.5l-5.7-4.9L174.6,336.9z M186.4,263.7
					c-1.5,2.1-4.5,5.1-8.9,8.8c-1,1.4-1.8,2.1-2.5,2.1l0,0.5l0.5,0c5.2-3.8,9-7.6,11.3-11.5L186.4,263.7z M199.1,247.6
					c0,1-0.8,1.6-2.5,1.6l0,0.5l1,0l0,0.5c-0.6,0-1.4,0.5-2.5,1.6l-0.5,0l1-2.1l-0.5,0c0,0.4-2.8,3.4-8.4,8.8c0,0.7-1.8,3-5.4,6.8
					c0,0.6-0.3,1.4-0.9,2.5l0.5,0c0.1-0.3,2.4-2.6,6.9-6.7l1.6,0l0,0.5l-1,0l0,1c0.4,0,2.9-2.6,7.4-7.8l0,1l0.5,0l0-1l-0.5,0
					l4.4-6.2l0-1L199.1,247.6z M187,250.5c0,0.7-0.9,2.6-2.9,5.6l0.5,0c2.3-2.2,3.5-4.1,3.4-5.6L187,250.5z M190.3,262.1
					c0.4,0,0.5,0.1,0.5,0.5c-1.1,0-3.2,2.3-6.4,6.8l0,0.5c3.5-3.2,6.6-6.5,9.3-9.9l-1.6,0C191.8,260,191.1,260.7,190.3,262.1z
					 M190.7,258l0.5,0c-0.3,0.6-0.4,1.3-0.4,2l-2,0.1C188.8,259.6,189.4,258.9,190.7,258z M197.8,240.1c-2,2.7-2.9,4.5-2.9,5.6
					l-1-0.4l-4.8,7.7l0,0.5c1.3-0.5,2.6-2.4,3.8-5.6l0.5,0l0,1l0.5,0c2.9-4.5,4.4-7.3,4.4-8.2l0-0.5L197.8,240.1z M190.4,245.8
					c1.1-0.5,2.2-2,3.4-4.6l-0.5,0C191.3,242.4,190.4,244,190.4,245.8z M192.2,255.9l0,1c0,0.7-0.3,1-1,1l0-1
					C191.3,256.3,191.6,255.9,192.2,255.9z M194.1,251.8l0.5,0l0,1.5c0,0.5-0.5,1-1.5,1.6l-0.5,0
					C193.6,253.6,194.1,252.5,194.1,251.8z M194.5,245.7l0,0.5c-0.3,0.6-0.5,1.1-0.5,1.5l-0.5,0l0-1.5L194.5,245.7z M197.6,247.7
					l1,0l5.9-8.7l0.5-1l-1,0C203.5,237.9,201.4,241.2,197.6,247.7z M200.7,251.2l0.5,0c0-0.2,0.6-1.1,2-2.6l0-1
					C202.7,247.5,201.9,248.8,200.7,251.2z M206.5,239.9l0.5,0c0.8,0,1.3-1.2,1.4-3.6C207.7,236.2,207.1,237.5,206.5,239.9z"/>
				<path d="M207.8,299.5c15.9-0.4,26.4,3,31.6,10.3c0.7,2.2,1.3,4.7,1.8,7.5c0.1,2.2-1.6,9.2-5.1,20.9c0,0.5-0.4,2.6-1.3,6.1
					l0.1,4.1c0.5,2.5,1.2,3.8,2.1,4c1.7,0,4.5-2.5,8.4-7.3c2.6-2.8,4.4-4.2,5.4-4.2l-2.4,3.6l0,0.5c1.1,0,2.4-0.7,4-2.1l1.5,0l0,0.5
					l-2,2.6l0,0.5l3.6-1.1c-7.8,10-16.7,15.2-26.4,15.4c-7.1-0.9-10.7-2.5-10.7-4.8c-0.4,0-1.3-1.7-2.7-5c-0.2-7.9,2.8-20,9.2-36.2
					l-0.1-2.5c0-1.5-3.5-2.6-10.2-3.3c-4.4,0.1-6.5,1.2-6.5,3.2c0,0.4,0.2,0.5,0.6,0.5l-0.5,2.5c0.4,1.8,0.6,2.8,0.6,3
					c-6.6,2.2-10.3,3.3-11.1,3.3l-0.5,0c-0.7,0-1.2-1.7-1.6-5c-0.6,0-0.9-1.1-1.1-3.5c-0.1-5.4,1.6-9,5.3-10.8
					C202.8,300.9,205.5,300,207.8,299.5z M202.1,312.9l-0.4,2c0.7,0,1,0.5,1.1,1.5l0.5,0c0.7,0,1-0.4,1-1
					C203.5,313.8,202.8,313,202.1,312.9z M204.1,310.2l1,0.5c0.3-2.4,1.8-3.6,4.5-3.7l0-1C205.9,307.4,204,308.8,204.1,310.2z
					 M220,336.7c-0.9,6.1-1.3,9.5-1.3,10.2c0.7,0.1,1,0.4,1,1c-0.3,1.8-0.4,2.8-0.4,3.1c0.3,0.6,0.5,1.1,0.5,1.5l1,0l-0.1-5.1l-1,0
					c0.6-1.9,1-5.4,1.3-10.7L220,336.7z M225,353.8l0,0.5c0.5,1.7,1,2.5,1.6,2.5l0.5,0l0-0.5C226.4,354.7,225.7,353.9,225,353.8z
					 M227,317.7c-0.9,2.5-1.4,3.9-1.4,4.1l0.5,0c0.6,0,1-1.2,1.5-3.6l0-0.5L227,317.7z M228,333.4c-1.3,3-1.9,4.7-1.9,5.1l1,0
					c0-0.8,0.6-2.3,1.9-4.6L228,333.4z M228.7,319.7c-0.4,3.8-1,6.1-1.8,7.1l0,1.5c1.1,0,2-2.9,2.8-8.7L228.7,319.7z M228.9,349.1
					l0,0.5l0.6,2.5l1-0.5c-0.4-0.5-0.6-1.4-0.6-2.5L228.9,349.1z M232.1,318.1c-2.1,7.7-3.2,11.7-3.2,12.2c1,0,2.4-3.9,4.2-11.7
					L232.1,318.1z M230.8,344.5c0.4,0.6,0.6,1.1,0.6,1.5l0.5,0c0-1,0.3-1.5,1-1.5l-0.6-1l0.9-6.1
					C232.6,337.3,231.8,339.7,230.8,344.5z M236.8,323.6l-1-0.4c0,0.6-0.1,1-0.5,1c0,0.4,0.2,0.5,0.5,0.5c-0.3,2.4-0.7,3.5-1.4,3.6
					l0.5,1c-0.4,2-1,3.1-1.9,3.1l0.1,3l1,0c2.5-8.5,3.7-13.4,3.7-14.8l0-0.5C237,320,236.7,321.2,236.8,323.6z"/>
				<path d="M285.7,310.6l0,0.5c0.3,0,0.5-0.2,0.5-0.5c7.5,1.3,11.2,2.7,11.3,4.2l0,0.5c-0.7,0-1,0.4-1,1l-1,0
					c-5.7,0.4-8.6,1.3-8.5,2.7l-1.5,0c-0.8,0-2-1.3-3.6-4c-0.3,0-0.5-0.1-0.5-0.5c-3.1,0.1-6.5,1.7-10,4.8l0,0.5l-1-0.5
					c0,0.6-1.3,2.1-3.9,4.6c0,1.4-1.3,3.8-3.9,7.2c-1.6,3.1-2.3,6-2.3,8.7c0.3,1,0.5,2.4,0.6,4l-1,0.6c0.1,2.9,1.8,5.9,5.3,9
					c6.3-2.6,9.5-4.7,9.4-6.3c1.1-0.9,3.3-6.1,6.7-15.9c-0.7-1.3-1.1-3.2-1.2-5.6l-0.1-3l1.5,0c4.6-0.1,7.5-0.7,8.5-1.7l4.5-0.1
					l0.1,3c-2,2.7-3.3,6.6-3.7,11.7l0.6,1l0,0.5c0,0.3-0.2,0.5-0.5,0.5c0.7,2.1,1.2,4.8,1.8,8.1c-0.4,0-0.5,0.2-0.5,0.5
					c0.7,0.1,1,0.4,1,1c0,0.4-0.1,0.5-0.5,0.5c1,1.5,1.6,2.5,1.6,3l5.6-0.2l8.4-7.9l2.5-0.5l0.5,0l0,0.5l-2.5,3.1l0,0.5
					c2-0.1,3.1,0.6,3.1,1.9l0,1c-1,1.6-4.3,4.1-9.9,7.4c-3.6,3.1-6.7,4.7-9.5,4.8c-1.7-0.1-5.1-2.8-10.3-8.3l0-0.5l0.9-2.1l-0.5,0
					c-8.8,6.6-15.5,10-19.9,10.1c-0.3,0.4-1.7,0.6-4,0.6c-6.8-1-10.2-3.2-10.3-6.8c-0.9,0-1.6-2-2.2-6c0.2-4.2,0.8-7.9,1.7-11.1
					l-0.6-1c0.4-1.7,1.1-2.6,2-2.6l-0.1-2c-0.1-4.1,4.5-8.8,13.8-14C270.9,313.2,278.4,310.8,285.7,310.6z M250.2,346.5l0.1,3
					c1,1.3,1.6,2.3,1.6,3l1,0l0-1c-0.8-0.9-1.5-2.6-2.2-5L250.2,346.5z M252.5,335.8l-0.4,2.6l0,0.5c0.7,0,1-0.4,1-1l-0.1-2
					L252.5,335.8z M254.3,329.7l-1.4,2.1l0,0.5c0.1,0.7,0.4,1,1,1c0-0.6,0.3-1.5,0.9-2.6c-0.4,0-0.5-0.1-0.5-0.5
					c0.4,0,0.5-0.2,0.5-0.6L254.3,329.7z M256.2,342.8l0.1,3l1,0l0-0.5l-0.6-2.5L256.2,342.8z M281.2,348.7l0,0.5l0.5,0
					c2.5-1,3.8-1.9,4-2.7l0-0.5l-1,0C282.9,347.8,281.8,348.7,281.2,348.7z M283.4,337.5c0,0.8-0.3,1.7-0.9,2.5l0,1.5l0.5,0l1.4-4
					L283.4,337.5z M284,343.5l0.5,0c1.6-2.3,2.4-3.8,2.4-4.6C285.9,339.4,284.9,340.9,284,343.5z"/>
				<path d="M355.5,236.4c0,1.4,0.4,2,1.1,2l-0.9,4.1c0.4,0.6,0.6,1.3,0.6,2l-0.5,0c0,0.4,0.2,0.5,0.6,0.5
					c-1.8,20.9-4,34.6-6.5,41.2c-3.9,4.8-8.3,11.5-13.1,20.1c-3.2,6-5.1,11.3-5.7,15.8c0,0.3-0.3,0.5-1,0.5c0,0.5-0.3,3.2-0.8,8.1
					l0,1c0.7,0,2.3,1.6,4.7,4.9c0.6,0,2.1,1.3,4.6,3.9c3.9,2.9,6.4,4.4,7.7,4.3l0.5,0l1-0.5c0.1,2.3,1.7,3.5,4.6,3.4
					c1.6-1.8,3.4-5.1,5.3-9.7l1,0l-1.5,2.5l0,0.5c0.8,0,1.3,0.6,1.6,2c0.6-0.4,1.1-0.6,1.5-0.6l1.6,2c-3.2,6.9-7.8,11.4-13.8,13.6
					l-1.6,0c-0.3,0-0.5-0.1-0.5-0.5l-1,0.5c-3.5,0.1-8.1-2.1-13.8-6.7c-1.2-1.3-2.6-2-4.1-1.9l-0.5,1c0,0.4,0.2,0.5,0.5,0.5
					c-0.6,3.7-0.8,7.9-0.7,12.7l0.3,10.6c0,0.4-0.1,0.5-0.5,0.5c0,0.3,0.2,0.5,0.5,0.5l-0.7,10.6c0,0.4,0.2,0.5,0.5,0.5l-0.4,3.5
					l0.2,6.6c0.1,3.7,1,5.6,2.7,5.5l-0.9,2.1c0.7,1.3,1,2.3,1,3c-5.7,5.8-9.8,8.9-12.4,9.4c-1.8,0-2.9-0.9-3.1-3l0.5-1
					c-0.4-2.3-0.6-4.2-0.7-5.6l-0.1-2l-1.1-1.5l-0.2-7.1c0-1.2,0.1-2.7,0.4-4.5c-0.4-0.7-0.6-1.2-0.6-1.5l0.5,0l-0.6-1
					c0-0.3,0.1-1.6,0.4-4.1l-0.6-1l0.9-4.1l-0.5-1c0.2-2.6,0.5-4.2,0.9-5l-0.6-1c1.4-11.4,2.1-18.5,2-21.3l0-0.5
					c0.5-0.8,1.1-3.4,1.8-7.7c-4.1-7.8-6.8-13.8-8.1-18l-0.6-3c0-0.7,2.1-2.8,6.4-6.3c0.1,1.9,1.8,4.1,5.2,6.4
					c0.2-4.4,0.7-6.6,1.4-6.6c0-0.3-0.2-0.5-0.5-0.5c2.3-14.1,5.1-29.3,8.4-45.8c0.8-0.7,2.6-5,5.3-12.8c3.1-8.2,5.4-12.3,6.8-12.3
					c1,0,3.3-1.4,6.9-4.2l7.5-4.3L355.5,236.4z M315,386.8l0.2,8.1c0,0.3-0.1,0.5-0.5,0.5l0.5,1c0.5,6.4,0.8,10.8,0.9,13.2l1,0.5
					l-0.1-5.5l0.5-1l-1-0.5l0.5-2.5l-0.1-3c0-0.8-0.2-1.4-0.6-2c0-0.3,0.2-0.5,0.5-0.5l-0.6-2.5l0-0.5c0-0.4,0.2-0.5,0.5-0.6l-0.6-1
					l-0.1-3.5L315,386.8z M316.1,334.1l0,0.5l0.5,2.5l1.6,0C317.4,335.1,316.7,334.1,316.1,334.1z M316.6,374.1l0.1,4.5l0.5,0
					l-0.1-4.5L316.6,374.1z M317.8,358.4l0,0.5c0.1,1.9-0.2,3.8-0.9,5.6l0.5,0l-0.5,1l0,1.6l0.5,0c0.1-4.7,0.7-7.1,1.8-7.2l0-0.5
					c0-0.6-0.4-0.9-1-0.9L317.8,358.4z M320.9,383.1c-0.8,5.5-1.2,10.3-1.1,14.2c0.9,0,1.5-2.1,1.9-6.1c0-0.3-0.2-0.5-0.5-0.5
					l0.5-2.6l-0.1-5.1L320.9,383.1z M323,364.3c-0.5,5.8-0.8,9.7-0.7,11.7l0.5,2l-0.5,1c0.3,0.7,0.5,1.2,0.5,1.5c0.7,0,1-0.4,1-1
					l-0.2-6.6c0-0.8-0.2-1.4-0.5-2l0.9-6.1L323,364.3z M322.8,340.5l-0.4,3.1l1,0l-0.1-3L322.8,340.5z M322.7,389.1l0.1,4.1l0.5,0
					c0-0.8,0.1-2.2,0.4-4.1L322.7,389.1z M323.9,321.2l-0.5,2.5l0,0.5l0.5,0c0-0.2,0.3-1.2,0.9-3.1L323.9,321.2z M324.8,315.7l0.5,0
					c-0.6,1.6-0.9,3.1-0.9,4.6c1-0.3,1.5-1.4,1.5-3.1c0-0.3-0.2-0.5-0.5-0.5l0.5-1l0-1C325.1,314.7,324.7,315.1,324.8,315.7z
					 M325.1,312.6l0.5,0c0.6-1.7,0.9-2.9,0.9-3.6C326,309,325.5,310.2,325.1,312.6z M329.8,315.5c-0.9,2.7-1.4,4.2-1.4,4.6l1,0.5
					c0.9-2.4,1.4-4.1,1.4-5.1L329.8,315.5z M331.4,300.8c-0.3,2.3-0.6,3.8-0.9,4.6l0.5,0c0.9-2.5,1.4-4,1.4-4.6L331.4,300.8z
					 M331.4,340.3l-0.5,1c0.3,0,1.3,0.6,3.1,1.9l0.5,0C334.5,343,333.5,342,331.4,340.3z M333.4,278l-1.4,6.1l0.5,0
					c0.7,0,1.1-1.6,1.4-4.6l0.5,0c-0.4-0.6-0.6-1.1-0.6-1.5L333.4,278z M345.3,253.3c-2.1,2-4.9,10.2-8.5,24.6
					c0,1.2-0.4,3.6-1.3,7.1c0,0.4,0.2,0.5,0.5,0.5c-0.9,4.1-1.3,7-1.3,8.6l0,1c4.3-4.4,7.3-11.4,9-21c1.1-1.7,2-4.1,2.9-7.2
					c0-0.3-0.2-0.5-0.5-0.5l0.4-5.1l-0.2-7.1C346.4,253.6,346,253.3,345.3,253.3z M336.1,344.7l0,0.5c3.6,2.6,5.7,3.9,6.2,3.9l0-1.5
					c-1.6,0-3-0.8-4.1-2.5c-0.4,0-0.9-0.1-1.6-0.4L336.1,344.7z M348.3,270c0,0.8-0.6,2.9-1.9,6.1c1.7-0.9,2.5-2.6,2.4-5.1l0-1
					L348.3,270z"/>
				<path d="M389.4,242.6l0,1c-2.8,8.4-4.2,13.5-4.2,15.3c-2.2,4.5-4.3,15.2-6.2,32l4.1-0.1c5.7-0.8,8.9-1.2,9.6-1.3l3.6-0.1
					c0.1,2.9-0.2,5.1-0.8,6.6l0.6,3c-0.7,0.8-1,1.5-1,2.1l-2,0.1c-0.3,0-0.5-0.2-0.5-0.5l-1,0.6c-5.6,0.5-10,0.7-13.2,0.8l-2.5,0.1
					c-1.7,12.5-2.5,19.4-2.5,20.8c0,0.3,0.2,0.5,0.5,0.5l-0.9,5.1c0,0.4,0.2,0.5,0.5,0.5l-0.3,5.1l0.1,3c0.1,3.5,0.9,7.7,2.4,12.6
					l2.5-0.1c3.5-0.1,9.3-4.8,17.3-14.1l0,1c-1.7,3.4-3,5.1-3.9,5.1l0,1.5l0.5,0c0.6,0,1.7-1.2,3.4-3.7l1.5,0l0,0.5
					c-2.9,3-4.4,4.7-4.4,5.2l2-0.1c0-0.7,0.3-1.7,0.9-3.1l2-0.1c-6.9,10.6-13.4,16-19.3,16.2c0,0.3-0.7,0.5-2,0.5l-4.1,0.1
					c-4.8,0.1-9-3.3-12.4-10.3c-1.8-5.1-2.8-9.8-2.9-14.1l-0.2-8.6c-0.1-1.9,0.2-4.4,0.8-7.6l-0.6-1l3.1-18.8
					c-1.5,0-2.9-0.9-4.1-2.9l-0.1-2.5c0-0.9,2.1-1.6,6.5-2.2l0.9-3.6l-0.5-1c0.9-2.5,1.7-6.2,2.2-11.2c1.6-7.1,3.2-12.2,4.7-15.3
					l-0.5-1l0-0.5c0.6-1.1,1.3-2.9,1.9-5.7c-0.4-0.6-0.6-1.1-0.6-1.5l3-2.6l0.5,0c0,0.7,0.2,1,0.6,1c6.9-3.9,10.7-5.8,11.5-5.9
					l1.5,0C387.3,243,388,242.6,389.4,242.6z M359.7,310.2l0.6,1c-1.2,6.2-1.8,9.7-1.7,10.7l0.5,1l-0.5,1c0.3,0.6,0.5,1.3,0.5,2
					l-0.5,0l0.5,1l0,1.5l-0.4,3.1l0.5,1l-0.5,1l1.7,9l0.5,0l0.4-2c-0.3-0.6-0.5-1.1-0.5-1.5l0.5,0l-1.1-2.5l1,0l0.6,2l1-0.6
					c-0.4-1.3-0.6-2.6-0.6-4c-0.7,0-1,0.7-1,2.1l-0.5,0l-0.1-3c0-0.3,0.1-0.5,0.5-0.5c-0.3-1.3-0.6-2-1.1-2
					c0.3-4.9,0.8-8.4,1.3-10.6c-0.4-0.6-0.6-1.3-0.6-2c0-1.2,0.5-2.4,1.5-3.6l-1,0.6l-1,0l1-1.6c0-0.3-0.2-0.5-0.5-0.5l0.9-5.6
					C361.2,307.1,360.6,308.1,359.7,310.2z M363.4,294.9c0,0.7-0.1,1-0.4,1l0.5,1l0,1c-1.6,2.9-2.4,5.1-2.3,6.6l0,0.5l0.5,1
					c-0.3,0-0.5,0.2-0.5,0.5l0.5,0l2.8-8.2c-0.3-0.4-0.5-1.6-0.6-3.5L363.4,294.9z M369,295.8c-0.5,3.8-1.2,6-1.9,6.6
					c0,0.3,0.2,0.5,0.5,0.5c-0.7,5.5-1.2,8.9-1.8,10.2l0.6,1c-0.6,1.4-1.1,3.6-1.4,6.6c0.4,0.7,0.6,1.2,0.6,1.5
					c-0.6,0-1.1,0.9-1.5,2.5c0.4,0,0.5,0.2,0.6,0.5l-1,0l0-1.5l-0.5,0c0.1,2-0.1,3-0.4,3.1c0.3,0.7,0.5,1.2,0.5,1.5l0.5,0l0-1.5
					l0.5,0l0.2,7.1l0.6,2.5l0.5,0c0-1.8,0.1-3.3,0.4-4.6c-0.4-0.6-0.6-1.3-0.6-2l0.9-2.5c0-0.4-0.2-0.5-0.5-0.5
					c-0.1-2.4,0.7-5.6,2.2-9.7l-1,0l0-0.5c0-0.4,0.2-0.5,0.5-0.5l-0.6-1c0.9-4.8,1.5-7.7,1.8-8.6c-0.3-0.7-0.5-1.2-0.5-1.5
					c0.6,0,1.2-2.9,1.8-8.6L369,295.8z M363.4,313.6l0,0.5l0.5,1c-0.2,1.4-0.5,2-1,2.1c0.4,0.7,0.6,1.2,0.6,1.5l-0.4,4.5l1,0l0-0.5
					c0.1-4.7,0.5-7.2,1.3-7.6c-0.4-0.6-0.6-1.1-0.6-1.5L363.4,313.6z M364.1,337.9l-0.5,2.5c1.2,3.3,2.1,5,2.7,5l-0.1-4.1l-0.6-3.5
					L364.1,337.9z M365.2,306.5l-0.4,5.1c0.7,0,1-0.4,1-1l-0.1-4.1L365.2,306.5z M366.5,278.6c0,0.8-0.4,2.9-1.4,6.1l0.5,0
					c1.4,0,2.1-1.9,2.4-5.6l-1-0.5L366.5,278.6z M365.6,301.9l0,0.5l0.5,0l-0.9,3.1l1,0c0-0.2,0.1-1.3,0.4-3.1L365.6,301.9z
					 M367.9,275c0,0.5-0.3,1.2-1,2.1c0.1,0.7,0.5,1,1,1l0.5-1l-0.1-2L367.9,275z M368.3,325.6c0,1-0.1,1.6-0.4,1.6l0.5,1
					c-0.3,0.6-0.4,1.1-0.4,1.5l1,0.5c-0.1-2,0.3-3,0.9-3.1c-0.4-0.7-0.6-1.2-0.6-1.5L368.3,325.6z M369.2,321.5
					c1,0,2.2-5.3,3.6-15.8c0-0.3-0.2-0.5-0.5-0.5l0.4-2.6l0-1.5C371.8,301.2,370.6,308,369.2,321.5z M372.3,286l1,0.5l0.5-1l-1,0
					l0-1l1,0.5l-0.1-2l-0.5,0l0-0.5l1,0l0-1C372.8,281.9,372.2,283.4,372.3,286z M375.6,258.1l-0.5,2.5l0,0.5c0.7,0,1-0.4,1-1
					l-0.1-2L375.6,258.1z M377.9,251.5c0,1-0.8,2.9-2.4,5.7l0,0.5l0.5,0c0.8,0,1.6-1.7,2.4-5.1l0-1L377.9,251.5z M378.2,261.1
					c1.6,0,3-4,4.3-11.8l-0.5,0c-1.1,0-2.2,3.8-3.2,11.2C378.3,260.6,378.2,260.8,378.2,261.1z M380.1,297c0.4,0,0.5,0.2,0.5,0.5
					c3.4-0.7,5-1.4,5-2.2l-1-0.5C381.6,295.7,380.1,296.4,380.1,297z M384,250.8c0,0.7-0.1,1-0.5,1c0.3,0.6,0.5,1.1,0.5,1.5
					c-1.2,1.9-2.1,5.2-2.8,9.7l0,0.5l0.5,0l3.2-12.3l0-0.5L384,250.8z M382.2,298.5c0-0.4-0.2-0.5-0.5-0.5l0,1l6.1-0.2l5-0.6l0-0.5
					c-0.6,0-1-0.1-1-0.5L382.2,298.5z M383.4,245.8c0,0.5-0.5,1.2-1.5,2.1l0,1c0.4,0,1.3-1,2.5-3.1L383.4,245.8z M387.1,292.7l0,1
					l6.1-0.6l0-1l-1,0L387.1,292.7z"/>
				<path d="M464.1,294.7c-3.7,6.8-6.6,14.3-8.5,22.5c-1.2,5.9-2.6,15.7-4.3,29.5l0.6,1l0.1,2l-0.5,3.1l0.6,1
					c-0.7,18.3-2.3,28.9-4.8,32c-4.1,8.7-6.2,13.3-6.2,13.8l-1-0.4l-1.5,0c-2.9,4.8-9,7.3-18.5,7.6l-3.6,0.1
					c-4.8-2.2-7.2-6.4-7.4-12.5l-0.1-2.5c1.7-5.4,4.5-9.5,8.3-12.4c3.7-4,8.5-7.2,14.4-9.5l1.1,1.5c-1.6,2.4-2.4,5.5-2.3,9.2l-1,0.5
					l-1,0l-1-0.5c0,0.5-2,1.7-6,3.7c-4,2.9-5.9,5-5.9,6.2c2.5,3,4.9,4.4,7.2,4.3l-0.5,1c0.5,0,1.2,0.6,2.1,2l3.1,1.9
					c3.3-0.1,5.2-3,5.9-8.7c1.8-10.1,2.9-23.2,3.5-39l-0.5-1c0.2-3.7,0.5-5.6,0.9-5.6l-0.6-1c0.6-4.2,0.8-6.8,0.8-7.6l-1,0
					c-1.9,4.9-5.6,10.2-11.2,16l-8.5,3.7c-5.1-1.1-7.7-3.2-7.7-6.4c-0.7-1.2-1.1-2.6-1.1-4c0-9.4,0.4-14.1,1.1-14.2
					c0-0.4-0.2-0.5-0.5-0.5c0.9-3.5,1.6-8.9,2.1-16.2l-5.9,8.2l0-0.5c0-0.9,0.5-2.1,1.5-3.6l0-1.5c-1.9,1.8-4.2,5.2-6.8,10.3
					c-0.4,0-0.5,0.2-0.5,0.5l1,0.5c2.1-3.1,3.5-4.7,3.9-4.7l0,1.6c-2.2,3.8-3.5,5.6-3.9,5.7l0.6,1c-2.7,6.8-4.3,10.2-4.8,10.3
					l-1.5,0c0-0.9-0.5-1.9-1.6-3l1-2.1l-1,0l0-0.5c0-0.4,0.1-0.5,0.5-0.5c-1.2-1.6-2.1-4-2.7-7c0.2,0,5.1-6.4,14.7-19.1
					c7.3-8.6,12.4-13,15.3-13.1c3.4,0.7,5.2,3.4,5.3,8c-0.3,1.8-0.5,2.8-0.5,3.1l0.6,1c-1.1,8-2.2,19.2-3.2,33.5l2-0.1
					c0-0.9,1.9-2.7,5.9-5.2c6.5-7.4,11.9-19.8,16.2-37.4c-0.4-0.5-0.6-1.2-0.6-2c1.3-1.1,3.5-1.8,6.6-2.2l0,0.5
					C456.2,295.6,460.1,294.8,464.1,294.7z M398.3,329.9c-1.6,3.4-2.4,5.4-2.4,6.1l1,0c0-0.6,0.8-2.5,2.4-5.6l0-0.5L398.3,329.9z
					 M411.8,325c0.1,2.4-0.2,4.5-0.9,6.1l0.5,0l1.5-1.1l-0.6-2.5l0.5-1c-0.4-0.6-0.6-1.1-0.6-1.5L411.8,325z M411.3,343.7l0.5,2.5
					l0.5,0c-0.2-6.4,0.1-9.6,0.8-9.6l-0.5,0C411.6,336.6,411.1,339,411.3,343.7z M413,314.3c-0.6,4.5-0.8,7.7-0.8,9.6l0,0.5l0.5,0
					c0.6-2.5,0.9-4,0.9-4.6l-0.6-1c0.6-2.6,0.9-4.1,0.9-4.6L413,314.3z M412.7,395.8l0,1c0,0.6,1.2,1.6,3.6,2.9l0-0.5
					C414.3,397,413.1,395.8,412.7,395.8z M413.6,335.6c0,0.4,0.2,0.5,0.6,0.5c-0.5,3-1,4.6-1.4,4.6l0.6,1c0,1.4-0.1,2.7-0.4,4.1
					c0.6,3.4,1.3,5,2.2,5l-0.4-15.2L413.6,335.6z M413.3,400.3l0,1c3.1,1.6,4.8,2.4,5.1,2.4l0-0.5l-4.6-2.9L413.3,400.3z
					 M413.6,393.8c2.9,3.9,6.3,6.5,10.3,7.8l0-0.5c-0.1-0.5-3.4-3-9.9-7.3L413.6,393.8z M413.9,386.7l0,0.5l1.5,0
					c0-0.6,1.6-2.6,4.9-6.2l-0.5,0C417.3,382.8,415.4,384.7,413.9,386.7z M415.5,334l0.1,4c0,0.8-0.1,1.5-0.4,2
					c0.3,0.6,0.5,1.3,0.5,2l0,1.5c0,0.3-0.1,0.5-0.5,0.5c0.3,1.3,0.6,2,1.1,2l-0.5,1l0.6,3.6l1.5,0l0-0.5c0-0.6-0.6-2.1-1.6-4.5
					c0.3-1.8,0.4-3.4,0.4-4.6l-0.1-2c0-0.3,0.2-0.5,0.5-0.5l-0.6-1c0-0.8,0.1-1.4,0.5-2c-0.4-0.6-0.6-1.1-0.6-1.5L415.5,334z
					 M416.3,324.3c0,0.4,0.2,0.5,0.6,0.5c-0.6,2.6-0.9,4.9-0.8,7.1l0.5,0c0.7,0,1-0.4,1-1l-1,0c0.1-0.7,0.4-1,1-1
					c0-0.4-0.2-0.9-0.5-1.5c0.3-1.8,0.4-3.4,0.4-4.5l0-0.5C416.6,323.4,416.3,323.8,416.3,324.3z M417.3,399.8l-0.5,1
					c0.4,0,1.6,0.6,3.6,1.9l0-0.5C420.4,401.8,419.4,401,417.3,399.8z M417.4,307.1c0.1,3-0.1,4.5-0.4,4.5c0.4,0.7,0.6,1.2,0.6,1.5
					c-0.3,2.9-0.4,4.6-0.4,5.1l1,0c0.3-3.4,0.4-5.9,0.3-7.6l-0.1-2.5C418.4,307.4,418.1,307.1,417.4,307.1z M417.2,318.8l0.1,3.5
					l0.5,0l-0.1-3.5L417.2,318.8z M420.6,312.1l-0.3,7l0.1,3.6l0.5,0c0.2-4.3,0.3-6.8,0.3-7.6l-0.1-3L420.6,312.1z M420.2,337.4
					l0.1,3l0.5,0l-0.1-3L420.2,337.4z M437.2,385c0,0.6-0.6,3.7-1.8,9.2l0,1c0.9,0,1.8-3.4,2.8-10.2L437.2,385z M437.8,368.9l0.6,3
					l0.5,0l-0.1-3.6L437.8,368.9z M438.9,354.2c0.1,2.3-0.1,3.7-0.4,4l1.5,0l0-0.5l-0.6-3.5L438.9,354.2z M438.8,329.8
					c1.2,0,2-1.2,2.4-3.6l-0.5,0C440.1,326.3,439.5,327.5,438.8,329.8z M444.3,369.2l-0.9,4.6l0,1.6l1-0.6l0.5,0
					c0.1,2.8-1.8,8.3-5.6,16.4l-0.5,2c2.3-0.1,4.8-7,7.6-21c-0.7,0-1-1-1.1-3L444.3,369.2z M440.8,366.7c-0.1,4.1-0.4,6.1-0.9,6.1
					c0,0.3,0.2,0.5,0.5,0.5l-0.8,7.6l1,0c0-1.2,0.3-2.7,0.9-4.6l-0.5-2c0.2-1.4,0.5-2,1-2.1c0-0.3-0.2-0.5-0.5-0.5l0.5-2.6l-0.6-2.5
					L440.8,366.7z M439.9,334.9c0.1,1.9-0.1,4.7-0.3,8.1l0,0.5l0.5,0l0.8-7.1c-0.4-0.7-0.6-1.2-0.6-1.5L439.9,334.9z M442,337.3
					l0.6,3c0.1,5.1-0.1,7.6-0.8,7.7l0.6,1l0.2,7.6l0.5,0c0-0.5,0.4-3.2,1.3-8.1l0.5,0l0,1.5l0.5,0c0-0.4,0.1-0.9,0.4-1.6l-0.5-2.5
					c0.3,0,0.5-0.2,0.5-0.5l-1-0.5l0.1,2l-0.5,0l0-0.5c-0.1-4.7,0.5-7.1,1.8-7.1l0-1l-1,0c-0.1-4.8,0.5-11.1,2-18.8
					c-2,2.9-2.9,6.7-2.7,11.2c-0.5,0.7-1.1,2.9-1.9,6.6L442,337.3z M442.5,357.6l-0.4,3.5c0.1,0.7,0.5,1,1,1c0-1.4,0.1-2,0.5-2
					c-0.4-0.5-0.6-1.4-0.6-2.5L442.5,357.6z M445.1,361c0.4,0.7,0.6,1.2,0.6,1.5l0.1,2l-0.5,0l-0.1-2.6l-1,0l0,0.5l0.6,1l0,1.5l1,0
					l-0.4,3.6l1,0l-0.1-3c0-0.4,0.1-0.5,0.5-0.5c0-0.3-0.2-0.5-0.5-0.5c0-0.6,0.3-2,0.9-4.1l-0.5,0C446,360.8,445.5,361,445.1,361z
					 M445.8,310.9l-0.5,2.6l0,0.5l0.5,0c0-0.6,0.3-1.6,0.9-3.1L445.8,310.9z M446,356.9c0,1-0.1,1.6-0.4,1.6
					c0.3,0.6,0.5,1.1,0.5,1.5l1,0l-0.1-2C447.1,357.3,446.7,356.9,446,356.9z M447.6,339.7l0.1,4.1l0.5,0c0-1,0.1-2.2,0.4-3.6
					L447.6,339.7z M447.9,349.3l0.1,3l0.5,0c0-0.7,0.2-1,0.5-1l-0.6-1l0.5-1L447.9,349.3z M449.3,328.5c-0.6,3.9-0.8,6.3-0.8,7.1
					l1,0c0-1.1,0.1-2,0.4-2.5c0-0.4-0.2-0.5-0.5-0.5l0.4-2.5l0-1.6L449.3,328.5z M452.7,301.1c-1.9,3.2-2.9,5-2.9,5.6l1,0.5l2.3-6.1
					L452.7,301.1z M452.9,310.7c-1.2,6.7-1.7,10.6-1.7,11.7l1,0l0-0.5c0.5-6.2,1.1-10,1.7-11.2L452.9,310.7z"/>
				<path d="M534.7,211.4c0.6,0.3,1.1,0.4,1.5,0.4l0,0.5l-1.4,2.5l0.6,3c-0.9,0-1.4,3.8-1.7,11.2c-0.9,0-1.5,2.6-1.8,7.6
					c0.3,0,0.5,0.2,0.5,0.5c-1,0-2.1,3.9-3.2,11.7c-2.9,7.4-5,16.6-6.4,27.5c-0.6,0-1.9,5.3-4.2,15.8c-1.8,5.5-3.7,16.9-5.7,34.1
					c-0.9,0-1.4,3.9-1.7,11.7c0.7,0,1,0.1,1,0.5c1.8-0.7,7.5-2.2,17.1-4.5c0.1-0.7,4-1.8,11.5-3.4l0,0.5l1-0.5l1,0.5
					c3.2-1.1,4.8-1.6,5-1.6l1,0.4l7-1.7l0,0.5c0.7-0.3,1.2-0.5,1.5-0.5c4.2,0.2,6.4,0.3,6.6,0.3l1-0.5c7.3,0.6,13.9,1.4,19.8,2.5
					l0,1.5l-2,0.1c0,0.7,1,1,3.1,0.9l0,0.5c0,0.7-0.3,1-1,1c-0.6,0-1.6-0.3-3.1-0.9l0,0.5c-1.1-0.6-1.9-1-2.5-0.9l0,0.5l0.5,1l1-0.5
					c1.1,1.6,2.2,2.4,3.1,2.4l0,1.5l-1.5,0c-1.1-0.8-3.1-1.6-6.1-2.4l0,1c3.7,1,5.6,2,5.6,2.9l0,1c-0.6,2-1.3,3.1-1.9,3.1l0,0.5
					c0.4,0.6,0.6,1.1,0.6,1.5l-2,2.6l-1.6-1l0,0.5c0.5,0,1,0.5,1.6,1.5l0,1.5l-0.5,0c-1.1-0.8-5.4-2.5-12.8-5.2
					c-2.3-0.6-7.9-1.1-16.7-1.6c0-0.4-0.2-0.5-0.5-0.5c-3.3,0.7-7.8,1.3-13.6,1.9l0-0.5l-1,0.6l-1-0.5c-0.7,0.4-1.2,0.6-1.5,0.6
					l-2-0.5l-3,0.6l0-0.5l-37.3,7.6l-14.6,1.9c-0.3,0-0.5-0.1-0.5-0.5l-8.6,1.2c0-1-0.9-1.5-2.5-1.4l0-1.5c1.2,0,2-0.9,2.4-2.6
					c8-3.1,12-6.6,11.9-10.5l2.6,0.5c0.8,0,1.4-0.2,2-0.6c2.7,0.8,4.1,1.2,4.1,1.4c0.4,0,0.5-0.2,0.5-0.6c3.7,0.6,6.4,0.8,8.1,0.8
					c0.6-0.9,1-4.8,1.2-11.7c0.7,0,1,0.5,1.1,1.5l0.5,0l0-1c-0.7,0-1-0.3-1-1c0-0.8,0.1-1.4,0.4-2c-0.3-0.6-0.5-1.3-0.5-2l0-1
					c0.1-0.7,0.4-1,1-1c0-0.4-0.2-0.5-0.6-0.5c0.9-5.3,1.3-8.8,1.3-10.7l0-1.5c0-0.4,0.1-0.5,0.5-0.5l-0.5-1l0.5-1
					c-0.3,0-0.5-0.1-0.5-0.5l1,0l0-0.5c-0.2-5.8,1.5-14.6,4.9-26.4l-0.6-1c1-2.7,2.7-11.9,5.4-27.5l1-1l-0.5-1l5.5-21.4
					c0.4-7.4,1.2-11.1,2.2-11.2c0.1-0.7,0.4-1,1-1c1.4,0.6,2.4,0.9,3.1,0.9c0-0.6,1-1.3,3-2.1l0-0.5l0.5,0c0.9,0,1.9,0.3,3.1,0.9
					c0-1.4,0.3-2,1-2.1c0.4,0,0.5-0.4,0.5-1l0.5,0c0.7,0,1,0.5,1.1,1.5l2-1.6l0.5,0l1,0.5C533.1,211.7,533.6,211.4,534.7,211.4z
					 M478.1,349c0.2,0,0.8-0.2,2-0.6c0.4,0,0.9,0.2,1.5,0.5c3.4-0.4,5-1,5-1.7l0-0.5l-3.5,0.1C479.7,347.4,478.1,348.1,478.1,349z
					 M478.5,344c0,0.9,2.6,1.5,7.6,1.8c0-0.7-1.6-1.2-4.6-1.4c0-0.2-0.5-0.5-1.5-1C479.3,343.8,478.9,344,478.5,344z M479.7,351.5
					l0,0.5l1,0c1.3-0.4,2.5-0.6,3.5-0.6l0-0.5l-2,0.1L479.7,351.5z M499.5,317l0.1,2c-0.9,3.2-1.8,8.1-2.6,14.8l0.1,2l0.5,0
					c0-1.4,0.6-3.1,1.9-5.1c0-0.8-0.2-1.4-0.6-2c0.3-2,0.9-4.4,1.8-7.1l-0.5-1l0.4-3.6L499.5,317z M502.5,297.3l-2.7,11.2l0,1
					c1.4,0,2.5-3.8,3.2-11.2l0-1L502.5,297.3z M504.6,281c-0.6,4.2-1.2,6.7-1.8,7.6l0.5,0c1.7,0,2.4-2.6,2.3-7.6L504.6,281z
					 M505.1,317.9l-0.8,8.7l1,0l0-1.5c0-0.3,0.3-1.6,0.9-4.1l-0.1-3L505.1,317.9z M506.8,288l0.6,1l-0.9,2.5l1,0l0.4-3.5L506.8,288z
					 M511.9,267.1l0,0.5c0,1-0.8,6.6-2.6,16.8l-0.5,0l-1-0.5l0,1l1,0l0,0.5c-1,0-1.5,0.7-1.4,2.1l1-0.5l0.5,0
					c-0.5,4.7-1,7.5-1.3,8.1l1,0.4c3-15.6,4.8-24.1,5.4-25.4c-0.5-2-1.1-3-1.6-3L511.9,267.1z M508.2,261.7c0,1.1-0.1,2-0.4,2.5
					c0.3,0,0.5,0.1,0.5,0.5c-0.3,0-0.5,0.2-0.5,0.5l0.5,0c0.6-1.1,1-2.2,0.9-3.1l0-0.5L508.2,261.7z M508.6,298.1l1,0.5
					c0-1.4,0.3-2.5,0.9-3.5C509.3,295.4,508.6,296.4,508.6,298.1z M509.2,340.1l0,1c2-0.5,3-1,3-1.6c-0.3,0-0.5-0.1-0.5-0.5
					C510.7,339.7,509.8,340.1,509.2,340.1z M510.5,253c0.4,0,1.1-1,1.9-3.1l0-0.5l-0.5,0C511.2,249.5,510.7,250.6,510.5,253z
					 M510.7,317.8l1,0l0-1c0-0.6,0.3-2.3,0.9-5l-0.5-1c0.9-2.5,2-7.3,3.1-14.3l-0.5,0c-0.8,0-1.6,3.1-2.3,9.2
					C511.1,310.2,510.6,314.3,510.7,317.8z M515.5,231.1c0,1.4-1.2,7.1-3.6,17.3l1,0.5c1.6-5.9,2.7-11.3,3.1-16.2l0-1.6L515.5,231.1
					z M512,292.4l0.5,0l-0.5,1l0,1c0.7,0,1-0.4,1-1l-0.5,0c0.6-1.1,1-2.2,0.9-3.1l0-0.5C512.9,289.9,512.4,290.8,512,292.4z
					 M514.3,281.2c-0.9,5.2-1.3,7.9-1.3,8.1l1,0c-0.1-3,0.4-4.5,1.4-4.6l-0.1-3.6L514.3,281.2z M513.9,344l0,0.5l2-0.1
					c1.8-0.4,3.1-0.6,4-0.6l0-0.5l-2,0.1C516.1,343.8,514.8,344,513.9,344z M516.5,271.1c-0.6,2.5-0.9,4-0.9,4.6l0,0.5l0.5,0
					c0-0.9,0.5-2.1,1.5-3.6l0-0.5C517.5,271.4,517.2,271.1,516.5,271.1z M518.3,281.7l-1.9,5.1l1,0.4c0.6-1.6,1-3.5,1.4-5.6
					L518.3,281.7z M519.4,225.4c-1,2.6-1.8,6.5-2.3,11.7l1,0l2.3-11.2L519.4,225.4z M524.4,224.3c-1.8,7-3.3,14-4.5,20.9l0,0.5
					l0.5,0c1.9-6.6,3.4-13.5,4.5-20.9l0-0.5L524.4,224.3z M520.1,252.7l1,0l0.1,2l-0.5,3.1l0,0.5l0.5,0c1.2-4.6,2.8-13.8,4.8-27.5
					C525.5,230.9,523.5,238.3,520.1,252.7z M525,246c-0.6,3.1-0.9,4.8-0.9,5.1l0,0.5l0.5,0c0.3-2.2,0.8-4.1,1.4-5.6L525,246z
					 M525.9,242c0,1.1-0.1,2-0.5,2.5l0,0.5l0.5,0l0.4-2l0-1L525.9,242z M526.5,227.3l-0.9,3.1l1,0c0-0.8,0.1-1.4,0.4-2
					c-0.3,0-0.5-0.2-0.5-0.5c0.3,0,0.5-0.2,0.5-0.5L526.5,227.3z M529.9,338l0,0.5l5.5-0.1l0-1l-3,0.1L529.9,338z M540.4,333.2
					c0,1-1.8,1.5-5.5,1.6l0,1c2.4-0.4,3.7-0.6,4-0.6l1,0.5c1.1-0.7,1.9-1.1,2.5-1.1l0-1L540.4,333.2z M536,337.4l0,0.5l4.1-0.1l0-1
					l-1.5,0L536,337.4z M552.7,336.4l-2.5,0.1c-1.9,0.1-4.6,0.3-8.1,0.8c-0.7-0.3-1.2-0.5-1.6-0.5c0,1,7.6,1.5,22.8,1.4l0,0.5
					c0.7-0.4,1.2-0.6,1.5-0.6l0-1c-5.3-0.3-8.4-0.7-9.2-1.2l-1,0.5l-0.5,0c-0.3,0-0.5-0.1-0.5-0.5L552.7,336.4z M552.1,332.9
					l-6.6,0.2l-2.5,0.6l0,0.5c0.4,0,0.9,0.1,1.5,0.4c3-0.4,4.8-0.6,5.6-0.6l2,0.4c1.7-0.4,2.5-1,2.5-1.6c-1,0-1.5-0.1-1.5-0.4
					L552.1,332.9z M548.7,339.1l0,1l4.1-0.1l0-0.5C551.9,339.4,550.6,339.3,548.7,339.1z M549.3,341.1l0,1l0.5,0
					c0.4,0,0.5-0.2,0.5-0.5c0.6,0.3,2.6,0.6,6,0.9l0-1l-3.5,0.1l-2.5-0.4c0,0.3-0.2,0.5-0.5,0.5
					C549.8,341.2,549.6,341.1,549.3,341.1z M553.6,331.8c1.4,0,2,0.1,2,0.5l1-0.6l1,0c1.1,0,2,0.1,2.5,0.5l3-0.6l0.5,0
					c1.6,0,3.3,0.1,5.1,0.4c1.2-0.4,2.7-0.6,4.5-0.7l0-0.5l-2.5-0.5l-2.5,0.6l-9.1-0.8c-0.6,0.3-1.3,0.5-2,0.5l-1-0.5
					C554.4,330.7,553.6,331.2,553.6,331.8z M557.9,341.3c0,0.7,2.4,1.5,7.2,2.4l0-0.5C564,342.2,561.7,341.6,557.9,341.3z
					 M572.4,335.4l0,0.5l3.1,0.5c0-0.7-0.5-1-1.6-1L572.4,335.4z M573.8,330.8l0,1l4.1-0.1l0-0.5
					C577.5,331.2,576.2,331.1,573.8,330.8z"/>
				<path d="M634,301.4l0,0.5c0.3,0,0.5-0.2,0.5-0.5c7.5,1.3,11.2,2.7,11.3,4.2l0,0.5c-0.7,0-1,0.4-1,1l-1,0
					c-5.7,0.4-8.6,1.3-8.5,2.7l-1.5,0c-0.8,0-2-1.3-3.6-4c-0.3,0-0.5-0.1-0.5-0.5c-3.1,0.1-6.5,1.7-10,4.8l0,0.5l-1-0.5
					c0,0.6-1.3,2.1-3.9,4.6c0,1.4-1.3,3.8-3.9,7.2c-1.6,3.1-2.3,6-2.3,8.7c0.3,1,0.5,2.3,0.6,4l-1,0.6c0.1,2.9,1.8,5.9,5.3,9
					c6.3-2.6,9.5-4.7,9.4-6.3c1.1-0.9,3.3-6.2,6.7-15.9c-0.7-1.3-1.1-3.2-1.2-5.6l-0.1-3l1.6,0c4.6-0.1,7.5-0.7,8.5-1.7l4.5-0.1
					l0.1,3c-2,2.7-3.3,6.6-3.7,11.7l0.6,1l0,0.5c0,0.3-0.2,0.5-0.5,0.5c0.7,2.1,1.2,4.8,1.8,8.1c-0.4,0-0.5,0.2-0.5,0.5
					c0.7,0.1,1,0.4,1,1c0,0.4-0.1,0.5-0.5,0.5c1,1.5,1.6,2.5,1.6,3l5.6-0.1l8.4-7.9l2.5-0.5l0.5,0l0,0.5l-2.5,3.1l0,0.5
					c2-0.1,3.1,0.6,3.1,1.9l0,1c-1,1.6-4.3,4.1-9.9,7.4c-3.6,3.1-6.7,4.7-9.5,4.8c-1.7-0.1-5.1-2.8-10.3-8.3l0-0.5l0.9-2.1l-0.5,0
					c-8.8,6.6-15.5,10-19.9,10.1c-0.3,0.4-1.7,0.6-4,0.6c-6.8-1-10.2-3.2-10.3-6.8c-0.9,0-1.6-2-2.2-6c0.2-4.2,0.8-7.9,1.7-11.1
					l-0.6-1c0.4-1.7,1.1-2.6,2-2.6l-0.1-2c-0.1-4.1,4.5-8.8,13.8-14C619.1,303.9,626.7,301.5,634,301.4z M598.5,337.2l0.1,3
					c1,1.3,1.6,2.3,1.6,3l1,0l0-1c-0.8-0.9-1.5-2.6-2.2-5L598.5,337.2z M600.7,326.5l-0.4,2.6l0,0.5c0.7,0,1-0.4,1-1l-0.1-2
					L600.7,326.5z M602.6,320.4l-1.4,2.1l0,0.5c0.1,0.7,0.4,1,1,1c0-0.6,0.3-1.5,0.9-2.6c-0.4,0-0.5-0.1-0.5-0.5
					c0.4,0,0.5-0.2,0.5-0.6L602.6,320.4z M604.5,333.5l0.1,3l1,0l0-0.5l-0.6-2.5L604.5,333.5z M629.5,339.4l0,0.5l0.5,0
					c2.5-1,3.8-1.9,4-2.7l0-0.5l-1,0C631.2,338.5,630.1,339.4,629.5,339.4z M631.7,328.3c0,0.8-0.3,1.7-0.9,2.5l0,1.5l0.5,0l1.4-4
					L631.7,328.3z M632.3,334.3l0.5,0c1.6-2.3,2.4-3.8,2.4-4.6C634.2,330.1,633.2,331.7,632.3,334.3z"/>
				<path d="M680.6,214l0.6,2l0.5,0c0-0.7,0.8-1.4,2.5-2.1l1,0c0,0.4,0.7,1.4,2.1,3l0,0.5c-2.5,3.5-6.9,23.2-13.2,59
					c-1,10.4-2.1,16.3-3,17.8c0,0.3,0.2,0.5,0.6,0.5c-0.4,9.3-1.1,16.4-2,21.3l0.6,1c0,0.3-0.2,0.5-0.5,0.5l1.2,7.1l-0.5,0
					c3.6,12.4,7.1,18.5,10.6,18.4l6.3-10.3c0.3-0.6,0.4-1.4,0.4-2.5c-2.8-2-4.2-6.5-4.4-13.5c-0.3,0-0.5-0.5-0.5-1.5
					c-0.2-8.1,1.8-15.6,6-22.4c1.9-2.2,3.7-3.6,5.4-4.2c0.1-0.7,0.4-1,1-1l2-0.1c3.7-0.1,5.8,5.6,6.1,17.1c-0.8,9.2-2,15.9-3.5,20.3
					c0,0.3,0.9,1.5,2.6,3.5c4.1-0.1,7.8-1.7,11-4.9l0,0.5c0,0.5-0.5,1-1.5,1.5c0.4,0.5,0.6,1.4,0.6,2.6l1,0l2-1.6l0.5,0l0,0.5
					c-4.2,3.8-7.1,5.7-8.9,5.8l0,1l0.5,0c2.4-0.9,3.5-1.7,3.5-2.7l0.5,0l2.5,0.5c0.1,2.1-3.6,4.7-10.9,7.9l-1.5,0
					c-2.5,0.1-4.9-0.7-7.2-2.3l-0.5,0c-5.5,7.9-10,11.9-13.3,12c-1.3,0.7-3.7,1.3-7.1,1.7c-3.6-0.5-7.2-2.2-10.8-5.3
					c-3.3-4-5.3-8.3-6-13c-0.3,0-0.5-0.1-0.5-0.5l0-1.5c0-0.4,0.1-0.5,0.5-0.5l-0.5-1l-0.4-13.6c-0.1-4.9,0.5-12.8,1.9-23.8l-0.5-1
					c1.5-6.4,2.2-11.3,2.1-14.7l1-0.5c-0.7-1.1-1.1-1.9-1.1-2.5c0.8,0,2.4-8,5-23.9c2.7-12.6,5.6-23,8.8-31.1l0-0.5l1,0l1,0.5
					c0-1.7,1.3-2.6,4-2.7C679.2,214.8,679.6,214.4,680.6,214z M659.8,305.2c0,1.7-0.3,2.6-0.9,2.6l0.2,7c0.1,0.7,0.5,1,1,1l0.5,0
					l-0.1-2.5c0-0.8-0.2-1.4-0.5-2c0.3-2,0.6-3.1,0.9-3.1l-0.6-1l0-0.5l0.5-1L659.8,305.2z M664.4,269.2c0.1,2.3-0.6,3.5-1.9,3.6
					l0,1l1-0.5l0.1,2.5l0.5,0c0.6-3.4,0.9-5.5,0.9-6.1l0-0.5L664.4,269.2z M665.3,263.5c0.1,2-0.4,3.1-1.4,3.1
					c0.3,0.7,0.5,1.2,0.5,1.5l1,0l0.4-3.6l0-1L665.3,263.5z M667.4,269.6c-0.8,5.7-1.4,8.6-1.8,8.6c0,0.4,0.2,0.5,0.5,0.5
					c-1.4,10.7-2.1,18.3-2,22.8c0.8,0,1.4-1.6,1.9-4.6l-0.5-1c0.5-5.3,1.1-8.2,1.8-8.6l-0.1-2c0-1.5,0.4-5.4,1.2-11.7
					c-0.3-0.6-0.5-1.1-0.5-1.5l1,0c-0.4-0.5-0.6-1.4-0.6-2.5L667.4,269.6z M664.8,340l0,0.5c0,0.5,0.9,1.3,2.6,2.5l0-0.5
					c-0.9-1.6-1.6-2.5-2.1-2.4L664.8,340z M666.1,259l-0.4,3.5l0,0.5l0.5,0c0.6-2.6,0.9-3.9,0.9-4.1L666.1,259z M666,311.1l0,0.5
					l0.5,0l-0.5,1l0,0.5c0,0.3,0.2,0.5,0.5,0.5l-0.5,1l0,1l1,0l0-0.5c0-0.4-0.2-0.5-0.5-0.5l0.5-1l0-1.5
					C667.1,311.4,666.7,311.1,666,311.1z M668.6,293.9c-0.3,3-0.8,4.6-1.4,4.6l0.6,3.5l0.1,2c0,0.8-0.1,1.4-0.5,2
					c0.4,0.5,0.6,1.4,0.6,2.5l0.5,0c-0.1-2.5,0.1-4.4,0.4-5.6c0-0.3-0.2-0.5-0.5-0.5l0.8-8.1l0-0.5L668.6,293.9z M669.6,254.8
					c-0.9,4.2-1.4,6.7-1.3,7.6l0,1.6l0.5,0c0-1.7,0.5-4.8,1.8-9.2L669.6,254.8z M668.5,289.8l0,0.5l0.5,1c-0.3,0.6-0.4,1.3-0.4,2
					c0.7,0,1.1-1.2,1.4-3.6L668.5,289.8z M669.1,332.3c0.8,4,2.4,7.5,4.9,10.5l0.5,0l0-0.5c-1.5-2.4-3.1-5.7-4.8-10L669.1,332.3z
					 M670.1,271.5l0.5,1l-1,0.6c0,0.3,0.2,0.5,0.5,0.5l-0.5,2l0,1l0.5,0c0.1-2.7,0.6-4.1,1.4-4.1l0.1,3.5l0.5,0c0-1,0.1-2.2,0.4-3.5
					l-2-0.4l0.5-1l0-0.5C670.4,270.6,670,271,670.1,271.5z M671.4,244.2c-0.9,4-1.4,6.8-1.3,8.1l0,0.5l0.5,0c0.2-2,0.5-3.1,0.9-3.1
					l-0.6-1c1-2.1,1.5-3.7,1.4-4.6L671.4,244.2z M671.8,241.6l0,1c0.8,0,1.3-1.4,1.4-4C672.2,238.9,671.7,239.9,671.8,241.6z
					 M672.5,267.9l1,0c0-0.4-0.2-0.5-0.5-0.5c0.6-1.1,0.9-2.2,0.9-3.1l0-1C673.2,263.3,672.7,264.9,672.5,267.9z M673.4,225.9
					l-0.5,2.6l0,1l0.5,0c0-0.5,0.3-1.2,1-2.1l0-1.6L673.4,225.9z M677.8,239.9l-2.3,9.7l0,1l1,0c0.4-3.9,1.1-6.8,2.3-8.7l-0.1-2
					L677.8,239.9z M677.7,236.4c0,1.1-0.1,2-0.5,2.5l0.5,0c0-0.3,0.1-0.5,0.5-0.5l0,1c0.7,0,1-0.3,1-1l0-0.5
					C679.2,237.4,678.7,236.9,677.7,236.4z M687.1,303c0.1,2.3-0.2,3.5-0.9,3.5l0.6,1c-0.3,0.7-0.5,1.2-0.5,1.6l1,0l0.4-3.6
					c0-0.3-0.2-0.5-0.5-0.5l0.5-1l0-1L687.1,303z M686.5,321.2l0,1c0.4,2,1,3,1.6,3l0.5-1c-1,0-1.5-1-1.6-3L686.5,321.2z M689,317.1
					c0,1.4-0.1,2-0.5,2c0.4,0.5,0.6,1.4,0.6,2.5c0.7,0,1-0.4,1-1c-0.4-1.3-0.6-2.5-0.6-3.6L689,317.1z M694.5,297.7
					c-1.5,6.1-2.2,11.5-2.1,16.2l0,0.5l0.5,2.5c1.2,0,2.3-4.4,3.2-13.2l-0.6-1l0-0.5c0-0.3,0.2-0.5,0.5-0.5c-0.7-2-1.1-3.4-1.1-4
					L694.5,297.7z"/>
			</g>
		</g>
	</g>
	<g>
		<g>
			<path d="M601.5,219.7c1.4,1.9,0.9-1.1,0.5-3.8l-2.8-1.3C599.9,216.3,600.7,218,601.5,219.7z"/>
			<path d="M596.8,208.1c-1.6-1.6-3.1-3.1-4.7-4.6l3,3.5c1.2,4.9-2.3,0.4-3.5-1C595.7,213,595.1,207.5,596.8,208.1z"/>
			<path d="M589.6,198.1c-1.9-3.5-2.5-1.9-2-0.2C588.2,197.8,590,199.7,589.6,198.1z"/>
			<path d="M381.2,84.4c1.2,0.2,2.5,0.3,2.4,0.7C384.8,84.5,385,84.2,381.2,84.4z"/>
			<path d="M383.5,85c-0.2,0.1-0.5,0.2-0.8,0.3c0.3-0.1,0.5-0.1,0.8-0.2C383.6,85.1,383.5,85.1,383.5,85z"/>
			<path d="M460.3,109.2c4.4,0.2,6.5,1.6,10.4,2.5l1.5,2.4c4.3,1,2.3-0.7,5.6-0.4c3.3,2.4,11.4,4.9,13,5.8c0.8,1.3-1.9,0.3-2.7,0.5
				c4.8,1.6,5.3,0,11,2.9l-0.1,0.5c7.3,2.5,15,6.6,22.5,11.5c7.5,4.9,14.8,10.4,21.7,15.7c-0.8-0.9-0.3-0.9-0.4-1.5
				c7,5.9,14,12.8,20.5,19.6c6.5,6.8,12.6,13.4,18.4,18.5c-2.9-4.1-6.4-10-10.4-15.5c-4-5.5-8.7-10.7-13.3-13.4
				c-1.7-3.6-7.1-6.5-7.1-8.8c-5.1-5.4-9.4-8.3-13.8-11c-4.4-2.7-8.8-5.1-14.6-9c-1.5-1.4-0.2-1.5-0.2-2.5c3.2,1.9,6.4,3.8,9.6,5.8
				c-1.7-1.6-3.4-3.1-5.1-4.6c2.9,1,8.4,5.9,9.9,5.2c-4.5-2.3-9.7-6-15-9.4c-5.3-3.3-10.7-6.3-14.9-7.4c3.3,2.3,7.9,4.4,11.8,7.1
				c1.5,1.6,3.9,3.7,3.3,4.3c-6.3-2.8-11.6-5.7-17.1-8.6c-5.4-2.9-11-5.8-17.4-8.2c-3.2-1.2-7.5-3.1-7.7-4c2.2,0.6,0.9-0.7,2.8-0.4
				c-4.8-1.1-1.5,2.5-8-0.2l1.8-2.4c-3.6,1.9-8-3.4-13.4-3.1c-1.4-1.6,2-1.3,5.7-0.2c-4.1-1.8-5-0.3-8.3-1.3l3.9-1.4
				c-4.3,1.2-6.4-2.3-8.3-3.5c-0.4,0.5,1.1,2.8-3.5,1.5c-1.9-0.8-0.8-1.1-1.2-1.6c-0.4,0.5-2.3,1.2-5.4,0.7
				c-0.4-0.9,2.3-0.8,2.7-1.6c-2.3-0.5-4.3-0.7-5.8-1.6c-4.3-0.1,0.1,1.2-2.6,1.6c-6.2-1.6-0.2-2.9-2.2-5c5.1-0.4,11.4,0.5,14.1,0.5
				c-3.2-0.5-6.3-0.9-9.5-1.2c0.8-0.9-6.1-2.7-1-2.8c-9.3-2.6-21.1-2.7-30.2-2.1c1.3,0.4,2.9,0.7,2.6,1.2c-4.7,0.4-4.2-0.8-5.1-1.5
				c-3.5,0.6-3.1,2.3-5.3,3.5c-7.2-1.3-8.1-0.4-14.4-2.1l0.5,1.6c-4.4-1-4.8,1.5-9.5,1c-0.3-0.3,1.4-0.9,2.8-1.5
				c-4.1,0.9-4-1-7.9,0.1l3-2.2c-3.2,0.4-7.9,1.7-6.4-0.1c-5.4,2.6-15.3,3.8-21.9,6.6l0.1-1.5c-1.6,1.3-4.8,2.1-8,3.1
				c-3.2,0.9-6.2,2-7.4,3.5l-0.7-0.4c-2.1,1.4-4.2,2.8-6.2,4.2c-3.1,1-2.8-1.4-2.9-0.8c-6.6,2.9-11.7,5.4-16.2,6.7
				c-0.2,2.2-6.8,6-11.8,9.2c-12.8,6.6-25.1,15.4-35.7,25.4c-10.7,10.1-19.8,21.3-27,32.4c-2.4,3.2-3.9,8.8-5.8,13.4
				c3.8-4.6,3.3-5.6,6.8-10.4c3.1-3.2,5.7-3.2,9-5.3l-2.5,0.4c2.8-5.4,3.3-2.6,5.1-7.1l1.8,1.9c0.1-2.1,3.7-4.4,5.3-5.1l-0.2-2.3
				c3.3-2,5.3-3.3,7.3-2.9l-1.4-0.9c0.9-0.1,3.4-2.6,5.6-4.3c2.2-1.7,4.1-2.8,3.3-0.3c0.5-1,0.7-2.3,2.6-3.6l1.3,1
				c2.3-2.5,5-5,6.3-4.9c-1.2,1.4-1.2,2.4-1.2,3.3c5.6-4.2,5.4-5.6,5-7.1c-0.4-1.4-1-2.9,4.2-6.5l0.5,1l2-2.7l3.6-0.7
				c0.9-2.8,4.8-5,9.1-7.1c4.4-2.1,9.2-4,12.3-6.5c2.6-1.6,7.1-1.3,12.2-3.6l-1-1.4c2.5-0.1,7.8-1.4,13.1-2.2
				c5.4-0.8,10.8-1,13.3,0.3c3.7-2.3-0.5-0.2-0.8-1.5c7.6-3.7,8.8-1.2,13.2-1.2c4.8-1.8-3.9,0.1-1.5-1.6c3.9-0.2,5.4-0.9,7.1-1.7
				c1.7-0.8,3.7-1.7,8.5-1.8c1.1,0.8-2.4,1-3.3,1.7c3.2-1.3,8.1-2,13.3-2.4c5.3-0.4,11-0.4,16-0.5c5.8,0.6,12.9,1.3,20.2,2.5
				c7.3,1.2,14.7,2.9,21.1,5l0.4-0.5c5.1,2.7,11.2,2.7,17.2,5.3L460.3,109.2z"/>
			<path d="M540.3,133.9l0-1.8c-1.9-1.1-3.9-2.2-5.8-3.3C535.9,131.3,537.6,131.3,540.3,133.9z"/>
			<path d="M536.5,136.3l3.1,1.6c-1.4-1.1-2.9-2.3-4.4-3.4L536.5,136.3z"/>
			<path d="M464.9,96.5l0.7,0.5c4.1,0.8,8.2,1.7,12.2,2.8C473.5,98.5,469.2,97.4,464.9,96.5z"/>
			<path d="M381.5,82.9c1.4-0.9,3.5-0.8,5-1.4c-2,0.4-3.9,0.8-5.9,1.2L381.5,82.9z"/>
			<path d="M323.4,90.6c-1.3,3.2-4.3,1.6-0.6,2.7C326,91.6,322.7,91.8,323.4,90.6z"/>
			<path d="M312.2,99.2c1.9-0.8,2.8-1.6,3.7-2.4C313,96.9,313.4,98.2,312.2,99.2z"/>
		</g>
	</g>
</g>
</svg>
