<svg width="10" height="17" viewBox="0 0 10 17" fill="none" xmlns="http://www.w3.org/2000/svg">
<path d="M9.15683 1.36714C9.06491 1.27499 8.95571 1.20187 8.83548 1.15198C8.71526 1.1021 8.58637 1.07642 8.45621 1.07642C8.32604 1.07642 8.19716 1.1021 8.07693 1.15198C7.95671 1.20187 7.84751 1.27499 7.75558 1.36714L1.17683 7.94589C1.10344 8.01913 1.04522 8.10613 1.00549 8.2019C0.965761 8.29767 0.945312 8.40033 0.945312 8.50402C0.945312 8.6077 0.965761 8.71037 1.00549 8.80614C1.04522 8.90191 1.10344 8.9889 1.17683 9.06214L7.75558 15.6409C8.1435 16.0288 8.76892 16.0288 9.15683 15.6409C9.54475 15.253 9.54475 14.6276 9.15683 14.2396L3.42516 8.50006L9.16475 2.76048C9.54475 2.38048 9.54475 1.74714 9.15683 1.36714Z" fill="#1E232C" stroke="#1E232C" stroke-width="0.2"/>
</svg>
