<svg width="24" height="24" viewBox="0 0 24 24" fill="none" xmlns="http://www.w3.org/2000/svg">
<path fill-rule="evenodd" clip-rule="evenodd" d="M12 24C18.6274 24 24 18.6274 24 12C24 5.37258 18.6274 0 12 0C5.37258 0 0 5.37258 0 12C0 18.6274 5.37258 24 12 24Z" fill="#231F20"/>
<path d="M12.0631 19.4621L7.73423 18.2604L6.76953 7.44043H17.3697L16.404 18.2587L12.0631 19.4621V19.4621Z" fill="#264DE4"/>
<path d="M15.576 17.5698L16.4012 8.32507H12.0684V18.5422L15.576 17.5698V17.5698Z" fill="#2965F1"/>
<path d="M8.98119 12.338L9.10011 13.665H12.0697V12.338H8.98119ZM8.74219 9.6521L8.86281 10.9791H12.0697V9.6521H8.74219V9.6521ZM12.0697 15.7844L12.0639 15.786L10.586 15.3869L10.4915 14.3286H9.1594L9.3453 16.4122L12.0636 17.1668L12.0697 17.1651V15.7844Z" fill="#EBEBEB"/>
<path d="M9.26367 4.5H10.8709V5.17213H9.9358V5.84427H10.871V6.51636H9.26367V4.5ZM11.1924 4.5H12.7996V5.08446H11.8645V5.20134H12.7996V6.54561H11.1924V5.93186H12.1275V5.81497H11.1923V4.5H11.1924ZM13.1211 4.5H14.7283V5.08446H13.7932V5.20134H14.7283V6.54561H13.1211V5.93186H14.0562V5.81497H13.1211V4.5H13.1211Z" fill="white"/>
<path d="M15.1491 12.338L15.3887 9.6521H12.0645V10.9791H13.9344L13.8136 12.338H12.0645V13.665H13.6986L13.5445 15.3861L12.0645 15.7856V17.1661L14.7849 16.4122L14.8049 16.188L15.1168 12.6944L15.1491 12.338V12.338Z" fill="white"/>
</svg>
