<svg width="24" height="25" viewBox="0 0 24 25" fill="none" xmlns="http://www.w3.org/2000/svg">
<path d="M11.9875 5.41358C12.6063 5.41358 13.2113 5.26996 13.7258 5.00086C14.2404 4.73176 14.6414 4.34928 14.8782 3.90179C15.115 3.4543 15.177 2.96189 15.0563 2.48683C14.9355 2.01178 14.6375 1.57541 14.2 1.23292C13.7624 0.89042 13.2049 0.657177 12.5979 0.562683C11.991 0.468188 11.3618 0.516686 10.7901 0.702044C10.2184 0.887401 9.7297 1.20129 9.38589 1.60403C9.04208 2.00676 8.85857 2.48024 8.85857 2.96461C8.85857 3.61412 9.18823 4.23702 9.77501 4.6963C10.3618 5.15557 11.1576 5.41358 11.9875 5.41358ZM11.9875 1.49522C12.3588 1.49522 12.7218 1.5814 13.0305 1.74285C13.3392 1.90431 13.5798 2.1338 13.7219 2.4023C13.864 2.67079 13.9012 2.96624 13.8288 3.25127C13.7563 3.5363 13.5775 3.79812 13.315 4.00362C13.0524 4.20912 12.7179 4.34906 12.3537 4.40576C11.9896 4.46246 11.6121 4.43336 11.2691 4.32214C10.926 4.21093 10.6328 4.02259 10.4265 3.78095C10.2202 3.53931 10.1101 3.25522 10.1101 2.96461C10.1101 2.5749 10.3079 2.20115 10.66 1.92559C11.0121 1.65003 11.4896 1.49522 11.9875 1.49522V1.49522ZM22 6.78501C22 6.78501 22 6.78501 22 6.75563C22 6.72624 22 6.72624 22 6.71154V6.65767C22 6.65767 22 6.62828 22 6.61848V6.59399L21.9625 6.54991L21.8811 6.48624L21.7685 6.44216H21.7247H21.6496H21.5307H5.49186C5.39313 6.44196 5.29573 6.46005 5.20763 6.49495C5.11953 6.52985 5.04324 6.58057 4.98498 6.64297L2.09387 9.77277C2.07455 9.7961 2.0578 9.82068 2.0438 9.84624V9.88052C2.01691 9.93361 2.00209 9.98997 2 10.0471V24.0258C2 24.1557 2.06593 24.2803 2.18329 24.3722C2.30064 24.464 2.45981 24.5156 2.62578 24.5156H18.3454C18.4366 24.5145 18.5263 24.4978 18.6083 24.4666L18.6708 24.4324C18.7267 24.4076 18.7774 24.3762 18.821 24.3393L21.8498 21.2095C21.9311 21.1247 21.975 21.0216 21.975 20.9156V6.8242C21.975 6.8242 22 6.79971 22 6.78501ZM5.81101 7.31399H20.1227L18.0451 9.4642H3.85231L5.81101 7.31399ZM3.22653 10.4389H17.7196V23.536H3.22653V10.4389ZM18.9712 22.5662V10.2577L20.7484 8.33767V20.7344L18.9712 22.5662Z" fill="white" fill-opacity="0.6"/>
<path d="M14.1364 7.57935H8.68182C8.50099 7.57935 8.32757 7.62873 8.1997 7.71664C8.07183 7.80455 8 7.92378 8 8.0481C8 8.17242 8.07183 8.29164 8.1997 8.37955C8.32757 8.46746 8.50099 8.51685 8.68182 8.51685H14.1364C14.3172 8.51685 14.4906 8.46746 14.6185 8.37955C14.7463 8.29164 14.8182 8.17242 14.8182 8.0481C14.8182 7.92378 14.7463 7.80455 14.6185 7.71664C14.4906 7.62873 14.3172 7.57935 14.1364 7.57935Z" fill="white" fill-opacity="0.6"/>
</svg>
