<svg width="24" height="24" viewBox="0 0 24 24" fill="none" xmlns="http://www.w3.org/2000/svg">
<path fill-rule="evenodd" clip-rule="evenodd" d="M12 24C18.6274 24 24 18.6274 24 12C24 5.37258 18.6274 0 12 0C5.37258 0 0 5.37258 0 12C0 18.6274 5.37258 24 12 24Z" fill="#231F20"/>
<path d="M12.0889 6.00002C11.603 6.00159 11.2661 6.0444 10.8589 6.11471C9.65639 6.32409 9.43733 6.76377 9.43733 7.57409V8.81252H12.2498V9.43752H9.33045H7.97108C7.14733 9.43752 6.42639 9.82565 6.19795 10.756C5.93983 11.8238 5.92827 12.4925 6.19795 13.6075C6.40264 14.4391 6.85358 15.0625 7.67764 15.0625H8.81264V13.4675C8.81264 12.5406 9.65202 11.625 10.6139 11.625H12.8751C13.6636 11.625 14.4376 11.0431 14.4376 10.2572V7.57409C14.4376 6.8119 13.888 6.2419 13.1195 6.11409C13.1386 6.11221 12.5708 5.99815 12.0889 6.00002ZM10.5314 7.25002C10.788 7.25002 11.0001 7.46159 11.0001 7.7194C11.0001 7.97971 10.788 8.18752 10.5314 8.18752C10.2698 8.18752 10.0626 7.98002 10.0626 7.7194C10.0626 7.46252 10.2698 7.25002 10.5314 7.25002Z" fill="#0277BD"/>
<path d="M11.7863 17.875C12.2722 17.8734 12.6091 17.8306 13.0163 17.7603C14.2188 17.5509 14.4378 17.1113 14.4378 16.3009V15.0625H11.6253V14.4375H14.545H15.9044C16.7281 14.4375 17.4491 14.0494 17.6775 13.1191C17.9356 12.0513 17.9472 11.3825 17.6775 10.2675C17.4725 9.43594 17.0216 8.8125 16.1975 8.8125H15.0625V10.4075C15.0625 11.3344 14.2231 12.25 13.2613 12.25H11C10.2116 12.25 9.4375 12.8319 9.4375 13.6178V16.3009C9.4375 17.0631 9.98719 17.6331 10.7556 17.7609C10.7366 17.7628 11.3044 17.8769 11.7863 17.875ZM13.3441 16.625C13.0875 16.625 12.8753 16.4134 12.8753 16.1556C12.8753 15.8953 13.0875 15.6875 13.3441 15.6875C13.6056 15.6875 13.8128 15.895 13.8128 16.1556C13.8128 16.4125 13.6053 16.625 13.3441 16.625Z" fill="#FFC107"/>
</svg>
