<svg width="24" height="24" viewBox="0 0 24 24" fill="none" xmlns="http://www.w3.org/2000/svg">
<path fill-rule="evenodd" clip-rule="evenodd" d="M12 24C18.6274 24 24 18.6274 24 12C24 5.37258 18.6274 0 12 0C5.37258 0 0 5.37258 0 12C0 18.6274 5.37258 24 12 24Z" fill="#231F20"/>
<path d="M18.75 12.0125C18.75 11.1182 17.63 10.2707 15.913 9.74511C16.3092 7.99501 16.1331 6.60263 15.3571 6.15685C15.1783 6.05228 14.9691 6.00275 14.7407 6.00275V6.61639C14.8673 6.61639 14.9691 6.64115 15.0544 6.68793C15.4287 6.90257 15.591 7.71983 15.4644 8.77099C15.4342 9.02966 15.3846 9.30208 15.3241 9.58C14.7848 9.44792 14.1959 9.34611 13.5767 9.28006C13.2053 8.77099 12.82 8.3087 12.432 7.9042C13.3291 7.07042 14.1711 6.61364 14.7435 6.61364V6C13.9868 6 12.9961 6.53934 11.9945 7.47493C10.9929 6.54484 10.0022 6.01101 9.24552 6.01101V6.62464C9.81512 6.62464 10.6599 7.07868 11.557 7.90695C11.1717 8.31146 10.7865 8.77099 10.4205 9.28006C9.79861 9.34611 9.20974 9.44792 8.6704 9.58276C8.60711 9.30758 8.56033 9.04066 8.52731 8.78475C8.39798 7.73359 8.55758 6.91633 8.92907 6.69894C9.01162 6.64941 9.11894 6.6274 9.24552 6.6274V6.01376C9.01437 6.01376 8.80524 6.06329 8.62362 6.16786C7.85039 6.61364 7.67703 8.00326 8.07603 9.74786C6.36445 10.2762 5.25 11.121 5.25 12.0125C5.25 12.9068 6.36995 13.7544 8.08704 14.28C7.69079 16.0301 7.8669 17.4224 8.64289 17.8682C8.82175 17.9728 9.03088 18.0223 9.26203 18.0223C10.0188 18.0223 11.0094 17.483 12.011 16.5474C13.0126 17.4775 14.0033 18.0113 14.76 18.0113C14.9911 18.0113 15.2003 17.9618 15.3819 17.8572C16.1551 17.4114 16.3285 16.0218 15.9295 14.2772C17.6355 13.7516 18.75 12.9041 18.75 12.0125ZM15.1672 10.1771C15.0654 10.5321 14.9388 10.8981 14.7958 11.2641C14.6829 11.0439 14.5646 10.8238 14.4353 10.6036C14.3087 10.3835 14.1739 10.1689 14.039 9.95974C14.4298 10.0175 14.8068 10.0891 15.1672 10.1771ZM13.907 13.1077C13.6923 13.4792 13.4722 13.8314 13.2438 14.1589C12.8338 14.1947 12.4183 14.2139 12 14.2139C11.5845 14.2139 11.169 14.1947 10.7617 14.1616C10.5333 13.8342 10.3104 13.4847 10.0958 13.116C9.88667 12.7555 9.6968 12.3895 9.52344 12.0208C9.69405 11.6521 9.88667 11.2833 10.093 10.9228C10.3077 10.5514 10.5278 10.1991 10.7562 9.87169C11.1662 9.83591 11.5817 9.81665 12 9.81665C12.4155 9.81665 12.831 9.83592 13.2383 9.86894C13.4667 10.1964 13.6896 10.5459 13.9042 10.9146C14.1133 11.2751 14.3032 11.6411 14.4766 12.0098C14.3032 12.3785 14.1133 12.7472 13.907 13.1077ZM14.7958 12.75C14.9444 13.1187 15.0709 13.4875 15.1755 13.8452C14.815 13.9332 14.4353 14.0075 14.0418 14.0653C14.1766 13.8534 14.3115 13.6361 14.438 13.4132C14.5646 13.193 14.6829 12.9701 14.7958 12.75ZM12.0055 15.6861C11.7496 15.4219 11.4937 15.1275 11.2405 14.8055C11.4882 14.8166 11.7413 14.8248 11.9972 14.8248C12.2559 14.8248 12.5118 14.8193 12.7622 14.8055C12.5146 15.1275 12.2587 15.4219 12.0055 15.6861ZM9.95821 14.0653C9.56747 14.0075 9.19048 13.936 8.83 13.8479C8.93182 13.493 9.0584 13.127 9.20149 12.761C9.31431 12.9811 9.43263 13.2013 9.56196 13.4214C9.6913 13.6416 9.82338 13.8562 9.95821 14.0653ZM11.9917 8.33897C12.2477 8.60314 12.5036 8.89757 12.7567 9.21953C12.5091 9.20852 12.2559 9.20026 12 9.20026C11.7413 9.20026 11.4854 9.20577 11.235 9.21953C11.4827 8.89757 11.7386 8.60314 11.9917 8.33897ZM9.95546 9.95974C9.82063 10.1716 9.68579 10.389 9.55921 10.6119C9.43263 10.832 9.31431 11.0522 9.20149 11.2723C9.05289 10.9036 8.92631 10.5349 8.82175 10.1771C9.18223 10.0918 9.56197 10.0175 9.95546 9.95974ZM7.46515 13.4049C6.49103 12.9894 5.86088 12.4446 5.86088 12.0125C5.86088 11.5805 6.49103 11.0329 7.46515 10.6202C7.70179 10.5183 7.96046 10.4275 8.22737 10.3422C8.38422 10.8816 8.5906 11.4429 8.84651 12.018C8.59336 12.5904 8.38973 13.149 8.23563 13.6856C7.96321 13.6003 7.70455 13.5067 7.46515 13.4049ZM8.94558 17.3371C8.57134 17.1225 8.40899 16.3052 8.53557 15.2541C8.56584 14.9954 8.61537 14.723 8.67591 14.4451C9.21525 14.5771 9.80412 14.679 10.4233 14.745C10.7947 15.2541 11.18 15.7164 11.568 16.1209C10.6709 16.9546 9.82888 17.4114 9.25652 17.4114C9.13269 17.4087 9.02813 17.3839 8.94558 17.3371ZM15.4727 15.2403C15.602 16.2915 15.4424 17.1087 15.0709 17.3261C14.9884 17.3757 14.8811 17.3977 14.7545 17.3977C14.1849 17.3977 13.3401 16.9436 12.443 16.1154C12.8283 15.7109 13.2135 15.2513 13.5795 14.7423C14.2014 14.6762 14.7903 14.5744 15.3296 14.4396C15.3929 14.7175 15.4424 14.9844 15.4727 15.2403ZM16.5321 13.4049C16.2955 13.5067 16.0368 13.5975 15.7699 13.6828C15.613 13.1435 15.4066 12.5821 15.1507 12.007C15.4039 11.4347 15.6075 10.8761 15.7616 10.3395C16.034 10.4248 16.2927 10.5183 16.5349 10.6202C17.509 11.0357 18.1391 11.5805 18.1391 12.0125C18.1364 12.4446 17.5062 12.9922 16.5321 13.4049Z" fill="#61DAFB"/>
<path d="M11.9978 13.2701C12.6923 13.2701 13.2553 12.7071 13.2553 12.0125C13.2553 11.318 12.6923 10.755 11.9978 10.755C11.3033 10.755 10.7402 11.318 10.7402 12.0125C10.7402 12.7071 11.3033 13.2701 11.9978 13.2701Z" fill="#61DAFB"/>
</svg>
