<svg width="21" height="13" viewBox="0 0 21 13" fill="none" xmlns="http://www.w3.org/2000/svg">
<path d="M10.276 4.00462C12.5478 4.00462 14.3894 5.79549 14.3894 8.00462C14.3894 10.2138 12.5478 12.0046 10.276 12.0046C8.00426 12.0046 6.16264 10.2138 6.16264 8.00462C6.16264 5.79549 8.00426 4.00462 10.276 4.00462ZM10.276 0.5C15.0203 0.5 19.1158 3.65001 20.2521 8.06439C20.3556 8.4662 20.1044 8.87348 19.6912 8.97406C19.278 9.07465 18.8592 8.83045 18.7558 8.42863C17.7903 4.67796 14.3085 2 10.276 2C6.24175 2 2.75892 4.68026 1.79511 8.43315C1.6919 8.83502 1.27322 9.07944 0.859959 8.97908C0.446696 8.87872 0.195347 8.47158 0.298555 8.06971C1.43291 3.65272 5.52968 0.5 10.276 0.5Z" fill="#212121"/>
</svg>
