<svg width="24" height="24" viewBox="0 0 24 24" fill="none" xmlns="http://www.w3.org/2000/svg">
<path fill-rule="evenodd" clip-rule="evenodd" d="M12 24C18.6274 24 24 18.6274 24 12C24 5.37258 18.6274 0 12 0C5.37258 0 0 5.37258 0 12C0 18.6274 5.37258 24 12 24Z" fill="#231F20"/>
<path d="M7.09091 6C6.4884 6 6 6.54 6 7.2V11.4V12.6V16.8C6 17.46 6.4884 18 7.09091 18H12H16.9091C17.5118 18 18 17.46 18 16.8V12.6V11.4V7.2C18 6.54 17.5118 6 16.9091 6H12H7.09091Z" fill="#2C3E50"/>
<path d="M7.09091 17.4C6.4884 17.4 6 16.86 6 16.2V12V10.8V9H18V10.8V12V16.2C18 16.86 17.5118 17.4 16.9091 17.4H12H7.09091Z" fill="#34495E"/>
<path d="M7.63672 7.5V8.15999L8.72763 9.6L7.63672 10.98V11.64L9.27308 9.6L7.63672 7.5V7.5Z" fill="#ECF0F1"/>
<path d="M7.09091 6C6.4884 6 6 6.53724 6 7.2V11.4V12.6V14.4H18V12.6V11.4V7.2C18 6.53724 17.5118 6 16.9091 6H12H7.09091Z" fill="#34495E"/>
<path d="M7.63672 7.875V8.55L9.27308 9.6L7.63672 10.65V11.325L10.364 9.6L7.63672 7.875ZM10.364 10.8V11.4H13.0913V10.8H10.364Z" fill="#ECF0F1"/>
</svg>
