<svg width="100" height="100" viewBox="0 0 100 100" fill="none" xmlns="http://www.w3.org/2000/svg">
<path fill-rule="evenodd" clip-rule="evenodd" d="M50 100C77.6142 100 100 77.6142 100 50C100 22.3858 77.6142 0 50 0C22.3858 0 0 22.3858 0 50C0 77.6142 22.3858 100 50 100Z" fill="#FFC7A8"/>
<path d="M50.0468 45.0495C33.465 45.022 20.0246 58.4177 19.9972 74.9993C20.0517 74.9994 79.9971 75.0987 79.9971 75.0987C80.0246 58.5172 66.6286 45.0769 50.0468 45.0495Z" fill="#373737"/>
<path d="M50.0323 45.0493C58.3166 45.063 65.0434 38.3585 65.0571 30.0744C65.0709 21.7902 58.3663 15.0635 50.082 15.0498C41.7978 15.036 35.0709 21.7405 35.0572 30.0247C35.0434 38.3088 41.748 45.0356 50.0323 45.0493Z" fill="#373737"/>
</svg>
