<svg width="85" height="85" viewBox="0 0 85 85" fill="none" xmlns="http://www.w3.org/2000/svg">
<circle cx="42.5" cy="42.5" r="42.5" fill="#272727"/>
<path d="M75.0238 60.498H10.1078C9.66282 62.8497 10.6104 63.5825 12.6719 63.5784H13.8781C14.7896 63.5784 15.6997 63.5784 16.6057 63.5784C35.2514 63.5483 53.894 63.5515 72.5335 63.588C74.6204 63.5825 75.5211 62.7964 75.0238 60.498ZM48.3929 61.9856C48.3929 62.1483 48.3929 62.311 48.3929 62.471H36.8178C36.8178 62.3917 36.8098 62.3096 36.8058 62.229C36.8018 62.1483 36.7964 62.0649 36.7924 61.9842C36.783 61.8202 36.7723 61.6575 36.7642 61.4989H48.3942C48.3942 61.6588 48.3942 61.8215 48.3929 61.9856Z" fill="#FABFAB"/>
<path d="M40.1585 39.6459C40.0169 38.6336 39.7929 37.6346 39.4889 36.6588C38.5168 33.4787 36.7644 30.5933 34.3919 28.2664C32.6697 26.5817 30.44 25.0084 27.5486 23.7623C27.6826 23.8187 27.8674 24.2988 27.9504 24.433L28.3522 25.0956C28.62 25.5543 28.8878 26.017 29.1289 26.4932C29.7723 27.735 30.1594 29.094 30.2672 30.4889C30.2404 30.446 30.2136 30.4017 30.1869 30.3548C30.1038 30.2206 29.9766 30.0369 29.8065 29.8035C29.3283 29.1549 28.8066 28.5396 28.245 27.9619C26.4718 26.0927 24.3278 24.6156 21.9508 23.6255C19.8434 22.7676 17.5885 22.3319 15.3137 22.3432H15.0887C15.2896 22.4881 15.5146 22.6558 15.7583 22.8449C16.6958 23.5665 17.9077 24.5631 18.9121 25.8145C20.9303 28.3294 21.5182 30.4084 21.5035 30.4487C21.4915 30.4826 21.4748 30.5146 21.4539 30.5439C21.4205 30.5908 21.0857 29.6989 19.6554 28.2865C19.1893 27.8251 18.4126 27.2953 17.4618 26.7279C17.1631 26.5509 16.8444 26.3738 16.5056 26.2008C15.7085 25.7917 14.8789 25.4494 14.0254 25.1774C14.0254 27.0606 14.0254 28.9433 14.0254 30.8256C14.0254 34.2901 14.0254 41.1213 14.0254 46.9734C14.0254 47.6923 14.0254 48.3965 14.0254 49.0778C14.3602 48.9974 14.703 48.9062 15.0485 48.8096C15.5293 48.6661 16.0195 48.4997 16.5109 48.3066C18.4496 47.5527 20.2255 46.4325 21.7419 45.007C23.306 43.5316 24.7042 42.2399 26.0715 41.1978C27.4388 40.1556 28.7794 39.3575 30.223 38.8854C31.2098 38.5639 32.2414 38.4018 33.2791 38.4052C34.4437 38.4171 35.6015 38.584 36.7222 38.9015C37.9206 39.2364 39.091 39.6647 40.2228 40.1824C40.2081 40.0241 40.1867 39.8457 40.1585 39.6459ZM20.4522 31.5633C20.404 31.4949 20.3585 31.4291 20.3183 31.3567L20.1589 31.1609C20.0558 31.0267 19.958 30.8926 19.8522 30.7665C19.7465 30.6405 19.6259 30.5251 19.5188 30.391C19.0809 29.8976 18.6126 29.4322 18.1166 28.9974C17.6211 28.5619 17.1047 28.1483 16.5672 27.7567C16.0315 27.361 15.4771 26.9868 14.9066 26.6139C15.5669 26.7948 16.2011 27.0603 16.7935 27.4039C17.3909 27.7434 17.9518 28.1434 18.4675 28.5977C18.9885 29.0514 19.4521 29.5671 19.8482 30.1334C19.9447 30.277 20.0397 30.4205 20.1308 30.5667C20.2219 30.7129 20.2942 30.8698 20.3745 31.0214L20.4897 31.2521C20.5205 31.3312 20.5527 31.4117 20.5835 31.4922C20.6424 31.6531 20.7026 31.8141 20.7535 31.975C20.6477 31.8382 20.55 31.7014 20.4522 31.5633ZM20.0813 24.1419C21.036 24.3973 21.9598 24.7571 22.836 25.2149C23.7221 25.6613 24.5641 26.1903 25.351 26.795C25.5492 26.9465 25.7407 27.1048 25.9309 27.2644C26.026 27.3449 26.1184 27.4294 26.2108 27.5112C26.3032 27.593 26.3969 27.6775 26.4786 27.7647C26.841 28.1064 27.1805 28.4716 27.4951 28.8579C28.1362 29.6201 28.6507 30.4805 29.0191 31.4063C28.7352 31.0039 28.458 30.6016 28.1473 30.2273C28.0749 30.1308 27.9933 30.0396 27.9156 29.947C27.8379 29.8545 27.7616 29.7606 27.6772 29.672C27.5928 29.5835 27.5152 29.4937 27.4348 29.4038L27.1844 29.1355C26.8456 28.7922 26.5014 28.4542 26.1371 28.1389C25.7729 27.8237 25.4046 27.5112 25.0202 27.2188C24.2531 26.631 23.4565 26.0826 22.6338 25.5757C21.8035 25.0701 20.9571 24.5912 20.0813 24.1419V24.1419ZM25.9443 36.5006C25.1702 36.2444 25.4822 39.9356 25.4822 39.9356C24.826 39.6284 24.6051 38.8518 24.6051 38.8518C24.6051 38.8518 23.3208 35.7508 25.3202 35.5925C26.0459 35.5249 26.7772 35.6349 27.4511 35.9129C28.1251 36.1909 28.7215 36.6287 29.1892 37.1886C28.2464 36.6347 26.0983 36.5515 25.9443 36.5006V36.5006ZM35.2223 31.2212C34.7535 30.6096 34.246 30.0288 33.7344 29.4521C33.2228 28.8753 32.6791 28.32 32.1394 27.762L30.5083 26.0854C31.1847 26.4861 31.8254 26.9442 32.4233 27.4549C33.0269 27.9617 33.5952 28.5093 34.1241 29.0939C34.258 29.2375 34.3826 29.3931 34.5138 29.5419L34.7026 29.7713L34.8848 30.0074C35.0013 30.1656 35.1258 30.3199 35.237 30.4849C35.3481 30.6498 35.4553 30.8162 35.5637 30.9825C35.9908 31.6536 36.3137 32.3858 36.5213 33.154C36.1297 32.4828 35.6958 31.8372 35.2223 31.2212V31.2212Z" fill="#BF8373"/>
<path d="M70.5787 24.9865C70.5787 21.8523 69.7302 21.0134 66.6002 21.0081C58.5315 20.9973 50.4636 20.9973 42.3966 21.0081C36.0875 21.0027 29.7788 21 23.4705 21H17.9477C17.626 21 17.3244 21.0094 17.051 21.0336C17.122 21.243 17.2011 21.4617 17.2869 21.6859C18.9907 21.8604 20.6609 22.2781 22.2466 22.9262C22.681 23.1051 23.0987 23.2953 23.5 23.4966H26.5429C26.4745 23.3812 26.4222 23.2953 26.39 23.2416L26.3525 23.1798C26.3123 23.1131 26.2938 23.0355 26.2998 22.9578C26.3057 22.8801 26.3357 22.8061 26.3855 22.7463C26.4354 22.6865 26.5027 22.6437 26.578 22.624C26.6533 22.6042 26.7328 22.6085 26.8056 22.6362C27.5071 22.9047 28.1747 23.1915 28.8083 23.4966H67.9943V56.3218H16.5201C16.5201 56.3218 20.9357 55.8533 23.3137 52.6749C23.2373 52.7782 24.8659 53.7487 24.9557 53.7983C26.9664 54.8574 29.3538 54.9983 31.5308 54.9983C33.924 55.005 36.2996 54.5883 38.5481 53.7675C37.9833 53.8575 37.4123 53.9024 36.8404 53.9017C35.5745 53.8938 34.3162 53.7058 33.1031 53.3433C32.5784 53.1935 32.0653 53.005 31.5683 52.7795C31.528 52.7629 31.4915 52.7381 31.4611 52.7069C31.4307 52.6756 31.407 52.6384 31.3914 52.5976C31.3758 52.5568 31.3687 52.5133 31.3706 52.4697C31.3724 52.426 31.3831 52.3833 31.402 52.3439C31.4209 52.3046 31.4476 52.2695 31.4806 52.2409C31.5135 52.2123 31.5519 52.1906 31.5934 52.1774C31.635 52.1641 31.6788 52.1595 31.7222 52.1638C31.7656 52.1681 31.8076 52.1812 31.8458 52.2024V52.2024L31.8632 52.2118L31.9342 52.244C31.9972 52.2708 32.0938 52.3124 32.2171 52.3621C32.4651 52.4614 32.8283 52.5943 33.2787 52.7272C34.4329 53.0732 35.6302 53.254 36.835 53.2641C37.9168 53.271 38.9922 53.0977 40.0173 52.7514C41.2084 52.3409 42.2999 51.6842 43.221 50.8239C43.2534 50.7945 43.2913 50.7721 43.3325 50.7578C43.3738 50.7435 43.4174 50.7376 43.461 50.7406L43.4315 50.7205C43.1768 50.5357 42.9628 50.3004 42.8028 50.0292C42.5006 49.4986 42.2908 48.9203 42.1822 48.3192L42.4958 48.2548L42.1822 48.3178C42.1566 48.1901 42.1436 48.0602 42.1433 47.9299C42.1412 47.4721 42.3013 47.0284 42.595 46.6776C41.8255 46.2411 41.1185 45.7024 40.4932 45.0763C39.8006 44.3839 39.1844 43.6189 38.6554 42.7944C38.126 41.9798 37.6736 41.1174 37.3042 40.2186C37.0481 40.1381 36.7975 40.0629 36.5508 39.9958C35.4927 39.6963 34.3997 39.5384 33.3002 39.526C32.3398 39.5229 31.3851 39.6729 30.4718 39.9703C29.5466 40.2815 28.665 40.7101 27.8485 41.2454C26.1059 42.3515 24.3445 43.9635 22.2614 45.93C21.2786 46.859 20.1839 47.6616 19.0027 48.3192C18.9784 48.5579 18.899 48.7876 18.7708 48.9903C17.3191 51.6198 15.3673 51.7863 14.4692 52.1312C14.0255 52.3017 14.0242 53.7943 14.0255 53.9768V55.0319C14.0255 58.0238 14.8874 58.8815 17.8794 58.8815H23.7855C25.4061 58.8815 27.0214 58.8815 28.642 58.8815C41.3497 58.8869 54.0596 58.8869 66.7718 58.8815C69.7342 58.8815 70.568 58.0077 70.5734 54.9795C70.5868 44.9841 70.5886 34.9864 70.5787 24.9865ZM32.6434 45.2548C32.6774 45.1333 32.7222 45.0152 32.7774 44.9018C32.9005 44.6465 33.0649 44.4134 33.264 44.2118C33.4394 44.0349 33.6416 43.8867 33.8632 43.7729C34.2326 43.5902 34.6402 43.4982 35.0522 43.5045C35.3228 43.5064 35.5925 43.5374 35.8565 43.5971C35.967 43.6215 36.0634 43.6888 36.1244 43.7844C36.1853 43.8799 36.2059 43.9958 36.1815 44.1065C36.1572 44.2172 36.0899 44.3137 35.9945 44.3747C35.8991 44.4358 35.7834 44.4564 35.6728 44.432C35.4691 44.3856 35.2611 44.3613 35.0522 44.3595C34.8406 44.3571 34.6302 44.3912 34.4302 44.4602C34.2754 44.5148 34.1308 44.5951 34.0026 44.6977C33.8058 44.8579 33.6474 45.0602 33.5388 45.2897C33.5078 45.3513 33.4823 45.4156 33.4624 45.4816V45.4816C33.4477 45.5357 33.4225 45.5864 33.3882 45.6308C33.354 45.6752 33.3113 45.7123 33.2627 45.7402C33.2141 45.768 33.1605 45.786 33.1049 45.7932C33.0494 45.8003 32.993 45.7963 32.9389 45.7816C32.8849 45.7669 32.8343 45.7417 32.79 45.7074C32.7457 45.6731 32.7085 45.6304 32.6807 45.5817C32.6529 45.533 32.6349 45.4793 32.6278 45.4237C32.6207 45.3681 32.6246 45.3116 32.6393 45.2575L32.6434 45.2548Z" fill="#FABFAB"/>
<path d="M43.0519 48.9975C43.1514 49.27 43.2893 49.528 43.4617 49.7643C43.5592 49.8968 43.6788 50.013 43.8154 50.1082C43.8956 50.1635 43.9834 50.2078 44.0763 50.2399C44.178 50.2724 44.2846 50.2884 44.3918 50.2873C44.4744 50.2874 44.5567 50.2794 44.6377 50.2636C44.815 50.2318 44.9807 50.156 45.1184 50.0436C45.2604 49.9238 45.3761 49.7778 45.4585 49.6141C45.6516 49.2005 45.745 48.7501 45.7317 48.2966C45.7322 48.0174 45.7033 47.7389 45.6457 47.4653C45.5989 47.2339 45.5222 47.0091 45.4176 46.796C45.3691 46.7 45.3065 46.6113 45.2318 46.5325C45.1839 46.4853 45.1248 46.4501 45.0597 46.4298C44.9715 46.4025 44.8792 46.3896 44.7865 46.3916C44.5891 46.3972 44.3934 46.4287 44.2047 46.4851C43.9857 46.5487 43.7717 46.6271 43.5641 46.7196C43.3305 46.8207 43.1321 46.9845 42.9926 47.1915C42.853 47.3985 42.7783 47.64 42.7774 47.8869C42.7769 47.9753 42.7856 48.0636 42.8033 48.1504C42.8644 48.4383 42.9475 48.7214 43.0519 48.9975V48.9975Z" fill="#BF8373"/>
</svg>
