<svg xmlns="http://www.w3.org/2000/svg" viewBox="0 0 811.59 432.05"><defs><style>.cls-1{fill:#fabfab;}.cls-2{fill:#ffd8b8;}.cls-3{fill:#bf8373;}.cls-4{fill:none;}</style></defs><g id="Layer_2" data-name="Layer 2"><g id="Layer_1-2" data-name="Layer 1"><path class="cls-1" d="M43,422.91a1.55,1.55,0,0,1-1.54,1.55H9.14a1.57,1.57,0,0,1-1.55-1.55V381.42H0v41.49a9,9,0,0,0,.7,3.55,9.24,9.24,0,0,0,4.89,4.89,9,9,0,0,0,3.55.7H41.49a9,9,0,0,0,3.55-.7,9.24,9.24,0,0,0,4.89-4.89,9.14,9.14,0,0,0,.7-3.55V381.42H43Z"/><path class="cls-1" d="M144.86,387.08a8.84,8.84,0,0,0-2-2.88,10.08,10.08,0,0,0-2.92-2,8.49,8.49,0,0,0-3.55-.74H94.93v50.56h7.6V413.83a5.57,5.57,0,0,0,.73.11c.26,0,.53,0,.81,0h32.35a8.65,8.65,0,0,0,3.55-.74,10.08,10.08,0,0,0,2.92-2,8.78,8.78,0,0,0,2-2.89,8.92,8.92,0,0,0,.7-3.55v-14.2A8.92,8.92,0,0,0,144.86,387.08ZM138,404.83a1.57,1.57,0,0,1-1.55,1.55H104.07a1.55,1.55,0,0,1-1.54-1.55v-14.2a1.55,1.55,0,0,1,1.54-1.55h32.35a1.57,1.57,0,0,1,1.55,1.55Z"/><rect class="cls-1" x="187.18" y="381.42" width="7.59" height="50.63"/><polygon class="cls-1" points="282.18 421.92 248.15 381.42 239.15 381.42 239.15 432.05 246.74 432.05 246.74 391.55 280.77 432.05 289.77 432.05 289.77 381.42 282.18 381.42 282.18 421.92"/><polygon class="cls-1" points="334.36 432.05 380.76 432.05 380.76 424.45 341.95 424.45 341.95 410.53 373.17 410.53 373.17 402.94 341.95 402.94 341.95 389.01 380.76 389.01 380.76 381.42 334.36 381.42 334.36 432.05"/><path class="cls-1" d="M531.67,387a9.24,9.24,0,0,0-4.89-4.89,8.92,8.92,0,0,0-3.55-.7H490.88a9,9,0,0,0-3.55.7,9.19,9.19,0,0,0-2.91,2,9.08,9.08,0,0,0-2.68,6.47v41.49h7.6V414.33h35.44v17.72h7.59V390.56A8.92,8.92,0,0,0,531.67,387Zm-6.89,19.72H489.34V390.56a1.55,1.55,0,0,1,1.54-1.55h32.35a1.57,1.57,0,0,1,1.55,1.55Z"/><path class="cls-1" d="M626.88,387.08a8.84,8.84,0,0,0-2-2.88,10,10,0,0,0-2.92-2,8.46,8.46,0,0,0-3.55-.74H577v50.56h7.6V413.83a5.48,5.48,0,0,0,.74.11c.25,0,.52,0,.8,0h32.35a8.62,8.62,0,0,0,3.55-.74,10,10,0,0,0,2.92-2,8.78,8.78,0,0,0,2-2.89,8.92,8.92,0,0,0,.7-3.55v-14.2A8.92,8.92,0,0,0,626.88,387.08ZM620,404.83a1.57,1.57,0,0,1-1.55,1.55H586.09a1.55,1.55,0,0,1-1.54-1.55v-14.2a1.55,1.55,0,0,1,1.54-1.55h32.35a1.57,1.57,0,0,1,1.55,1.55Z"/><path class="cls-1" d="M719.06,387.08a8.69,8.69,0,0,0-2-2.88,9.9,9.9,0,0,0-2.91-2,8.54,8.54,0,0,0-3.56-.74H669.14v50.56h7.59V413.83a5.73,5.73,0,0,0,.74.11c.26,0,.53,0,.81,0h32.34a8.7,8.7,0,0,0,3.56-.74,9.9,9.9,0,0,0,2.91-2,8.63,8.63,0,0,0,2-2.89,8.93,8.93,0,0,0,.71-3.55v-14.2A8.93,8.93,0,0,0,719.06,387.08Zm-6.89,17.75a1.55,1.55,0,0,1-1.55,1.55H678.28a1.47,1.47,0,0,1-1.09-.46,1.45,1.45,0,0,1-.46-1.09v-14.2a1.48,1.48,0,0,1,.46-1.09,1.5,1.5,0,0,1,1.09-.46h32.34a1.53,1.53,0,0,1,1.1.46,1.51,1.51,0,0,1,.45,1.09Z"/><path class="cls-1" d="M811.59,393.52v-3a9,9,0,0,0-.7-3.55,9.07,9.07,0,0,0-8.44-5.59H770.11a9.15,9.15,0,0,0-8.44,5.59,9,9,0,0,0-.7,3.55v10.83a8.92,8.92,0,0,0,.7,3.55,9.24,9.24,0,0,0,4.89,4.89,8.92,8.92,0,0,0,3.55.7h32.34a1.45,1.45,0,0,1,1.09.46,1.47,1.47,0,0,1,.46,1.09v10.83a1.57,1.57,0,0,1-1.55,1.55H770.11A1.5,1.5,0,0,1,769,424a1.48,1.48,0,0,1-.46-1.09v-3H761v3a9,9,0,0,0,.7,3.55,9.24,9.24,0,0,0,4.89,4.89,8.92,8.92,0,0,0,3.55.7h32.34a9,9,0,0,0,3.56-.7,9.26,9.26,0,0,0,4.88-4.89,9,9,0,0,0,.7-3.55V412.08a8.92,8.92,0,0,0-.7-3.55,9.07,9.07,0,0,0-2-2.92,9.19,9.19,0,0,0-2.91-2,9,9,0,0,0-3.56-.7H770.11a1.57,1.57,0,0,1-1.55-1.55V390.56a1.48,1.48,0,0,1,.46-1.09,1.5,1.5,0,0,1,1.09-.46h32.34a1.57,1.57,0,0,1,1.55,1.55v3Z"/><rect class="cls-2" x="366.14" y="303.85" width="75.42" height="0.01"/><path class="cls-1" d="M647.87,295.24H163.54c-3.32,17.2,3.75,22.56,19.13,22.53h9c6.8,0,13.59,0,20.35,0q208.67-.33,417.27.07C644.86,317.8,651.58,312.05,647.87,295.24ZM449.18,306.12c0,1.19,0,2.38,0,3.55H362.82c0-.58-.06-1.18-.09-1.77s-.07-1.2-.1-1.79c-.07-1.2-.15-2.39-.21-3.55h86.77C449.19,303.73,449.19,304.92,449.18,306.12Z"/><path class="cls-3" d="M388.06,139a140,140,0,0,0-5-22.27A148.37,148.37,0,0,0,345,54.16c-12.86-12.56-29.51-24.29-51.1-33.58,1,.42,2.38,4,3,5l3,4.94c2,3.42,4,6.87,5.8,10.42a77.69,77.69,0,0,1,8.5,29.79c-.2-.32-.4-.65-.6-1-.62-1-1.57-2.37-2.84-4.11A132.72,132.72,0,0,0,299.1,51.89a137.84,137.84,0,0,0-47-32.33A129.9,129.9,0,0,0,202.54,10h-1.68c1.5,1.08,3.18,2.33,5,3.74,7,5.38,16.05,12.81,23.55,22.14,15.07,18.75,19.46,34.25,19.35,34.55a2.86,2.86,0,0,1-.37.71c-.25.35-2.75-6.3-13.43-16.83-3.48-3.44-9.28-7.39-16.38-11.62-2.23-1.32-4.61-2.64-7.14-3.93a121.2,121.2,0,0,0-18.52-7.63q0,21.06,0,42.11h0c0,25.83,0,76.76,0,120.39,0,5.36,0,10.61,0,15.69,2.5-.6,5.06-1.28,7.64-2,3.59-1.07,7.25-2.31,10.92-3.75a121.13,121.13,0,0,0,39.06-24.6c11.68-11,22.12-20.63,32.33-28.4s20.22-13.72,31-17.24a73,73,0,0,1,22.82-3.58,98.14,98.14,0,0,1,25.71,3.7A178.25,178.25,0,0,1,388.54,143C388.43,141.82,388.27,140.49,388.06,139ZM240.91,78.74c-.36-.51-.7-1-1-1.54l-1.19-1.46c-.77-1-1.5-2-2.29-2.94S234.74,71,233.94,70a118,118,0,0,0-10.47-10.39q-5.55-4.87-11.57-9.25c-4-2.95-8.14-5.74-12.4-8.52a59.38,59.38,0,0,1,14.09,5.89,74.88,74.88,0,0,1,12.5,8.9A63.32,63.32,0,0,1,236.4,68.08c.72,1.07,1.43,2.14,2.11,3.23s1.22,2.26,1.82,3.39l.86,1.72c.23.59.47,1.19.7,1.79.44,1.2.89,2.4,1.27,3.6C242.37,80.79,241.64,79.77,240.91,78.74Zm-2.77-55.33a100.56,100.56,0,0,1,20.57,8,117.79,117.79,0,0,1,18.78,11.78c1.48,1.13,2.91,2.31,4.33,3.5.71.6,1.4,1.23,2.09,1.84s1.39,1.24,2,1.89a84.75,84.75,0,0,1,7.59,8.15,69.31,69.31,0,0,1,11.38,19c-2.12-3-4.19-6-6.51-8.79-.54-.72-1.15-1.4-1.73-2.09s-1.15-1.39-1.78-2.05-1.21-1.33-1.81-2l-1.87-2c-2.53-2.56-5.1-5.08-7.82-7.43s-5.47-4.68-8.34-6.86A212.76,212.76,0,0,0,257.2,34.1C251,30.33,244.68,26.76,238.14,23.41Zm43.78,92.14c-5.78-1.91-3.45,25.61-3.45,25.61-4.9-2.29-6.55-8.08-6.55-8.08s-9.59-23.12,5.34-24.3a33.61,33.61,0,0,1,28.89,11.9C299.11,116.55,283.07,115.93,281.92,115.55ZM351.2,76.19c-3.5-4.56-7.29-8.89-11.11-13.19s-7.88-8.44-11.91-12.6L316,37.9A102.3,102.3,0,0,1,330.3,48.11,128.8,128.8,0,0,1,343,60.33c1,1.07,1.93,2.23,2.91,3.34l1.41,1.71,1.36,1.76c.87,1.18,1.8,2.33,2.63,3.56s1.63,2.47,2.44,3.71A58.61,58.61,0,0,1,360.9,90.6,136.36,136.36,0,0,0,351.2,76.19Z"/><path class="cls-1" d="M614.76,29.7c0-23.35-6.33-29.6-29.68-29.64q-90.29-.12-180.56,0Q333.92,0,263.33,0l-41.2,0c-2.4,0-4.65.07-6.69.25.53,1.56,1.12,3.19,1.76,4.86a134,134,0,0,1,37,9.24q4.86,2,9.35,4.25h22.7c-.51-.86-.9-1.5-1.14-1.9l-.28-.46a2.79,2.79,0,0,1,3.38-4.05q7.85,3,14.94,6.41H595.48V263.15h-384s32.94-3.49,50.68-27.17c-.57.77,11.58,8,12.25,8.37,15,7.89,32.81,8.94,49.05,8.94a151.6,151.6,0,0,0,52.35-9.17,80.46,80.46,0,0,1-12.74,1,99.67,99.67,0,0,1-27.88-4.16,82.69,82.69,0,0,1-11.45-4.2,2.39,2.39,0,1,1,2.07-4.3h0l.13.07.53.24c.47.2,1.19.51,2.11.88,1.85.74,4.56,1.73,7.92,2.72a95.3,95.3,0,0,0,26.53,4,72.82,72.82,0,0,0,23.74-3.82,67,67,0,0,0,23.9-14.36,2.42,2.42,0,0,1,1.79-.62l-.22-.15a17.1,17.1,0,0,1-4.69-5.15,40.16,40.16,0,0,1-4.63-12.74l2.34-.48-2.34.47a14.91,14.91,0,0,1-.29-2.89A14.42,14.42,0,0,1,406,191.3a73.21,73.21,0,0,1-15.68-11.93,101.72,101.72,0,0,1-13.71-17,116.42,116.42,0,0,1-10.08-19.19c-1.91-.6-3.78-1.16-5.62-1.66a93,93,0,0,0-24.25-3.5,67.52,67.52,0,0,0-21.1,3.31,85.33,85.33,0,0,0-19.57,9.5c-13,8.24-26.14,20.25-41.68,34.9A121.2,121.2,0,0,1,230,203.53a11.53,11.53,0,0,1-1.73,5c-10.83,19.59-25.39,20.83-32.09,23.4-3.31,1.27-3.32,12.39-3.31,13.75v7.86c0,22.29,6.43,28.68,28.75,28.68h44.06c12.09,0,24.14,0,36.23,0q142.2.06,284.45,0c22.1,0,28.32-6.51,28.36-29.07Q614.87,141.45,614.76,29.7Zm-283,151a15.68,15.68,0,0,1,1-2.63,19.15,19.15,0,0,1,3.63-5.14,17.64,17.64,0,0,1,4.47-3.27,19.36,19.36,0,0,1,8.87-2,28.13,28.13,0,0,1,6,.69,3.18,3.18,0,0,1-1.37,6.22,21.69,21.69,0,0,0-4.63-.54,13.78,13.78,0,0,0-4.64.75,10.93,10.93,0,0,0-3.19,1.77,12.68,12.68,0,0,0-3.46,4.41,8.92,8.92,0,0,0-.57,1.43h0a3.18,3.18,0,0,1-6.14-1.67Z"/><path class="cls-3" d="M409.39,209a23.93,23.93,0,0,0,3,5.82,11.26,11.26,0,0,0,2.59,2.61,7.82,7.82,0,0,0,1.91,1,7.13,7.13,0,0,0,2.31.36,9.07,9.07,0,0,0,1.8-.18,7.6,7.6,0,0,0,3.52-1.67,10.32,10.32,0,0,0,2.49-3.26,22.78,22.78,0,0,0,2-10,31.4,31.4,0,0,0-.63-6.31,21.45,21.45,0,0,0-1.67-5.08,8.43,8.43,0,0,0-1.36-2,3.1,3.1,0,0,0-1.26-.78,6.12,6.12,0,0,0-2-.29,16,16,0,0,0-4.26.71,35.73,35.73,0,0,0-4.69,1.78,9.75,9.75,0,0,0-5.76,8.86,10.09,10.09,0,0,0,.19,2A45.29,45.29,0,0,0,409.39,209Z"/><line class="cls-4" x1="323.69" y1="236.74" x2="323.69" y2="236.74"/></g></g></svg>