<svg xmlns="http://www.w3.org/2000/svg" viewBox="0 0 486.13 317.8"><defs><style>.cls-1{fill:#ffd8b8;}.cls-2{fill:#fabfab;}.cls-3{fill:#bf8373;}.cls-4{fill:none;}</style></defs><g id="Layer_2" data-name="Layer 2"><g id="Layer_1-2" data-name="Layer 1"><rect class="cls-1" x="203.41" y="303.85" width="75.42" height="0.01"/><path class="cls-2" d="M485.13,295.24H.8c-3.32,17.2,3.75,22.56,19.13,22.53h9c6.8,0,13.59,0,20.35,0q208.67-.33,417.27.07C482.12,317.8,488.84,312.05,485.13,295.24ZM286.44,306.12c0,1.19,0,2.38,0,3.55H200.08c0-.58-.06-1.18-.09-1.77s-.07-1.2-.1-1.79c-.07-1.2-.15-2.39-.21-3.55h86.77C286.45,303.73,286.45,304.92,286.44,306.12Z"/><path class="cls-3" d="M225.33,139a140,140,0,0,0-5-22.27,148.37,148.37,0,0,0-38.09-62.54c-12.86-12.56-29.51-24.29-51.1-33.58,1,.42,2.38,4,3,5l2.95,4.94c2,3.42,4,6.87,5.8,10.42a77.69,77.69,0,0,1,8.5,29.79c-.2-.32-.4-.65-.6-1-.62-1-1.57-2.37-2.84-4.11a132.72,132.72,0,0,0-11.55-13.72,137.84,137.84,0,0,0-47-32.33A129.9,129.9,0,0,0,39.81,10H38.13c1.5,1.08,3.18,2.33,5,3.74,7,5.38,16.05,12.81,23.55,22.14C81.74,54.64,86.13,70.14,86,70.44a2.86,2.86,0,0,1-.37.71c-.25.35-2.75-6.3-13.43-16.83-3.48-3.44-9.28-7.39-16.38-11.62-2.23-1.32-4.61-2.64-7.14-3.93a121.2,121.2,0,0,0-18.52-7.63q0,21.06-.05,42.11h0c0,25.83,0,76.76,0,120.39,0,5.36,0,10.61,0,15.69,2.5-.6,5.06-1.28,7.64-2,3.59-1.07,7.25-2.31,10.92-3.75a121.13,121.13,0,0,0,39.06-24.6c11.68-11,22.12-20.63,32.33-28.4s20.22-13.72,31-17.24a73,73,0,0,1,22.82-3.58,98.14,98.14,0,0,1,25.71,3.7A178.25,178.25,0,0,1,225.81,143C225.7,141.82,225.54,140.49,225.33,139ZM78.18,78.74c-.36-.51-.7-1-1.05-1.54l-1.19-1.46c-.77-1-1.5-2-2.29-2.94S72,71,71.21,70A118,118,0,0,0,60.74,59.62q-5.55-4.87-11.57-9.25c-4-2.95-8.14-5.74-12.4-8.52a59.38,59.38,0,0,1,14.09,5.89,74.88,74.88,0,0,1,12.5,8.9A63.32,63.32,0,0,1,73.67,68.08c.72,1.07,1.43,2.14,2.11,3.23S77,73.57,77.6,74.7l.86,1.72c.23.59.47,1.19.7,1.79.44,1.2.89,2.4,1.27,3.6C79.64,80.79,78.91,79.77,78.18,78.74ZM75.41,23.41a100.56,100.56,0,0,1,20.57,8,117.79,117.79,0,0,1,18.78,11.78c1.48,1.13,2.91,2.31,4.33,3.5.71.6,1.4,1.23,2.09,1.84s1.39,1.24,2,1.89a84.75,84.75,0,0,1,7.59,8.15,69.31,69.31,0,0,1,11.38,19c-2.12-3-4.19-6-6.51-8.79-.54-.72-1.15-1.4-1.73-2.09s-1.15-1.39-1.78-2.05-1.21-1.33-1.81-2l-1.87-2c-2.53-2.56-5.1-5.08-7.82-7.43s-5.47-4.68-8.34-6.86A212.76,212.76,0,0,0,94.47,34.1C88.28,30.33,82,26.76,75.41,23.41Zm43.78,92.14c-5.78-1.91-3.45,25.61-3.45,25.61-4.9-2.29-6.55-8.08-6.55-8.08s-9.59-23.12,5.34-24.3a33.61,33.61,0,0,1,28.89,11.9C136.38,116.55,120.34,115.93,119.19,115.55Zm69.28-39.36C185,71.63,181.18,67.3,177.36,63s-7.88-8.44-11.91-12.6L153.22,37.9a102.3,102.3,0,0,1,14.35,10.21A128.8,128.8,0,0,1,180.3,60.33c1,1.07,1.93,2.23,2.91,3.34l1.41,1.71L186,67.14c.87,1.18,1.8,2.33,2.63,3.56s1.63,2.47,2.44,3.71a58.61,58.61,0,0,1,7.12,16.19A136.36,136.36,0,0,0,188.47,76.19Z"/><path class="cls-2" d="M452,29.7C452,6.35,445.7.1,422.35.06q-90.28-.12-180.56,0Q171.19,0,100.6,0L59.4.06c-2.4,0-4.65.07-6.69.25.53,1.56,1.12,3.19,1.76,4.86a134,134,0,0,1,37,9.24q4.86,2,9.35,4.25h22.7c-.51-.86-.9-1.5-1.14-1.9l-.28-.46a2.79,2.79,0,0,1,3.38-4.05q7.85,3,14.94,6.41H432.75V263.15H48.7S81.64,259.66,99.38,236c-.57.77,11.58,8,12.25,8.37,15,7.89,32.81,8.94,49.05,8.94A151.6,151.6,0,0,0,213,244.12a80.46,80.46,0,0,1-12.74,1,99.67,99.67,0,0,1-27.88-4.16,82.69,82.69,0,0,1-11.45-4.2,2.39,2.39,0,1,1,2.07-4.3h0l.13.07.53.24c.47.2,1.19.51,2.11.88,1.85.74,4.56,1.73,7.92,2.72a95.3,95.3,0,0,0,26.53,4A72.82,72.82,0,0,0,224,236.51a67,67,0,0,0,23.9-14.36,2.42,2.42,0,0,1,1.79-.62l-.22-.15a17.1,17.1,0,0,1-4.69-5.15,40.16,40.16,0,0,1-4.63-12.74l2.34-.48-2.34.47a14.91,14.91,0,0,1-.29-2.89,14.42,14.42,0,0,1,3.38-9.29,73.21,73.21,0,0,1-15.68-11.93,101.72,101.72,0,0,1-13.71-17,116.42,116.42,0,0,1-10.08-19.19c-1.91-.6-3.78-1.16-5.62-1.66a93,93,0,0,0-24.25-3.5,67.52,67.52,0,0,0-21.1,3.31,85.33,85.33,0,0,0-19.57,9.5c-13,8.24-26.14,20.25-41.68,34.9A121.2,121.2,0,0,1,67.3,203.53a11.53,11.53,0,0,1-1.73,5C54.74,228.15,40.18,229.39,33.48,232c-3.31,1.27-3.32,12.39-3.31,13.75v7.86c0,22.29,6.43,28.68,28.75,28.68H103c12.09,0,24.14,0,36.23,0q142.2.06,284.45,0c22.1,0,28.32-6.51,28.36-29.07Q452.14,141.45,452,29.7Zm-283,151a15.68,15.68,0,0,1,1-2.63,19.15,19.15,0,0,1,3.63-5.14,17.64,17.64,0,0,1,4.47-3.27,19.36,19.36,0,0,1,8.87-2,28.13,28.13,0,0,1,6,.69,3.18,3.18,0,0,1-1.37,6.22A21.69,21.69,0,0,0,187,174a13.78,13.78,0,0,0-4.64.75,10.93,10.93,0,0,0-3.19,1.77,12.68,12.68,0,0,0-3.46,4.41,8.92,8.92,0,0,0-.57,1.43h0a3.18,3.18,0,0,1-6.14-1.67Z"/><path class="cls-3" d="M246.66,209a23.93,23.93,0,0,0,3,5.82,11.26,11.26,0,0,0,2.59,2.61,7.64,7.64,0,0,0,1.91,1,7.13,7.13,0,0,0,2.31.36,9.07,9.07,0,0,0,1.8-.18,7.6,7.6,0,0,0,3.52-1.67,10.47,10.47,0,0,0,2.49-3.26,22.78,22.78,0,0,0,2-10,30.68,30.68,0,0,0-.64-6.31,21,21,0,0,0-1.66-5.08,8.74,8.74,0,0,0-1.36-2,3.07,3.07,0,0,0-1.27-.78,6,6,0,0,0-2-.29,16,16,0,0,0-4.26.71,36.4,36.4,0,0,0-4.7,1.78,9.77,9.77,0,0,0-5.75,8.86,10.09,10.09,0,0,0,.19,2A45.29,45.29,0,0,0,246.66,209Z"/><line class="cls-4" x1="160.96" y1="236.74" x2="160.96" y2="236.74"/></g></g></svg>