<svg width="32" height="32" viewBox="0 0 32 32" fill="none" xmlns="http://www.w3.org/2000/svg">
<g filter="url(#filter0_b)">
<rect width="32" height="32" rx="16" fill="url(#paint0_linear)"/>
</g>
<g clip-path="url(#clip0)">
<path d="M22.0491 15.4363L25.1291 12.3563C25.8891 11.5963 26.2691 10.5963 26.2691 9.59629C26.2691 8.59629 25.8891 7.59629 25.1291 6.83629C23.5991 5.31629 21.1391 5.31629 19.6091 6.83629L16.0291 10.4263L15.2291 11.2263L14.5191 11.9363C13.7491 12.6963 13.3691 13.6963 13.3691 14.6963C13.3691 14.9163 13.3891 15.1263 13.4191 15.3363C13.4291 15.3463 13.4291 15.3663 13.4291 15.3863C13.4691 15.5863 13.5191 15.7763 13.5891 15.9663C13.7691 16.5063 14.0791 17.0163 14.5191 17.4463C14.7391 17.6663 14.9791 17.8563 15.2291 18.0063" stroke="url(#paint1_linear)" stroke-width="1.2" stroke-miterlimit="10" stroke-linecap="round" stroke-linejoin="round"/>
<path d="M10.4895 15.9562L7.40953 19.0362C6.64953 19.7962 6.26953 20.7962 6.26953 21.7962C6.26953 22.7962 6.64953 23.7962 7.40953 24.5562C8.93953 26.0762 11.3995 26.0762 12.9295 24.5562L16.5095 20.9662L17.3095 20.1662L18.0195 19.4562C18.7895 18.6962 19.1695 17.6962 19.1695 16.6962C19.1695 16.4762 19.1495 16.2662 19.1195 16.0562C19.1095 16.0462 19.1095 16.0262 19.1095 16.0062C19.0695 15.8062 19.0195 15.6162 18.9495 15.4262C18.7695 14.8862 18.4595 14.3762 18.0195 13.9462C17.7995 13.7262 17.5595 13.5362 17.3095 13.3862" stroke="url(#paint2_linear)" stroke-width="1.2" stroke-miterlimit="10" stroke-linecap="round" stroke-linejoin="round"/>
</g>
<defs>
<filter id="filter0_b" x="-20" y="-20" width="72" height="72" filterUnits="userSpaceOnUse" color-interpolation-filters="sRGB">
<feFlood flood-opacity="0" result="BackgroundImageFix"/>
<feGaussianBlur in="BackgroundImage" stdDeviation="10"/>
<feComposite in2="SourceAlpha" operator="in" result="effect1_backgroundBlur"/>
<feBlend mode="normal" in="SourceGraphic" in2="effect1_backgroundBlur" result="shape"/>
</filter>
<linearGradient id="paint0_linear" x1="0" y1="0" x2="0" y2="32" gradientUnits="userSpaceOnUse">
<stop stop-color="#9EE1EC"/>
<stop offset="1" stop-color="#E5A7E0"/>
</linearGradient>
<linearGradient id="paint1_linear" x1="19.8191" y1="5.69629" x2="15.2999" y2="18.4141" gradientUnits="userSpaceOnUse">
<stop stop-color="#844FFC"/>
<stop offset="1" stop-color="#491EB8"/>
</linearGradient>
<linearGradient id="paint2_linear" x1="12.7195" y1="13.3862" x2="8.20032" y2="26.104" gradientUnits="userSpaceOnUse">
<stop stop-color="#844FFC"/>
<stop offset="1" stop-color="#491EB8"/>
</linearGradient>
<clipPath id="clip0">
<rect width="24" height="24" fill="white" transform="translate(4.26953 3.69629)"/>
</clipPath>
</defs>
</svg>
