<svg width="32" height="32" viewBox="0 0 32 32" fill="none" xmlns="http://www.w3.org/2000/svg">
<g filter="url(#filter0_b)">
<rect width="32" height="32" rx="16" fill="url(#paint0_linear)"/>
</g>
<path fill-rule="evenodd" clip-rule="evenodd" d="M23.5005 10.5C23.5005 11.8807 22.3813 13 21.0005 13C19.6198 13 18.5005 11.8807 18.5005 10.5C18.5005 9.11929 19.6198 8 21.0005 8C22.3813 8 23.5005 9.11929 23.5005 10.5ZM16.8781 18.5393L16.6074 18.319C17.4564 16.9355 19.1084 16 21.0006 16C23.7606 16 26.0006 17.99 26.0006 20.44C24.0306 20.89 22.3106 21 21.0006 21C20.2007 21 19.4526 20.9574 18.7629 20.889L18.2093 20.0299C17.8538 19.4784 17.4103 18.9725 16.8781 18.5393Z" fill="url(#paint1_linear)"/>
<path fill-rule="evenodd" clip-rule="evenodd" d="M15 12C15 13.6569 13.6569 15 12 15C10.3431 15 9 13.6569 9 12C9 10.3431 10.3431 9 12 9C13.6569 9 15 10.3431 15 12ZM12 24C13.57 24 15.64 23.87 18 23.33C18 20.39 15.31 18 12 18C8.69 18 6 20.39 6 23.33C7.52 23.68 9.57 24 12 24Z" fill="url(#paint2_linear)"/>
<defs>
<filter id="filter0_b" x="-20" y="-20" width="72" height="72" filterUnits="userSpaceOnUse" color-interpolation-filters="sRGB">
<feFlood flood-opacity="0" result="BackgroundImageFix"/>
<feGaussianBlur in="BackgroundImage" stdDeviation="10"/>
<feComposite in2="SourceAlpha" operator="in" result="effect1_backgroundBlur"/>
<feBlend mode="normal" in="SourceGraphic" in2="effect1_backgroundBlur" result="shape"/>
</filter>
<linearGradient id="paint0_linear" x1="0" y1="0" x2="0" y2="32" gradientUnits="userSpaceOnUse">
<stop stop-color="#9EE1EC"/>
<stop offset="1" stop-color="#E5A7E0"/>
</linearGradient>
<linearGradient id="paint1_linear" x1="21.304" y1="8" x2="15.1443" y2="19.9521" gradientUnits="userSpaceOnUse">
<stop stop-color="#844FFC"/>
<stop offset="1" stop-color="#491EB8"/>
</linearGradient>
<linearGradient id="paint2_linear" x1="12" y1="9" x2="5.32256" y2="23.3455" gradientUnits="userSpaceOnUse">
<stop stop-color="#844FFC"/>
<stop offset="1" stop-color="#491EB8"/>
</linearGradient>
</defs>
</svg>
