<svg width="24" height="24" viewBox="0 0 24 24" fill="none" xmlns="http://www.w3.org/2000/svg">
<path fill-rule="evenodd" clip-rule="evenodd" d="M12 24C18.6274 24 24 18.6274 24 12C24 5.37258 18.6274 0 12 0C5.37258 0 0 5.37258 0 12C0 18.6274 5.37258 24 12 24Z" fill="#231F20"/>
<path d="M8.50939 11.6319C8.50939 11.8379 8.53073 12.0045 8.56806 12.1269C8.61073 12.2494 8.66373 12.3829 8.73839 12.5274C8.76506 12.5719 8.77572 12.6164 8.77572 12.6554C8.77572 12.7109 8.74372 12.7664 8.67473 12.8223L8.3394 13.0558C8.2914 13.0893 8.24373 13.1059 8.20106 13.1059C8.14773 13.1059 8.09473 13.0779 8.0414 13.0279C7.96673 12.9444 7.90307 12.8554 7.84974 12.7664C7.7964 12.6719 7.7434 12.5664 7.68474 12.4384C7.26974 12.95 6.74808 13.2059 6.12009 13.2059C5.6731 13.2059 5.31643 13.0724 5.05577 12.8054C4.79511 12.5384 4.66211 12.1825 4.66211 11.7375C4.66211 11.2649 4.82177 10.881 5.14644 10.5919C5.4711 10.3028 5.90209 10.158 6.45009 10.158C6.63108 10.158 6.81742 10.1745 7.01408 10.2025C7.21074 10.2304 7.41307 10.2749 7.62607 10.3249V9.91893C7.62607 9.49637 7.54107 9.20144 7.37608 9.02897C7.20574 8.8565 6.91841 8.77302 6.50875 8.77302C6.32242 8.77302 6.13109 8.7951 5.93409 8.84546C5.7371 8.89548 5.54576 8.95653 5.35943 9.03449C5.27443 9.07347 5.21044 9.09554 5.1731 9.10693C5.13577 9.11796 5.1091 9.12348 5.0881 9.12348C5.01344 9.12348 4.97644 9.06795 4.97644 8.95101V8.67851C4.97644 8.58951 4.98711 8.52294 5.01377 8.48396C5.04044 8.44498 5.08844 8.406 5.16277 8.36702C5.3491 8.26699 5.57243 8.18351 5.83343 8.11659C6.09409 8.04415 6.37075 8.01104 6.66342 8.01104C7.29674 8.01104 7.75974 8.16109 8.05773 8.46154C8.3504 8.76198 8.49939 9.218 8.49939 9.82959V11.6316H8.50939V11.6319ZM6.34875 12.477C6.52442 12.477 6.70542 12.4436 6.89675 12.377C7.08841 12.3104 7.25874 12.188 7.40241 12.021C7.48741 11.9155 7.55141 11.7985 7.58341 11.665C7.61541 11.5315 7.63674 11.3701 7.63674 11.1811V10.9475C7.48241 10.9086 7.31741 10.8751 7.14708 10.853C6.97675 10.831 6.81175 10.8196 6.64675 10.8196C6.29009 10.8196 6.02943 10.892 5.85376 11.0421C5.6781 11.1921 5.5931 11.4036 5.5931 11.6816C5.5931 11.9431 5.6571 12.1376 5.7901 12.2711C5.91776 12.4105 6.10409 12.477 6.34875 12.477ZM10.622 13.0779C10.5264 13.0779 10.4624 13.0614 10.4197 13.0224C10.377 12.9889 10.34 12.9113 10.308 12.8054L9.05739 8.50638C9.02539 8.39531 9.00939 8.32287 9.00939 8.28389C9.00939 8.19489 9.05205 8.14488 9.13705 8.14488H9.65871C9.75971 8.14488 9.82904 8.16143 9.86638 8.20041C9.90904 8.23387 9.94071 8.31148 9.97271 8.41738L10.8667 12.0993L11.6967 8.41738C11.7234 8.30631 11.7554 8.23387 11.7977 8.20041C11.8404 8.16695 11.9147 8.14488 12.0107 8.14488H12.4363C12.5373 8.14488 12.6067 8.16143 12.6493 8.20041C12.692 8.23387 12.729 8.31148 12.7503 8.41738L13.591 12.1438L14.5117 8.41738C14.5437 8.30631 14.581 8.23387 14.618 8.20041C14.6606 8.16695 14.7296 8.14488 14.8256 8.14488H15.3206C15.4056 8.14488 15.4536 8.18937 15.4536 8.28389C15.4536 8.31183 15.4483 8.33943 15.443 8.37288C15.4376 8.40634 15.427 8.45084 15.4056 8.5119L14.1233 12.8109C14.0913 12.922 14.054 12.9944 14.0117 13.0279C13.9693 13.0614 13.9 13.0834 13.8093 13.0834H13.3517C13.2507 13.0834 13.1813 13.0669 13.1387 13.0279C13.096 12.9889 13.059 12.9168 13.0377 12.8054L12.213 9.218L11.3937 12.7999C11.367 12.911 11.335 12.9834 11.2927 13.0224C11.25 13.0614 11.1757 13.0779 11.0797 13.0779H10.622ZM17.4599 13.228C17.1833 13.228 16.9066 13.1945 16.6406 13.1279C16.3746 13.0614 16.167 12.9889 16.0286 12.9055C15.9436 12.8554 15.885 12.7999 15.8636 12.7499C15.8423 12.6999 15.8316 12.6443 15.8316 12.5943V12.3108C15.8316 12.1938 15.8743 12.1383 15.954 12.1383C15.986 12.1383 16.018 12.1438 16.0496 12.1549C16.0816 12.1659 16.1293 12.1883 16.1826 12.2104C16.3636 12.2939 16.5603 12.3604 16.768 12.4049C16.981 12.4494 17.1883 12.4715 17.4013 12.4715C17.7366 12.4715 17.9973 12.4105 18.1783 12.288C18.3593 12.1655 18.4549 11.9876 18.4549 11.7595C18.4549 11.604 18.4069 11.476 18.3113 11.3701C18.2156 11.2646 18.0346 11.17 17.7739 11.081L17.0023 10.8306C16.614 10.7026 16.3266 10.5136 16.151 10.2632C15.9753 10.0186 15.885 9.74611 15.885 9.4567C15.885 9.22317 15.933 9.01724 16.0286 8.83925C16.1243 8.66126 16.2523 8.50569 16.4116 8.38323C16.5713 8.25526 16.7523 8.16074 16.965 8.09417C17.178 8.02794 17.4013 8 17.6356 8C17.7526 8 17.8749 8.00552 17.9923 8.02208C18.1146 8.03863 18.2263 8.06106 18.3383 8.08313C18.4446 8.11107 18.5459 8.13867 18.6416 8.17213C18.7373 8.20559 18.8119 8.2387 18.8653 8.27216C18.9399 8.31666 18.9929 8.36116 19.0249 8.41117C19.0569 8.45567 19.0729 8.51673 19.0729 8.59468V8.85615C19.0729 8.97309 19.0303 9.03414 18.9506 9.03414C18.9079 9.03414 18.8389 9.01207 18.7483 8.96757C18.4449 8.82304 18.1043 8.7506 17.7266 8.7506C17.4233 8.7506 17.184 8.80062 17.019 8.90617C16.854 9.01172 16.769 9.17316 16.769 9.40116C16.769 9.55673 16.8223 9.69023 16.9286 9.79613C17.035 9.90168 17.232 10.0076 17.5139 10.1021L18.2696 10.3525C18.6526 10.4805 18.9296 10.6585 19.0943 10.8865C19.2589 11.1145 19.3389 11.376 19.3389 11.665C19.3389 11.9041 19.2909 12.1211 19.2006 12.3101C19.1049 12.4991 18.9769 12.6661 18.8123 12.7996C18.6473 12.9386 18.4503 13.0386 18.2216 13.111C17.9813 13.189 17.7313 13.228 17.4599 13.228Z" fill="white"/>
<path d="M18.4654 15.931C16.7147 17.2825 14.1711 17.9999 11.9838 17.9999C8.91884 17.9999 6.15688 16.8154 4.0709 14.8465C3.9059 14.6909 4.0549 14.4794 4.2519 14.6019C6.5082 15.9699 9.29117 16.7988 12.1701 16.7988C14.1124 16.7988 16.2464 16.3763 18.2097 15.5084C18.5027 15.3694 18.7527 15.7085 18.4654 15.931ZM19.1944 15.0634C18.9707 14.763 17.7151 14.9189 17.1457 14.991C16.9754 15.0131 16.9487 14.8575 17.1031 14.7406C18.1034 14.0065 19.7477 14.2176 19.9394 14.4625C20.131 14.713 19.886 16.4315 18.9497 17.2545C18.806 17.3825 18.6677 17.3156 18.7314 17.149C18.9444 16.5984 19.418 15.358 19.1944 15.0634Z" fill="#FF9900"/>
</svg>
