<svg width="24" height="24" viewBox="0 0 24 24" fill="none" xmlns="http://www.w3.org/2000/svg">
<path fill-rule="evenodd" clip-rule="evenodd" d="M12 24C18.6274 24 24 18.6274 24 12C24 5.37258 18.6274 0 12 0C5.37258 0 0 5.37258 0 12C0 18.6274 5.37258 24 12 24Z" fill="#231F20"/>
<path d="M9.98031 6H13.5131L9.84562 16.8666C9.76844 17.0956 9.55375 17.2497 9.31187 17.2497H6.5625C6.25188 17.2497 6 16.9978 6 16.6872C6 16.6259 6.01 16.5653 6.02938 16.5072L9.44656 6.38344C9.52375 6.15438 9.73844 6 9.98031 6Z" fill="url(#paint0_linear)"/>
<path d="M15.1119 13.2888H9.50969C9.36656 13.2885 9.25031 13.4048 9.25 13.5479C9.25 13.6201 9.27969 13.6888 9.3325 13.7379L12.9325 17.0979C13.0372 17.1957 13.1753 17.2501 13.3188 17.2501H16.4909L15.1119 13.2888Z" fill="#0078D4"/>
<path d="M9.97967 6C9.73498 5.99907 9.51842 6.1575 9.44467 6.39063L6.0331 16.4984C5.92842 16.7903 6.08029 17.1122 6.37217 17.2169C6.43342 17.2388 6.4981 17.25 6.56342 17.25H9.38404C9.59779 17.2119 9.77467 17.0616 9.84685 16.8566L10.5272 14.8516L12.9572 17.1181C13.059 17.2025 13.1869 17.2491 13.319 17.25H16.4797L15.0934 13.2888L11.0525 13.2897L13.5253 6H9.97967Z" fill="url(#paint1_linear)"/>
<path d="M14.4921 6.38281C14.4149 6.15406 14.2005 6 13.959 6H10.0215C10.2627 6 10.4774 6.15406 10.5543 6.3825L13.9715 16.5072C14.0709 16.8016 13.9127 17.1206 13.6184 17.22C13.5605 17.24 13.4999 17.25 13.4387 17.25H17.3762C17.6868 17.25 17.9387 16.9981 17.9387 16.6872C17.9387 16.6259 17.9287 16.5653 17.909 16.5075L14.4921 6.38281Z" fill="url(#paint2_linear)"/>
<defs>
<linearGradient id="paint0_linear" x1="11.268" y1="6.83383" x2="7.59908" y2="17.6727" gradientUnits="userSpaceOnUse">
<stop stop-color="#114A8B"/>
<stop offset="1" stop-color="#0669BC"/>
</linearGradient>
<linearGradient id="paint1_linear" x1="12.4134" y1="11.8846" x2="11.5647" y2="12.1717" gradientUnits="userSpaceOnUse">
<stop stop-opacity="0.3"/>
<stop offset="0.071" stop-opacity="0.2"/>
<stop offset="0.321" stop-opacity="0.1"/>
<stop offset="0.623" stop-opacity="0.05"/>
<stop offset="1" stop-opacity="0"/>
</linearGradient>
<linearGradient id="paint2_linear" x1="11.9729" y1="6.50766" x2="16.0002" y2="17.2376" gradientUnits="userSpaceOnUse">
<stop stop-color="#3CCBF4"/>
<stop offset="1" stop-color="#2892DF"/>
</linearGradient>
</defs>
</svg>
