<svg width="20" height="20" viewBox="0 0 20 20" fill="none" xmlns="http://www.w3.org/2000/svg">
<path d="M13.2578 10.1491L20.0003 16.3491V3.68726L13.2578 10.1491Z" fill="white" fill-opacity="0.3"/>
<path d="M0 3.68726V16.3491L6.74249 10.1491L0 3.68726Z" fill="white" fill-opacity="0.3"/>
<path d="M18.7496 0H1.24961C0.625859 0 0.130859 0.676364 0.0371094 1.54727L9.9996 11.0945L19.9621 1.54727C19.8683 0.676364 19.3733 0 18.7496 0Z" fill="white" fill-opacity="0.6"/>
<path d="M12.1115 11.2472L10.3428 12.9417C10.2378 13.0417 10.119 13.0908 9.99905 13.0908C9.87905 13.0908 9.7603 13.0417 9.6553 12.9417L7.88655 11.2454L0.0390625 18.4654C0.135312 19.329 0.627812 19.9999 1.24906 19.9999H18.749C19.3703 19.9999 19.8628 19.329 19.959 18.4654L12.1115 11.2472Z" fill="white" fill-opacity="0.3"/>
</svg>
