<svg width="32" height="32" viewBox="0 0 32 32" fill="none" xmlns="http://www.w3.org/2000/svg">
<path d="M16 32C24.8367 32 32 24.8366 32 16C32 7.16343 24.8367 0 16 0C7.16324 0 0 7.16343 0 16C0 24.8366 7.16324 32 16 32Z" fill="white" fill-opacity="0.21"/>
<path d="M31.75 16C31.75 24.6985 24.6987 31.75 16 31.75C7.30131 31.75 0.25 24.6985 0.25 16C0.25 7.3015 7.30131 0.25 16 0.25C24.6987 0.25 31.75 7.3015 31.75 16Z" stroke="white" stroke-opacity="0.3" stroke-width="0.5"/>
<path d="M15.9992 28.8C23.0686 28.8 28.7992 23.0692 28.7992 16C28.7992 8.93069 23.0686 3.19995 15.9992 3.19995C8.92981 3.19995 3.19922 8.93069 3.19922 16C3.19922 23.0692 8.92981 28.8 15.9992 28.8Z" fill="white" fill-opacity="0.6"/>
<path d="M15.9718 6C14.8827 6 14 6.88271 14 7.97183C14 9.06095 14.8827 20.4329 15.9718 20.4329C17.061 20.4329 17.9437 9.06095 17.9437 7.97183C17.9437 6.88271 17.061 6 15.9718 6Z" fill="white"/>
<path d="M14.293 23.8225C14.293 24.7487 15.0453 25.501 15.9715 25.501C16.8976 25.501 17.65 24.7487 17.65 23.8225C17.65 22.8964 16.8976 22.144 15.9715 22.144C15.0453 22.144 14.293 22.8964 14.293 23.8225Z" fill="white"/>
</svg>
