<svg width="20" height="20" viewBox="0 0 20 20" fill="none" xmlns="http://www.w3.org/2000/svg">
<path d="M19.2469 0.00416133L14.4498 0C9.0604 0 5.57756 1.9319 5.57756 4.92203V7.19141H0.754296C0.337509 7.19141 0 7.37409 0 7.59943V10.8875C0 11.1128 0.337894 11.2953 0.754296 11.2953H5.57756V19.5922C5.57756 19.8175 5.91506 20 6.33185 20H12.6248C13.0416 20 13.3791 19.8173 13.3791 19.5922V11.2953H19.0186C19.4354 11.2953 19.7729 11.1128 19.7729 10.8875L19.7753 7.59943C19.7753 7.49123 19.6956 7.38762 19.5544 7.31105C19.4131 7.23448 19.2207 7.19141 19.0206 7.19141H13.3791V5.26763C13.3791 4.34298 13.7867 3.87358 16.0145 3.87358L19.2461 3.87295C19.6625 3.87295 20 3.69027 20 3.46514V0.411972C20 0.187052 19.6629 0.00457747 19.2469 0.00416133Z" fill="white" fill-opacity="0.3"/>
</svg>
