<svg width="32" height="32" viewBox="0 0 32 32" fill="none" xmlns="http://www.w3.org/2000/svg">
<path fill-rule="evenodd" clip-rule="evenodd" d="M3.55556 32H28.4444C30.4081 32 32 30.4081 32 28.4444V3.55556C32 1.59188 30.4081 0 28.4444 0H3.55556C1.59188 0 0 1.59188 0 3.55556V28.4444C0 30.4081 1.59188 32 3.55556 32Z" fill="#8D8D8D"/>
<path fill-rule="evenodd" clip-rule="evenodd" d="M16 5.33325C10.11 5.33325 5.33398 10.1275 5.33398 16.0429C5.33398 20.7735 8.38998 24.7874 12.6293 26.2037C13.1627 26.302 13.3573 25.9714 13.3573 25.6876C13.3573 25.4333 13.348 24.76 13.3427 23.8664C10.3753 24.5137 9.74932 22.4308 9.74932 22.4308C9.26465 21.1939 8.56532 20.8646 8.56532 20.8646C7.59665 20.2 8.63865 20.2133 8.63865 20.2133C9.70865 20.289 10.272 21.317 10.272 21.317C11.224 22.9535 12.7687 22.481 13.3767 22.2065C13.4733 21.5145 13.7493 21.0426 14.054 20.7749C11.6853 20.5045 9.19532 19.5862 9.19532 15.4827C9.19532 14.3134 9.61065 13.3576 10.2933 12.6086C10.1833 12.3376 9.81732 11.2493 10.3973 9.77479C10.3973 9.77479 11.2933 9.48699 13.3307 10.8725C14.182 10.6349 15.094 10.5164 16.0013 10.5117C16.9073 10.5164 17.82 10.6349 18.672 10.8725C20.708 9.48699 21.602 9.77479 21.602 9.77479C22.184 11.2493 21.818 12.3376 21.708 12.6086C22.392 13.3576 22.8046 14.3134 22.8046 15.4827C22.8046 19.5962 20.3107 20.5018 17.9347 20.7669C18.3173 21.0975 18.6586 21.7507 18.6586 22.75C18.6586 24.1817 18.6453 25.3362 18.6453 25.6876C18.6453 25.9741 18.8373 26.3074 19.3786 26.2023C23.614 24.7834 26.6673 20.7722 26.6673 16.0429C26.6673 10.1275 21.8913 5.33325 16 5.33325Z" fill="white"/>
</svg>
