<svg width="24" height="24" viewBox="0 0 24 24" fill="none" xmlns="http://www.w3.org/2000/svg">
<path fill-rule="evenodd" clip-rule="evenodd" d="M12 24C18.6274 24 24 18.6274 24 12C24 5.37258 18.6274 0 12 0C5.37258 0 0 5.37258 0 12C0 18.6274 5.37258 24 12 24Z" fill="#231F20"/>
<path d="M18.6975 13.4261C18.5557 12.5478 17.9792 11.8103 16.2719 11.1223C15.6788 10.8515 15.0176 10.6576 14.8205 10.2111C14.7505 9.95126 14.7413 9.80488 14.7855 9.64751C14.9126 9.137 15.5259 8.9778 16.0122 9.12419C16.3253 9.22849 16.6218 9.46821 16.8005 9.85062C17.6367 9.31268 17.6348 9.31632 18.2187 8.94672C18.005 8.61735 17.8908 8.46546 17.7508 8.32458C17.248 7.76649 16.5629 7.47921 15.467 7.50117C15.2773 7.52496 15.0857 7.55056 14.896 7.57436C14.349 7.7116 13.8278 7.99705 13.522 8.37948C12.6048 9.41332 12.8663 11.223 13.9825 11.9677C15.082 12.7875 16.6973 12.9741 16.9036 13.7408C17.1044 14.6795 16.2093 14.9832 15.3196 14.8753C14.6639 14.7399 14.2993 14.4087 13.9051 13.8067C13.1795 14.2239 13.1795 14.2239 12.4335 14.6502C12.6103 15.0345 12.7963 15.2083 13.0929 15.5413C14.4964 16.9558 18.0087 16.8862 18.6386 14.7454C18.6644 14.6722 18.8339 14.1818 18.6975 13.4261ZM11.4408 7.6146H9.6284C9.6284 9.16993 9.62105 10.7143 9.62105 12.2696C9.62105 13.2595 9.67262 14.1671 9.51054 14.4453C9.24532 14.9923 8.55831 14.9247 8.2452 14.8185C7.92657 14.663 7.76449 14.4416 7.57662 14.1287C7.52505 14.039 7.48637 13.9695 7.47346 13.964C6.98171 14.2623 6.49177 14.5623 6 14.8606C6.24498 15.3602 6.60596 15.7938 7.06826 16.0756C7.75894 16.4873 8.68722 16.6136 9.65788 16.3922C10.2896 16.2092 10.8348 15.8304 11.1203 15.254C11.5328 14.4983 11.4444 13.5834 11.4408 12.5715C11.45 10.9211 11.4408 9.27057 11.4408 7.6146Z" fill="white"/>
</svg>
