<svg width="32" height="32" viewBox="0 0 32 32" fill="none" xmlns="http://www.w3.org/2000/svg">
<path d="M26.4 0H5.6C2.50721 0 0 2.50721 0 5.6V26.4C0 29.4928 2.50721 32 5.6 32H26.4C29.4928 32 32 29.4928 32 26.4V5.6C32 2.50721 29.4928 0 26.4 0Z" fill="#8D8D8D"/>
<path d="M9.00914 11.77H4.49414V28.13H9.00914V11.77Z" fill="white"/>
<path d="M24.1001 11.7699C20.7701 10.4999 18.3601 12.6499 17.3301 13.8499V11.7699H12.8301V28.1299H17.3301V19.4999C17.3045 18.4061 17.7042 17.345 18.4451 16.5399C18.6566 16.291 18.9171 16.0883 19.2105 15.9446C19.5039 15.801 19.8237 15.7193 20.1501 15.7049C20.5151 15.6979 20.8777 15.7647 21.2162 15.9013C21.5547 16.0379 21.8622 16.2415 22.1201 16.4999C22.6793 17.0843 22.9849 17.8661 22.9701 18.6749V28.1299H28.0501V17.9999C28.0501 17.9999 28.6151 13.4599 24.1001 11.7699Z" fill="white"/>
<path d="M6.74969 9.51012C8.30713 9.51012 9.56969 8.24756 9.56969 6.69012C9.56969 5.13267 8.30713 3.87012 6.74969 3.87012C5.19224 3.87012 3.92969 5.13267 3.92969 6.69012C3.92969 8.24756 5.19224 9.51012 6.74969 9.51012Z" fill="white"/>
</svg>
