<svg width="24" height="24" viewBox="0 0 24 24" fill="none" xmlns="http://www.w3.org/2000/svg">
<path fill-rule="evenodd" clip-rule="evenodd" d="M12 24C18.6274 24 24 18.6274 24 12C24 5.37258 18.6274 0 12 0C5.37258 0 0 5.37258 0 12C0 18.6274 5.37258 24 12 24Z" fill="#231F20"/>
<path d="M17.9844 13.3062C17.9323 13.0801 17.7183 12.8165 17.2865 12.8165C17.1983 12.8165 17.1018 12.8271 16.9919 12.8489C16.7904 12.8887 16.6188 12.9081 16.4677 12.9146C17.644 10.9951 18.4076 8.32878 17.6514 7.4031C16.655 6.1835 15.3136 6.00136 14.6029 6.00136L14.536 6.00164C14.2716 6.00573 13.9973 6.03681 13.7212 6.09407L12.7014 6.30511C12.5626 6.28847 12.4211 6.27675 12.2737 6.2743H12.2651H12.2606L12.2173 6.27402C11.7639 6.27402 11.3504 6.36618 10.9818 6.53932L10.6258 6.4049C10.1363 6.22004 9.3997 6 8.6711 6C8.63011 6 8.58941 6.00082 8.54843 6.00218C7.83065 6.02699 7.21418 6.28793 6.76535 6.75663C6.20524 7.34176 5.95023 8.19763 6.00801 9.30081C6.01086 9.3578 6.70758 14.9994 8.68248 14.9994H8.6896L8.70781 14.9991C8.96424 14.9931 9.20872 14.8944 9.43727 14.7055C9.61173 14.8309 9.83743 14.905 10.0478 14.9345C10.1866 14.9658 10.4365 15.0103 10.7359 15.0103C11.1014 15.0103 11.431 14.9386 11.715 14.8091C11.7147 15.049 11.7133 15.3528 11.7104 15.741L11.7102 15.7615L11.7116 15.7819C11.7392 16.1688 11.8089 16.5176 11.9139 16.791C12.2131 17.5706 12.7296 18 13.3686 18C13.395 18 13.4221 17.9992 13.4494 17.9975C13.9748 17.9665 14.5073 17.6837 14.8736 17.2417C15.27 16.7632 15.3617 16.2583 15.397 15.8714L15.3993 15.8476V15.8236V14.7115L15.4286 14.7142L15.5527 14.7245L15.5646 14.7256L15.5766 14.7262C15.6119 14.7278 15.6483 14.7284 15.685 14.7284C16.1139 14.7284 16.6419 14.6218 16.9988 14.4628C17.34 14.3112 18.1198 13.8946 17.9844 13.3062Z" fill="white"/>
<path d="M14.8305 14.454C14.8305 14.3981 14.8339 14.3515 14.8356 14.3C14.8328 14.2315 14.8305 14.1814 14.8305 14.1814C14.8305 14.1814 14.8339 14.1789 14.8396 14.1754C14.882 13.4465 15.0918 13.1657 15.3163 13.0057C15.285 12.9639 15.2489 12.919 15.215 12.8761C15.1202 12.757 15.0021 12.6092 14.8758 12.4197L14.8524 12.3766C14.8334 12.3319 14.7872 12.2548 14.7286 12.1533C14.3919 11.5698 13.6912 10.356 14.1708 9.58924C14.3808 9.25332 14.7747 9.05973 15.3437 9.01202C15.1111 8.37863 14.2399 6.85092 12.2648 6.81957C12.2642 6.81957 12.2636 6.81957 12.2631 6.81957C10.5437 6.79285 9.97878 8.28974 9.79492 9.18407C10.0482 9.08127 10.3374 9.01883 10.6021 9.01883C10.6061 9.01883 10.6103 9.01883 10.6143 9.01883C11.2661 9.02347 11.7143 9.35666 11.8447 9.93333C11.94 10.3565 11.9858 10.7268 11.9847 11.0657C11.9819 11.807 11.8259 12.1969 11.6881 12.541L11.6443 12.6523C11.609 12.7434 11.5717 12.8282 11.5364 12.9078C11.5006 12.989 11.469 13.0613 11.4459 13.1264C11.5837 13.1564 11.6918 13.1987 11.7661 13.2301L11.8091 13.2481C11.8225 13.2535 11.8359 13.2598 11.8481 13.2669C12.0894 13.4076 12.2397 13.6238 12.2719 13.8757C12.2892 14.0115 12.2864 14.9372 12.2804 15.7448C12.3052 16.0952 12.3672 16.3894 12.4492 16.6026C12.5656 16.9063 12.8565 17.4863 13.4151 17.453C13.8051 17.4298 14.1799 17.2024 14.4286 16.9025C14.6956 16.5805 14.7941 16.2244 14.8311 15.8233V14.454H14.8305Z" fill="#0277BD"/>
<path d="M9.73871 13.0681C9.27963 12.6092 9.05593 11.9919 9.13989 11.4169C9.221 10.862 9.17518 10.3189 9.15042 10.0269C9.14217 9.92953 9.13676 9.85701 9.13705 9.81693C9.13705 9.81474 9.13761 9.81284 9.1379 9.81065C9.1379 9.80956 9.13733 9.80875 9.13733 9.80766C9.17177 8.98395 9.50334 7.68446 10.4161 6.91202C9.97152 6.74433 9.24747 6.5232 8.56783 6.54693C7.50282 6.58401 6.47197 7.28965 6.57556 9.27352C6.61455 10.0179 7.49257 14.4821 8.69305 14.454C8.86467 14.4499 9.04284 14.3444 9.22584 14.1334C9.51529 13.7999 9.79648 13.4976 9.99656 13.2871C9.90691 13.2219 9.82039 13.1499 9.73871 13.0681ZM15.9742 9.20017C15.9785 9.24216 15.9748 9.27815 15.9679 9.31142C15.9768 9.56226 15.9486 9.80575 15.9198 10.0413C15.8988 10.2147 15.8772 10.3939 15.8712 10.5736C15.8652 10.7494 15.8911 10.9231 15.9184 11.1069C15.9825 11.5371 16.0491 12.0227 15.7007 12.5893C15.7647 12.67 15.8211 12.745 15.8661 12.8175C17.1781 10.7794 17.7069 8.35656 17.2023 7.73899C16.4387 6.80432 15.3817 6.53384 14.5443 6.54693C14.2822 6.55102 14.044 6.58482 13.8405 6.62709C15.2852 7.29783 15.9287 8.73529 15.9742 9.20017ZM17.1061 13.3828C16.3476 13.5327 15.9827 13.4528 15.8057 13.3484C15.7773 13.368 15.7488 13.3847 15.7223 13.4002C15.6165 13.4616 15.4488 13.5592 15.4078 14.1587C15.4315 14.1631 15.4522 14.1656 15.4779 14.1707L15.6017 14.1814C15.9773 14.1977 16.4694 14.0969 16.758 13.9684C17.3799 13.692 17.7189 13.2617 17.1061 13.3828ZM11.7051 13.9412C11.6945 13.8599 11.6487 13.7942 11.565 13.7416L11.5343 13.7288C11.4316 13.6854 11.3152 13.6361 11.1293 13.6361H11.1282C11.092 13.6388 11.0562 13.6412 11.02 13.6412C11.0052 13.6412 10.9907 13.6393 10.9759 13.6388C10.841 13.7383 10.6492 13.8152 10.1744 13.9087C9.32631 14.1157 9.82694 14.36 10.1522 14.3979C10.467 14.4734 11.2153 14.5653 11.7122 14.1773C11.7108 14.0551 11.7085 13.9712 11.7051 13.9412Z" fill="#0277BD"/>
<path d="M11.3249 10.2282C11.2418 10.3105 11.1106 10.3825 10.9657 10.3601C10.7301 10.3236 10.5494 10.0512 10.5624 9.94896C10.575 9.84699 10.7762 9.79382 11.0116 9.83035C11.0932 9.84317 11.1675 9.86525 11.2301 9.89252C11.1391 9.70493 10.9743 9.59668 10.723 9.57024C10.2776 9.52279 9.80482 9.74583 9.70976 9.86934C9.71175 9.89934 9.71545 9.93778 9.71915 9.98304C9.74562 10.2958 9.79457 10.8785 9.70492 11.4928C9.64572 11.8977 9.81677 12.3568 10.1509 12.6911C10.3664 12.9065 10.6179 13.0428 10.8661 13.0832C10.8977 12.9528 10.9541 12.8258 11.0121 12.6946C11.0443 12.6224 11.0784 12.5455 11.1106 12.4623L11.1567 12.3459C11.2828 12.031 11.4129 11.7052 11.4154 11.0636C11.4166 10.8168 11.385 10.5352 11.3249 10.2282ZM15.3567 11.1841C15.3271 10.9853 15.2966 10.7795 15.304 10.5562C15.3106 10.3539 15.3339 10.163 15.3564 9.97841C15.3741 9.83308 15.3877 9.69348 15.3957 9.55579C15.0288 9.58496 14.7852 9.68639 14.6696 9.85789C14.7175 9.84235 14.7715 9.83008 14.8313 9.82272C15.0852 9.79109 15.2705 9.86116 15.2918 9.9964C15.3075 10.0954 15.2198 10.1886 15.1814 10.2243C15.1025 10.2977 15.0032 10.3449 14.9022 10.3574C14.884 10.3596 14.8655 10.3607 14.8475 10.3607C14.7471 10.3607 14.6511 10.3277 14.5774 10.2789C14.6093 10.8168 15.0234 11.5364 15.2272 11.8895C15.2707 11.965 15.3043 12.0253 15.3322 12.0771C15.4441 11.772 15.4028 11.4938 15.3567 11.1841Z" fill="#0277BD"/>
</svg>
