<svg width="24" height="24" viewBox="0 0 24 24" fill="none" xmlns="http://www.w3.org/2000/svg">
<path fill-rule="evenodd" clip-rule="evenodd" d="M12 24C18.6274 24 24 18.6274 24 12C24 5.37258 18.6274 0 12 0C5.37258 0 0 5.37258 0 12C0 18.6274 5.37258 24 12 24Z" fill="#231F20"/>
<path d="M13.7811 6.73877C13.5989 6.17775 12.9959 5.87025 12.4341 6.0525C11.8724 6.23476 11.5656 6.83777 11.7479 7.39953L14.5116 15.904C14.7014 16.4282 15.2676 16.723 15.8121 16.567C16.3791 16.4035 16.7256 15.8012 16.5441 15.244C16.5373 15.2222 13.7811 6.73877 13.7811 6.73877Z" fill="#FFC107"/>
<path d="M9.50008 8.13084C9.31708 7.56908 8.71409 7.26157 8.15309 7.44458C7.5921 7.62758 7.28385 8.22985 7.46685 8.79161L10.2306 17.2953C10.4203 17.8196 10.9866 18.1143 11.5311 17.9583C12.0981 17.7948 12.4446 17.1926 12.2631 16.6353C12.2563 16.6143 9.50008 8.13084 9.50008 8.13084Z" fill="#4CAF50"/>
<path d="M17.2603 13.7822C17.822 13.5999 18.1288 12.9969 17.9465 12.4351C17.7643 11.8734 17.1613 11.5666 16.5995 11.7489L8.09534 14.5134C7.57109 14.7032 7.27634 15.2694 7.43234 15.814C7.59584 16.381 8.19809 16.7275 8.75533 16.546C8.77708 16.5385 17.2603 13.7822 17.2603 13.7822Z" fill="#EC407A"/>
<path d="M9.86778 16.1845C10.4213 16.0045 11.1345 15.7728 11.9003 15.5238C11.7203 14.9702 11.4885 14.257 11.2395 13.4912L9.20703 14.152L9.86778 16.1845Z" fill="#472A49"/>
<path d="M14.151 14.7925C14.9197 14.5427 15.6337 14.3109 16.1835 14.1317C16.0035 13.5782 15.7717 12.8642 15.5227 12.0984L13.4902 12.7592L14.151 14.7925Z" fill="#CC2027"/>
<path d="M15.8692 9.49956C16.431 9.31731 16.7377 8.7143 16.5555 8.15253C16.3732 7.59077 15.7702 7.28401 15.2085 7.46627L6.70505 10.2301C6.18005 10.4198 5.8853 10.9861 6.04205 11.5306C6.20555 12.0976 6.8078 12.4434 7.36504 12.2626C7.38604 12.2559 15.8692 9.49956 15.8692 9.49956Z" fill="#2196F3"/>
<path d="M8.4764 11.9012C9.0299 11.7212 9.74389 11.4894 10.5096 11.2404C10.2599 10.4724 10.0281 9.7584 9.84889 9.20789L7.81641 9.86865L8.4764 11.9012Z" fill="#1A937D"/>
<path d="M12.7604 10.5099C13.5291 10.2601 14.2431 10.0283 14.7936 9.84909C14.5438 9.08033 14.3113 8.36631 14.1328 7.8158L12.0996 8.47656L12.7604 10.5099Z" fill="#65863A"/>
</svg>
