<svg width="24" height="24" viewBox="0 0 24 24" fill="none" xmlns="http://www.w3.org/2000/svg">
<path fill-rule="evenodd" clip-rule="evenodd" d="M12 24C18.6274 24 24 18.6274 24 12C24 5.37258 18.6274 0 12 0C5.37258 0 0 5.37258 0 12C0 18.6274 5.37258 24 12 24Z" fill="#231F20"/>
<path d="M12 16.4188C9.55961 16.4188 7.58124 14.4404 7.58124 12C7.58124 9.55961 9.55961 7.58128 12 7.58128C14.4404 7.58128 16.4187 9.55961 16.4187 12C16.4187 14.4404 14.4404 16.4188 12 16.4188V16.4188ZM12 6C8.68631 6 6 8.68636 6 12C6 15.3137 8.68631 18 12 18C15.3137 18 18 15.3137 18 12C18 8.68636 15.3137 6 12 6H12Z" fill="#CF272D"/>
<path d="M12.2463 10.5057C12.2463 9.81674 12.8049 9.25818 13.4939 9.25818C14.1829 9.25818 14.7415 9.81674 14.7415 10.5057C14.7415 11.1948 14.1829 11.7533 13.4939 11.7533C12.8049 11.7533 12.2463 11.1948 12.2463 10.5057V10.5057ZM12.2463 13.4943C12.2463 12.8053 12.8049 12.2467 13.4939 12.2467C14.1829 12.2467 14.7415 12.8053 14.7415 13.4943C14.7415 14.1833 14.1829 14.7419 13.4939 14.7419C12.8049 14.7419 12.2463 14.1833 12.2463 13.4943V13.4943ZM9.25781 13.4943C9.25781 12.8053 9.81643 12.2467 10.5054 12.2467C11.1944 12.2467 11.753 12.8053 11.753 13.4943C11.753 14.1833 11.1944 14.7419 10.5054 14.7419C9.81643 14.7419 9.25781 14.1833 9.25781 13.4943ZM9.25781 10.5058C9.25781 9.81674 9.81643 9.25823 10.5054 9.25823C11.1944 9.25823 11.753 9.81674 11.753 10.5058C11.753 11.1948 11.1944 11.7534 10.5054 11.7534C9.81643 11.7534 9.25781 11.1948 9.25781 10.5058Z" fill="#CF272D"/>
</svg>
