<svg width="32" height="32" viewBox="0 0 32 32" fill="none" xmlns="http://www.w3.org/2000/svg">
<path d="M26.4 0H5.6C2.50721 0 0 2.50721 0 5.6V26.4C0 29.4928 2.50721 32 5.6 32H26.4C29.4928 32 32 29.4928 32 26.4V5.6C32 2.50721 29.4928 0 26.4 0Z" fill="#8D8D8D"/>
<path d="M16 29C23.171 29 29 23.171 29 16C29 8.82903 23.171 3 16 3C8.82903 3 3 8.82903 3 16C3 23.171 8.82903 29 16 29ZM5.93548 21.179L11.2194 21.1371C11.8065 23.2548 12.7919 25.3097 14.1339 27.1548C10.5484 26.5677 7.55 24.2823 5.93548 21.179ZM12.5613 12.4355H19.1452C19.6274 14.7419 19.6274 17.1113 19.1871 19.4177L12.5613 19.4597C12.079 17.1323 12.079 14.7419 12.5613 12.4355ZM15.8532 26.6726C14.5323 24.9742 13.5677 23.1081 12.9806 21.1371L18.7468 21.0952C18.1387 23.0661 17.1742 24.9532 15.8532 26.6726ZM17.5306 27.2177C18.9145 25.3306 19.9 23.2548 20.4871 21.0742L26.1274 21.0323C24.4919 24.3242 21.3048 26.6935 17.5306 27.2177ZM27.3226 16C27.3226 17.1742 27.1339 18.3065 26.8194 19.3548L20.8855 19.3968C21.3048 17.0903 21.2839 14.7419 20.8435 12.4355H26.7355C27.1129 13.5468 27.3226 14.7629 27.3226 16ZM26.0226 10.7581H20.4452C19.8371 8.66129 18.8726 6.62742 17.5306 4.78226C21.2419 5.28548 24.3661 7.57097 26.0226 10.7581ZM18.7048 10.7581H13.0016C13.6097 8.82903 14.5532 7.00484 15.8532 5.32742C17.1532 7.00484 18.0968 8.82903 18.7048 10.7581ZM14.1339 4.84516C12.8129 6.66935 11.8484 8.66129 11.2613 10.7581H5.97742C7.59194 7.67581 10.5694 5.43226 14.1339 4.84516ZM10.8629 12.4355C10.4226 14.7629 10.4226 17.1323 10.8419 19.4597L5.24355 19.5016C4.86613 18.3903 4.67742 17.2161 4.67742 16C4.67742 14.7629 4.8871 13.5468 5.26452 12.4355H10.8629Z" fill="white"/>
</svg>
