<svg width="208" height="161" viewBox="0 0 208 161" fill="none" xmlns="http://www.w3.org/2000/svg">
<path d="M65.5089 156.97L4.37341 95.873C2.05322 93.5491 0.75 90.3994 0.75 87.1155C0.75 83.8316 2.05322 80.682 4.37341 78.358L11.8009 70.9211C14.1248 68.6009 17.2744 67.2978 20.5583 67.2978C23.8422 67.2978 26.9919 68.6009 29.3158 70.9211L73.7563 115.333L178.417 4.11257C180.669 1.72303 183.777 0.324745 187.059 0.22464C190.341 0.124535 193.529 1.3308 195.922 3.57864L203.55 10.7772C205.942 13.0296 207.343 16.1398 207.443 19.4242C207.543 22.7085 206.335 25.8982 204.084 28.2922L83.3195 156.694C82.1824 157.906 80.8133 158.877 79.2935 159.549C77.7737 160.221 76.1343 160.58 74.4728 160.606C72.8112 160.632 71.1614 160.323 69.6215 159.699C68.0816 159.074 66.683 158.146 65.5089 156.97Z" fill="white"/>
</svg>
