<svg width="1000" height="1000" viewBox="0 0 1000 1000" fill="none" xmlns="http://www.w3.org/2000/svg">
<path d="M0 500C0 776.142 223.858 1000 500 1000C776.142 1000 1000 776.142 1000 500C1000 223.858 776.142 0 500 0C223.858 0 0 223.858 0 500Z" fill="url(#paint0_linear_4644_25290)"/>
<path d="M855.201 406.341C846.612 392.742 828.002 382.721 797.939 382.721C782.9 382.579 768.033 385.939 754.517 392.536C741.001 399.133 729.205 408.785 720.064 420.728V420.728C720.918 416.749 720.871 412.628 719.926 408.669C718.981 404.71 717.161 401.013 714.601 397.849C712.041 394.684 708.805 392.133 705.13 390.383C701.456 388.632 697.436 387.726 693.366 387.731H673.682C667.448 387.72 661.398 389.844 656.54 393.752C651.682 397.659 648.309 403.113 646.984 409.204L632.239 477.775C625.797 508.553 615.06 527.879 591.44 527.879C574.977 527.879 572.114 516.784 577.125 493.88L592.943 420.657C593.796 416.673 593.749 412.55 592.804 408.588C591.859 404.625 590.04 400.924 587.481 397.755C584.922 394.585 581.688 392.027 578.014 390.268C574.339 388.51 570.319 387.594 566.245 387.588H545.917C539.683 387.577 533.633 389.701 528.775 393.608C523.917 397.516 520.544 402.969 519.219 409.061L515.354 427.385C511.918 397.609 491.233 382.721 458.092 382.721C446.322 382.178 434.571 384.15 423.623 388.507C412.675 392.864 402.782 399.505 394.604 407.988C395.067 405.492 394.974 402.924 394.331 400.469C393.688 398.013 392.511 395.729 390.884 393.781C389.257 391.833 387.22 390.267 384.918 389.197C382.617 388.126 380.107 387.577 377.568 387.588H337.199C333.204 387.591 329.333 388.975 326.241 391.506C323.15 394.037 321.028 397.558 320.235 401.474C318.303 411.28 315.941 422.947 312.648 439.123L303.988 480.209C298.405 453.009 275.357 433.183 214.946 418.008C180.231 409.419 168.779 404.767 168.779 390.809C168.779 377.925 180.589 368.62 200.273 368.62C219.956 368.62 231.552 374.418 237.063 381.79C239.784 385.675 243.376 388.87 247.552 391.119C251.728 393.369 256.372 394.611 261.113 394.746H264.835C271.546 394.768 278.086 392.636 283.495 388.663C288.904 384.691 292.895 379.088 294.882 372.678C296.869 366.268 296.747 359.39 294.533 353.055C292.32 346.72 288.132 341.262 282.586 337.484C264.835 325.603 237.994 317.944 200.416 317.944C130.271 317.944 86.2508 351.227 86.2508 402.047C86.2508 437.119 108.797 457.161 176.08 474.339C214.373 484.36 222.247 491.876 222.247 505.475C222.247 523.369 205.426 529.453 182.879 529.453C160.333 529.453 147.449 522.868 139.933 512.203C137.168 507.894 133.383 504.334 128.914 501.837C124.444 499.34 119.428 497.983 114.309 497.888H103.501C97.7343 497.621 92.0132 499.024 87.0244 501.928C82.0356 504.833 77.991 509.115 75.3762 514.262C72.7614 519.408 71.6874 525.2 72.2832 530.942C72.8791 536.684 75.1194 542.132 78.7352 546.632C98.2041 569.179 131.988 580.989 178.943 580.989C234.057 580.989 271.993 564.956 291.032 539.188C290.177 543.528 290.292 548.003 291.37 552.293C292.448 556.583 294.461 560.582 297.266 564.002C300.071 567.423 303.598 570.18 307.593 572.078C311.589 573.975 315.955 574.965 320.379 574.976H334.694C341.752 575.224 348.67 572.968 354.224 568.605C359.779 564.243 363.611 558.057 365.043 551.141L380.145 477.99C386.587 447.927 398.755 435.044 418.081 435.044C437.407 435.044 439.554 448.285 435.975 466.179L422.733 530.599C421.604 536.01 421.697 541.605 423.005 546.976C424.313 552.347 426.803 557.358 430.294 561.644C433.785 565.93 438.188 569.384 443.183 571.752C448.178 574.12 453.638 575.344 459.166 575.334C467.7 575.333 475.974 572.394 482.596 567.01C489.218 561.627 493.784 554.127 495.527 545.773C495.527 545.336 495.701 544.918 496.009 544.609C496.318 544.3 496.737 544.127 497.173 544.127C497.61 544.127 498.029 544.3 498.337 544.609C498.646 544.918 498.82 545.336 498.82 545.773C505.333 569.25 525.518 580.345 554.435 580.345C589.508 580.345 604.539 568.176 615.991 556.366C615.698 558.734 615.909 561.138 616.612 563.418C617.315 565.699 618.493 567.804 620.069 569.596C621.645 571.388 623.582 572.826 625.754 573.815C627.926 574.804 630.282 575.322 632.668 575.334H674.111C678.042 575.348 681.852 573.978 684.875 571.466C687.897 568.954 689.94 565.458 690.646 561.591C692.578 551.213 695.012 539.045 698.161 524.371C707.108 555.221 731.659 574.475 767.018 574.475C795.649 574.475 810.68 567.318 824.637 553.002L821.774 564.454C814.617 592.369 812.899 603.034 786.773 603.034C770.812 603.034 747.406 587.717 729.941 587.717C722.44 587.634 715.073 589.705 708.713 593.682C702.352 597.659 697.266 603.377 694.057 610.158C690.847 616.938 689.65 624.496 690.605 631.937C691.561 639.377 694.631 646.387 699.45 652.136C713.765 668.885 736.741 681.84 773.46 681.84C850.047 681.84 884.404 625.509 898.719 557.154L923.056 441.557C924.559 434.399 926.062 427.242 927.565 420.657C928.467 416.688 928.465 412.567 927.558 408.6C926.651 404.632 924.863 400.919 922.326 397.737C919.79 394.554 916.57 391.983 912.904 390.214C909.239 388.445 905.223 387.523 901.153 387.517H881.255C875.478 387.49 869.842 389.299 865.159 392.682C860.477 396.066 856.99 400.848 855.201 406.341ZM841.601 480.423C835.875 505.833 824.065 524.085 800.802 524.085C781.477 524.085 773.245 513.349 773.245 492.591C773.245 468.613 787.561 433.54 816.191 433.54C840.17 433.54 847.327 453.224 841.601 480.423Z" fill="white"/>
<defs>
<linearGradient id="paint0_linear_4644_25290" x1="-91.4752" y1="841.457" x2="1091.48" y2="158.471" gradientUnits="userSpaceOnUse">
<stop stop-color="#EAB6C0"/>
<stop offset="1" stop-color="#F16486"/>
</linearGradient>
</defs>
</svg>
