<svg width="1000" height="1000" viewBox="0 0 1000 1000" fill="none" xmlns="http://www.w3.org/2000/svg">
<rect width="1000" height="1000" rx="500" fill="url(#paint0_linear_4644_25289)"/>
<path d="M500 926.467L835 427.662C835 427.662 783.272 137 500 137C216.728 137 165 427.662 165 427.662L500 926.467Z" fill="#330000" stroke="black" stroke-miterlimit="10"/>
<path d="M499.348 329.132C503.461 320.129 539.363 245.382 603.148 240.714C616.579 239.84 630.036 241.943 642.56 246.872C724.524 277.244 749.107 408.042 752.174 425.457L498.769 802.073L246.287 425.198C249.354 407.783 273.925 276.998 355.901 246.614C368.425 241.685 381.882 239.582 395.313 240.456C459.098 245.136 495.259 320.129 499.385 329.132" fill="white"/>
<path d="M499.348 329.132C503.461 320.129 539.363 245.382 603.148 240.714C616.579 239.84 630.036 241.943 642.56 246.872C724.524 277.244 749.107 408.042 752.174 425.457L498.769 802.073L246.287 425.198C249.354 407.783 273.925 276.998 355.901 246.614C368.425 241.685 381.882 239.582 395.313 240.456C459.098 245.136 495.259 320.129 499.385 329.132" stroke="black" stroke-miterlimit="10"/>
<path d="M381.764 472C404.211 472 422.408 443.878 422.408 409.188C422.408 374.497 404.211 346.375 381.764 346.375C359.318 346.375 341.121 374.497 341.121 409.188C341.121 443.878 359.318 472 381.764 472Z" fill="#330000"/>
<path d="M388.538 388.25C397.04 388.25 403.933 381.357 403.933 372.855C403.933 364.352 397.04 357.459 388.538 357.459C380.035 357.459 373.143 364.352 373.143 372.855C373.143 381.357 380.035 388.25 388.538 388.25Z" fill="white"/>
<path d="M404.55 394.408C407.611 394.408 410.092 391.927 410.092 388.866C410.092 385.805 407.611 383.324 404.55 383.324C401.489 383.324 399.008 385.805 399.008 388.866C399.008 391.927 401.489 394.408 404.55 394.408Z" fill="white"/>
<path d="M618.85 471.384C641.297 471.384 659.494 443.262 659.494 408.572C659.494 373.881 641.297 345.759 618.85 345.759C596.404 345.759 578.207 373.881 578.207 408.572C578.207 443.262 596.404 471.384 618.85 471.384Z" fill="#330000"/>
<path d="M625.626 387.634C634.128 387.634 641.021 380.742 641.021 372.239C641.021 363.736 634.128 356.844 625.626 356.844C617.123 356.844 610.23 363.736 610.23 372.239C610.23 380.742 617.123 387.634 625.626 387.634Z" fill="white"/>
<path d="M641.636 393.792C644.697 393.792 647.178 391.311 647.178 388.25C647.178 385.189 644.697 382.708 641.636 382.708C638.575 382.708 636.094 385.189 636.094 388.25C636.094 391.311 638.575 393.792 641.636 393.792Z" fill="white"/>
<path d="M429.146 515.723L499.349 604.399L569.551 515.723C569.551 515.723 565.856 494.785 499.349 494.785C432.841 494.785 429.146 515.723 429.146 515.723Z" fill="#FF6464"/>
<defs>
<linearGradient id="paint0_linear_4644_25289" x1="512.5" y1="-3.49247e-08" x2="500" y2="1000" gradientUnits="userSpaceOnUse">
<stop stop-color="#9D74AD"/>
<stop offset="1" stop-color="#E8B5C0"/>
</linearGradient>
</defs>
</svg>
