<svg width="1000" height="1000" viewBox="0 0 1000 1000" fill="none" xmlns="http://www.w3.org/2000/svg">
<rect width="1000" height="1000" rx="500" fill="url(#paint0_linear_4644_25300)"/>
<path d="M625.216 351.58C625.216 279.021 566.179 220 493.612 220H476.731C413.463 220 362 271.448 362 334.703V844.992C362 852.087 367.749 857.84 374.85 857.84C381.951 857.84 387.7 852.087 387.7 844.992V701.822C415.933 745.236 464.777 774.083 520.366 774.083C607.69 774.083 678.733 703.061 678.733 615.752C678.733 543.133 629.566 481.886 562.8 463.297C600.188 440.096 625.216 398.766 625.216 351.58ZM494.277 457.425H424.05C416.95 457.425 411.2 463.178 411.2 470.273C411.2 477.368 416.95 483.121 424.05 483.121H493.015C493.193 483.142 493.394 483.155 493.612 483.155C493.922 483.155 494.199 483.134 494.307 483.126L494.326 483.125L494.378 483.121H520.366C593.515 483.121 653.033 542.625 653.033 615.756C653.033 688.883 593.515 748.387 520.366 748.387C447.218 748.387 387.7 688.883 387.7 615.756V334.703C387.7 285.63 427.646 245.696 476.731 245.696H493.612C552.003 245.696 599.516 293.202 599.516 351.58C599.516 409.73 552.363 457.062 494.277 457.425Z" fill="white" stroke="white" stroke-width="10"/>
<defs>
<linearGradient id="paint0_linear_4644_25300" x1="0" y1="500" x2="1000" y2="500" gradientUnits="userSpaceOnUse">
<stop stop-color="#7454C5"/>
<stop offset="1" stop-color="#D775D9"/>
</linearGradient>
</defs>
</svg>
