<svg width="332" height="634" viewBox="0 0 332 634" fill="none" xmlns="http://www.w3.org/2000/svg">
<path opacity="0.111111" d="M544.735 450.975L621.222 211.559C635.01 168.401 611.207 122.217 568.057 108.404L308.841 25.4282C265.691 11.6156 219.534 35.4049 205.746 78.5631L129.259 317.979C115.471 361.137 139.274 407.321 182.424 421.133L441.64 504.109C484.79 517.922 530.947 494.133 544.735 450.975Z" stroke="#E672BD" stroke-width="0.592481" stroke-linecap="round"/>
<path opacity="0.222222" d="M539.629 463.969L618.613 216.739C632.401 173.581 608.598 127.397 565.448 113.584L298.419 28.107C255.268 14.2944 209.111 38.0837 195.323 81.2419L116.339 328.472C102.551 371.631 126.354 417.814 169.505 431.627L436.534 517.104C479.684 530.917 525.841 507.128 539.629 463.969Z" stroke="#DA6DC5" stroke-width="0.774782" stroke-linecap="round"/>
<path opacity="0.333333" d="M534.524 476.964L616.004 221.92C629.791 178.762 605.989 132.578 562.838 118.765L287.997 30.7872C244.846 16.9746 198.689 40.7639 184.901 83.9221L103.421 338.966C89.6331 382.125 113.436 428.309 156.586 442.121L431.428 530.099C474.578 543.912 520.736 520.123 534.524 476.964Z" stroke="#CE69CE" stroke-width="0.957084" stroke-linecap="round"/>
<path opacity="0.444444" d="M529.418 489.959L613.394 227.1C627.182 183.942 603.379 137.758 560.229 123.945L277.574 33.466C234.424 19.6534 188.266 43.4427 174.478 86.6009L90.5016 349.46C76.7136 392.618 100.517 438.802 143.667 452.615L426.322 543.094C469.472 556.907 515.63 533.117 529.418 489.959Z" stroke="#C265D6" stroke-width="1.13939" stroke-linecap="round"/>
<path opacity="0.555556" d="M524.312 502.954L610.785 232.281C624.573 189.123 600.77 142.939 557.62 129.126L267.152 36.1462C224.002 22.3336 177.844 46.1229 164.056 89.2811L77.5833 359.954C63.7954 403.112 87.5984 449.296 130.749 463.109L421.216 556.089C464.366 569.902 510.524 546.112 524.312 502.954Z" stroke="#B660DE" stroke-width="1.32169" stroke-linecap="round"/>
<path opacity="0.666667" d="M519.202 515.949L608.172 237.461C621.959 194.303 598.157 148.119 555.006 134.306L256.725 38.8251C213.575 25.0125 167.417 48.8018 153.63 91.9601L64.66 370.448C50.8721 413.606 74.675 459.79 117.825 473.603L416.106 569.084C459.256 582.897 505.414 559.107 519.202 515.949Z" stroke="#AA5CE6" stroke-width="1.50399" stroke-linecap="round"/>
<path opacity="0.777778" d="M514.096 528.945L605.562 242.642C619.35 199.484 595.547 153.3 552.397 139.487L246.303 41.5054C203.153 27.6927 156.996 51.4821 143.208 94.6403L51.7414 380.943C37.9535 424.101 61.7564 470.285 104.907 484.098L411 582.08C454.15 595.892 500.308 572.103 514.096 528.945Z" stroke="#9E58EF" stroke-width="1.68629" stroke-linecap="round"/>
<path opacity="0.888889" d="M508.99 541.94L602.953 247.823C616.741 204.665 592.938 158.481 549.787 144.668L235.881 44.1851C192.73 30.3725 146.573 54.1618 132.785 97.3201L38.8223 391.437C25.0344 434.595 48.8373 480.779 91.9875 494.592L405.894 595.075C449.045 608.887 495.202 585.098 508.99 541.94Z" stroke="#9253F7" stroke-width="1.86859" stroke-linecap="round"/>
<path d="M503.884 554.935L600.343 253.003C614.131 209.845 590.328 163.661 547.178 149.848L225.458 46.8641C182.307 33.0515 136.15 56.8408 122.362 99.999L25.9028 401.931C12.1149 445.089 35.9178 491.273 79.0681 505.085L400.788 608.07C443.939 621.882 490.096 598.093 503.884 554.935Z" stroke="#864FFF" stroke-width="2.05089" stroke-linecap="round"/>
</svg>
