<svg width="1440" height="881" viewBox="0 0 1440 881" fill="none" xmlns="http://www.w3.org/2000/svg">
<g clip-path="url(#clip0_4649_25272)">
<path d="M0 0H1440V880H0V0Z" fill="#1F1F47"/>
<path opacity="0.2" d="M-214.355 292.857C105.879 -99.8544 293.854 132.465 712.867 168.224C1131.88 203.983 1400.5 378.851 1561.27 347.794C1722.03 316.737 1909.75 570.37 1909.75 570.37L-205.021 545.455L-214.355 292.857Z" fill="url(#paint0_linear_4649_25272)"/>
<path d="M-181.047 366C199.999 -45 390.999 212.75 643.999 265C896.999 317.25 741.998 435 1101 380C1460 325 2088 625 2088 625H-181.047V366Z" fill="#18204D"/>
<path d="M1281.83 439.904C1069.03 358.011 803.003 398 717.003 424C631.003 450 418.391 442.546 253.003 424C87.6146 405.454 55.0092 497.048 -24.1133 516.829C-24.1133 604 -24.1133 738.811 -24.1133 738.811H1522.07L1517 516.829C1517 516.829 1495.02 521.947 1281.83 439.904Z" fill="url(#paint1_linear_4649_25272)"/>
<path d="M1319.87 479.764C1107.07 397.872 1009.97 479.629 787.991 498.608C566.008 517.588 438.533 581.279 273.145 562.733C107.757 544.187 57.976 639.109 -21.1465 658.889C-21.1465 746.822 -21.1465 880.872 -21.1465 880.872H1555.04V556.689C1555.04 556.689 1533.06 561.807 1319.87 479.764Z" fill="#1F1F47"/>
</g>
<defs>
<linearGradient id="paint0_linear_4649_25272" x1="-214.355" y1="67.5006" x2="-214.355" y2="570.37" gradientUnits="userSpaceOnUse">
<stop stop-color="#A5D7F2"/>
<stop offset="1" stop-color="#FF9CE3"/>
</linearGradient>
<linearGradient id="paint1_linear_4649_25272" x1="742.51" y1="301.94" x2="703.108" y2="611.322" gradientUnits="userSpaceOnUse">
<stop stop-color="#647F9D" stop-opacity="0.58"/>
<stop offset="1" stop-color="#192150"/>
</linearGradient>
<clipPath id="clip0_4649_25272">
<rect width="1440" height="881" fill="white"/>
</clipPath>
</defs>
</svg>
