<svg width="1440" height="998" viewBox="0 0 1440 998" fill="none" xmlns="http://www.w3.org/2000/svg">
<rect width="1440" height="800" fill="url(#paint0_linear_1457_20645)"/>
<path opacity="0.111111" d="M-60.9805 732.406C44.7614 711.572 161.799 687.989 385.322 662.176C608.845 636.362 686.541 626.184 819.501 596.353C952.461 566.523 993.446 561.672 1283.46 545.643C1574.01 529.584 1982.65 438.923 1982.65 438.923" stroke="url(#paint1_linear_1457_20645)" stroke-width="1.11111"/>
<path opacity="0.222222" d="M-86.342 700.238C20.1477 678.372 137.993 653.403 363.806 633.919C589.619 614.435 668.064 605.894 801.823 573.069C935.582 540.245 976.982 536.499 1270.65 536.838C1564.86 537.177 1975.99 437.789 1975.99 437.789" stroke="url(#paint2_linear_1457_20645)" stroke-width="1.22222"/>
<path opacity="0.333333" d="M-111.451 667.526C-4.14559 644.648 114.591 618.314 342.541 605.232C570.49 592.149 649.651 585.268 784.353 549.469C919.056 513.671 960.846 511.043 1257.68 527.869C1555.06 544.725 1969.12 436.675 1969.12 436.675" stroke="url(#paint3_linear_1457_20645)" stroke-width="1.33333"/>
<path opacity="0.444444" d="M-136.291 634.27C-28.1016 610.403 91.6093 582.73 321.541 576.116C551.472 569.503 631.314 564.304 767.105 525.556C902.895 486.808 945.048 485.311 1244.56 518.731C1544.63 552.212 1962.04 435.576 1962.04 435.576" stroke="url(#paint4_linear_1457_20645)" stroke-width="1.44444"/>
<path opacity="0.555556" d="M-160.85 600.472C-51.7109 575.641 69.0575 546.655 300.813 546.575C532.569 546.495 613.058 543 750.08 501.331C887.103 459.663 929.591 459.309 1231.3 509.418C1533.56 559.619 1954.75 434.486 1954.75 434.486" stroke="url(#paint5_linear_1457_20645)" stroke-width="1.55556"/>
<path opacity="0.666667" d="M-185.113 566.135C-74.9568 540.366 46.951 510.097 280.373 516.611C513.795 523.126 594.895 521.356 733.292 476.799C871.69 432.242 914.487 433.042 1217.89 499.924C1521.85 566.928 1947.24 433.399 1947.24 433.399" stroke="url(#paint6_linear_1457_20645)" stroke-width="1.66667"/>
<path opacity="0.777778" d="M-209.07 531.26C-97.8307 504.583 25.2979 473.062 260.226 486.228C495.154 499.394 576.829 499.37 716.744 451.962C856.659 404.554 899.738 406.518 1204.35 490.243C1509.51 574.122 1939.52 432.311 1939.52 432.311" stroke="url(#paint7_linear_1457_20645)" stroke-width="1.77778"/>
<path opacity="0.888889" d="M-232.702 495.85C-120.315 468.295 4.11484 435.558 240.387 455.429C476.66 475.301 558.874 477.041 700.448 426.823C842.022 376.605 885.354 379.743 1190.67 480.371C1496.55 581.183 1931.59 431.214 1931.59 431.214" stroke="url(#paint8_linear_1457_20645)" stroke-width="1.88889"/>
<path d="M-256.001 182.908C-142.402 154.508 -36.5087 79.2347 200.945 105.862C438.399 132.489 516.029 228.985 690.487 205.947C864.945 182.908 877.418 157.285 1182.95 274.862C1489.03 392.654 1923.45 153.105 1923.45 153.105" stroke="url(#paint9_linear_1457_20645)"/>
<g filter="url(#filter0_f_1457_20645)">
<path d="M-214.1 561.862C399.946 525.862 427.946 431.862 723.946 395.862C1019.95 359.862 1157.98 589.168 1325.95 552.862C1493.92 516.557 2054.95 823.862 2054.95 823.862L-214.1 823.862L-214.1 561.862Z" fill="url(#paint10_linear_1457_20645)"/>
</g>
<g filter="url(#filter1_f_1457_20645)">
<path d="M1224.95 523.491C1012.15 441.598 953.932 460.883 731.949 479.862C509.967 498.842 357.337 573.408 191.949 554.862C26.5612 536.316 21.9578 605.91 -57.1648 625.691C-57.1648 712.862 -57.1648 847.674 -57.1648 847.674L1489.02 847.674V523.491C1489.02 523.491 1438.14 605.534 1224.95 523.491Z" fill="url(#paint11_linear_1457_20645)"/>
</g>
<rect x="1" y="400" width="1440" height="400" fill="url(#paint12_linear_1457_20645)"/>
<path d="M1155.95 622.862C943.148 540.969 881.932 603.882 659.949 622.862C437.967 641.842 369.337 689.408 203.949 670.862C38.5612 652.316 24.9246 734.47 -54.198 754.251C-54.198 842.183 -54.198 976.233 -54.198 976.233L1521.99 976.233L1521.99 652.051C1521.99 652.051 1369.14 704.905 1155.95 622.862Z" fill="url(#paint13_linear_1457_20645)"/>
<g clip-path="url(#clip0_1457_20645)">
<g clip-path="url(#clip1_1457_20645)">
<circle cx="39.4453" cy="41.3618" r="0.5" fill="white" fill-opacity="0.5"/>
<circle cx="69.4453" cy="61.3618" r="0.5" fill="white" fill-opacity="0.5"/>
<circle cx="109.445" cy="51.3618" r="0.5" fill="white" fill-opacity="0.5"/>
<circle cx="129.445" cy="21.3618" r="0.5" fill="white" fill-opacity="0.5"/>
<circle cx="179.445" cy="41.3618" r="0.5" fill="white" fill-opacity="0.5"/>
<circle cx="238.445" cy="51.3618" r="0.5" fill="white" fill-opacity="0.5"/>
<circle cx="268.445" cy="71.3618" r="0.5" fill="white" fill-opacity="0.5"/>
<circle cx="308.445" cy="61.3618" r="0.5" fill="white" fill-opacity="0.5"/>
<circle cx="328.445" cy="31.3618" r="0.5" fill="white" fill-opacity="0.5"/>
<circle cx="378.445" cy="51.3618" r="0.5" fill="white" fill-opacity="0.5"/>
<circle cx="37.4453" cy="112.362" r="0.5" fill="white" fill-opacity="0.5"/>
<circle cx="67.4453" cy="132.362" r="0.5" fill="white" fill-opacity="0.5"/>
<circle cx="107.445" cy="122.362" r="0.5" fill="white" fill-opacity="0.5"/>
<circle cx="127.445" cy="92.3618" r="0.5" fill="white" fill-opacity="0.5"/>
<circle cx="177.445" cy="112.362" r="0.5" fill="white" fill-opacity="0.5"/>
<circle cx="381.445" cy="41.3618" r="0.5" fill="white" fill-opacity="0.5"/>
<circle cx="411.445" cy="61.3618" r="0.5" fill="white" fill-opacity="0.5"/>
<circle cx="451.445" cy="51.3618" r="0.5" fill="white" fill-opacity="0.5"/>
<circle cx="471.445" cy="21.3618" r="0.5" fill="white" fill-opacity="0.5"/>
<circle cx="521.445" cy="41.3618" r="0.5" fill="white" fill-opacity="0.5"/>
<circle cx="580.445" cy="51.3618" r="0.5" fill="white" fill-opacity="0.5"/>
<circle cx="610.445" cy="71.3618" r="0.5" fill="white" fill-opacity="0.5"/>
<circle cx="650.445" cy="61.3618" r="0.5" fill="white" fill-opacity="0.5"/>
<circle cx="670.445" cy="31.3618" r="0.5" fill="white" fill-opacity="0.5"/>
<circle cx="720.445" cy="51.3618" r="0.5" fill="white" fill-opacity="0.5"/>
<circle cx="379.445" cy="112.362" r="0.5" fill="white" fill-opacity="0.5"/>
<circle cx="409.445" cy="132.362" r="0.5" fill="white" fill-opacity="0.5"/>
<circle cx="449.445" cy="122.362" r="0.5" fill="white" fill-opacity="0.5"/>
<circle cx="469.445" cy="92.3618" r="0.5" fill="white" fill-opacity="0.5"/>
<circle cx="519.445" cy="112.362" r="0.5" fill="white" fill-opacity="0.5"/>
<circle cx="723.445" cy="41.3618" r="0.5" fill="white" fill-opacity="0.5"/>
<circle cx="753.445" cy="61.3618" r="0.5" fill="white" fill-opacity="0.5"/>
<circle cx="793.445" cy="51.3618" r="0.5" fill="white" fill-opacity="0.5"/>
<circle cx="813.445" cy="21.3618" r="0.5" fill="white" fill-opacity="0.5"/>
<circle cx="863.445" cy="41.3618" r="0.5" fill="white" fill-opacity="0.5"/>
<circle cx="922.445" cy="51.3618" r="0.5" fill="white" fill-opacity="0.5"/>
<circle cx="952.445" cy="71.3618" r="0.5" fill="white" fill-opacity="0.5"/>
<circle cx="992.445" cy="61.3618" r="0.5" fill="white" fill-opacity="0.5"/>
<circle cx="1012.45" cy="31.3618" r="0.5" fill="white" fill-opacity="0.5"/>
<circle cx="1062.45" cy="51.3618" r="0.5" fill="white" fill-opacity="0.5"/>
<circle cx="721.445" cy="112.362" r="0.5" fill="white" fill-opacity="0.5"/>
<circle cx="751.445" cy="132.362" r="0.5" fill="white" fill-opacity="0.5"/>
<circle cx="791.445" cy="122.362" r="0.5" fill="white" fill-opacity="0.5"/>
<circle cx="811.445" cy="92.3618" r="0.5" fill="white" fill-opacity="0.5"/>
<circle cx="861.445" cy="112.362" r="0.5" fill="white" fill-opacity="0.5"/>
<circle cx="1065.45" cy="41.3618" r="0.5" fill="white" fill-opacity="0.5"/>
<circle cx="1095.45" cy="61.3618" r="0.5" fill="white" fill-opacity="0.5"/>
<circle cx="1135.45" cy="51.3618" r="0.5" fill="white" fill-opacity="0.5"/>
<circle cx="1155.45" cy="21.3618" r="0.5" fill="white" fill-opacity="0.5"/>
<circle cx="1205.45" cy="41.3618" r="0.5" fill="white" fill-opacity="0.5"/>
<circle cx="1264.45" cy="51.3618" r="0.5" fill="white" fill-opacity="0.5"/>
<circle cx="1294.45" cy="71.3618" r="0.5" fill="white" fill-opacity="0.5"/>
<circle cx="1334.45" cy="61.3618" r="0.5" fill="white" fill-opacity="0.5"/>
<circle cx="1354.45" cy="31.3618" r="0.5" fill="white" fill-opacity="0.5"/>
<circle cx="1404.45" cy="51.3618" r="0.5" fill="white" fill-opacity="0.5"/>
<circle cx="1063.45" cy="112.362" r="0.5" fill="white" fill-opacity="0.5"/>
<circle cx="1093.45" cy="132.362" r="0.5" fill="white" fill-opacity="0.5"/>
<circle cx="1133.45" cy="122.362" r="0.5" fill="white" fill-opacity="0.5"/>
<circle cx="1153.45" cy="92.3618" r="0.5" fill="white" fill-opacity="0.5"/>
<circle cx="1203.45" cy="112.362" r="0.5" fill="white" fill-opacity="0.5"/>
</g>
<g clip-path="url(#clip2_1457_20645)">
<circle cx="39.4453" cy="153.362" r="0.5" fill="white" fill-opacity="0.5"/>
<circle cx="69.4453" cy="173.362" r="0.5" fill="white" fill-opacity="0.5"/>
<circle cx="109.445" cy="163.362" r="0.5" fill="white" fill-opacity="0.5"/>
<circle cx="129.445" cy="133.362" r="0.5" fill="white" fill-opacity="0.5"/>
<circle cx="179.445" cy="153.362" r="0.5" fill="white" fill-opacity="0.5"/>
<circle cx="238.445" cy="163.362" r="0.5" fill="white" fill-opacity="0.5"/>
<circle cx="268.445" cy="183.362" r="0.5" fill="white" fill-opacity="0.5"/>
<circle cx="308.445" cy="173.362" r="0.5" fill="white" fill-opacity="0.5"/>
<circle cx="328.445" cy="143.362" r="0.5" fill="white" fill-opacity="0.5"/>
<circle cx="378.445" cy="163.362" r="0.5" fill="white" fill-opacity="0.5"/>
<circle cx="37.4453" cy="224.362" r="0.5" fill="white" fill-opacity="0.5"/>
<circle cx="67.4453" cy="244.362" r="0.5" fill="white" fill-opacity="0.5"/>
<circle cx="107.445" cy="234.362" r="0.5" fill="white" fill-opacity="0.5"/>
<circle cx="127.445" cy="204.362" r="0.5" fill="white" fill-opacity="0.5"/>
<circle cx="177.445" cy="224.362" r="0.5" fill="white" fill-opacity="0.5"/>
<circle cx="381.445" cy="153.362" r="0.5" fill="white" fill-opacity="0.5"/>
<circle cx="411.445" cy="173.362" r="0.5" fill="white" fill-opacity="0.5"/>
<circle cx="451.445" cy="163.362" r="0.5" fill="white" fill-opacity="0.5"/>
<circle cx="471.445" cy="133.362" r="0.5" fill="white" fill-opacity="0.5"/>
<circle cx="521.445" cy="153.362" r="0.5" fill="white" fill-opacity="0.5"/>
<circle cx="580.445" cy="163.362" r="0.5" fill="white" fill-opacity="0.5"/>
<circle cx="610.445" cy="183.362" r="0.5" fill="white" fill-opacity="0.5"/>
<circle cx="650.445" cy="173.362" r="0.5" fill="white" fill-opacity="0.5"/>
<circle cx="670.445" cy="143.362" r="0.5" fill="white" fill-opacity="0.5"/>
<circle cx="720.445" cy="163.362" r="0.5" fill="white" fill-opacity="0.5"/>
<circle cx="379.445" cy="224.362" r="0.5" fill="white" fill-opacity="0.5"/>
<circle cx="409.445" cy="244.362" r="0.5" fill="white" fill-opacity="0.5"/>
<circle cx="449.445" cy="234.362" r="0.5" fill="white" fill-opacity="0.5"/>
<circle cx="469.445" cy="204.362" r="0.5" fill="white" fill-opacity="0.5"/>
<circle cx="519.445" cy="224.362" r="0.5" fill="white" fill-opacity="0.5"/>
<circle cx="723.445" cy="153.362" r="0.5" fill="white" fill-opacity="0.5"/>
<circle cx="753.445" cy="173.362" r="0.5" fill="white" fill-opacity="0.5"/>
<circle cx="793.445" cy="163.362" r="0.5" fill="white" fill-opacity="0.5"/>
<circle cx="813.445" cy="133.362" r="0.5" fill="white" fill-opacity="0.5"/>
<circle cx="863.445" cy="153.362" r="0.5" fill="white" fill-opacity="0.5"/>
<circle cx="922.445" cy="163.362" r="0.5" fill="white" fill-opacity="0.5"/>
<circle cx="952.445" cy="183.362" r="0.5" fill="white" fill-opacity="0.5"/>
<circle cx="992.445" cy="173.362" r="0.5" fill="white" fill-opacity="0.5"/>
<circle cx="1012.45" cy="143.362" r="0.5" fill="white" fill-opacity="0.5"/>
<circle cx="1062.45" cy="163.362" r="0.5" fill="white" fill-opacity="0.5"/>
<circle cx="721.445" cy="224.362" r="0.5" fill="white" fill-opacity="0.5"/>
<circle cx="751.445" cy="244.362" r="0.5" fill="white" fill-opacity="0.5"/>
<circle cx="791.445" cy="234.362" r="0.5" fill="white" fill-opacity="0.5"/>
<circle cx="811.445" cy="204.362" r="0.5" fill="white" fill-opacity="0.5"/>
<circle cx="861.445" cy="224.362" r="0.5" fill="white" fill-opacity="0.5"/>
<circle cx="1065.45" cy="153.362" r="0.5" fill="white" fill-opacity="0.5"/>
<circle cx="1095.45" cy="173.362" r="0.5" fill="white" fill-opacity="0.5"/>
<circle cx="1135.45" cy="163.362" r="0.5" fill="white" fill-opacity="0.5"/>
<circle cx="1155.45" cy="133.362" r="0.5" fill="white" fill-opacity="0.5"/>
<circle cx="1205.45" cy="153.362" r="0.5" fill="white" fill-opacity="0.5"/>
<circle cx="1264.45" cy="163.362" r="0.5" fill="white" fill-opacity="0.5"/>
<circle cx="1294.45" cy="183.362" r="0.5" fill="white" fill-opacity="0.5"/>
<circle cx="1334.45" cy="173.362" r="0.5" fill="white" fill-opacity="0.5"/>
<circle cx="1354.45" cy="143.362" r="0.5" fill="white" fill-opacity="0.5"/>
<circle cx="1404.45" cy="163.362" r="0.5" fill="white" fill-opacity="0.5"/>
<circle cx="1063.45" cy="224.362" r="0.5" fill="white" fill-opacity="0.5"/>
<circle cx="1093.45" cy="244.362" r="0.5" fill="white" fill-opacity="0.5"/>
<circle cx="1133.45" cy="234.362" r="0.5" fill="white" fill-opacity="0.5"/>
<circle cx="1153.45" cy="204.362" r="0.5" fill="white" fill-opacity="0.5"/>
<circle cx="1203.45" cy="224.362" r="0.5" fill="white" fill-opacity="0.5"/>
</g>
</g>
<rect x="1" width="1440" height="400" fill="url(#paint14_linear_1457_20645)"/>
<defs>
<filter id="filter0_f_1457_20645" x="-364.1" y="242.013" width="2569.04" height="731.849" filterUnits="userSpaceOnUse" color-interpolation-filters="sRGB">
<feFlood flood-opacity="0" result="BackgroundImageFix"/>
<feBlend mode="normal" in="SourceGraphic" in2="BackgroundImageFix" result="shape"/>
<feGaussianBlur stdDeviation="75" result="effect1_foregroundBlur_1457_20645"/>
</filter>
<filter id="filter1_f_1457_20645" x="-207.164" y="313.274" width="1846.19" height="684.4" filterUnits="userSpaceOnUse" color-interpolation-filters="sRGB">
<feFlood flood-opacity="0" result="BackgroundImageFix"/>
<feBlend mode="normal" in="SourceGraphic" in2="BackgroundImageFix" result="shape"/>
<feGaussianBlur stdDeviation="75" result="effect1_foregroundBlur_1457_20645"/>
</filter>
<linearGradient id="paint0_linear_1457_20645" x1="937.407" y1="50.5076" x2="937.407" y2="342.419" gradientUnits="userSpaceOnUse">
<stop stop-color="#252569"/>
<stop offset="1" stop-color="#28234D"/>
</linearGradient>
<linearGradient id="paint1_linear_1457_20645" x1="1980.88" y1="426.292" x2="1985.08" y2="456.215" gradientUnits="userSpaceOnUse">
<stop stop-color="#FF7373"/>
<stop offset="1" stop-color="#491EB8"/>
</linearGradient>
<linearGradient id="paint2_linear_1457_20645" x1="1973.7" y1="419.113" x2="1979.13" y2="463.355" gradientUnits="userSpaceOnUse">
<stop stop-color="#FF7373"/>
<stop offset="1" stop-color="#491EB8"/>
</linearGradient>
<linearGradient id="paint3_linear_1457_20645" x1="1966.52" y1="411.934" x2="1972.68" y2="470.543" gradientUnits="userSpaceOnUse">
<stop stop-color="#FF7373"/>
<stop offset="1" stop-color="#491EB8"/>
</linearGradient>
<linearGradient id="paint4_linear_1457_20645" x1="1959.34" y1="404.755" x2="1965.73" y2="477.766" gradientUnits="userSpaceOnUse">
<stop stop-color="#FF7373"/>
<stop offset="1" stop-color="#491EB8"/>
</linearGradient>
<linearGradient id="paint5_linear_1457_20645" x1="1952.16" y1="397.577" x2="1958.28" y2="485.01" gradientUnits="userSpaceOnUse">
<stop stop-color="#FF7373"/>
<stop offset="1" stop-color="#491EB8"/>
</linearGradient>
<linearGradient id="paint6_linear_1457_20645" x1="1944.99" y1="390.398" x2="1950.32" y2="492.262" gradientUnits="userSpaceOnUse">
<stop stop-color="#FF7373"/>
<stop offset="1" stop-color="#491EB8"/>
</linearGradient>
<linearGradient id="paint7_linear_1457_20645" x1="1937.81" y1="383.219" x2="1941.87" y2="499.51" gradientUnits="userSpaceOnUse">
<stop stop-color="#FF7373"/>
<stop offset="1" stop-color="#491EB8"/>
</linearGradient>
<linearGradient id="paint8_linear_1457_20645" x1="1930.63" y1="376.041" x2="1932.91" y2="506.74" gradientUnits="userSpaceOnUse">
<stop stop-color="#FF7373"/>
<stop offset="1" stop-color="#491EB8"/>
</linearGradient>
<linearGradient id="paint9_linear_1457_20645" x1="1923.45" y1="100.253" x2="1923.45" y2="307.437" gradientUnits="userSpaceOnUse">
<stop stop-color="#FF7373"/>
<stop offset="1" stop-color="#491EB8"/>
</linearGradient>
<linearGradient id="paint10_linear_1457_20645" x1="-60.2159" y1="243.346" x2="-60.2158" y2="769.862" gradientUnits="userSpaceOnUse">
<stop stop-color="#4B20DD"/>
<stop offset="0.484375" stop-color="#DB5356"/>
<stop offset="1" stop-color="#FF5F8F" stop-opacity="0"/>
</linearGradient>
<linearGradient id="paint11_linear_1457_20645" x1="775.7" y1="486.163" x2="775.7" y2="696.985" gradientUnits="userSpaceOnUse">
<stop stop-color="#3899CF"/>
<stop offset="1" stop-color="#5B3C87"/>
</linearGradient>
<linearGradient id="paint12_linear_1457_20645" x1="721" y1="400" x2="721" y2="800" gradientUnits="userSpaceOnUse">
<stop stop-opacity="0"/>
<stop offset="1" stop-opacity="0.3"/>
</linearGradient>
<linearGradient id="paint13_linear_1457_20645" x1="794.827" y1="547.004" x2="794.827" y2="975.862" gradientUnits="userSpaceOnUse">
<stop stop-color="#1F1F47"/>
<stop offset="1" stop-color="#1F1F47"/>
</linearGradient>
<linearGradient id="paint14_linear_1457_20645" x1="721" y1="0" x2="721" y2="400" gradientUnits="userSpaceOnUse">
<stop stop-opacity="0.3"/>
<stop offset="1" stop-opacity="0"/>
</linearGradient>
<clipPath id="clip0_1457_20645">
<rect width="1368" height="224" fill="white" transform="translate(36.9453 20.8618)"/>
</clipPath>
<clipPath id="clip1_1457_20645">
<rect width="1368" height="112" fill="white" transform="translate(36.9453 20.8618)"/>
</clipPath>
<clipPath id="clip2_1457_20645">
<rect width="1368" height="112" fill="white" transform="translate(36.9453 132.862)"/>
</clipPath>
</defs>
</svg>
