<svg width="1440" height="900" viewBox="0 0 1440 900" fill="none" xmlns="http://www.w3.org/2000/svg">
<g clip-path="url(#clip0_4657_25304)">
<rect width="1440" height="900" fill="#1F1F47"/>
<path d="M966.601 358.293C753.799 276.401 750.716 243.07 580.216 264.675C409.716 286.279 373.989 144.84 208.601 126.294C43.2125 107.747 -25.3469 128.117 -104.469 147.898C-104.469 235.069 -49.4695 533.279 -49.4695 533.279L1496.72 533.279L1439.6 283.328C1439.6 283.328 1179.79 440.336 966.601 358.293Z" fill="url(#paint0_linear_4657_25304)"/>
<path d="M839.739 403.68C626.938 321.787 620.239 410.201 456.739 424.18C293.239 438.16 277.489 291.945 112.101 273.399C-53.2875 254.853 -98.8777 337.568 -178 357.348C-178 445.281 -46.5002 1065.59 -46.5002 1065.59L1475.6 1065.59L1475.6 326.998C1475.6 326.998 1052.93 485.723 839.739 403.68Z" fill="url(#paint1_linear_4657_25304)"/>
<path d="M932.934 531.578C720.147 478.749 689.811 476.807 589.957 500.613C490.103 524.419 432.495 522.836 267.118 510.872C101.74 498.908 14.1178 514.148 -64.9995 526.908C-64.9995 583.634 -65 900 -65 900L1457 900L1452.9 513.517C1452.9 513.517 1146.11 584.504 932.934 531.578Z" fill="#1F1F47"/>
</g>
<defs>
<linearGradient id="paint0_linear_4657_25304" x1="775.5" y1="233.5" x2="807" y2="413.5" gradientUnits="userSpaceOnUse">
<stop stop-color="#A24B6D"/>
<stop offset="0.838542" stop-color="#733988"/>
</linearGradient>
<linearGradient id="paint1_linear_4657_25304" x1="652.836" y1="285.68" x2="652.836" y2="500.584" gradientUnits="userSpaceOnUse">
<stop stop-color="#311C79"/>
<stop offset="1" stop-color="#422376"/>
</linearGradient>
<clipPath id="clip0_4657_25304">
<rect width="1440" height="900" fill="white"/>
</clipPath>
</defs>
</svg>
